<svg xmlns="http://www.w3.org/2000/svg" xmlns:xlink="http://www.w3.org/1999/xlink" width="884.886" height="819.405" viewBox="0 0 884.886 819.405"><defs><style>.a{fill:url(#a);}.b,.m{opacity:0.2;}.c{fill:url(#b);}.d{opacity:0.1;}.e{fill:url(#c);}.f,.w{opacity:0.38;}.f{fill:url(#d);}.g{opacity:0.15;}.h{fill:#a5a5a5;}.i{fill:url(#e);}.j{fill:url(#f);}.k{fill:#bfbfbf;}.l{opacity:0.36;fill:url(#g);}.n{fill:#6432ff;}.o{opacity:0.6;}.p{fill:#6a6a6a;}.q{fill:url(#k);}.r{fill:url(#l);}.s{fill:#fff;}.t{fill:url(#m);}.u{clip-path:url(#n);}.v{fill:#545557;}.x{opacity:0.72;}.y{fill:#878787;}.z{fill:url(#o);}.aa{fill:url(#p);}.ab{clip-path:url(#q);}.ac{fill:url(#r);}.ad{fill:url(#s);}.ae{fill:url(#t);}.af{fill:url(#u);}.ag{fill:url(#v);}.ah{fill:url(#w);}.ai{fill:url(#x);}.aj{fill:url(#ab);}.ak{fill:url(#ac);}.al{fill:url(#ad);}.am{fill:url(#ae);}</style><linearGradient id="a" x1="0.932" x2="-0.039" y2="0.888" gradientUnits="objectBoundingBox"><stop offset="0" stop-color="#0564ff" stop-opacity="0"/><stop offset="1" stop-color="#0564ff"/></linearGradient><linearGradient id="b" x1="0.258" y1="-1.248" x2="0.5" y2="1" gradientUnits="objectBoundingBox"><stop offset="0" stop-color="#898989"/><stop offset="1" stop-color="#cbcbcb"/></linearGradient><linearGradient id="c" x1="1.435" y1="-0.176" x2="0" y2="0.965" gradientUnits="objectBoundingBox"><stop offset="0" stop-opacity="0.059"/><stop offset="1" stop-opacity="0.18"/></linearGradient><linearGradient id="d" x1="-0.268" y1="-0.311" x2="1.084" y2="1.263" gradientUnits="objectBoundingBox"><stop offset="0" stop-opacity="0"/><stop offset="1"/></linearGradient><linearGradient id="e" x1="0.885" y1="0.396" x2="0.053" y2="0.965" gradientUnits="objectBoundingBox"><stop offset="0" stop-color="#0b49db"/><stop offset="1"/></linearGradient><linearGradient id="f" x1="0.068" x2="1.039" y2="0.888" gradientUnits="objectBoundingBox"><stop offset="0" stop-color="#0564ff" stop-opacity="0"/><stop offset="0.636" stop-color="#0564ff"/><stop offset="0.862" stop-color="#0564ff" stop-opacity="0.278"/><stop offset="1" stop-color="#0564ff" stop-opacity="0"/></linearGradient><linearGradient id="g" x1="0.177" y1="0.071" x2="0.969" y2="0.853" gradientUnits="objectBoundingBox"><stop offset="0" stop-color="#14e65a"/><stop offset="1" stop-color="#14e65a" stop-opacity="0"/></linearGradient><linearGradient id="k" x1="-0.198" y1="-0.018" x2="1.26" y2="1.405" xlink:href="#d"/><linearGradient id="l" x1="0.527" y1="0.5" x2="0.716" y2="1.099" gradientUnits="objectBoundingBox"><stop offset="0"/><stop offset="1" stop-opacity="0.361"/></linearGradient><linearGradient id="m" x1="0.039" y1="1.198" x2="1.724" y2="0.5" gradientUnits="objectBoundingBox"><stop offset="0" stop-color="#e2e2e2" stop-opacity="0"/><stop offset="1" stop-color="#e2e2e2"/></linearGradient><clipPath id="n"><path d="M37.236,31.326a10.507,10.507,0,0,1-9.578,0L2,16.528c-2.636-1.54-2.636-4.019,0-5.559L18.914,1.13a10.508,10.508,0,0,1,9.578,0l25.629,14.8c2.662,1.54,2.662,4.019.026,5.559L37.236,31.326" transform="translate(-0.025 0.025)"/></clipPath><linearGradient id="o" x1="0.577" y1="0.313" x2="0.27" y2="1.077" gradientUnits="objectBoundingBox"><stop offset="0" stop-color="#fff"/><stop offset="1" stop-color="#f1f1f1"/></linearGradient><linearGradient id="p" x1="0.141" y1="0.62" x2="1.084" y2="0.144" gradientUnits="objectBoundingBox"><stop offset="0" stop-color="#d8d9da"/><stop offset="1" stop-color="#fff"/></linearGradient><clipPath id="q"><path d="M51.64,10.488c2.524,1.457,2.5,3.826-.026,5.283L27.151,29.9a10.089,10.089,0,0,1-9.135,0L1.855,20.507c-2.524-1.457-2.5-3.826.026-5.283L26.344,1.093a10.089,10.089,0,0,1,9.135,0L51.64,10.488" transform="translate(0.025 0)"/></clipPath><linearGradient id="r" x1="0.955" y1="0.5" x2="0.695" y2="1.166" gradientUnits="objectBoundingBox"><stop offset="0" stop-color="#3882fb"/><stop offset="1" stop-color="#002387"/></linearGradient><linearGradient id="s" x1="0.5" x2="0.5" y2="1" gradientUnits="objectBoundingBox"><stop offset="0" stop-color="#0564ff"/><stop offset="1" stop-color="#002387"/></linearGradient><linearGradient id="t" x1="0.5" x2="0.5" y2="1.398" gradientUnits="objectBoundingBox"><stop offset="0" stop-color="#fff"/><stop offset="1" stop-color="#0564ff"/></linearGradient><linearGradient id="u" x1="-0.588" y1="-0.046" x2="0.5" y2="0.78" gradientUnits="objectBoundingBox"><stop offset="0" stop-color="#0564ff"/><stop offset="1" stop-color="#0564ff" stop-opacity="0"/></linearGradient><linearGradient id="v" x1="0.584" y1="0.214" x2="0.5" y2="1" gradientUnits="objectBoundingBox"><stop offset="0" stop-color="#14e65a"/><stop offset="1" stop-color="#006839"/></linearGradient><linearGradient id="w" x1="0.286" y1="-0.068" x2="0.714" y2="1.601" gradientUnits="objectBoundingBox"><stop offset="0" stop-color="#14e65a"/><stop offset="1" stop-color="#008a4b"/></linearGradient><linearGradient id="x" x1="-0.222" y1="0.794" x2="1" y2="0.187" gradientUnits="objectBoundingBox"><stop offset="0" stop-color="#14e65a"/><stop offset="1" stop-color="#baffd1"/></linearGradient><linearGradient id="ab" x1="0.5" x2="0" y2="1.948" gradientUnits="objectBoundingBox"><stop offset="0" stop-color="#fff" stop-opacity="0"/><stop offset="1" stop-color="#fff"/></linearGradient><linearGradient id="ac" x2="0.316" y2="2.04" xlink:href="#ab"/><linearGradient id="ad" x1="0.642" y1="0.5" x2="0.591" y2="1.268" xlink:href="#ab"/><linearGradient id="ae" x1="0.76" y1="-0.949" x2="0.5" y2="1.236" gradientUnits="objectBoundingBox"><stop offset="0" stop-color="#fff"/><stop offset="1" stop-color="#fff" stop-opacity="0"/></linearGradient></defs><path class="a" d="M12588.814,19697.635l157.952-91.207,157.244-90.783-.991-.568-156.96,90.645v.283l-.279-.145-156.821,90.5Zm-8.624-4.949,158.092-91.207,157.1-90.783-.99-.568-157.105,90.645v.139l-157.1,90.645Zm-8.628-4.949,158.1-91.207,157.244-90.783-.99-.568-157.245,90.645v.139l-156.961,90.645Zm-8.764-4.949,158.23-91.348,157.105-90.783-.991-.566-157.1,90.783-157.1,90.645Zm-8.629-5.09,158.1-91.35,157.24-90.779-.986-.568-157.244,90.783-157.105,90.785Z" transform="translate(-12019.125 -19307.543)"/><g class="b" transform="translate(808.319 496.829) rotate(120)"><path class="c" d="M1704.557,144.8c102.862,59.391,185.937,203.346,185.618,321.525-.32,118.214-83.962,165.9-186.824,106.513S1517.343,369.488,1517.7,251.274C1518.017,133.1,1601.7,85.406,1704.557,144.8Z" transform="translate(-1517.697 -119.25)"/></g><g class="d" transform="translate(0.411 262.643)"><path d="M823.557,377.353,334.474,661.624,93.7,522.571,582.612,238.3Z" transform="translate(-93.7 -238.3)"/></g><g transform="translate(240.946 339.933)"><path class="e" d="M723.383,319.5l-.171,34.934L234.3,638.534V603.771Z" transform="translate(-234.3 -319.5)"/></g><path class="f" d="M334.545,543.353v34.763L93.6,439.063l.171-34.763Z" transform="translate(-93.6 80.852)"/><g class="g" transform="translate(0.172 200.88)"><path class="h" d="M823.557,377.353,334.474,661.624,93.7,522.571,582.612,238.3Z" transform="translate(-93.7 -238.3)"/></g><path class="i" d="M119.5,496.713,564.23,238.3,805.175,377.353,360.445,635.765Z" transform="translate(-75.147 -37.418)"/><path class="j" d="M12700.1,19746.037v-35.254l-22.9-13.148-157.952-91.207L12362,19515.645l.991-.568,156.96,90.645v.283l.279-.145,156.821,90.5,24.039,13.861v35.25l168.134,97v1.135Zm8.629-4.949v-35.109l-22.908-13.293-158.092-91.207-157.1-90.783.99-.568,157.105,90.645v.139l157.1,90.645,24.039,13.857-.14,35.109,168.129,97.146v1.131Zm8.624-4.953v-35.105l-22.9-13.293-158.1-91.207-157.244-90.783.99-.568,157.245,90.645v.139l156.961,90.645,24.039,13.857v35.109l168.134,97.146v1.131Zm8.769-4.945v-35.254l-22.909-13.148-158.23-91.348-157.105-90.783.991-.566,157.1,90.783,157.1,90.645,24.039,13.855v35.25l168.134,97.008v1.129Zm8.623-5.088.145-35.115-23.048-13.289-158.1-91.35-157.24-90.779.986-.568,157.244,90.783,157.105,90.785,24.039,13.855-.145,35.109,168.273,97v1.273Z" transform="translate(-12243.125 -19212.543)"/><path class="k" d="M233.016,465.629,164.175,425.9,153.9,431.723l68.842,39.9,10.275-5.994" transform="translate(-50.637 96.241)"/><g transform="translate(-575 -250.699)"><path class="l" d="M22.273,0l178.3,102.89L178.3,115.842,0,12.831Z" transform="translate(1026.433 519.333)"/><path class="l" d="M14.777,0l118.3,68.264L118.3,76.858,0,8.513Z" transform="translate(1004 538.028)"/></g><g transform="translate(-899 -152.699)"><path class="l" d="M22.273,0l178.3,102.89L178.3,115.842,0,12.831Z" transform="translate(1026.433 519.333)"/><path class="l" d="M14.777,0l118.3,68.264L118.3,76.858,0,8.513Z" transform="translate(1004 538.028)"/></g><path class="m" d="M515.467,356.037,344.062,455.5,146.738,342.148l171.4-99.619Z" transform="translate(53.596 26.486)"/><path class="n" d="M709.3,541.705,547.95,635.649,385.4,541.705,546.755,448Z" transform="translate(-135.419 -185.575)"/><g transform="translate(134.695 190.586)"><g class="o" transform="translate(262.962 151.937)"><path class="p" d="M425.4,304v2.433L254,406.052v-2.586Z" transform="translate(-254 -304)"/></g><g transform="translate(0 99.618)"><path class="q" d="M344.062,421.385v2.586L81.1,272.034V269.6Z" transform="translate(-81.1 -269.6)"/></g><path class="r" d="M515.467,356.037,344.062,455.5,81.1,303.719,252.5,204.1Z" transform="translate(-81.1 -204.1)"/><g transform="translate(219.313 119.276)"><path class="s" d="M303.723,302.411c-6.54-3.8-6.692-10.038-.152-13.84s17.186-3.8,23.878,0c6.54,3.8,6.692,10.038,0,13.84-6.388,3.8-17.034,3.8-23.726,0m27.68-16.121c-8.669-5.019-22.813-5.019-31.482,0s-8.669,13.232.152,18.251c8.669,5.019,22.813,5.019,31.482,0,8.517-5.019,8.517-13.232-.152-18.251" transform="translate(-189.808 -282.525)"/><path class="s" d="M320.392,288.981a15.13,15.13,0,0,0-7.909-1.673,14.426,14.426,0,0,0-4.867.913l-1.521-.913-1.673.913,1.369.76c-.3.152-.456.3-.76.456-.152.152-.3.152-.456.3l-1.217-.76-1.673.913,1.521.913a4.214,4.214,0,0,0-1.673,2.586c-.456,1.825.76,3.5,3.042,4.867a16.865,16.865,0,0,0,4.563,1.673l1.977-1.825a12.957,12.957,0,0,1-3.346-1.217c-1.217-.608-1.977-1.521-1.825-2.433a1.839,1.839,0,0,1,.913-1.369l5.931,3.346,1.673-.913-6.236-3.65a.531.531,0,0,0,.3-.152c.3-.152.456-.3.76-.456l6.236,3.65L317.2,294l-5.931-3.346a6.1,6.1,0,0,1,2.281-.456,7.152,7.152,0,0,1,4.106.913,9.19,9.19,0,0,1,2.129,1.825l3.346-1.217a5.931,5.931,0,0,0-2.738-2.738" transform="translate(-185.641 -280.046)"/><path class="s" d="M329.663,308.065c1.217.608,2.281.912,2.89.456.76-.456.456-1.065-.76-2.281-1.673-1.825-2.281-3.5,0-4.867,1.977-1.217,5.019-1.369,8.061-.152L341.83,300l2.586,1.521-1.825,1.065a7.4,7.4,0,0,1,2.738,2.433l-3.65,1.369a7.841,7.841,0,0,0-2.586-2.433c-1.369-.76-2.129-.76-2.738-.456s-.152,1.065,1.065,2.433c1.825,2.129,1.673,3.5-.3,4.715a9.452,9.452,0,0,1-8.365,0l-2.281,1.369-2.586-1.521,2.129-1.217a9.31,9.31,0,0,1-3.042-2.89l3.8-1.369a6.78,6.78,0,0,0,2.89,3.042M348.522,296.2c-4.411-2.585-10.19-3.8-15.969-3.8-.76,3.194-3.194,6.084-7.3,8.517a34.863,34.863,0,0,1-14.753,4.258c0,3.346,2.129,6.692,6.54,9.277,8.669,5.019,22.813,5.019,31.482,0,8.821-5.019,8.821-13.08,0-18.251" transform="translate(-180.92 -277.381)"/><path class="s" d="M255.718,336.423l-4.867-2.89-17.034,4.258,8.365-7.148c.913-.76.76-1.673-.3-2.281l-7.909-4.563-.608.3a18.95,18.95,0,0,1,3.042,3.5c.3.608.152.913-.456,1.521L225.3,339.617l4.867,2.89,25.551-6.084m6.692,3.954L257.7,337.64l-21.749,8.213,4.715,2.738,21.749-8.213m8.061,17.947,9.125-2.433-5.323,4.715-3.8-2.281m17.338-3.346-3.954-2.281a6.011,6.011,0,0,0-3.346-.456l-23.574,5.627,4.867,2.89,3.65-.913,5.932,3.5-2.129,1.825,4.259,2.433,14.3-12.623M271.839,345.4c-4.563-2.586-10.342-3.042-13.84-1.065-2.585,1.521-1.673,3.65-.76,5.171s.913,2.281.152,2.738c-1.217.76-3.194.152-4.563-.608a.149.149,0,0,1-.152-.152,8.129,8.129,0,0,1-3.5-3.346l-4.715,1.825a13.526,13.526,0,0,0,4.259,3.5c4.867,2.89,10.494,3.346,14.3,1.065,4.715-2.738-1.521-6.692.608-7.909a4.2,4.2,0,0,1,3.5.3,2.476,2.476,0,0,0,.913.456,6.967,6.967,0,0,1,2.89,2.738l4.563-1.673a13.16,13.16,0,0,0-3.65-3.042" transform="translate(-225.3 -261.025)"/><path class="s" d="M238.329,350.406a3.33,3.33,0,0,1-.76-.456l4.867-2.89a7.4,7.4,0,0,0,1.065.456c1.673.913,1.521,1.977.152,2.89a5.515,5.515,0,0,1-5.323,0m5.779-3.194-1.825-.913-6.084,3.5a5.308,5.308,0,0,0,1.369.913,6.726,6.726,0,0,0,3.65,1.065,6.512,6.512,0,0,0,3.346-.913c1.065-.608,1.369-1.217,1.369-1.825q-.228-.912-1.825-1.825" transform="translate(-219.622 -249.305)"/><path class="s" d="M243.168,350.475a3.052,3.052,0,0,1,2.585,0c.913.456.3,1.065-.152,1.369l-2.433-1.369m3.194-.3a4.556,4.556,0,0,0-4.411.152c-1.369.76-1.369,1.825,0,2.586a7.812,7.812,0,0,0,1.825.76l.456-.456a10.5,10.5,0,0,1-1.521-.608c-.76-.456-1.065-1.065,0-1.825l3.042,1.825c.152,0,.152-.152.456-.152.76-.608,1.521-1.521.152-2.281" transform="translate(-217.161 -247.549)"/><path class="s" d="M246.086,354.963a.752.752,0,0,1-.3-1.217.531.531,0,0,1,.3-.152l.76-.456c.152,0,.3-.152.456-.152a2.516,2.516,0,0,1,2.129.152c.913.456.608,1.217-.3,1.673a3.107,3.107,0,0,1-3.042.152m4.715-4.106-.76-.456-5.323,3.042a9.042,9.042,0,0,0-1.217.608l.76.456.76-.456h0c-.3.456,0,.913.608,1.369a4.564,4.564,0,0,0,4.411-.152c1.369-.76,1.521-1.673.3-2.433a3.132,3.132,0,0,0-2.281-.456h0l2.738-1.521" transform="translate(-215.82 -247.169)"/><path class="s" d="M252.271,353.956l-.76-.456-4.411,2.586.76.456,4.411-2.586m1.369-1.217a1.3,1.3,0,0,0-1.065,0,.317.317,0,0,0,0,.608,1.3,1.3,0,0,0,1.065,0,.317.317,0,0,0,0-.608" transform="translate(-213.945 -246.011)"/><path class="s" d="M254.879,354.2l-1.065-.3-.76.456-.608-.456-.608.3.608.456-2.433,1.369a2.583,2.583,0,0,0-.913.912c0,.3.152.456.456.76a2.57,2.57,0,0,0,.76.3l.608-.456c-.152,0-.3-.152-.456-.3-.456-.3-.3-.456.3-.912l2.433-1.369,1.217.608.608-.3-1.217-.608,1.065-.456" transform="translate(-212.903 -245.346)"/></g><g transform="translate(108.973 45.943)"><path class="t" d="M24.7,20.848l-.261-.1a4.424,4.424,0,0,0-.6-.026.558.558,0,0,0-.47.235c-.157.183-.183.365-.026.5l.078.183a1.038,1.038,0,0,1-.052.47l-.078.078a.769.769,0,0,1-.13.339l-.1.183-.13.261a2.783,2.783,0,0,1-.183.5c-.052.1-.078.209-.13.313l-.052.183-.078.522V25.52l-.026.235v.183l-.026.365v.1l-.026.209c-.052.1-.1.183-.365.261a1.165,1.165,0,0,0-.548.287c-.078.052-.078.13-.078.261l.052.13.157.183v.026l.157.078.026.026.235.078a1.484,1.484,0,0,0,.757,0c.157-.026.418-.13.444-.209a1.162,1.162,0,0,0,.13-.339c0-.13-.026-.235-.026-.313l-.026-.313v-.418a3.5,3.5,0,0,0-.026-.522,2.68,2.68,0,0,1-.026-.652,1.488,1.488,0,0,0,.026-.339v-.261l.052-.209a1.488,1.488,0,0,0,.026-.339.973.973,0,0,1,.052-.313l.13-.313c.052-.1.078-.209.13-.313.157-.235.313-.5.5-.731a3.252,3.252,0,0,1,.548-.626c.1-.1.13-.157.235-.209l.1-.1a.4.4,0,0,0-.157-.47l-.209-.1m22.419,2.662h0a5.7,5.7,0,0,0-.522-.287,2.853,2.853,0,0,1-.391-.209c-.209-.13-.418-.235-.626-.365l-.626-.365-.235-.157-.235-.157c-.157-.078-.287-.157-.418-.235s-.287-.13-.418-.209l-.13-.078-1.253-.757s-.7-.391-.835-.47-.209-.13-.287-.183l-.261-.157c-.157-.1-.339-.183-.5-.287l-.287-.157L39.314,19c-.183-.1-.235-.157-.287-.183l-.209-.13-.287-.157-.235-.1-.183-.1-.157-.078-.13-.052a.626.626,0,0,0-.365-.052,1.942,1.942,0,0,0-.809.313,2.25,2.25,0,0,1-.5.287,2.98,2.98,0,0,0-.418.235,1.989,1.989,0,0,1-.339.183l-.235.1a3.735,3.735,0,0,0-.626.418,4.967,4.967,0,0,1-.626.365l-.13.052-.261.13c-.157.078-.287.183-.418.261l-.235.13-.391.235-.313.157-.13.052-.183.13c-.1.078-.235.157-.339.235l-.391.235a6.246,6.246,0,0,0-.548.339.568.568,0,0,0-.183.235c-.052.1.026.209.183.287l.157.078.287.183.287.183.13.078c.235.13.5.261.7.391l.887.522.209.157.209.13c.13.078.287.157.418.235l.47.235a4.251,4.251,0,0,1,.444.287c.13.078.365.235.365.235l.157.078.183.078,1.984,1.148c.1.052.209.13.313.183a1.755,1.755,0,0,0,.287.183c.13.078.287.157.418.235.131.052.235.13.365.183l1.592.913a3.606,3.606,0,0,0,.731.339.357.357,0,0,0,.365-.026l.548-.235c.261-.157.522-.287.783-.444a2.664,2.664,0,0,0,.418-.235.841.841,0,0,1,.365-.209,2.149,2.149,0,0,0,.444-.287l.157-.1a.432.432,0,0,1,.313-.13.626.626,0,0,1,.365.052l.391.157.7-.418-.1-.1c-.131-.1-.235-.235-.157-.313a1.481,1.481,0,0,1,.47-.313c.287-.13.391-.209.548-.287a2.775,2.775,0,0,1,.5-.287c.078-.078.183-.13.261-.209l.157-.1.183-.13c.183-.1.5-.287.5-.418V24.45a.669.669,0,0,0-.287-.391c-.183-.1-.313-.209-.47-.313a2.188,2.188,0,0,1-.5-.235M18.852,1.666,1.94,11.505c-2.636,1.54-2.636,4.019,0,5.559l25.629,14.8a10.507,10.507,0,0,0,9.578,0,7.48,7.48,0,0,1-1.749.731v-.026c.052-.1.1-.235.157-.339l.313-.183.13-.052a1.408,1.408,0,0,0,.339-.157l.287-.209.444-.287a12.218,12.218,0,0,1,1.566-.94c.209-.1.313-.157.444-.235l.13-.1a2.867,2.867,0,0,0,.365-.235l.235-.13c.026-.026.261-.261.157-.418l-.052-.078h0a1.969,1.969,0,0,0-.522-.522c-.287-.183-.574-.365-.861-.522l-8.508-4.933a1.188,1.188,0,0,0-.522-.13,1.074,1.074,0,0,0-.626.287l-.183.209-.183.209-.7.7c-.1.1-.235.209-.365.339l-.235.183-.652.522-.183.1-.287.209c-.209.157-.418.287-.626.444a4.462,4.462,0,0,1-.6.339l-.365.235-.235.157a.507.507,0,0,0-.13.418v.183a.675.675,0,0,1-.313.5l-.13.078-.235.183-.1.235c-.026.078.1.183.209.235l.13.078c.913.522,1.592.94,2.245,1.3.652.391,1.3.757,2.192,1.279l.261.157-.1.052.13-.052c.209.13,1.253.522,1.357.574l.261.052c.261.052.47.13.757.183a2.477,2.477,0,0,0,.522.052l.183.026.287.026h1.253l.418-.052a.994.994,0,0,1,.731.1l.261.183a10.534,10.534,0,0,1-6.812-.966L1.94,17.064C.061,15.994-.487,14.428.27,13.071l.444.13c.261.209.183.365.13.47l-.052.1a.921.921,0,0,0-.078.365l.026.183v.313l.026.261a2.893,2.893,0,0,0,.235.5,2.794,2.794,0,0,0,.365.418,3.111,3.111,0,0,0,.47.391,3.258,3.258,0,0,1,.313.209c.13.078.235.157.365.235l.261.13.052.026c.1.052.157.1.209.13l.157.1.157.078.183.078s.731.47.913.548l2.271,1.331.157.078a1.752,1.752,0,0,0,.6.261,3.5,3.5,0,0,0,1.253.1,2.549,2.549,0,0,0,1.1-.313l.235-.157.47-.313.548-.313a17.074,17.074,0,0,1,1.7-.94l.94-.418c.287-.13.574-.235.861-.365l.391-.157.783-.261a2.235,2.235,0,0,1,.391-.13.862.862,0,0,0,.574-.287c.13-.183.078-.365-.157-.522l-.235-.13-.5-.287L7.186,10.017,7,9.939a1.655,1.655,0,0,0-.783-.052,3.773,3.773,0,0,0-.757.287.818.818,0,0,0-.287.209c-.078.052-.157.13-.287.209l-.261.13-.235.1-.261.183a2.478,2.478,0,0,1-.444.261,1.664,1.664,0,0,0-.365.209,3.925,3.925,0,0,1-.652.391,3.328,3.328,0,0,0-.313.183l-.548.339a.516.516,0,0,1-.287.157l-.313.052-.548-.078A4.772,4.772,0,0,1,1.94,11.505L10,6.807c0,.026.026.026.052.078.183.183.313.444.1.6-.679.391-1.357.783-2.062,1.2q-.391.235-.391.47a.317.317,0,0,0,.183.313c.1.052.5.313.6.365l3.132,1.8H11.6l2.479,1.435.783.47c.13.078.235.13.365.209l.313.157.783.47.6.339h.026l.13.1.183.13.235.1.209.1h0a1,1,0,0,0,.548.13.747.747,0,0,0,.444-.1c.1-.078.261-.157.391-.235l6-3.471c.313-.183.339-.418.078-.626l-.339-.235-.209-.13c-.183-.1-1.122-.626-1.122-.626a1.624,1.624,0,0,1-.313-.209L22.9,9.469l-.183-.1-.235-.1L22.245,9.1l-.235-.13-1.566-.887c-.235-.13-.966-.6-1.174-.7A2.386,2.386,0,0,0,18.9,7.2a2.157,2.157,0,0,1-.339-.183,2.177,2.177,0,0,1-.313-.209l-.235-.157-.183-.078-.183-.052-.365-.235-.47-.235-.157-.1-.13-.078-.209-.13-.261-.13-.13-.1-.235-.13c-.13-.078-.313-.157-.47-.235a1.437,1.437,0,0,0-1.044,0c-.365.183-.731.391-1.07.6-.183.1-.339.209-.5.313-.209.13-.391.235-.626.365a1.092,1.092,0,0,1-.757.183l-.47-.183,8.091-4.75m12.5,2.4-1.3-.731-.313-.157c-.235-.13-.47-.235-.7-.365h0l-.183-.13-.183-.1-.261-.13-.261-.13s-.887-.5-1.044-.6c-.13-.078-.287-.13-.444-.209l-.313-.13a2.783,2.783,0,0,0-.5-.183,6.959,6.959,0,0,0-1.8-.235H22.871a2.954,2.954,0,0,1-.992.052l-.339-.1-.13-.13L21.358.7a6.859,6.859,0,0,1-.783.235v.1a.425.425,0,0,1-.183.522c-.1.052-.235.13-.339.183a2.157,2.157,0,0,0-.339.183c-.47.261-.94.522-1.409.809l-.783.47c-.47.287-.94.548-1.409.835a.436.436,0,0,0,.026.809l2.975,1.67h0l3.315,1.931L25.481,10.2a1.178,1.178,0,0,0,.679.13.926.926,0,0,0,.626-.261l.078-.1a6.431,6.431,0,0,1,.731-.731l.13-.13.157-.157.209-.183c.1-.078.183-.157.287-.235l.261-.209c.209-.183.418-.339.626-.522.183-.13.339-.235.522-.365l1.488-.861c.1-.052.235-.13.365-.183a4.223,4.223,0,0,0,.47-.261,1.19,1.19,0,0,0,.313-.313l.052-.1.052-.13c.157-.235.026-.47-.1-.7a1.566,1.566,0,0,0-.5-.418c-.157-.1-.365-.261-.574-.391M52.99,16.49s-1.07-.6-1.462-.809l-.365-.209-.548-.313c-.287-.157-.574-.339-.861-.5l-.731-.444-.209-.1a2.615,2.615,0,0,0-.94-.209,7,7,0,0,0-1.044.052l-.183.026a2.521,2.521,0,0,0-.679.287c-.365.235-.313.209-.522.339l-.992.574-.183.1a.929.929,0,0,1-.261.157s-.052.026-.391.183l-.6.261-.183.078a2.258,2.258,0,0,1-.444.183.8.8,0,0,1-.5-.026h-.026c-.131-.078-.235-.183-.183-.261A.767.767,0,0,1,42,15.6c.235-.13.5-.235.731-.339l.339-.157.313-.157c.183-.1.365-.183.548-.287l.209-.13.157-.1.365-.235a6.26,6.26,0,0,0,.679-.47c.235-.157.365-.261.391-.418a1.183,1.183,0,0,0,.052-.6l-.1-.183-.078-.13a.705.705,0,0,0-.339-.339,1.181,1.181,0,0,0-.261-.13l-.235-.13-.183-.13-.157-.1-.444-.261-.418-.235-.209-.1-.235-.1-.13-.1-.13-.078-.157-.078-.261-.13-.052-.026c-.287-.183-.5-.287-.7-.418l-.339-.235c-.157-.1-.313-.183-.47-.287-.235-.13-.444-.235-.652-.365-.183-.078-.339-.183-.5-.261l-.5-.287L36.808,7.173c-.313-.183-.626-.365-1.018-.574a3.229,3.229,0,0,0-.757-.261,2.845,2.845,0,0,0-1.044-.052,2.775,2.775,0,0,0-.913.209q-.666.313-1.253.626a20.531,20.531,0,0,0-1.931,1.174l-.261.183c-.13.078-.235.157-.339.209-.157.13-.339.287-.5.444L28.43,9.5l-.313.339a4.333,4.333,0,0,0-.339.365l-.261.313-.1.1a1.337,1.337,0,0,1-.339.313l-.13.1-.261.209a2.849,2.849,0,0,1-.444.339c-2.114,1.227-4.228,2.479-6.342,3.706l-.861.5a3.628,3.628,0,0,1-.548.287,6.494,6.494,0,0,1-.757.287c-.261.1-.418.13-.548.183l-1.331.418-1.174.418-.287.13L14,17.664c-.157.052-.313.13-.444.183-.522.261-1.044.548-1.514.835-.391.235-.783.5-1.174.757l-.391.261a1.033,1.033,0,0,0-.47.574c-.157.418-.026.731.418,1.018a5.865,5.865,0,0,0,.548.313l.835.47,8.378,4.854a.66.66,0,0,0,.235.1c.026,0,.078-.026.209-.13a1.614,1.614,0,0,1,.809-.418c.183-.052.209-.078.183-.157a2.245,2.245,0,0,1-.026-.418l.026-1.174v-.365c.052-.261.1-.522.183-.809l.052-.157a2.011,2.011,0,0,1,.287-.7c.157-.235.261-.5.391-.731a.341.341,0,0,0-.1-.391.653.653,0,0,1,.052-1.018,2.11,2.11,0,0,1,1.644-.47,1.978,1.978,0,0,1,.783.13c.183.1.313.157.418.209a.878.878,0,0,1,.47.5.848.848,0,0,1-.157.7,5.536,5.536,0,0,1-.391.391l-.183.157a1.577,1.577,0,0,0-.47.574l-.157.261c-.052.1-.13.183-.183.287a5.492,5.492,0,0,0-.157.626l-.052.183c-.026.157-.052.313-.078.444a1.935,1.935,0,0,0,.026.548,1.038,1.038,0,0,1,0,.287c0,.13-.052.235.052.391l.1.078h.183a2.447,2.447,0,0,1,.47-.235.95.95,0,0,1,.313-.235,2.712,2.712,0,0,0,.5-.339c.1-.1.261-.209.391-.313l.183-.13.444-.391c.13-.13.183-.157.235-.209l.835-.861.209-.261c.078-.1.183-.209.261-.313a3.581,3.581,0,0,1,.47-.418c.183-.157.365-.287.548-.444l.7-.47c.13-.078.287-.157.418-.235l.731-.391.287-.209.183-.078.183-.078.183-.13.13-.1c.13-.1.313-.183.47-.287.157-.078.287-.157.418-.235A8.37,8.37,0,0,1,33.7,19l.809-.47c.365-.209.7-.418,1.07-.626a4.288,4.288,0,0,1,.731-.418,2.458,2.458,0,0,1,1.383-.157,3.127,3.127,0,0,1,1.1.391c1.018.6,2.01,1.2,3.027,1.827,1.07.652,2.14,1.3,3.184,1.905,0,0,2.114,1.227,2.479,1.435l1.018.548.418.235a1.86,1.86,0,0,0,1.044-.13,5.187,5.187,0,0,0,.757-.418l.391-.235.209-.13c.13-.1.313-.183.365-.235l.391-.209a1.156,1.156,0,0,0,.235-.13,1.836,1.836,0,0,1,.5-.339l.235-.13c.052-.026.183-.1.339-.209.365-.235.5-.313.548-.339l.313-.209.183-.1.235-.078a1.954,1.954,0,0,1,.548.052,3.167,3.167,0,0,0,.261-.365l-.052-.052-.183-.13-.1-.13-.026-.183.078-.287a.921.921,0,0,0,.078-.365,2,2,0,0,0-.052-.757,1.6,1.6,0,0,0-.183-.365l-.078-.157a1.1,1.1,0,0,0-.313-.391c-.391-.313-.835-.6-1.253-.913l-.235-.157c.052.052-.052,0-.157-.078" transform="translate(0.059 -0.511)"/><g transform="translate(0.022 0)"><g class="u" transform="translate(0 0)"><path class="v" d="M21.645,27.317v-.026l-.157-.183-.052-.13a.346.346,0,0,1,.078-.261,1.721,1.721,0,0,1,.548-.287c.261-.078.313-.157.365-.261l.026-.209v-.1l.026-.365v-.183l.026-.235c0-.1-.026-.7,0-.835v-.209l.078-.522.052-.183c.052-.1.078-.209.13-.313a3.806,3.806,0,0,0,.183-.5l.13-.261.1-.157a.769.769,0,0,0,.13-.339l.052-.1a1.038,1.038,0,0,0,.052-.47L23.341,21a.341.341,0,0,1,.026-.5.74.74,0,0,1,.47-.235,4.424,4.424,0,0,1,.6.026l.261.1.209.157a.4.4,0,0,1,.157.47l-.1.1c-.1.052-.13.1-.235.209a2.558,2.558,0,0,0-.548.626,7.178,7.178,0,0,0-.5.731c-.052.1-.078.209-.13.313l-.157.235a.973.973,0,0,0-.052.313c0,.1-.026.235-.026.339l-.052.209v.261a1.605,1.605,0,0,1-.026.339,2.787,2.787,0,0,0,.026.652,1.8,1.8,0,0,1,.026.522V26.3l.026.313c0,.1.026.209.026.313a1.162,1.162,0,0,1-.13.339c-.026.078-.261.183-.444.209a1.248,1.248,0,0,1-.757,0l-.235-.078-.026-.026-.1-.052M54.086,15.964,28.43,1.166A10.567,10.567,0,0,0,21.384.252l.052.078.13.13.339.078A2.954,2.954,0,0,0,22.9.487h1.174a6.959,6.959,0,0,1,1.8.235,2.783,2.783,0,0,1,.5.183l.313.13a2.314,2.314,0,0,1,.444.209c.13.078,1.044.6,1.044.6l.261.13.261.13.183.1.183.13h0c.235.13.47.261.7.365l.313.157,1.3.731c.235.13.444.261.652.391a1.566,1.566,0,0,1,.5.418c.13.235.261.444.1.7l-.052.13-.052.1a1.19,1.19,0,0,1-.313.313c-.157.078-.313.183-.47.261-.13.052-.261.13-.365.183l-1.488.861a6.331,6.331,0,0,0-.522.365c-.209.183-.418.339-.626.522l-.261.209c-.1.078-.183.157-.287.235l-.209.183-.157.157-.13.13a6.44,6.44,0,0,0-.731.731l-.078.1a.926.926,0,0,1-.626.261,1.178,1.178,0,0,1-.679-.13L22.532,7.978,19.217,6.046h0L16.138,4.3a.436.436,0,0,1-.026-.809c.47-.287.94-.548,1.409-.835l.783-.47c.47-.261.94-.548,1.409-.809.1-.052.235-.13.339-.183a1.406,1.406,0,0,0,.339-.183.425.425,0,0,0,.183-.522s0-.026,0-.052a7.281,7.281,0,0,0-1.723.731L10.735,5.89l.47.183a.88.88,0,0,0,.757-.183c.209-.13.418-.235.626-.365.183-.1.339-.209.5-.313.365-.209.7-.418,1.07-.6a1.439,1.439,0,0,1,1.044,0c.157.078.339.157.47.235l.235.13.13.1.261.13.209.1.13.078.157.1.47.235.365.235.183.078.183.078.235.157a2.177,2.177,0,0,0,.313.209,2.157,2.157,0,0,1,.339.183c.1.052.235.1.365.183.183.1.94.574,1.174.7l1.566.887.235.13.235.157.235.1.183.1.287.183c.1.052.183.13.313.209,0,0,.913.522,1.122.626l.209.13.339.235q.431.313-.078.626l-6,3.471-.391.235a.747.747,0,0,1-.444.1,1,1,0,0,1-.548-.13h0l-.209-.1-.235-.1-.183-.13-.13-.052h-.026l-.6-.339-.783-.47-.313-.157a2.608,2.608,0,0,1-.365-.209l-.783-.47L11.57,11.162H11.6l-3.132-1.8c-.1-.052-.47-.287-.6-.365a.341.341,0,0,1-.183-.313q0-.274.391-.47c.679-.391,1.357-.783,2.062-1.2.235-.13.078-.391-.1-.6-.026-.026-.052-.052-.052-.078l-8.065,4.7A5.774,5.774,0,0,0,.635,12.049l.548.052.339-.052a.882.882,0,0,0,.313-.157l.548-.339a3.328,3.328,0,0,1,.313-.183,7.177,7.177,0,0,0,.652-.391c.1-.078.235-.13.365-.209a2.478,2.478,0,0,0,.444-.261l.261-.183.235-.1.261-.13A1.363,1.363,0,0,0,5.2,9.883a1.363,1.363,0,0,1,.287-.209,2.4,2.4,0,0,1,.757-.287,1.62,1.62,0,0,1,.783.052l.183.078L15.851,14.5l.5.287.235.13c.235.157.287.313.157.522a.8.8,0,0,1-.574.287,2.235,2.235,0,0,0-.391.13l-.783.261c-.13.052-.235.1-.391.157-.313.13-.574.235-.861.365l-.992.418a10.545,10.545,0,0,0-1.7.94l-.548.313c-.183.1-.313.209-.47.313l-.235.157a2.973,2.973,0,0,1-1.1.313,3.5,3.5,0,0,1-1.253-.1,2.09,2.09,0,0,1-.6-.261l-.157-.078L4.419,17.321c-.157-.1-.913-.548-.913-.548l-.183-.078-.157-.078L3.01,16.46a.723.723,0,0,0-.209-.13L2.749,16.3l-.261-.13c-.13-.078-.235-.157-.365-.235-.1-.078-.209-.13-.313-.209a3.111,3.111,0,0,1-.47-.391,2.794,2.794,0,0,1-.365-.418,2.013,2.013,0,0,1-.209-.5l-.026-.261v-.339l-.026-.209a1.828,1.828,0,0,1,.078-.365l.052-.1c.052-.13.13-.261-.13-.47l-.444-.13C-.487,13.9.061,15.468,1.94,16.538l25.629,14.8a10.534,10.534,0,0,0,6.812.966l-.261-.183a.994.994,0,0,0-.731-.1l-.418.052H31.719l-.287-.026-.183-.026a4.982,4.982,0,0,0-.522-.052,6.421,6.421,0,0,1-.757-.183l-.261-.052a13,13,0,0,1-1.357-.574l-.13.052.1-.052L28.065,31c-.887-.522-1.54-.887-2.192-1.279s-1.331-.783-2.245-1.3l-.13-.078c-.1-.052-.235-.157-.209-.235l.1-.235.235-.183.13-.078a.675.675,0,0,0,.313-.5v-.183a.507.507,0,0,1,.13-.418l.287-.13.365-.209c.209-.13.418-.235.6-.339a6.5,6.5,0,0,0,.626-.444l.287-.209.183-.1.652-.522.235-.183a4.334,4.334,0,0,1,.365-.339l.7-.7.183-.209.183-.209a1.074,1.074,0,0,1,.626-.287.751.751,0,0,1,.522.13l8.587,4.933c.287.183.574.339.861.522a2.461,2.461,0,0,1,.522.522h0l.052.078c.1.157-.13.391-.157.418l-.235.13c-.1.078-.261.157-.365.235l-.13.1a2.276,2.276,0,0,1-.444.235c-.13.052-.626.365-1.566.94l-.444.287-.287.209c-.052.026-.183.078-.339.157l-.13.052-.313.183c-.052.13-.1.235-.157.339v.026a7.48,7.48,0,0,0,1.749-.731l8.091-4.7-.391-.157a.6.6,0,0,0-.365-.052.432.432,0,0,0-.313.13l-.157.1a4.526,4.526,0,0,1-.444.287.841.841,0,0,0-.365.209,2.665,2.665,0,0,1-.418.235c-.261.13-.522.287-.783.444l-.548.235a.574.574,0,0,1-.365.026,3.606,3.606,0,0,1-.731-.339L38.844,26.9c-.1-.052-.235-.13-.365-.183-.13-.078-.287-.157-.418-.235-.1-.052-.183-.13-.287-.183a3.326,3.326,0,0,0-.313-.183l-1.984-1.148-.183-.078-.157-.078s-.261-.157-.365-.235c-.13-.1-.287-.183-.444-.287-.13-.078-.313-.157-.47-.235-.13-.078-.287-.157-.418-.235l-.209-.13-.209-.157-.887-.522-.7-.391-.13-.078-.287-.183-.287-.183-.157-.078c-.157-.078-.235-.183-.183-.287s.1-.209.183-.235a6.245,6.245,0,0,1,.548-.339L31.51,21a3.819,3.819,0,0,0,.339-.235l.183-.13.13-.052.313-.157.391-.235.235-.13a2.254,2.254,0,0,1,.418-.261l.261-.13.13-.052s.444-.235.626-.365a5.226,5.226,0,0,1,.626-.418l.235-.1a1.042,1.042,0,0,0,.339-.183,1.324,1.324,0,0,1,.418-.235,4.174,4.174,0,0,0,.5-.287,1.941,1.941,0,0,1,.809-.313.651.651,0,0,1,.365.052l.13.052.157.078.183.1.235.1.287.157.209.13a1.084,1.084,0,0,0,.287.183l.783.444.287.157c.157.1.339.183.5.287l.261.157c.1.052.183.13.287.183.13.078.835.47.835.47l1.253.757.13.078c.13.078.287.13.418.209a3.366,3.366,0,0,1,.418.235l.235.157.235.157.626.365c.209.13.418.235.626.365a2.852,2.852,0,0,1,.391.209c.157.078.313.157.5.261h0c.157.1.287.183.444.287l.47.313a.756.756,0,0,1,.287.391v.078c0,.13-.313.313-.5.418l-.183.13-.157.1a1.829,1.829,0,0,0-.261.209c-.209.1-.365.209-.5.287a3.335,3.335,0,0,1-.548.287,1.237,1.237,0,0,0-.47.313c-.052.1.052.209.157.313l.1.1,8.117-4.724a4.556,4.556,0,0,0,1.3-1.07,3.552,3.552,0,0,0-.548-.052l-.235.078-.183.1-.313.209c-.052.026-.183.1-.548.339a1.984,1.984,0,0,1-.339.209l-.235.13a1.835,1.835,0,0,0-.5.339,1.156,1.156,0,0,1-.235.13l-.391.209a2.586,2.586,0,0,0-.365.235l-.209.13-.391.235a5.187,5.187,0,0,1-.757.418,1.825,1.825,0,0,1-1.044.13l-.418-.235c-.339-.183-.7-.365-1.018-.548-.365-.209-2.479-1.435-2.479-1.435-1.044-.6-2.114-1.253-3.184-1.905C40.958,18.6,39.966,18,38.948,17.4a3.337,3.337,0,0,0-1.1-.391,2.458,2.458,0,0,0-1.383.157,3.482,3.482,0,0,0-.731.418c-.365.209-.7.418-1.07.626l-.809.47a6.065,6.065,0,0,0-.809.5c-.13.078-.261.157-.418.235-.157.1-.339.183-.47.287l-.13.1-.183.13-.183.078-.183.078L31.2,20.3l-.731.391c-.13.078-.287.157-.418.235-.235.157-.5.313-.7.47-.183.157-.365.287-.548.444-.157.13-.313.261-.47.418a2.764,2.764,0,0,0-.261.313l-.209.261-.835.861a2.409,2.409,0,0,1-.235.209l-.444.391-.183.13a2.291,2.291,0,0,0-.391.313,1.835,1.835,0,0,1-.5.339,3.122,3.122,0,0,0-.313.235l-.47.235h-.183l-.1-.078a.434.434,0,0,1-.052-.391,1.053,1.053,0,0,0,0-.287,3.855,3.855,0,0,1-.026-.548,1.326,1.326,0,0,1,.078-.444l.052-.183a5.493,5.493,0,0,1,.157-.626,1.755,1.755,0,0,1,.183-.287l.157-.261a1.577,1.577,0,0,1,.47-.574l.183-.157c.13-.13.287-.261.391-.391a.848.848,0,0,0,.157-.7.878.878,0,0,0-.47-.5c-.1-.052-.235-.13-.418-.209a2.058,2.058,0,0,0-.783-.13,2.215,2.215,0,0,0-1.644.47.653.653,0,0,0-.052,1.018.388.388,0,0,1,.1.391c-.13.235-.235.5-.391.731a2.011,2.011,0,0,0-.287.7l-.052.157a7.351,7.351,0,0,0-.183.809v.365l-.026,1.174a2.245,2.245,0,0,0,.026.418c0,.052-.026.1-.183.157a2.005,2.005,0,0,0-.809.418c-.13.13-.183.13-.209.13a.66.66,0,0,1-.235-.1l-8.43-4.959-.835-.5-.548-.313c-.444-.287-.574-.6-.418-1.018a.938.938,0,0,1,.47-.574l.391-.261c.391-.261.783-.5,1.174-.757.5-.287.992-.574,1.514-.835a2.258,2.258,0,0,1,.444-.183l.391-.157.287-.13,1.174-.418,1.331-.418c.13-.052.287-.078.548-.183s.522-.183.757-.287a5.523,5.523,0,0,0,.548-.287l.861-.5c2.114-1.227,4.228-2.453,6.342-3.706a2.849,2.849,0,0,0,.444-.339l.261-.209.13-.1a1.337,1.337,0,0,0,.339-.313l.1-.1.261-.313c.1-.1.209-.235.339-.365l.313-.339.365-.365c.157-.157.313-.287.5-.444a1.48,1.48,0,0,1,.339-.209L30,7.847a20.532,20.532,0,0,1,1.931-1.174q.587-.313,1.253-.626a2.775,2.775,0,0,1,.913-.209,3.283,3.283,0,0,1,1.8.313c.391.209.7.391,1.018.574L39.34,8.134l.5.287a2.975,2.975,0,0,0,.5.261,5.678,5.678,0,0,1,.652.365c.157.078.287.183.47.287l.339.235c.183.13.391.235.7.418l.052.026.261.13.157.078.13.078.13.1.235.1.209.1.418.235.444.261.157.1.183.13.235.13.261.13a.705.705,0,0,1,.339.339l.078.13.1.183a1.228,1.228,0,0,1-.052.6c-.052.13-.183.235-.391.418-.209.157-.444.313-.679.47l-.365.235-.157.1-.209.13a5.523,5.523,0,0,1-.548.287l-.313.157-.339.157c-.235.1-.5.235-.731.339a.767.767,0,0,0-.313.261c-.052.078.052.183.183.261H42a.785.785,0,0,0,.5.026,3.184,3.184,0,0,0,.444-.183l.078-.1.6-.261c.365-.157.418-.183.391-.183a.929.929,0,0,0,.261-.157l.183-.1.992-.574c.209-.13.157-.1.522-.339a1.9,1.9,0,0,1,.679-.287l.183-.026a3.512,3.512,0,0,1,1.044-.052,2.747,2.747,0,0,1,.94.209l.209.1.731.444c.287.183.574.339.861.5l.548.313.365.209c.391.209,1.462.809,1.462.809a2.177,2.177,0,0,1,.313.209l.235.157a15.463,15.463,0,0,1,1.253.913,1.156,1.156,0,0,1,.313.391l.078.157a2.385,2.385,0,0,1,.183.365c.052.078.078.261.052.757a1.025,1.025,0,0,1-.078.365l-.078.287.026.183.1.13.183.13.052.052c.913-1.435.365-3.027-1.54-4.15" transform="translate(0.037 -0.011)"/></g></g></g></g><g transform="translate(2549 1016.301)"><g class="d" transform="translate(-2200.073 -564.9)"><path d="M266.619,0,440.407,101,173.788,254.9,0,153.9Z"/></g><g transform="translate(-2200.073 -595.864)"><g class="w" transform="translate(173.788 101.004)"><path class="p" d="M379.319,65.5v2.467L112.7,221.864V219.4Z" transform="translate(-112.7 -65.5)"/></g><g class="x" transform="translate(0 153.896)"><path class="y" d="M173.788,200.8v2.467L0,102.421V99.8Z" transform="translate(0 -99.8)"/></g><g transform="translate(0 0)"><path class="z" d="M266.619,0,440.407,101,173.788,254.9,0,153.9Z"/></g><g transform="translate(216.958 23.48)"><path d="M281.864,49.627c-6.576,3.815-17.167,3.815-23.743,0-6.526-3.765-6.475-9.939.1-13.754,6.576-3.765,17.167-3.765,23.693,0,6.526,3.815,6.475,9.939-.05,13.754M254.407,33.665c-8.684,5.02-8.734,13.151-.1,18.171s22.689,5.02,31.373,0,8.734-13.152.1-18.171-22.689-5.02-31.373,0" transform="translate(-247.862 -14.898)"/><path d="M275.287,43.706c-2.209,1.255-3.213,2.861-3.012,4.518a4.6,4.6,0,0,0,1.556,2.761l-1.556.9,1.656.954,1.305-.753c.251.151.452.3.653.4a2.808,2.808,0,0,1,.4.251l-1.255.753,1.656.954,1.506-.853a13.79,13.79,0,0,0,4.317,1,14.965,14.965,0,0,0,8.383-1.757,6.931,6.931,0,0,0,2.761-2.61L290.5,49.077a6.418,6.418,0,0,1-2.058,1.907,7.639,7.639,0,0,1-4.216,1.054,8.988,8.988,0,0,1-2.409-.5l5.873-3.413-1.656-.954L279.8,50.784c-.1-.05-.251-.151-.351-.2-.251-.151-.5-.3-.7-.452l6.174-3.564-1.656-.954L277.4,48.977a2.372,2.372,0,0,1-.753-1.305c-.151-.9.5-1.757,1.656-2.409a11.621,11.621,0,0,1,3.162-1.155L279.453,42.2a12.8,12.8,0,0,0-4.166,1.506" transform="translate(-260.008 -21.022)"/><path d="M326.4,14.664c1.155-.653,1.606-1.305.9-1.707s-1.757-.251-3.915.4c-3.162.954-6.024,1.255-8.282-.05-2.008-1.155-2.209-2.911-.151-4.668l-2.058-1.2,2.51-1.456,1.857,1.1a18.606,18.606,0,0,1,4.066-1.556l2.209,2.108a15.044,15.044,0,0,0-4.116,1.506c-1.305.753-1.255,1.255-.753,1.556.552.3,1.757.151,4.267-.552,3.715-1.1,6.024-.954,8.031.2,2.058,1.2,2.309,3.012.1,4.869l2.259,1.305-2.56,1.456-2.058-1.2a19.223,19.223,0,0,1-4.869,1.757l-2.359-2.209a14.625,14.625,0,0,0,4.919-1.656M306.125,3.771c-4.367,2.51-6.576,5.873-6.525,9.186a35.211,35.211,0,0,1,14.657,4.267c4.116,2.409,6.576,5.421,7.329,8.533a32.776,32.776,0,0,0,15.862-3.765c8.684-5.02,8.734-13.151.1-18.171-8.684-5.07-22.739-5.07-31.423-.05" transform="translate(-273.629 -0.012)"/><path d="M483.885,147.222l-4.869,2.811,7.329,9.839L474.046,155a4.7,4.7,0,0,0-3.965.2l-7.881,4.568.4.351a35.727,35.727,0,0,1,6.124-1.757,4.466,4.466,0,0,1,2.66.251l17.92,6.124,4.919-2.811-10.34-14.708m6.626-3.865-4.618,2.66,14,12.6,4.618-2.66-14-12.6m31.072-4.568-4.267-5.321,8.082,3.062-3.815,2.259M515.76,128.8l-3.965,2.309c-.9.5-1.1,1.255-.653,1.907l9.537,13.653,4.869-2.811-1.707-2.108,5.973-3.413,3.213,1.2,4.317-2.46L515.76,128.8M499.3,137.936c-4.568,2.66-5.421,5.923-1.958,7.981,2.56,1.506,6.325,1,8.935.452,2.66-.552,3.815-.552,4.618-.1,1.154.7.251,1.857-1.054,2.61a.38.38,0,0,1-.2.1,19.135,19.135,0,0,1-5.722,2.008l3.062,2.761a25.526,25.526,0,0,0,6.124-2.409c4.869-2.811,5.672-6.074,1.958-8.232-4.668-2.761-11.5.9-13.553-.351-.6-.4-.7-1.155.452-2.008.151-.1.4-.3.753-.5a17.326,17.326,0,0,1,4.618-1.707l-2.962-2.66a21.08,21.08,0,0,0-5.07,2.058" transform="translate(-354.611 -64.153)"/><path d="M586.128,174.761a4.752,4.752,0,0,1-.853.452l-4.819-2.811a5.62,5.62,0,0,1,.853-.6,4.712,4.712,0,0,1,4.869-.05c1.606.954,1.656,2.008-.05,3.012m-5.471-3.313A11.778,11.778,0,0,0,579.1,172.5l6.023,3.464a11.286,11.286,0,0,0,1.506-.8c1.2-.7,1.857-1.406,1.857-2.108,0-.653-.5-1.305-1.506-1.907a5.662,5.662,0,0,0-3.062-.753,7.764,7.764,0,0,0-3.263,1.054" transform="translate(-412.831 -84.865)"/><path d="M597.9,168.45c-.5-.351-.9-1-.05-1.456a2.493,2.493,0,0,1,2.409.1L597.9,168.45m-.552-1.807c-1.305.753-1.054,1.807.251,2.56a4.6,4.6,0,0,0,4.417.05,3.868,3.868,0,0,0,1.2-1l-.7-.251a3.169,3.169,0,0,1-4.016.853l3.112-1.807c-.1-.05-.2-.151-.351-.251a3.926,3.926,0,0,0-3.915-.151" transform="translate(-421.488 -82.77)"/><path d="M608.331,162.93a2.681,2.681,0,0,1-2.159.151c-.1-.05-.251-.1-.351-.151l-.753-.452c-.1-.05-.2-.151-.3-.2-.452-.452-.3-.954.251-1.255a3,3,0,0,1,2.962.2c1,.552,1.2,1.2.351,1.707M601.2,160.22l-.8.452,5.321,3.062c.4.251.8.5,1.1.7l.7-.4-.653-.452h0a3.223,3.223,0,0,0,2.309-.4c1-.552,1.2-1.606-.351-2.51a4.313,4.313,0,0,0-4.116-.2c-.7.4-.9.9-.7,1.355h0L601.2,160.22" transform="translate(-423.439 -79.71)"/><path d="M614.534,155.641l-.8.452,4.367,2.56.8-.452-4.367-2.56m-2.159-.753c-.3.151-.3.4,0,.6a1.063,1.063,0,0,0,.954,0q.452-.3,0-.6a1.062,1.062,0,0,0-.954,0" transform="translate(-429.291 -77.089)"/><path d="M619.252,152.4l-.552.6.8.452-.7.4.6.351.7-.4,2.409,1.406a3.605,3.605,0,0,0,1.456.5,2.523,2.523,0,0,0,1.2-.3,4.515,4.515,0,0,0,.6-.452l-.653-.351a4.085,4.085,0,0,1-.4.3,1.418,1.418,0,0,1-1.456-.151l-2.359-1.355,1.154-.653-.6-.351-1.155.653-1.054-.653" transform="translate(-432.553 -75.907)"/></g><g transform="translate(92.523 155.754)"><path class="aa" d="M34.529,17.85l-.156.156a.435.435,0,0,0-.026.312c.026.13.13.208.364.26a1.435,1.435,0,0,0,.807.026l.26-.052c.078,0,.6,0,.781.026l.182.026a3.8,3.8,0,0,1,.573.078l.286.052.442.078c.26.026.547.078.807.1.182.026.338.052.52.078l.312.026.859.052h1.744l.364.026h1.405a.6.6,0,0,1,.442.208.936.936,0,0,0,.468.312.838.838,0,0,0,.416.052l.234-.026.312-.078h.026l.156-.078.026-.026.156-.13c.078-.182.1-.208-.026-.416a.74.74,0,0,0-.364-.234,2.969,2.969,0,0,0-.547-.078,3.665,3.665,0,0,0-.547.026l-.52.026H42.727a7.3,7.3,0,0,1-1.067,0h-1.3c-.182,0-.364-.026-.547-.026-.208,0-.364-.026-.52-.026l-.52-.078c-.182-.026-.338-.052-.52-.078-.39-.078-.807-.182-1.2-.286a5.924,5.924,0,0,1-1.015-.312,1.132,1.132,0,0,1-.338-.13l-.182-.052a1.872,1.872,0,0,0-.755.078l-.234.1m4.45-12.388h0c-.208.13-.338.208-.468.286a2.6,2.6,0,0,1-.364.208c-.182.13-.39.234-.6.364l-.6.338-.26.13-.26.13c-.13.078-.26.156-.364.234s-.234.156-.338.234l-.13.078c-.156.078-1.119.625-1.249.7l-.781.468c-.13.078-.234.13-.312.182l-.26.13a2.579,2.579,0,0,0-.442.286l-.26.156-.755.442a1.112,1.112,0,0,1-.312.156l-.234.1-.26.156-.182.13-.156.1-.1.078-.078.078c-.1.078-.156.13-.1.208a1.173,1.173,0,0,0,.494.442,3.066,3.066,0,0,1,.494.286c.1.078.26.156.39.234a2.743,2.743,0,0,1,.286.182l.182.13a5.47,5.47,0,0,0,.677.338,5.908,5.908,0,0,1,.6.338l.1.078.208.13c.13.078.286.156.442.234l.234.13.364.234.26.156.1.078.234.1c.13.052.26.13.364.182.13.078.26.156.364.208l.547.312a1.193,1.193,0,0,0,.416.1.891.891,0,0,0,.468-.1l.156-.078.312-.156.286-.156.13-.078c.208-.13.416-.26.651-.39l.859-.494.26-.13.234-.1.39-.234c.13-.078.26-.156.416-.234s.312-.156.442-.234.39-.208.39-.208l.1-.078.156-.1,1.9-1.093c.1-.052.208-.13.312-.182l.312-.156c.13-.078.26-.156.364-.234a2.171,2.171,0,0,0,.312-.208l1.483-.885a2.721,2.721,0,0,0,.547-.39c.078-.078.078-.13-.026-.208L46.917,8.3c-.26-.13-.494-.286-.729-.416s-.338-.208-.39-.234a.838.838,0,0,1-.338-.208,2.567,2.567,0,0,0-.468-.234l-.182-.078a.445.445,0,0,1-.234-.156c-.026-.052,0-.13.13-.208l.26-.208-.7-.39-.156.052a1.029,1.029,0,0,1-.52.1,1.22,1.22,0,0,1-.52-.26c-.234-.156-.364-.234-.494-.312a3.392,3.392,0,0,1-.494-.286,1.392,1.392,0,0,1-.338-.156l-.182-.078-.208-.1a1.717,1.717,0,0,0-.677-.286h-.13a1.709,1.709,0,0,0-.651.156c-.156.078-.338.182-.494.26a3.107,3.107,0,0,0-.416.208M2.909,21.025,19.071,30.42a10.089,10.089,0,0,0,9.135,0L52.668,16.289c2.524-1.457,2.55-3.826.026-5.283a5.1,5.1,0,0,1,1.2.963h-.026c-.182-.026-.39-.052-.573-.078l-.312-.156-.1-.078a2.555,2.555,0,0,0-.26-.182l-.338-.156-.442-.26q-1.444-.781-1.561-.859c-.182-.1-.26-.156-.416-.234L49.7,9.887a2.6,2.6,0,0,0-.364-.208l-.234-.13a1.145,1.145,0,0,0-.677-.078L48.3,9.5h0a5.83,5.83,0,0,0-.885.286c-.286.156-.573.312-.859.494l-8.172,4.71c-.156.078-.208.182-.182.286.026.13.208.26.442.338l.364.1.338.1c.26.078,1.171.39,1.171.39.182.052.364.13.547.182l.286.13.859.364.156.078.338.156c.26.1.494.234.729.338A4.142,4.142,0,0,1,44,17.8l.364.208.26.13a1.934,1.934,0,0,0,.677.078h.312a2.3,2.3,0,0,1,.833.182l.156.078.286.13.364.052a.709.709,0,0,0,.416-.1l.13-.078c.885-.52,1.535-.885,2.186-1.249.625-.364,1.249-.7,2.108-1.2l.26-.156.1.052-.078-.078a6.066,6.066,0,0,0,.911-.755l.1-.156a2.248,2.248,0,0,0,.26-.416,1.717,1.717,0,0,0,.1-.286l.052-.078L53.839,14l.026-.182v-.208l-.026-.156-.026-.13-.078-.234c-.156-.208.1-.364.182-.416l.286-.156h0c.677,1.275.156,2.733-1.614,3.774L28.127,30.42a10.066,10.066,0,0,1-6.584.911l.208-.234a1.046,1.046,0,0,1,.781-.052l.156.026a4.645,4.645,0,0,0,.6.052h.338l.234-.026h.26l.442-.026a4.28,4.28,0,0,0,.833-.13c.234-.052.468-.13.677-.182a2.6,2.6,0,0,0,.651-.26c.1-.052.234-.13.338-.182.13-.078.26-.13.39-.208l.208-.13.052-.026a.936.936,0,0,0,.234-.13l.182-.078.13-.078.156-.1s.755-.416.911-.494l2.186-1.249.156-.078a1.617,1.617,0,0,0,.442-.312c.156-.26.26-.468.156-.677a.971.971,0,0,0-.494-.6l-.26-.13a4.522,4.522,0,0,1-.494-.26l-.52-.286a12.685,12.685,0,0,1-1.535-.937l-.677-.52c-.182-.156-.39-.312-.6-.468a2.128,2.128,0,0,1-.234-.208l-.442-.442c-.1-.1-.182-.156-.208-.234a.59.59,0,0,0-.468-.312,1.124,1.124,0,0,0-.833.078l-.234.13-.468.286-8.25,4.763-.13.078a.37.37,0,0,0-.078.442,1.845,1.845,0,0,0,.468.416,1.346,1.346,0,0,0,.338.156,3.622,3.622,0,0,1,.338.156l.234.156.182.13.312.13a1.8,1.8,0,0,1,.442.26,1.308,1.308,0,0,0,.312.208,5.239,5.239,0,0,1,.651.364c.1.052.208.13.312.182l.547.286c.1.052.208.1.234.182l.078.182-.078.312a8.009,8.009,0,0,1-1.666-.7l-7.677-4.606c.026,0,.052-.026.1-.026a1.641,1.641,0,0,1,.989-.052c.651.39,1.327.755,1.978,1.145a1.59,1.59,0,0,0,.781.208,1.017,1.017,0,0,0,.547-.1c.1-.052.494-.26.6-.312l2.967-1.718h.026l2.368-1.379c.13-.078.807-.442.807-.442.1-.078.208-.13.312-.208l.286-.182.755-.416.547-.338.026-.026.156-.078.234-.1.182-.13.156-.1h0c.156-.078.234-.208.208-.312a.313.313,0,0,0-.182-.26c-.13-.078-.234-.13-.364-.208l-5.725-3.331a1.077,1.077,0,0,0-1.015-.026l-.39.182-.234.1c-.182.1-1.015.625-1.015.625a2.151,2.151,0,0,1-.338.182l-.286.156-.156.1-.182.13-.26.13-.234.13-1.483.885c-.208.13-.963.547-1.145.651a1.62,1.62,0,0,0-.312.208c-.1.052-.182.13-.286.182a2.151,2.151,0,0,1-.338.182l-.26.156-.13.052-.13.1-.39.208-.39.26-.156.078-.156.078-.208.1-.208.13-.156.078-.234.1a2.154,2.154,0,0,0-.39.286c-.234.182-.234.442-.026.573.312.208.651.416.989.6.156.1.338.182.494.286a4.45,4.45,0,0,1,.6.338c.182.1.39.234.286.416l-.286.26h0L2.909,21.025m4.008-6.9-1.2.729-.26.182c-.208.13-.416.26-.625.364l-.208.1-.208.078-.208.156-.234.156-.963.573a3.807,3.807,0,0,0-.338.234l-.208.156a1.424,1.424,0,0,0-.286.26,1.638,1.638,0,0,0-.416.989l.026.442c0,.13,0,.182.026.208a.516.516,0,0,1,.078.547l-.182.208-.182.078-.13.026a2.841,2.841,0,0,0,.338.442H1.92a1.777,1.777,0,0,1,.859.1,1.579,1.579,0,0,0,.26.182c.1.078.182.13.286.208l1.327.781.755.442c.442.26.911.52,1.379.781a1.488,1.488,0,0,0,1.327,0L10.925,20.9h0L14.1,19.073l2.889-1.692c.182-.1.26-.234.234-.364s-.182-.26-.442-.338l-.156-.052c-.416-.13-.833-.26-1.2-.416l-.208-.078-.26-.1-.338-.13c-.13-.052-.26-.1-.364-.156l-.39-.13c-.286-.13-.573-.234-.833-.364a4.234,4.234,0,0,1-.6-.286c-.494-.26-.963-.547-1.405-.807-.1-.078-.208-.13-.312-.208a2.247,2.247,0,0,0-.416-.26,2.775,2.775,0,0,0-.494-.182l-.182-.026-.234-.026a3.394,3.394,0,0,0-1.145.052,2.125,2.125,0,0,0-.651.26c-.234.13-.442.26-.677.364M27.451,2.209s-.989.6-1.353.781l-.338.234c-.182.1-.338.208-.52.312-.26.156-.547.312-.833.468l-.729.416-.182.1a.908.908,0,0,0-.338.52.9.9,0,0,0,.1.573l.026.1a1.632,1.632,0,0,0,.494.39l.573.286.937.547.208.078a.936.936,0,0,0,.234.13,2.646,2.646,0,0,1,.286.208l.416.338.156.1a1.381,1.381,0,0,1,.286.234.178.178,0,0,1-.052.26H26.8a.626.626,0,0,1-.416.1.741.741,0,0,1-.364-.156,4.321,4.321,0,0,1-.547-.416l-.26-.182-.26-.182c-.156-.1-.338-.208-.494-.312l-.234-.1-.182-.078-.39-.208c-.234-.13-.494-.26-.755-.39a1.912,1.912,0,0,0-.677-.234,6.033,6.033,0,0,0-.963-.026L21,6.165l-.26.078a1.238,1.238,0,0,0-.547.182,1.159,1.159,0,0,1-.208.13l-.208.156-.208.1-.182.078-.442.26-.39.234-.156.1-.182.13L18.03,7.7l-.13.078-.13.078-.208.13-.026.026a6.838,6.838,0,0,0-.677.39l-.39.182L16,8.82c-.208.13-.39.234-.573.364a4.526,4.526,0,0,0-.468.286l-.442.26-2.342,1.327c-.312.182-.6.364-.937.573a3.448,3.448,0,0,0-.442.416.585.585,0,0,0-.078.573.818.818,0,0,0,.338.494c.312.234.677.468,1.041.7a18.9,18.9,0,0,0,1.952,1.067l.286.156c.1.052.234.13.364.182.234.1.442.182.7.286l.6.208.547.156c.208.052.39.13.6.182l.494.156.182.052a3.8,3.8,0,0,1,.494.182l.182.078.364.13a3.526,3.526,0,0,1,.547.26c2.03,1.171,4.034,2.342,6.064,3.513l.807.468a2.042,2.042,0,0,1,.468.286,4,4,0,0,1,.494.442,1.43,1.43,0,0,1,.286.286l.677.729.677.651.182.156.26.208a3.252,3.252,0,0,0,.312.234c.442.286.911.573,1.379.833.416.234.807.442,1.249.651l.416.208a2.53,2.53,0,0,0,.937.26,2.815,2.815,0,0,0,1.666-.208c.208-.1.364-.208.547-.286l.781-.468,8.016-4.606c.182-.1.182-.13.182-.13a1.369,1.369,0,0,0-.234-.13,1.5,1.5,0,0,1-.677-.442.225.225,0,0,0-.26-.1H40.463c-.442-.026-.885-.052-1.327-.1l-.234-.026c-.364-.052-.755-.078-1.145-.156-.416-.078-.807-.156-1.223-.208a1.388,1.388,0,0,0-.651.052,2.61,2.61,0,0,1-1.666-.052c-.573-.208-.833-.52-.755-.911a.624.624,0,0,1,.234-.416,3.939,3.939,0,0,1,.364-.234,2.007,2.007,0,0,1,.833-.234,3.892,3.892,0,0,1,1.145.078,2.769,2.769,0,0,1,.651.234l.26.1a3.85,3.85,0,0,0,.937.26l.416.078a1.515,1.515,0,0,0,.494.078c.338.052.677.078,1.015.1l.312.026c.26.026.494.052.729.052h1.405a2.565,2.565,0,0,0,.625-.026l.13-.052-.026-.1a2.413,2.413,0,0,1-.39-.26,1.672,1.672,0,0,1-.416-.182,2.938,2.938,0,0,0-.573-.286,2.821,2.821,0,0,1-.494-.208l-.182-.1-.651-.26c-.182-.078-.26-.1-.338-.13l-1.431-.468-.442-.13-.547-.156c-.234-.078-.468-.156-.7-.26l-.7-.312-.781-.39-.39-.234-.651-.416-.338-.156-.156-.1-.13-.078-.234-.1-.156-.078c-.182-.078-.312-.182-.468-.26l-.39-.234a7.993,7.993,0,0,1-.807-.442l-.781-.468c-.338-.208-.677-.416-1.015-.6a6.44,6.44,0,0,1-.677-.416.592.592,0,0,1-.26-.755,1.6,1.6,0,0,1,.651-.6c.963-.573,1.978-1.119,2.993-1.666,1.067-.573,2.134-1.171,3.149-1.744,0,0,2-1.171,2.342-1.379.312-.182.6-.364.911-.573l.39-.234c.13-.234-.026-.442-.208-.573a3.986,3.986,0,0,0-.651-.416c-.13-.078-.26-.13-.364-.208l-.208-.13a1.957,1.957,0,0,1-.364-.208l-.338-.208c-.13-.1-.156-.13-.208-.13a2.692,2.692,0,0,1-.547-.286l-.208-.078a2.877,2.877,0,0,0-.338-.182c-.364-.208-.494-.286-.547-.312A1.79,1.79,0,0,1,35,1.4l-.182-.1-.13-.13c-.026-.1.052-.208.078-.312-.208-.052-.39-.1-.6-.156l-.078.078-.234.1-.208.052h-.312L32.864.882a4.646,4.646,0,0,0-.6-.052,6.593,6.593,0,0,0-1.249.026c-.208.026-.416.078-.6.1l-.234.052a3.646,3.646,0,0,0-.625.156,15.9,15.9,0,0,0-1.509.7L27.815,2c-.156.078-.26.156-.364.208" transform="translate(-1.029 -0.518)"/><g transform="translate(0 0)"><g class="ab" transform="translate(0)"><path class="v" d="M44.881,19.048h-.026l-.312.078-.234.026a.838.838,0,0,1-.416-.052,1.062,1.062,0,0,1-.468-.312.99.99,0,0,0-.442-.208H41.576l-.364-.026H39.468l-.859-.052-.312-.026c-.182-.026-.338-.052-.52-.078-.26-.052-.547-.078-.807-.1l-.442-.078-.286-.052a2.029,2.029,0,0,0-.573-.078l-.182-.026a4.1,4.1,0,0,0-.781-.026l-.26.052a1.236,1.236,0,0,1-.807-.026c-.234-.078-.338-.156-.364-.26a.435.435,0,0,1,.026-.312l.156-.156.26-.1a1.244,1.244,0,0,1,.755-.078l.182.052a1.132,1.132,0,0,0,.338.13,5.924,5.924,0,0,0,1.015.312c.39.1.781.182,1.2.286.182.026.338.052.52.078l.52.078c.156,0,.312.026.52.026a3.843,3.843,0,0,1,.547.026h1.3c.364.026.7,0,1.067,0,.286,0,.573-.026.859,0h.7l.52-.026a4.03,4.03,0,0,0,.547-.026,3.692,3.692,0,0,1,.547.078.74.74,0,0,1,.364.234c.13.208.1.234.026.416l-.156.13-.026.026-.182.078M26.326,1.091,1.863,15.223C.041,16.264-.479,17.8.3,19.1l.13-.026L.64,19,.8,18.814a.564.564,0,0,0-.078-.547c-.026-.026-.026-.078-.026-.208l-.026-.442a1.812,1.812,0,0,1,.416-.989,1.424,1.424,0,0,1,.286-.26l.208-.156a1.565,1.565,0,0,1,.338-.234l.963-.573.234-.156.208-.156.182-.078.208-.1c.208-.13.416-.26.625-.364l.26-.182,1.223-.7c.208-.13.416-.234.651-.364a2.43,2.43,0,0,1,.651-.26,2.816,2.816,0,0,1,1.145-.052l.234.026.182.026a2.775,2.775,0,0,1,.494.182,2.247,2.247,0,0,1,.416.26c.1.078.208.13.312.208.442.286.937.547,1.405.807a4.234,4.234,0,0,0,.6.286c.286.13.573.234.833.364l.364.156c.1.052.26.1.364.156l.338.13.26.1.234.078c.39.156.807.286,1.2.416l.156.052c.234.078.416.208.442.338s-.052.26-.234.364l-2.889,1.692L9.8,20.454h0l-2.837,1.64a1.488,1.488,0,0,1-1.327,0c-.468-.26-.911-.52-1.379-.781l-.677-.494-1.327-.781a1.155,1.155,0,0,1-.286-.208c-.078-.052-.182-.1-.286-.182a1.777,1.777,0,0,0-.859-.1H.64a5.1,5.1,0,0,0,1.2.963l7.781,4.528h0l.286-.26c.1-.182-.1-.312-.286-.416-.182-.13-.416-.234-.6-.338-.156-.1-.338-.182-.494-.286-.338-.208-.677-.39-.989-.6a.341.341,0,0,1,.026-.573,2.533,2.533,0,0,1,.39-.286l.234-.1.156-.078.208-.13.182-.13.156-.078.156-.078.39-.26.39-.208.13-.1.13-.078.26-.156a2.151,2.151,0,0,0,.338-.182c.1-.052.182-.13.286-.182a2.118,2.118,0,0,1,.312-.208c.182-.1.911-.52,1.145-.651l1.457-.859.234-.13.26-.13.182-.13.156-.1.286-.156c.1-.052.208-.1.338-.182,0,0,.833-.52,1.015-.625l.234-.1.39-.182A1.077,1.077,0,0,1,18,17.07L23.723,20.4c.13.078.234.13.364.208a.313.313,0,0,1,.182.26.376.376,0,0,1-.208.312h0l-.156.1-.182.13-.234.1-.13.078-.026.026-.547.338-.729.416-.286.182a2.171,2.171,0,0,0-.312.208s-.677.364-.807.442l-2.368,1.379h-.026l-2.967,1.718c-.078.052-.494.26-.6.312a1.017,1.017,0,0,1-.547.1,1.668,1.668,0,0,1-.781-.208c-.651-.39-1.327-.755-1.978-1.145a1.463,1.463,0,0,0-.989.052.2.2,0,0,1-.1.026L18,29.927a8.009,8.009,0,0,0,1.666.7l.078-.312-.078-.182c-.026-.078-.13-.1-.234-.182l-.547-.286c-.1-.052-.208-.13-.312-.182a5.239,5.239,0,0,0-.651-.364.936.936,0,0,1-.312-.208,1.8,1.8,0,0,0-.442-.26l-.312-.13-.182-.13-.234-.156a3.623,3.623,0,0,0-.338-.156,3.621,3.621,0,0,1-.338-.156,1.845,1.845,0,0,1-.468-.416.37.37,0,0,1,.078-.442l.13-.078,8.25-4.763.468-.286.234-.13a1.124,1.124,0,0,1,.833-.078q.39.078.468.312c.026.078.1.13.208.234l.442.442a.945.945,0,0,0,.234.208c.182.156.39.312.6.468l.677.52a10.068,10.068,0,0,0,1.535.937l.52.286c.156.078.338.182.494.26l.26.13a1.041,1.041,0,0,1,.494.6.76.76,0,0,1-.156.677,1.617,1.617,0,0,1-.442.312l-.156.078-2.186,1.249c-.156.078-.911.494-.911.494l-.078.208-.13.078-.182.078a.532.532,0,0,0-.234.13l-.052.026-.208.13c-.13.078-.26.13-.39.208a2.152,2.152,0,0,0-.338.182,4.2,4.2,0,0,1-.651.26,2.88,2.88,0,0,1-.677.182,7.967,7.967,0,0,1-.833.13l-.442.026h-.26l-.234.026h-.338a4.647,4.647,0,0,1-.6-.052l-.156-.026a1.4,1.4,0,0,0-.781.052l-.208.234a10.066,10.066,0,0,0,6.584-.911L51.622,15.769c1.77-1.015,2.316-2.472,1.614-3.774h0l-.286.156c-.078.052-.312.182-.182.416l.078.234.026.13.026.156V13.3l-.026.182-.026.156-.052.078a1.717,1.717,0,0,1-.1.286c-.078.156-.182.286-.26.416l-.156.156c-.052.052-.729.625-.911.755l.078.078-.1-.052-.26.156c-.859.494-1.483.859-2.108,1.2-.651.364-1.275.729-2.186,1.249l-.13.078a.764.764,0,0,1-.416.1l-.364-.052-.286-.13-.156-.078a2.844,2.844,0,0,0-.833-.182h-.312a1.935,1.935,0,0,1-.677-.078l-.26-.13-.364-.208a4.142,4.142,0,0,0-.573-.338c-.234-.13-.494-.234-.729-.338l-.338-.156-.156-.078L40.327,16l-.286-.13a4.485,4.485,0,0,0-.547-.182s-.911-.312-1.171-.39l-.338-.1-.364-.1c-.234-.078-.416-.208-.442-.338-.026-.1.026-.208.182-.286l8.172-4.71c.286-.156.573-.312.859-.494a5.022,5.022,0,0,1,.885-.286h0l.13-.026a1.962,1.962,0,0,1,.677.078l.234.13a2.6,2.6,0,0,1,.364.208l.156.078c.156.078.234.13.416.234a16.907,16.907,0,0,0,1.561.859l.442.26.338.156c.026.026.156.1.26.182l.1.078.312.156a3.8,3.8,0,0,0,.573.078h.026a5.1,5.1,0,0,0-1.2-.963L43.944,6.01l-.26.208a.27.27,0,0,0-.13.208q.039.117.234.156l.182.078a3.8,3.8,0,0,1,.468.234.838.838,0,0,0,.338.208,3.35,3.35,0,0,1,.39.234c.26.156.494.286.729.416l.416.312c.078.078.1.13.026.208a2.12,2.12,0,0,1-.547.39l-1.483.885c-.1.078-.208.13-.312.208s-.234.156-.364.234l-.312.156a1.941,1.941,0,0,0-.312.182l-1.9,1.093-.156.1-.1.078s-.26.13-.39.208c-.156.078-.312.156-.442.234s-.286.156-.416.234l-.39.234-.234.1-.26.13-.859.494c-.234.13-.442.26-.651.39l-.13.078-.286.156-.312.156-.156.078a.773.773,0,0,1-.468.1,1.193,1.193,0,0,1-.416-.1l-.547-.312c-.13-.078-.26-.156-.364-.208a2.38,2.38,0,0,0-.364-.182l-.234-.1-.1-.078-.26-.156-.364-.234-.234-.13c-.156-.078-.312-.156-.442-.234l-.208-.13-.1-.078a5.909,5.909,0,0,0-.6-.338c-.234-.1-.468-.234-.677-.338l-.182-.13a2.744,2.744,0,0,0-.286-.182,2.571,2.571,0,0,1-.39-.234,2.244,2.244,0,0,0-.494-.286,1.173,1.173,0,0,1-.494-.442c-.052-.078,0-.13.1-.208l.078-.078.1-.078.156-.1.182-.13.26-.156.234-.1a3.387,3.387,0,0,1,.312-.156l.755-.442.26-.156c.156-.1.286-.182.442-.286l.26-.13c.1-.052.182-.1.312-.182l.781-.468c.13-.078,1.119-.625,1.249-.7l.13-.078a3.807,3.807,0,0,0,.338-.234c.1-.078.234-.156.364-.234l.26-.13.26-.13.6-.338c.208-.13.39-.234.6-.364A2.6,2.6,0,0,1,37.49,5.2c.13-.078.26-.156.442-.286h.026l.468-.234a4.522,4.522,0,0,0,.494-.26,1.709,1.709,0,0,1,.651-.156h.13a1.447,1.447,0,0,1,.677.286l.208.1.182.078a1.392,1.392,0,0,0,.338.156c.182.1.338.208.494.286a4.6,4.6,0,0,1,.494.312,1.22,1.22,0,0,0,.52.26c.156.052.312-.026.52-.1l.156-.052-7.833-4.5a7.214,7.214,0,0,0-1.77-.729c0,.078-.1.208-.078.312l.13.13.182.1a1.79,1.79,0,0,0,.338.182,4.48,4.48,0,0,0,.547.312c.156.078.286.156.338.182l.208.13A2.692,2.692,0,0,0,35.9,2c.026,0,.078.026.208.13l.338.208c.052.026.208.13.364.208l.208.13c.1.078.234.13.364.208a3.985,3.985,0,0,1,.651.416c.182.13.338.338.208.573l-.39.234c-.312.182-.6.39-.911.573-.338.208-2.342,1.379-2.342,1.379-1.015.573-2.082,1.171-3.149,1.744-1.015.573-2.03,1.119-2.993,1.666a1.461,1.461,0,0,0-.651.6.561.561,0,0,0,.26.755,6.441,6.441,0,0,0,.677.416c.338.182.677.39,1.015.6l.781.468a7.993,7.993,0,0,0,.807.442c.156.078.26.156.39.234a2.711,2.711,0,0,0,.468.26l.156.078.234.1.13.078.156.1.338.156.651.416.39.234c.26.13.52.286.781.39l.7.312c.234.078.468.182.7.26l.547.156.442.13,1.431.468c.078.026.156.052.338.13l.651.26.182.1a2.821,2.821,0,0,0,.494.208,2.358,2.358,0,0,1,.573.286,4.286,4.286,0,0,0,.416.182c.234.156.26.182.39.26l.026.1-.13.052a1.706,1.706,0,0,1-.625.026h-.52a5.024,5.024,0,0,1-.885,0,6.858,6.858,0,0,1-.729-.052l-.312-.026c-.338-.026-.677-.052-1.015-.1-.156-.026-.312-.052-.494-.078l-.416-.078a7.3,7.3,0,0,1-.937-.26l-.26-.1c-.208-.078-.416-.156-.651-.234a3.221,3.221,0,0,0-1.145-.078,2.007,2.007,0,0,0-.833.234,3.939,3.939,0,0,0-.364.234.686.686,0,0,0-.234.416c-.078.39.182.7.755.911a2.61,2.61,0,0,0,1.666.052,1.388,1.388,0,0,1,.651-.052c.416.052.807.13,1.223.208a8.091,8.091,0,0,0,1.145.156l.234.026c.442.052.859.078,1.327.1h3.175a.266.266,0,0,1,.26.1,1.5,1.5,0,0,0,.677.442c.208.078.234.1.234.13a1.674,1.674,0,0,1-.182.13l-8.016,4.606-.781.468a5.243,5.243,0,0,1-.547.286,2.625,2.625,0,0,1-1.666.208,2.53,2.53,0,0,1-.937-.26l-.416-.208c-.416-.208-.833-.442-1.249-.651-.468-.26-.937-.547-1.379-.833l-.312-.234L27.991,23l-.182-.156-.677-.651-.677-.729a1.43,1.43,0,0,0-.286-.286,4,4,0,0,0-.494-.442,2.041,2.041,0,0,0-.468-.286l-.807-.468c-2.03-1.171-4.034-2.342-6.064-3.513a3.527,3.527,0,0,0-.547-.26l-.364-.13L17.243,16a3.794,3.794,0,0,0-.494-.182l-.182-.052-.494-.156c-.208-.052-.39-.13-.6-.182l-.547-.156-.6-.208a4.389,4.389,0,0,1-.7-.286c-.13-.052-.26-.13-.364-.182l-.286-.156a22.036,22.036,0,0,1-1.952-1.067c-.364-.234-.7-.468-1.041-.7a.818.818,0,0,1-.338-.494.578.578,0,0,1,.078-.573,1.686,1.686,0,0,1,.442-.416c.338-.208.625-.39.937-.573l2.342-1.327.442-.26a4.527,4.527,0,0,0,.468-.286,3.651,3.651,0,0,1,.573-.364l.468-.234.364-.182c.182-.1.39-.208.677-.39l.026-.026.208-.13.13-.078.13-.078.182-.078.182-.13.156-.1.39-.234.442-.26.182-.078.208-.1.182-.13a.556.556,0,0,1,.208-.13,1.36,1.36,0,0,1,.547-.182l.234-.052.26-.052a6.033,6.033,0,0,1,.963.026,1.912,1.912,0,0,1,.677.234c.26.13.52.26.755.39l.39.208.182.078.234.1c.156.1.338.208.494.312l.26.182.26.182c.182.13.364.286.547.416a.988.988,0,0,0,.442.182.626.626,0,0,0,.416-.1h.026c.078-.052.13-.208.052-.26a2.766,2.766,0,0,0-.286-.234l-.156-.1L24.947,7a2.646,2.646,0,0,0-.286-.208c-.13-.078-.182-.1-.234-.13l-.182-.1-.937-.547c-.234-.13-.156-.078-.573-.286a2.044,2.044,0,0,1-.494-.39l-.026-.1a.9.9,0,0,1-.1-.573.908.908,0,0,1,.338-.52l.182-.1.729-.416c.26-.156.547-.312.833-.468.182-.1.338-.208.52-.312l.338-.208c.338-.208,1.353-.781,1.353-.781.1-.052.234-.13.338-.182l.234-.13c.494-.234.989-.494,1.509-.7a2.2,2.2,0,0,1,.625-.156l.234-.052a5.805,5.805,0,0,1,.6-.1A6.593,6.593,0,0,1,31.192.493a2.432,2.432,0,0,1,.6.052L32.259.6h.312L32.78.545l.234-.286.078-.026a9.978,9.978,0,0,0-6.766.859" transform="translate(0.044 0.002)"/></g></g></g></g></g><g transform="translate(-786 -1405.699)"><path class="ac" d="M416.875,75.306v-.36c0-.24-.04-.519-.04-.759,0-.28-.04-.6-.04-.879,0-.24-.04-.44-.04-.679a5.413,5.413,0,0,0-.08-.8c0-.16-.04-.36-.04-.519-.04-.4-.08-.759-.12-1.159-.04-.24-.04-.44-.08-.679a.507.507,0,0,0-.04-.24c-.08-.679-.2-1.4-.28-2.078v-.04c0-.08-.04-.2-.04-.28-.08-.6-.2-1.159-.32-1.758a.94.94,0,0,0-.08-.32c-.04-.28-.12-.559-.16-.839-.08-.32-.12-.679-.2-1-.04-.2-.08-.36-.12-.559a7.567,7.567,0,0,1-.2-.919c-.04-.24-.12-.48-.16-.679a6.394,6.394,0,0,1-.2-.839c-.08-.32-.16-.6-.24-.919-.04-.16-.08-.32-.12-.44l-.36-1.2c-.08-.28-.16-.519-.24-.759-.04-.08-.04-.16-.08-.24-.2-.719-.44-1.439-.679-2.158h0a.3.3,0,0,0-.08-.16c-.2-.639-.44-1.279-.679-1.918-.04-.08-.08-.2-.12-.28a5.335,5.335,0,0,0-.28-.719,11.067,11.067,0,0,0-.4-1.039c-.08-.2-.16-.44-.24-.639-.12-.28-.2-.519-.32-.8l-.24-.6c-.16-.36-.32-.759-.479-1.119a4.442,4.442,0,0,0-.28-.639.568.568,0,0,1-.08-.24c-.28-.679-.6-1.359-.919-2,0-.04-.04-.04-.04-.08-.08-.16-.16-.36-.24-.519-.24-.519-.52-1.039-.759-1.558l-.12-.24c-.2-.4-.44-.839-.639-1.239-.16-.32-.36-.679-.52-1a.551.551,0,0,0-.12-.16c-.559-1.079-1.159-2.158-1.8-3.2a1,1,0,0,0-.16-.28.716.716,0,0,0-.2-.28c-.879-1.479-1.8-2.917-2.717-4.356a.836.836,0,0,0-.16-.24,3.453,3.453,0,0,1-.28-.4c-.759-1.119-1.558-2.238-2.358-3.357h0c-.559-.759-1.159-1.558-1.758-2.278-.04-.04-.04-.08-.08-.12-.44-.559-.879-1.079-1.319-1.638a1.077,1.077,0,0,0-.28-.32v-.04c-.519-.639-1.079-1.239-1.6-1.878l-.08-.08c-.16-.2-.32-.36-.479-.559-.36-.4-.679-.759-1.039-1.159l-.2-.2c-.24-.24-.48-.519-.719-.759-.28-.28-.52-.559-.8-.839l-.28-.28a7.184,7.184,0,0,0-.8-.759c-.24-.2-.44-.44-.679-.679a3.6,3.6,0,0,0-.4-.36c-.28-.28-.559-.519-.839-.8-.2-.2-.4-.36-.6-.559-.16-.12-.32-.28-.48-.4-.28-.24-.559-.519-.839-.759a5.065,5.065,0,0,0-.52-.44c-.2-.16-.36-.32-.559-.48-.28-.24-.559-.48-.839-.679-.16-.12-.28-.24-.44-.36-.24-.2-.48-.36-.719-.559-.28-.2-.519-.4-.8-.6-.12-.08-.2-.16-.32-.24-.32-.24-.639-.44-.959-.679-.24-.16-.44-.32-.679-.48-.04-.04-.12-.08-.16-.12-.6-.4-1.159-.8-1.758-1.159h0c-.04-.04-.08-.04-.12-.08-.52-.32-1.079-.679-1.6-1-.12-.08-.28-.16-.4-.24-.44-.24-.879-.519-1.319-.719-.16-.08-.32-.16-.52-.24-.24-.12-.44-.24-.679-.36-.16-.08-.36-.2-.52-.28-.28-.12-.559-.28-.839-.4-.2-.08-.4-.2-.6-.28l-.24-.12c-.559-.24-1.119-.48-1.638-.719-.559-.24-1.119-.44-1.678-.639-.08-.04-.16-.04-.2-.08-.2-.08-.4-.12-.6-.2-.28-.08-.559-.2-.839-.28-.16-.04-.28-.08-.4-.12-.24-.08-.48-.12-.719-.2-.2-.04-.36-.12-.559-.16l-.6-.12c-.24-.04-.48-.12-.719-.16a1.182,1.182,0,0,0-.4-.08c-.24-.04-.44-.08-.679-.12L360.97.18c-.08,0-.2-.04-.28-.04-.24-.04-.44-.04-.679-.08a6.534,6.534,0,0,0-.879-.08c-.08,0-.16-.04-.28-.04h-.6c-.36,0-.719-.04-1.039-.04h-.28a1.639,1.639,0,0,0-.44.04c-.44,0-.879.04-1.319.08h-.4c-.08,0-.2.04-.28.04-.679.08-1.319.16-1.958.28a.24.24,0,0,0-.16.04h-.04a1.42,1.42,0,0,1-.4.08,9.827,9.827,0,0,0-1.159.28c-.2.04-.36.12-.559.16l-.719.24c-.08.04-.12.04-.16.08-.36.12-.719.28-1.079.44-.16.08-.36.16-.52.24-.519.24-1.039.519-1.558.8L330,12.088c.519-.28,1.039-.559,1.558-.8.16-.08.36-.16.519-.24.36-.16.719-.32,1.079-.44.32-.12.6-.2.919-.32.2-.04.36-.12.559-.16.4-.12.759-.2,1.159-.28a1.182,1.182,0,0,1,.4-.08c.08,0,.12-.04.2-.04.639-.12,1.279-.2,1.958-.28a3.877,3.877,0,0,1,.679-.04c.44-.04.879-.04,1.319-.08h.759a9.032,9.032,0,0,1,1.039.04c.28,0,.559.04.879.04.28.04.6.04.879.08.32.04.639.08,1,.12l.839.12c.36.08.719.12,1.079.2.24.04.479.12.719.16.4.08.759.2,1.159.28.24.08.48.12.719.2.44.12.839.24,1.279.4.2.08.4.12.6.2,1.239.44,2.518.919,3.8,1.519.2.08.4.2.6.28.44.2.919.44,1.359.679.24.12.44.24.679.36.6.32,1.2.639,1.8,1,.679.4,1.359.8,2.038,1.239.04.04.08.04.12.08.639.4,1.319.839,1.958,1.279.24.16.44.32.679.48.44.32.879.6,1.279.919.28.2.52.4.8.6.4.28.759.6,1.159.919.28.24.559.44.839.679.36.32.719.6,1.079.919.28.24.559.48.839.759.36.32.719.639,1.039.959.28.28.559.519.839.8.36.32.719.679,1.079,1.039.28.24.52.519.759.759.36.36.719.759,1.079,1.119.24.24.48.48.719.759.4.44.839.879,1.239,1.359.16.2.32.36.48.559.559.639,1.159,1.319,1.678,2a1.077,1.077,0,0,0,.28.32c.48.559.919,1.159,1.4,1.718.6.759,1.159,1.479,1.718,2.238,0,.04.04.04.04.08.8,1.079,1.6,2.2,2.358,3.357.16.2.28.4.44.639.959,1.439,1.838,2.877,2.717,4.356.12.2.24.4.36.559.6,1.039,1.2,2.118,1.8,3.2.2.4.4.8.639,1.2.2.4.44.8.639,1.239.32.6.6,1.239.879,1.838.08.16.16.32.24.519.36.759.719,1.519,1.039,2.318a4.028,4.028,0,0,0,.28.6c.24.559.48,1.159.719,1.718.12.28.2.519.32.8.24.559.44,1.119.639,1.678a5.334,5.334,0,0,0,.28.719c.28.759.52,1.479.8,2.238,0,.04.04.08.04.16.28.8.519,1.6.759,2.4.08.24.16.519.24.759.16.559.32,1.079.48,1.638.08.32.16.6.24.919.12.519.28,1.039.4,1.519a7.556,7.556,0,0,1,.2.919c.12.519.24,1.039.32,1.6.04.28.12.559.16.839.12.679.24,1.4.36,2.078,0,.08.04.2.04.28.12.8.24,1.558.32,2.358.04.24.04.44.08.639.08.559.12,1.119.16,1.678.04.28.04.519.08.8.04.519.08,1.039.08,1.6,0,.24.04.519.04.759.04.759.04,1.479.04,2.238s-.04,1.519-.04,2.278c0,.2-.04.4-.04.639-.04.519-.08,1.039-.12,1.519-.04.28-.04.559-.08.839a11.629,11.629,0,0,1-.16,1.239c-.04.32-.08.6-.12.919-.08.4-.12.759-.2,1.119-.08.32-.12.679-.2,1s-.16.679-.24,1c-.08.4-.2.759-.28,1.119-.08.28-.16.6-.24.879-.12.44-.28.879-.44,1.319-.08.24-.16.48-.24.679-.28.719-.559,1.439-.879,2.118a.874.874,0,0,1-.12.2c-.44.879-.919,1.758-1.4,2.557-.04.08-.08.12-.12.2a22.63,22.63,0,0,1-1.359,1.878c-.12.16-.24.28-.36.44a13.3,13.3,0,0,1-1.439,1.558l-.12.12a14.481,14.481,0,0,1-1.678,1.439,4.187,4.187,0,0,1-.44.32,18.1,18.1,0,0,1-1.838,1.2l16.184-9.391c.639-.36,1.239-.8,1.838-1.2.16-.12.28-.2.44-.32q.839-.659,1.678-1.439l.12-.12c.48-.48.959-1.039,1.439-1.558.12-.16.24-.28.36-.44a22.63,22.63,0,0,0,1.359-1.878l.04-.04c.04-.04.04-.08.08-.12a22.2,22.2,0,0,0,1.4-2.557c.04-.04.04-.08.08-.16,0-.04,0-.04.04-.08.32-.679.6-1.4.879-2.118.04-.08.04-.12.08-.2a2.587,2.587,0,0,0,.16-.519c.16-.44.32-.879.44-1.319l.12-.36c.04-.16.08-.36.12-.519a11.447,11.447,0,0,0,.28-1.119l.12-.48c.04-.16.08-.36.12-.519.08-.32.12-.679.2-1,.04-.16.08-.32.12-.519s.04-.4.08-.6c.04-.28.08-.6.12-.919.04-.16.04-.32.08-.48.04-.28.04-.519.08-.8a5.968,5.968,0,0,0,.08-.839c0-.12.04-.24.04-.36.04-.4.04-.8.08-1.159,0-.2.04-.4.04-.639v-.16c.04-.639.04-1.319.04-2v-.12A18.345,18.345,0,0,1,416.875,75.306Z" transform="translate(809.87 1608.876)"/><g transform="translate(1127.722 1617.692)"><path class="ad" d="M341.367,29.271c23.012,13.253,41.606,45.462,41.526,71.887s-18.755,37.108-41.767,23.815S299.56,79.512,299.6,53.086C299.68,26.62,318.395,15.978,341.367,29.271Z" transform="translate(-299.6 -23.547)"/></g><g transform="translate(1151.307 1640.164)"><path class="ae" d="M357.941,483.693v-8.751a21.117,21.117,0,0,1,2.957,3.477,5.978,5.978,0,0,1,1,3.2,2.24,2.24,0,0,1-1,2.158,3.775,3.775,0,0,1-2.957-.08m-5.475-22.9a20.437,20.437,0,0,1-3.037-3.477,6.045,6.045,0,0,1-1.039-3.2,2.523,2.523,0,0,1,1-2.318c.679-.44,1.678-.44,3.117-.04l-.04,9.031m5.594-21.3-5.515-3.2-.04,7.033c-4.2-1.878-7.433-2.2-9.671-.959s-3.357,3.6-3.357,7.113a17.394,17.394,0,0,0,1.8,7.872,27.486,27.486,0,0,0,4.516,6.514,80.51,80.51,0,0,0,6.634,6.234l-.04,10.59a40.33,40.33,0,0,1-5.794-4.875,43.755,43.755,0,0,1-4.915-5.834l-3.077,5.994a42.618,42.618,0,0,0,5.954,6.873,53.2,53.2,0,0,0,7.792,6.154v6.913l5.515,3.2.04-7.113c4.156,1.8,7.353,2.118,9.591.919s3.317-3.557,3.357-6.993a17.469,17.469,0,0,0-1.8-7.832,26.471,26.471,0,0,0-4.516-6.474,78.325,78.325,0,0,0-6.554-6.114l.04-10.789a42.46,42.46,0,0,1,8.432,8.192l2.8-6.234a46,46,0,0,0-11.229-10.35l.04-6.833" transform="translate(-338.6 -436.3)"/></g><path class="af" d="M5304.32,109.251c-22.9-13.227-41.359-45.235-41.32-71.53.045-14.72,5.9-24.518,15.059-27.978L5290,2.812c.522-.281,1.045-.561,1.567-.8.16-.081.361-.162.521-.241.362-.162.723-.322,1.085-.443.08-.039.12-.039.2-.079.281-.081.522-.162.764-.241.2-.04.362-.121.563-.162.4-.079.8-.2,1.205-.28a1.16,1.16,0,0,0,.361-.081h.041a.241.241,0,0,1,.16-.04c.643-.12,1.327-.2,1.969-.281.081,0,.2-.04.281-.04h.4c.442-.039.883-.079,1.327-.079a1.63,1.63,0,0,1,.441-.04h.28c.322,0,.684.04,1.045.04h.6c.12,0,.2.04.28.04a6.537,6.537,0,0,1,.884.079c.241.04.442.04.683.081.081,0,.2.04.281.04l.843.12c.241.04.442.081.684.121a1.222,1.222,0,0,1,.4.079c.241.04.482.121.723.162l.6.12c.2.04.361.121.562.162.241.079.482.12.723.2.121.04.281.079.4.12.281.081.563.2.844.281.2.081.4.121.6.2.04.04.121.04.2.081.562.2,1.125.4,1.686.642.522.2,1.085.442,1.648.683l.241.121c.2.081.4.2.6.281.281.12.563.281.844.4.16.081.361.2.521.281.242.12.443.241.684.361.16.081.32.162.482.241.442.2.883.482,1.325.723l365.041,211.124-16.269,9.439h0l-.272,93.408Z" transform="translate(6489.875 1725.333) rotate(180)"/></g><g transform="translate(-825 -71.699)"><g class="b" transform="translate(373 188)"><g transform="translate(2146.631 111.771) rotate(120)"><path class="ag" d="M1753.317,71.2c0-.112-.015-.223-.015-.335-.007-.238-.022-.476-.03-.715-.015-.283-.022-.558-.037-.841-.015-.216-.037-.432-.052-.648-.022-.253-.037-.5-.06-.752-.015-.164-.022-.335-.037-.5-.037-.357-.082-.722-.119-1.079q-.034-.313-.067-.625c-.008-.067-.015-.141-.022-.208-.082-.655-.179-1.31-.283-1.965,0-.015-.008-.03-.008-.045l-.045-.268c-.089-.558-.186-1.109-.29-1.668-.015-.1-.037-.194-.06-.29-.052-.261-.1-.529-.164-.789-.067-.32-.127-.64-.193-.96-.037-.179-.082-.35-.127-.529-.067-.29-.134-.573-.2-.864-.052-.216-.1-.439-.156-.655-.067-.261-.141-.521-.208-.782-.074-.29-.149-.573-.223-.864l-.112-.424c-.1-.372-.216-.744-.328-1.124-.074-.246-.141-.491-.216-.737-.022-.067-.037-.141-.06-.208-.208-.677-.424-1.347-.648-2.025a.026.026,0,0,0-.007-.015,1.448,1.448,0,0,0-.06-.164c-.2-.6-.409-1.206-.633-1.809-.03-.089-.067-.186-.1-.275-.082-.223-.164-.447-.253-.663-.119-.32-.238-.648-.365-.968-.082-.2-.164-.4-.246-.61-.1-.246-.2-.5-.3-.744-.075-.179-.141-.365-.223-.551-.149-.357-.305-.707-.454-1.065-.082-.2-.171-.395-.253-.6-.03-.067-.06-.141-.089-.208-.283-.633-.566-1.266-.864-1.9-.008-.022-.022-.045-.03-.067-.082-.171-.164-.335-.238-.5-.238-.5-.476-.99-.722-1.489-.037-.074-.074-.149-.112-.216-.194-.395-.4-.782-.6-1.169-.164-.32-.32-.64-.491-.953-.03-.06-.067-.112-.1-.171q-.815-1.519-1.69-3.015c-.052-.082-.1-.171-.141-.253s-.119-.186-.179-.283q-1.24-2.088-2.576-4.109c-.045-.074-.089-.149-.141-.223-.082-.127-.171-.238-.253-.365q-1.083-1.608-2.219-3.164h0c-.007-.007-.007-.015-.015-.015-.544-.73-1.087-1.452-1.653-2.166l-.075-.1c-.41-.514-.819-1.027-1.236-1.534-.082-.1-.171-.208-.253-.313-.007-.007-.007-.015-.015-.022-.5-.6-1-1.191-1.511-1.764-.022-.03-.052-.052-.074-.082-.156-.179-.313-.35-.469-.521-.328-.365-.648-.73-.975-1.079-.06-.067-.127-.127-.186-.194-.223-.238-.447-.469-.677-.707-.246-.261-.491-.521-.737-.774-.089-.1-.186-.179-.276-.275-.246-.246-.491-.491-.737-.73-.208-.208-.417-.417-.633-.625-.119-.112-.246-.223-.365-.335-.268-.253-.536-.5-.8-.744-.186-.171-.365-.35-.551-.514-.141-.134-.29-.253-.439-.387-.268-.238-.536-.469-.8-.707-.164-.141-.328-.29-.491-.432s-.357-.29-.536-.439c-.26-.216-.529-.432-.789-.648-.141-.112-.275-.223-.41-.335-.223-.179-.454-.342-.677-.514-.246-.186-.491-.38-.737-.566-.1-.074-.2-.156-.3-.231-.305-.223-.61-.432-.916-.648l-.625-.447c-.052-.037-.1-.074-.164-.112-.551-.38-1.1-.744-1.66-1.094-.007,0-.007-.007-.015-.007-.037-.022-.082-.052-.119-.074-.506-.32-1.012-.633-1.519-.931-.127-.074-.253-.149-.387-.223-.417-.238-.834-.469-1.243-.692l-.469-.246c-.209-.112-.424-.223-.633-.328-.164-.082-.335-.179-.5-.261-.261-.134-.521-.246-.789-.372-.186-.089-.38-.179-.566-.268-.074-.037-.156-.074-.231-.112-.521-.238-1.05-.454-1.563-.663s-1.057-.409-1.578-.6l-.2-.067c-.186-.067-.372-.119-.558-.186-.268-.089-.536-.179-.8-.261l-.395-.112c-.231-.067-.461-.127-.692-.194-.179-.045-.357-.1-.529-.149s-.365-.082-.551-.119c-.231-.052-.462-.1-.685-.156-.119-.022-.246-.06-.365-.082-.216-.045-.432-.067-.64-.1-.26-.045-.528-.089-.789-.127-.089-.015-.186-.037-.283-.045-.216-.03-.432-.045-.648-.067-.283-.03-.566-.067-.841-.089-.082-.007-.164-.022-.246-.022-.194-.015-.38-.007-.566-.022-.335-.015-.663-.03-.99-.03-.089,0-.186-.007-.283-.007-.141,0-.283.015-.424.022-.417.007-.826.03-1.228.06-.119.007-.253.007-.372.015-.089.007-.179.03-.268.037-.625.067-1.236.149-1.839.268l-.149.022a.323.323,0,0,0-.037.007c-.126.022-.246.06-.372.089-.372.082-.737.171-1.1.268-.179.052-.35.112-.521.164-.231.074-.469.141-.7.216l-.171.067c-.35.127-.692.275-1.035.424-.164.074-.335.134-.5.216-.5.231-.99.484-1.459.759L1671.3,11.609c.476-.275.96-.529,1.459-.759.164-.074.335-.141.5-.216.342-.149.685-.29,1.035-.424.283-.1.573-.194.864-.29.179-.052.35-.112.521-.164.365-.1.729-.186,1.1-.268l.372-.089a1.507,1.507,0,0,1,.194-.03c.6-.119,1.213-.2,1.831-.268.208-.022.424-.037.64-.06.4-.03.819-.052,1.228-.06.238-.007.469-.015.707-.007.328,0,.655.015.99.03.268.015.543.022.819.045s.558.052.841.089c.313.037.618.067.931.112.26.037.521.082.789.127.335.06.67.119,1,.186.231.045.454.1.685.149.357.082.722.171,1.087.268.231.06.462.127.692.194.395.112.8.238,1.2.372.186.06.372.119.558.186,1.176.4,2.367.886,3.581,1.437.186.082.372.179.566.268.424.2.856.409,1.288.625.208.1.424.216.633.328.566.3,1.139.61,1.712.938.64.372,1.28.759,1.913,1.161l.112.067c.618.395,1.228.8,1.839,1.221.208.141.417.3.625.447.409.29.811.581,1.213.878l.737.558c.365.283.73.566,1.094.856.26.208.529.424.789.648q.513.424,1.027.871c.268.231.536.469.8.7.335.3.67.6,1,.9.268.246.536.491.8.744.335.32.67.64,1,.968.246.238.491.484.737.722.342.35.685.7,1.02,1.057.223.231.447.469.67.707.395.417.774.849,1.161,1.273.156.171.313.342.469.521.544.618,1.079,1.236,1.6,1.869.089.1.171.208.253.313.439.536.878,1.079,1.31,1.63.551.7,1.087,1.407,1.623,2.129.015.022.03.037.045.06.759,1.035,1.5,2.092,2.218,3.156.134.194.268.395.395.588q1.34,2.021,2.576,4.1c.1.179.216.365.32.543.581,1,1.146,2,1.69,3.015.2.372.395.752.588,1.124s.4.774.6,1.161c.29.573.566,1.154.841,1.727.074.156.156.32.231.476.342.722.67,1.452.99,2.181.082.194.164.387.253.581.231.543.462,1.079.685,1.623.1.246.2.491.3.737.208.529.409,1.05.61,1.578.082.223.171.447.253.663.261.7.506,1.407.744,2.107a1.1,1.1,0,0,0,.052.141q.38,1.128.715,2.256c.074.246.141.484.208.722.149.521.3,1.035.439,1.556.074.283.149.573.223.856.127.484.246.968.365,1.452.067.283.134.573.2.856.112.5.216,1,.32,1.489.052.261.112.521.156.782.127.655.246,1.31.35,1.965.015.089.03.179.045.261.119.744.216,1.481.313,2.218.022.208.045.417.067.618.06.529.112,1.057.164,1.586.022.253.037.5.06.752q.056.748.089,1.5c.015.238.022.476.03.707.022.707.045,1.407.037,2.1,0,.73-.022,1.444-.052,2.151-.008.2-.022.395-.037.588-.03.484-.06.968-.1,1.437-.022.275-.052.536-.082.8-.045.4-.089.8-.141,1.184-.037.29-.082.573-.126.849-.06.357-.119.715-.186,1.065-.06.313-.119.625-.186.938s-.141.625-.216.938c-.089.365-.179.715-.276,1.072-.074.275-.156.551-.238.819-.126.424-.268.834-.409,1.243-.074.216-.149.439-.231.655-.261.685-.536,1.347-.834,1.988-.03.067-.067.134-.1.208a24.7,24.7,0,0,1-1.325,2.4c-.037.06-.074.127-.112.179-.4.625-.826,1.206-1.273,1.772-.1.134-.216.268-.328.4a19.757,19.757,0,0,1-1.348,1.481c-.037.037-.067.074-.1.1a19.344,19.344,0,0,1-1.571,1.355l-.395.305a18.667,18.667,0,0,1-1.72,1.146l15.276-8.874a18.65,18.65,0,0,0,1.72-1.146c.134-.1.268-.2.395-.305a19.322,19.322,0,0,0,1.571-1.355c.037-.037.067-.074.1-.1a19.756,19.756,0,0,0,1.347-1.481c.112-.134.216-.261.328-.4.447-.566.871-1.146,1.273-1.772a.323.323,0,0,0,.037-.052,1.141,1.141,0,0,1,.075-.127,24.839,24.839,0,0,0,1.332-2.412c.022-.045.052-.089.075-.134a.264.264,0,0,1,.03-.067c.3-.64.581-1.3.834-1.988.022-.06.052-.112.074-.171.06-.156.1-.328.164-.484.141-.409.283-.819.41-1.243.037-.112.074-.216.112-.328.045-.156.082-.328.127-.491.1-.35.194-.707.283-1.072.037-.149.082-.29.112-.439s.067-.335.1-.5c.067-.313.127-.625.186-.938.03-.164.067-.313.1-.476l.089-.581c.045-.283.089-.566.127-.849.022-.149.045-.283.067-.432.03-.246.052-.5.075-.752s.06-.536.082-.8c.007-.112.022-.216.037-.328.03-.365.045-.737.067-1.1.015-.2.03-.395.037-.6,0-.045.007-.1.007-.141.03-.618.045-1.251.045-1.891v-.112C1753.347,72.379,1753.339,71.791,1753.317,71.2Z" transform="translate(-753.879 1126.314)"/><g transform="translate(905.986 1135.047)"><path class="ah" d="M1557.176,124.647c21.732,12.548,39.284,42.962,39.216,67.93s-17.739,35.051-39.471,22.5-39.3-42.962-39.224-67.938S1535.443,112.1,1557.176,124.647Z" transform="translate(-1517.697 -119.25)"/></g></g><g transform="translate(236 317.917)"><path class="ai" d="M433.455,10.794a40.128,40.128,0,0,0-10.376-5.153,45.426,45.426,0,0,0-11.838-2.3,44.448,44.448,0,0,0-11.664.87L393.587,0l-4.909,2.3,5.188,3.656c-.383.139-.94.383-1.636.7s-1.219.592-1.532.766L385.509,3.76l-4.909,2.3,6.058,4.213a11.264,11.264,0,0,0-3.726,6.407,10.368,10.368,0,0,0,1.567,7.1,23.225,23.225,0,0,0,6.755,6.859,38.477,38.477,0,0,0,10.585,5.223,42.95,42.95,0,0,0,11.978,2.019l.139-6.441c-5.745-.279-10.515-1.706-14.206-4.283a11.533,11.533,0,0,1-4.492-5.188,5.565,5.565,0,0,1,.592-5.258l13.405,9.4,4.909-2.3L399.437,13.51a15.137,15.137,0,0,1,1.532-.766c.7-.313,1.253-.557,1.637-.7l14.728,10.306,4.909-2.3-13.405-9.4a27.62,27.62,0,0,1,9.088.7,23.246,23.246,0,0,1,8.008,3.551c3.691,2.577,5.223,5.5,4.6,8.809L441.6,24.9a9.544,9.544,0,0,0-1.184-7.1,24.461,24.461,0,0,0-6.964-7" transform="translate(0)"/></g></g><g transform="translate(373 169)"><g transform="translate(2146.631 111.771) rotate(120)"><path class="ag" d="M1753.317,71.2c0-.112-.015-.223-.015-.335-.007-.238-.022-.476-.03-.715-.015-.283-.022-.558-.037-.841-.015-.216-.037-.432-.052-.648-.022-.253-.037-.5-.06-.752-.015-.164-.022-.335-.037-.5-.037-.357-.082-.722-.119-1.079q-.034-.313-.067-.625c-.008-.067-.015-.141-.022-.208-.082-.655-.179-1.31-.283-1.965,0-.015-.008-.03-.008-.045l-.045-.268c-.089-.558-.186-1.109-.29-1.668-.015-.1-.037-.194-.06-.29-.052-.261-.1-.529-.164-.789-.067-.32-.127-.64-.193-.96-.037-.179-.082-.35-.127-.529-.067-.29-.134-.573-.2-.864-.052-.216-.1-.439-.156-.655-.067-.261-.141-.521-.208-.782-.074-.29-.149-.573-.223-.864l-.112-.424c-.1-.372-.216-.744-.328-1.124-.074-.246-.141-.491-.216-.737-.022-.067-.037-.141-.06-.208-.208-.677-.424-1.347-.648-2.025a.026.026,0,0,0-.007-.015,1.448,1.448,0,0,0-.06-.164c-.2-.6-.409-1.206-.633-1.809-.03-.089-.067-.186-.1-.275-.082-.223-.164-.447-.253-.663-.119-.32-.238-.648-.365-.968-.082-.2-.164-.4-.246-.61-.1-.246-.2-.5-.3-.744-.075-.179-.141-.365-.223-.551-.149-.357-.305-.707-.454-1.065-.082-.2-.171-.395-.253-.6-.03-.067-.06-.141-.089-.208-.283-.633-.566-1.266-.864-1.9-.008-.022-.022-.045-.03-.067-.082-.171-.164-.335-.238-.5-.238-.5-.476-.99-.722-1.489-.037-.074-.074-.149-.112-.216-.194-.395-.4-.782-.6-1.169-.164-.32-.32-.64-.491-.953-.03-.06-.067-.112-.1-.171q-.815-1.519-1.69-3.015c-.052-.082-.1-.171-.141-.253s-.119-.186-.179-.283q-1.24-2.088-2.576-4.109c-.045-.074-.089-.149-.141-.223-.082-.127-.171-.238-.253-.365q-1.083-1.608-2.219-3.164h0c-.007-.007-.007-.015-.015-.015-.544-.73-1.087-1.452-1.653-2.166l-.075-.1c-.41-.514-.819-1.027-1.236-1.534-.082-.1-.171-.208-.253-.313-.007-.007-.007-.015-.015-.022-.5-.6-1-1.191-1.511-1.764-.022-.03-.052-.052-.074-.082-.156-.179-.313-.35-.469-.521-.328-.365-.648-.73-.975-1.079-.06-.067-.127-.127-.186-.194-.223-.238-.447-.469-.677-.707-.246-.261-.491-.521-.737-.774-.089-.1-.186-.179-.276-.275-.246-.246-.491-.491-.737-.73-.208-.208-.417-.417-.633-.625-.119-.112-.246-.223-.365-.335-.268-.253-.536-.5-.8-.744-.186-.171-.365-.35-.551-.514-.141-.134-.29-.253-.439-.387-.268-.238-.536-.469-.8-.707-.164-.141-.328-.29-.491-.432s-.357-.29-.536-.439c-.26-.216-.529-.432-.789-.648-.141-.112-.275-.223-.41-.335-.223-.179-.454-.342-.677-.514-.246-.186-.491-.38-.737-.566-.1-.074-.2-.156-.3-.231-.305-.223-.61-.432-.916-.648l-.625-.447c-.052-.037-.1-.074-.164-.112-.551-.38-1.1-.744-1.66-1.094-.007,0-.007-.007-.015-.007-.037-.022-.082-.052-.119-.074-.506-.32-1.012-.633-1.519-.931-.127-.074-.253-.149-.387-.223-.417-.238-.834-.469-1.243-.692l-.469-.246c-.209-.112-.424-.223-.633-.328-.164-.082-.335-.179-.5-.261-.261-.134-.521-.246-.789-.372-.186-.089-.38-.179-.566-.268-.074-.037-.156-.074-.231-.112-.521-.238-1.05-.454-1.563-.663s-1.057-.409-1.578-.6l-.2-.067c-.186-.067-.372-.119-.558-.186-.268-.089-.536-.179-.8-.261l-.395-.112c-.231-.067-.461-.127-.692-.194-.179-.045-.357-.1-.529-.149s-.365-.082-.551-.119c-.231-.052-.462-.1-.685-.156-.119-.022-.246-.06-.365-.082-.216-.045-.432-.067-.64-.1-.26-.045-.528-.089-.789-.127-.089-.015-.186-.037-.283-.045-.216-.03-.432-.045-.648-.067-.283-.03-.566-.067-.841-.089-.082-.007-.164-.022-.246-.022-.194-.015-.38-.007-.566-.022-.335-.015-.663-.03-.99-.03-.089,0-.186-.007-.283-.007-.141,0-.283.015-.424.022-.417.007-.826.03-1.228.06-.119.007-.253.007-.372.015-.089.007-.179.03-.268.037-.625.067-1.236.149-1.839.268l-.149.022a.323.323,0,0,0-.037.007c-.126.022-.246.06-.372.089-.372.082-.737.171-1.1.268-.179.052-.35.112-.521.164-.231.074-.469.141-.7.216l-.171.067c-.35.127-.692.275-1.035.424-.164.074-.335.134-.5.216-.5.231-.99.484-1.459.759L1671.3,11.609c.476-.275.96-.529,1.459-.759.164-.074.335-.141.5-.216.342-.149.685-.29,1.035-.424.283-.1.573-.194.864-.29.179-.052.35-.112.521-.164.365-.1.729-.186,1.1-.268l.372-.089a1.507,1.507,0,0,1,.194-.03c.6-.119,1.213-.2,1.831-.268.208-.022.424-.037.64-.06.4-.03.819-.052,1.228-.06.238-.007.469-.015.707-.007.328,0,.655.015.99.03.268.015.543.022.819.045s.558.052.841.089c.313.037.618.067.931.112.26.037.521.082.789.127.335.06.67.119,1,.186.231.045.454.1.685.149.357.082.722.171,1.087.268.231.06.462.127.692.194.395.112.8.238,1.2.372.186.06.372.119.558.186,1.176.4,2.367.886,3.581,1.437.186.082.372.179.566.268.424.2.856.409,1.288.625.208.1.424.216.633.328.566.3,1.139.61,1.712.938.64.372,1.28.759,1.913,1.161l.112.067c.618.395,1.228.8,1.839,1.221.208.141.417.3.625.447.409.29.811.581,1.213.878l.737.558c.365.283.73.566,1.094.856.26.208.529.424.789.648q.513.424,1.027.871c.268.231.536.469.8.7.335.3.67.6,1,.9.268.246.536.491.8.744.335.32.67.64,1,.968.246.238.491.484.737.722.342.35.685.7,1.02,1.057.223.231.447.469.67.707.395.417.774.849,1.161,1.273.156.171.313.342.469.521.544.618,1.079,1.236,1.6,1.869.089.1.171.208.253.313.439.536.878,1.079,1.31,1.63.551.7,1.087,1.407,1.623,2.129.015.022.03.037.045.06.759,1.035,1.5,2.092,2.218,3.156.134.194.268.395.395.588q1.34,2.021,2.576,4.1c.1.179.216.365.32.543.581,1,1.146,2,1.69,3.015.2.372.395.752.588,1.124s.4.774.6,1.161c.29.573.566,1.154.841,1.727.074.156.156.32.231.476.342.722.67,1.452.99,2.181.082.194.164.387.253.581.231.543.462,1.079.685,1.623.1.246.2.491.3.737.208.529.409,1.05.61,1.578.082.223.171.447.253.663.261.7.506,1.407.744,2.107a1.1,1.1,0,0,0,.052.141q.38,1.128.715,2.256c.074.246.141.484.208.722.149.521.3,1.035.439,1.556.074.283.149.573.223.856.127.484.246.968.365,1.452.067.283.134.573.2.856.112.5.216,1,.32,1.489.052.261.112.521.156.782.127.655.246,1.31.35,1.965.015.089.03.179.045.261.119.744.216,1.481.313,2.218.022.208.045.417.067.618.06.529.112,1.057.164,1.586.022.253.037.5.06.752q.056.748.089,1.5c.015.238.022.476.03.707.022.707.045,1.407.037,2.1,0,.73-.022,1.444-.052,2.151-.008.2-.022.395-.037.588-.03.484-.06.968-.1,1.437-.022.275-.052.536-.082.8-.045.4-.089.8-.141,1.184-.037.29-.082.573-.126.849-.06.357-.119.715-.186,1.065-.06.313-.119.625-.186.938s-.141.625-.216.938c-.089.365-.179.715-.276,1.072-.074.275-.156.551-.238.819-.126.424-.268.834-.409,1.243-.074.216-.149.439-.231.655-.261.685-.536,1.347-.834,1.988-.03.067-.067.134-.1.208a24.7,24.7,0,0,1-1.325,2.4c-.037.06-.074.127-.112.179-.4.625-.826,1.206-1.273,1.772-.1.134-.216.268-.328.4a19.757,19.757,0,0,1-1.348,1.481c-.037.037-.067.074-.1.1a19.344,19.344,0,0,1-1.571,1.355l-.395.305a18.667,18.667,0,0,1-1.72,1.146l15.276-8.874a18.65,18.65,0,0,0,1.72-1.146c.134-.1.268-.2.395-.305a19.322,19.322,0,0,0,1.571-1.355c.037-.037.067-.074.1-.1a19.756,19.756,0,0,0,1.347-1.481c.112-.134.216-.261.328-.4.447-.566.871-1.146,1.273-1.772a.323.323,0,0,0,.037-.052,1.141,1.141,0,0,1,.075-.127,24.839,24.839,0,0,0,1.332-2.412c.022-.045.052-.089.075-.134a.264.264,0,0,1,.03-.067c.3-.64.581-1.3.834-1.988.022-.06.052-.112.074-.171.06-.156.1-.328.164-.484.141-.409.283-.819.41-1.243.037-.112.074-.216.112-.328.045-.156.082-.328.127-.491.1-.35.194-.707.283-1.072.037-.149.082-.29.112-.439s.067-.335.1-.5c.067-.313.127-.625.186-.938.03-.164.067-.313.1-.476l.089-.581c.045-.283.089-.566.127-.849.022-.149.045-.283.067-.432.03-.246.052-.5.075-.752s.06-.536.082-.8c.007-.112.022-.216.037-.328.03-.365.045-.737.067-1.1.015-.2.03-.395.037-.6,0-.045.007-.1.007-.141.03-.618.045-1.251.045-1.891v-.112C1753.347,72.379,1753.339,71.791,1753.317,71.2Z" transform="translate(-753.879 1126.314)"/><g transform="translate(905.986 1135.047)"><path class="ah" d="M1557.176,124.647c21.732,12.548,39.284,42.962,39.216,67.93s-17.739,35.051-39.471,22.5-39.3-42.962-39.224-67.938S1535.443,112.1,1557.176,124.647Z" transform="translate(-1517.697 -119.25)"/></g></g><g transform="translate(236 317.917)"><path class="ai" d="M433.455,10.794a40.128,40.128,0,0,0-10.376-5.153,45.426,45.426,0,0,0-11.838-2.3,44.448,44.448,0,0,0-11.664.87L393.587,0l-4.909,2.3,5.188,3.656c-.383.139-.94.383-1.636.7s-1.219.592-1.532.766L385.509,3.76l-4.909,2.3,6.058,4.213a11.264,11.264,0,0,0-3.726,6.407,10.368,10.368,0,0,0,1.567,7.1,23.225,23.225,0,0,0,6.755,6.859,38.477,38.477,0,0,0,10.585,5.223,42.95,42.95,0,0,0,11.978,2.019l.139-6.441c-5.745-.279-10.515-1.706-14.206-4.283a11.533,11.533,0,0,1-4.492-5.188,5.565,5.565,0,0,1,.592-5.258l13.405,9.4,4.909-2.3L399.437,13.51a15.137,15.137,0,0,1,1.532-.766c.7-.313,1.253-.557,1.637-.7l14.728,10.306,4.909-2.3-13.405-9.4a27.62,27.62,0,0,1,9.088.7,23.246,23.246,0,0,1,8.008,3.551c3.691,2.577,5.223,5.5,4.6,8.809L441.6,24.9a9.544,9.544,0,0,0-1.184-7.1,24.461,24.461,0,0,0-6.964-7" transform="translate(0)"/></g></g></g><path class="aj" d="M389.425,252.939,382.575,249,372.3,254.994l6.85,3.939,10.275-5.994" transform="translate(104.968 -29.796)"/><path class="ak" d="M511.925,323.639l-6.85-3.939L494.8,325.522l6.85,4.11,10.275-5.994" transform="translate(192.246 20.575)"/><path class="al" d="M508.675,321.778l-13.7-7.877L484.7,319.723l13.871,8.049,10.1-5.994" transform="translate(185.049 16.444)"/><path class="am" d="M446.63,286.034a10.915,10.915,0,0,0-10.275,0c-2.74,1.712-2.74,4.281,0,5.994a10.915,10.915,0,0,0,10.275,0c2.911-1.712,2.911-4.452,0-5.994" transform="translate(149.141 -4.325)"/></svg>