<svg xmlns="http://www.w3.org/2000/svg" width="166" height="48" viewBox="0 0 166 48"><defs><style>.a{fill:#fff}</style><linearGradient id="a" x1=".915" y1=".977" x2="-.385" y2=".309" gradientUnits="objectBoundingBox"><stop offset="0" stop-color="#00a0ff"/><stop offset=".007" stop-color="#00a1ff"/><stop offset=".26" stop-color="#00beff"/><stop offset=".512" stop-color="#00d2ff"/><stop offset=".76" stop-color="#00dfff"/><stop offset="1" stop-color="#00e3ff"/></linearGradient><linearGradient id="b" x1="1.074" y1=".581" x2="-1.303" y2=".581" gradientUnits="objectBoundingBox"><stop offset="0" stop-color="#ffe000"/><stop offset=".409" stop-color="#ffbd00"/><stop offset=".775" stop-color="orange"/><stop offset="1" stop-color="#ff9c00"/></linearGradient><linearGradient id="c" x1=".862" y1="-.125" x2="-.502" y2="-1.897" gradientUnits="objectBoundingBox"><stop offset="0" stop-color="#ff3a44"/><stop offset="1" stop-color="#c31162"/></linearGradient><linearGradient id="d" x1="-.189" y1="2.598" x2=".42" y2="1.808" gradientUnits="objectBoundingBox"><stop offset="0" stop-color="#32a071"/><stop offset=".068" stop-color="#2da771"/><stop offset=".476" stop-color="#15cf74"/><stop offset=".801" stop-color="#06e775"/><stop offset="1" stop-color="#00f076"/></linearGradient></defs><path d="M159.792 48H6.164A6.112 6.112 0 0 1 0 41.984V6.016A6.112 6.112 0 0 1 6.164 0h153.672A6.112 6.112 0 0 1 166 6.016v35.968A6.151 6.151 0 0 1 159.792 48z"/><path class="a" d="M56.898 12.283a3.179 3.179 0 0 1-.894 2.385 3.467 3.467 0 0 1-2.64 1.065 3.6 3.6 0 0 1-2.64-1.065 3.8 3.8 0 0 1 0-5.365 3.829 3.829 0 0 1 4.13-.766 2.775 2.775 0 0 1 1.107.809l-.639.639a2.482 2.482 0 0 0-1.959-.852 2.636 2.636 0 0 0-1.959.809 2.727 2.727 0 0 0-.809 2.086 2.767 2.767 0 0 0 2.768 2.9 2.6 2.6 0 0 0 2-.809 2.254 2.254 0 0 0 .6-1.448h-2.6v-.852h3.492a1.6 1.6 0 0 1 .043.464zM62.435 9.302h-3.279v2.257h2.938v.849h-2.938v2.257h3.279v.894h-4.173V8.408h4.173zM66.309 15.608h-.938v-6.3h-2v-.9h4.939v.894h-2v6.306zM71.888 15.608v-7.2h.937v7.2zM76.912 15.608h-.938v-6.3h-2v-.9h4.939v.894h-2v6.306zM88.282 14.667a3.7 3.7 0 0 1-5.28 0 3.912 3.912 0 0 1 0-5.365 3.7 3.7 0 0 1 6.345 2.64 3.829 3.829 0 0 1-1.065 2.725zm-4.6-.6a2.572 2.572 0 0 0 1.959.809 2.636 2.636 0 0 0 1.959-.809 2.936 2.936 0 0 0 .809-2.044 2.633 2.633 0 0 0-.809-2.044 2.572 2.572 0 0 0-1.959-.809 2.636 2.636 0 0 0-1.959.809 2.986 2.986 0 0 0 0 4.088zM90.623 15.604v-7.2h1.107l3.492 5.578h.043l-.043-1.405V8.365h.937v7.2h-.979l-3.662-5.876h-.043l.043 1.405v4.471h-.895z"/><path d="M81.9 26.155a5.11 5.11 0 1 0 5.11 5.11 5.018 5.018 0 0 0-5.11-5.11zm0 8.176a3.074 3.074 0 1 1 2.853-3.066 2.933 2.933 0 0 1-2.853 3.066zm-11.156-8.176a5.11 5.11 0 1 0 5.11 5.11 5.018 5.018 0 0 0-5.106-5.11zm0 8.176a3.074 3.074 0 1 1 2.853-3.066 2.933 2.933 0 0 1-2.849 3.066zm-13.239-6.639v2.172h5.152a4.506 4.506 0 0 1-1.192 2.725 5.25 5.25 0 0 1-4 1.576 5.749 5.749 0 1 1 3.915-9.973l1.533-1.533a7.52 7.52 0 0 0-5.408-2.167 7.921 7.921 0 1 0 0 15.84 7.308 7.308 0 0 0 5.536-2.214 7.117 7.117 0 0 0 1.874-5.067 6.443 6.443 0 0 0-.128-1.363zm54.206 1.7a4.7 4.7 0 0 0-4.343-3.236 4.83 4.83 0 0 0-4.812 5.11 5.009 5.009 0 0 0 5.067 5.11 5.124 5.124 0 0 0 4.258-2.257l-1.746-1.15a2.915 2.915 0 0 1-2.512 1.405 2.563 2.563 0 0 1-2.47-1.533l6.813-2.81zm-6.941 1.7a2.826 2.826 0 0 1 2.683-2.981 1.889 1.889 0 0 1 1.874 1.065zm-5.536 4.939h2.257V21.046h-2.257zm-3.662-8.772h-.085a3.526 3.526 0 0 0-2.683-1.15 5.092 5.092 0 0 0 0 10.177 3.526 3.526 0 0 0 2.683-1.15h.085v.724c0 1.959-1.022 2.981-2.725 2.981a2.786 2.786 0 0 1-2.555-1.831l-1.959.809a4.838 4.838 0 0 0 4.514 3.023c2.64 0 4.854-1.533 4.854-5.323v-9.07h-2.129v.809zm-2.555 7.069a3.1 3.1 0 0 1 0-6.174 3.111 3.111 0 0 1 0 6.174zm29.211-13.285h-5.365v14.949h2.214v-5.664h3.108a4.647 4.647 0 1 0 .043-9.283zm.043 7.239h-3.194v-5.11h3.194a2.566 2.566 0 0 1 2.6 2.555 2.592 2.592 0 0 1-2.599 2.557zm13.8-2.172a4.26 4.26 0 0 0-4 2.3l2 .809a2.41 2.41 0 0 1 4.386.809v.17a5.09 5.09 0 0 0-2.342-.6c-2.129 0-4.3 1.192-4.3 3.364a3.44 3.44 0 0 0 3.7 3.279 3.2 3.2 0 0 0 2.853-1.448h.085v1.15h2.172v-5.7c-.001-2.64-2.002-4.13-4.557-4.13zm-.255 8.218c-.724 0-1.746-.383-1.746-1.277 0-1.15 1.277-1.618 2.385-1.618a3.9 3.9 0 0 1 2.044.511 2.771 2.771 0 0 1-2.687 2.387zm12.647-7.878l-2.563 6.476h-.085l-2.64-6.472h-2.385l4 9.07-2.257 5.025h2.342l6.089-14.094zm-20.1 9.581h2.214V21.046h-2.214z" fill="#fff"/><path d="M56.754 49.185a2.473 2.473 0 0 0-.554 1.7v26.489a2.552 2.552 0 0 0 .554 1.7l.085.085 14.818-14.815V64L56.839 49.1z" transform="translate(-44.234 -40.11)" fill="url(#a)"/><path d="M97.439 82.62L92.5 77.68v-.341l4.939-4.939.128.043 5.876 3.321c1.661.937 1.661 2.512 0 3.449l-5.876 3.321z" transform="translate(-65.077 -53.489)" fill="url(#b)"/><path d="M77.471 89.425L72.4 84.4 57.5 99.3a1.943 1.943 0 0 0 2.47.085l17.5-9.964" transform="translate(-44.981 -60.379)" fill="url(#c)"/><path d="M77.471 58.516l-17.5-9.964a1.89 1.89 0 0 0-2.47.085l14.9 14.9z" transform="translate(-44.981 -39.562)" fill="url(#d)"/><path d="M32.363 28.961L14.99 38.84a1.955 1.955 0 0 1-2.385 0l-.085.085.085.085a1.959 1.959 0 0 0 2.385 0l17.5-9.922z" opacity=".2"/><path class="h" d="M12.52 38.751a2.473 2.473 0 0 1-.554-1.7v.17a2.552 2.552 0 0 0 .554 1.7l.085-.085zM38.323 25.554l-5.961 3.406.128.128 5.876-3.321a2.044 2.044 0 0 0 1.235-1.746 2.275 2.275 0 0 1-1.278 1.533z"/><path d="M14.989 9.203l23.335 13.286a2.094 2.094 0 0 1 1.235 1.533 2.184 2.184 0 0 0-1.235-1.746L14.989 8.99c-1.661-.937-3.023-.17-3.023 1.746v.17c0-1.878 1.363-2.678 3.023-1.703z" opacity=".25" fill="#fff"/></svg>