<svg xmlns="http://www.w3.org/2000/svg" width="530.398" height="452.219" viewBox="0 0 530.398 452.219"><defs><style>.a{fill:url(#a);}.b{fill:url(#b);}.c{fill:url(#c);}.d{fill:url(#d);}.e{fill:url(#u);}.f{fill:url(#v);}.g{fill:url(#w);}.h{fill:url(#x);}.i{fill:url(#y);}.j{fill:url(#z);}.k{fill:url(#aa);}.l{fill:url(#ab);}</style><linearGradient id="a" x1="0.598" y1="0.871" x2="1" y2="-0.413" gradientUnits="objectBoundingBox"><stop offset="0" stop-color="#002387"/><stop offset="1" stop-color="#5d9bff"/></linearGradient><linearGradient id="b" x1="0.5" y1="0.069" x2="0.5" y2="1.313" gradientUnits="objectBoundingBox"><stop offset="0" stop-color="#0055fd"/><stop offset="1" stop-color="#5d9bff"/></linearGradient><linearGradient id="c" x1="1.248" y1="-0.077" x2="0.362" y2="0.702" gradientUnits="objectBoundingBox"><stop offset="0" stop-color="#00359f"/><stop offset="1" stop-color="#001b50"/></linearGradient><linearGradient id="d" x1="0.028" y1="1.134" x2="0.87" y2="0.273" gradientUnits="objectBoundingBox"><stop offset="0" stop-color="#bfbfbf"/><stop offset="1" stop-color="#bfbfbf" stop-opacity="0"/></linearGradient><linearGradient id="u" x1="0.609" y1="0.787" x2="0.89" y2="-0.313" gradientUnits="objectBoundingBox"><stop offset="0" stop-color="#002387"/><stop offset="1" stop-color="#14e65a"/></linearGradient><linearGradient id="v" x1="0.5" y1="-0.33" x2="0.5" y2="1.348" gradientUnits="objectBoundingBox"><stop offset="0" stop-color="#0055fd"/><stop offset="1" stop-color="#14e65a"/></linearGradient><linearGradient id="w" x1="1.59" y1="-0.257" x2="0.5" y2="0.575" gradientUnits="objectBoundingBox"><stop offset="0" stop-color="#14e65a"/><stop offset="1" stop-color="#001b50"/></linearGradient><linearGradient id="x" x1="0.5" y1="1.112" x2="0.598" y2="-0.154" gradientUnits="objectBoundingBox"><stop offset="0" stop-color="#14e65a"/><stop offset="1" stop-color="#b1ffcb"/></linearGradient><linearGradient id="y" x1="0.5" y1="0.069" x2="0.5" y2="1.313" gradientUnits="objectBoundingBox"><stop offset="0" stop-color="#0ecf4e"/><stop offset="1" stop-color="#14e65a"/></linearGradient><linearGradient id="z" x1="1.248" y1="-0.077" x2="0.5" y2="1.251" gradientUnits="objectBoundingBox"><stop offset="0" stop-color="#14e65a"/><stop offset="1" stop-color="#001687"/></linearGradient><linearGradient id="aa" x1="0.5" y1="0.863" x2="0.616" y2="0.112" gradientUnits="objectBoundingBox"><stop offset="0" stop-color="#14e65a" stop-opacity="0.678"/><stop offset="1" stop-color="#5d9bff" stop-opacity="0"/></linearGradient><linearGradient id="ab" x1="0.926" y1="0.124" x2="0" y2="0.904" gradientUnits="objectBoundingBox"><stop offset="0" stop-color="#14e65a" stop-opacity="0"/><stop offset="1" stop-color="#14e65a"/></linearGradient></defs><g transform="translate(-500 -4650.189)"><g transform="translate(597.762 4770.299)"><g transform="translate(0 0)"><path class="a" d="M111.2,158.242v89.511l77.5-44.643V113.6Z" transform="translate(-33.701 -68.732)"/><path class="b" d="M77,138.669l77.5,44.642L232,138.669,154.5,93.8Z" transform="translate(-77 -93.8)"/><path class="c" d="M77,203.111V113.6l77.5,44.643v89.511Z" transform="translate(-77 -68.732)"/></g></g><path class="d" d="M77,138.669l77.5,44.642,354.9-206.1L431.9-67.661Z" transform="translate(423 4862.098)"/><path class="d" d="M77,138.669l77.5,44.642,354.9-206.1L431.9-67.661Z" transform="translate(521 4919.098)"/><g transform="translate(500 4826.897)"><g transform="translate(0 0)"><path class="a" d="M111.2,158.242v89.511l77.5-44.643V113.6Z" transform="translate(-33.701 -68.732)"/><path class="b" d="M77,138.669l77.5,44.642L232,138.669,154.5,93.8Z" transform="translate(-77 -93.8)"/><path class="c" d="M77,203.111V113.6l77.5,44.643v89.511Z" transform="translate(-77 -68.732)"/></g></g><g transform="translate(597.762 4660.188)"><g transform="translate(0 0)"><path class="a" d="M111.2,158.242v89.511l77.5-44.643V113.6Z" transform="translate(-33.701 -68.732)"/><path class="b" d="M77,138.669l77.5,44.642L232,138.669,154.5,93.8Z" transform="translate(-77 -93.8)"/><path class="c" d="M77,203.111V113.6l77.5,44.643v89.511Z" transform="translate(-77 -68.732)"/></g></g><g transform="translate(500 4716.786)"><g transform="translate(0 0)"><path class="a" d="M111.2,158.242v89.511l77.5-44.643V113.6Z" transform="translate(-33.701 -68.732)"/><path class="b" d="M77,138.669l77.5,44.642L232,138.669,154.5,93.8Z" transform="translate(-77 -93.8)"/><path class="c" d="M77,203.111V113.6l77.5,44.643v89.511Z" transform="translate(-77 -68.732)"/></g></g><g transform="translate(695.525 4826.897)"><path class="a" d="M111.2,158.242v89.511l77.5-44.643V113.6Z" transform="translate(-33.701 -68.732)"/><path class="b" d="M77,138.669l77.5,44.642L232,138.669,154.5,93.8Z" transform="translate(-77 -93.8)"/><path class="c" d="M77,203.111V113.6l77.5,44.643v89.511Z" transform="translate(-77 -68.732)"/></g><g transform="translate(695.525 4716.897)"><path class="a" d="M111.2,158.242v89.511l77.5-44.643V113.6Z" transform="translate(-33.701 -68.732)"/><path class="b" d="M77,138.669l77.5,44.642L232,138.669,154.5,93.8Z" transform="translate(-77 -93.8)"/><path class="c" d="M77,203.111V113.6l77.5,44.643v89.511Z" transform="translate(-77 -68.732)"/></g><g transform="translate(597.762 4883.497)"><path class="e" d="M111.2,158.242v89.511l77.5-44.643V113.6Z" transform="translate(-33.701 -68.732)"/><path class="f" d="M77,138.669l77.5,44.642L232,138.669,154.5,93.8Z" transform="translate(-77 -93.8)"/><path class="g" d="M77,203.111V113.6l77.5,44.643v89.511Z" transform="translate(-77 -68.732)"/></g><g transform="translate(613.214 4785)"><path class="h" d="M111.2,149.177V220.51l61.761-35.577V113.6Z" transform="translate(-49.439 -77.843)"/><path class="i" d="M77,129.557l61.761,35.577,61.762-35.577L138.761,93.8Z" transform="translate(-77 -93.8)"/><path class="j" d="M77,184.934V113.6l61.761,35.577V220.51Z" transform="translate(-77 -77.843)"/></g><g transform="translate(597.762 4650.189)"><path class="k" d="M111.2-1.757v251.12l77.5-44.643V-46.4Z" transform="translate(-33.7 46.4)"/><path class="l" d="M77,204.72V-46.4L154.5-1.757v251.12Z" transform="translate(-77 46.4)"/></g></g></svg>