<svg xmlns="http://www.w3.org/2000/svg" width="13.873" height="13.857" viewBox="0 0 13.873 13.857"><defs><style>.a{fill:#222;}.b{fill:none;stroke:#222;stroke-width:0.7px;}</style></defs><g transform="translate(-1064.975 -394.099)"><path class="a" d="M4.889,4.757a.249.249,0,0,0,0-.356.245.245,0,0,0-.352,0l-1.8,1.8V.253A.251.251,0,0,0,2.483,0a.254.254,0,0,0-.253.253V6.2L.43,4.4a.249.249,0,0,0-.356,0,.249.249,0,0,0,0,.356L2.306,6.988a.255.255,0,0,0,.356,0Z" transform="translate(1073.856 402.601) rotate(-135)"/><path class="b" d="M-15760-13572.78h-4.676v10.387h10.418v-4.641" transform="translate(16830 13970)"/></g></svg>