<svg xmlns="http://www.w3.org/2000/svg" width="166" height="48" viewBox="0 0 166 48"><defs><style>.a{fill:#fff}</style></defs><path class="a" d="M165.999 43.189a4.793 4.793 0 0 1-4.78 4.812H4.786A4.8 4.8 0 0 1 0 43.189V4.818A4.806 4.806 0 0 1 4.786 0h156.432a4.8 4.8 0 0 1 4.78 4.818v38.371z"/><path d="M166.001 43.189a4.793 4.793 0 0 1-4.78 4.812H4.788a4.8 4.8 0 0 1-4.786-4.812V4.818A4.806 4.806 0 0 1 4.788 0H161.22A4.8 4.8 0 0 1 166 4.818v38.371z"/><path class="a" d="M36.657 23.747a7.268 7.268 0 0 1 3.462-6.1 7.444 7.444 0 0 0-5.863-3.17c-2.466-.26-4.858 1.476-6.115 1.476-1.281 0-3.216-1.451-5.3-1.408a7.805 7.805 0 0 0-6.57 4.007c-2.841 4.919-.722 12.147 2 16.122 1.362 1.948 2.953 4.121 5.035 4.045 2.037-.083 2.8-1.3 5.257-1.3 2.436 0 3.151 1.3 5.275 1.249 2.187-.034 3.563-1.956 4.877-3.92a16.077 16.077 0 0 0 2.231-4.542 7.032 7.032 0 0 1-4.289-6.459zM32.488 11.805a7.153 7.153 0 0 0 1.637-5.127 7.287 7.287 0 0 0-4.712 2.437 6.808 6.808 0 0 0-1.68 4.937 6.019 6.019 0 0 0 4.755-2.247zM65.237 38.479h-2.848l-1.56-4.9h-5.421l-1.486 4.9H51.15l5.372-16.685h3.317zm-4.878-6.957l-1.41-4.357q-.224-.668-.842-3.143h-.05q-.248 1.064-.792 3.143l-1.387 4.357zM79.026 32.316a6.813 6.813 0 0 1-1.668 4.851 4.889 4.889 0 0 1-3.709 1.585 3.713 3.713 0 0 1-3.435-1.706v6.313h-2.673V30.403q0-1.928-.1-3.955h2.351l.149 1.907h.05a4.755 4.755 0 0 1 7.612-.473 6.653 6.653 0 0 1 1.423 4.434zm-2.723.1a4.961 4.961 0 0 0-.792-2.9 2.739 2.739 0 0 0-2.327-1.187 2.78 2.78 0 0 0-1.794.656 3.042 3.042 0 0 0-1.052 1.721 3.486 3.486 0 0 0-.124.814v2.007a3.218 3.218 0 0 0 .8 2.217 2.673 2.673 0 0 0 2.092.9 2.739 2.739 0 0 0 2.351-1.164 5.121 5.121 0 0 0 .846-3.066zM92.864 32.316a6.813 6.813 0 0 1-1.667 4.851 4.891 4.891 0 0 1-3.71 1.585 3.713 3.713 0 0 1-3.435-1.706v6.313h-2.673V30.403q0-1.928-.1-3.955h2.351l.149 1.907h.05a4.757 4.757 0 0 1 7.613-.473 6.659 6.659 0 0 1 1.422 4.434zm-2.724.1a4.959 4.959 0 0 0-.794-2.9 2.734 2.734 0 0 0-2.325-1.187 2.791 2.791 0 0 0-1.8.656 3.04 3.04 0 0 0-1.051 1.721 3.556 3.556 0 0 0-.125.814v2.007a3.229 3.229 0 0 0 .8 2.217 2.677 2.677 0 0 0 2.094.9 2.736 2.736 0 0 0 2.351-1.164 5.12 5.12 0 0 0 .848-3.066zM108.336 33.798a4.456 4.456 0 0 1-1.483 3.467 6.575 6.575 0 0 1-4.545 1.461 7.933 7.933 0 0 1-4.321-1.039l.618-2.228a7.436 7.436 0 0 0 3.862 1.041 3.642 3.642 0 0 0 2.35-.681 2.224 2.224 0 0 0 .844-1.818 2.331 2.331 0 0 0-.695-1.709 6.442 6.442 0 0 0-2.3-1.286q-4.381-1.634-4.383-4.779a4.218 4.218 0 0 1 1.547-3.366 6.118 6.118 0 0 1 4.1-1.313 8.1 8.1 0 0 1 3.788.792l-.671 2.179a6.625 6.625 0 0 0-3.206-.767 3.264 3.264 0 0 0-2.212.693 1.984 1.984 0 0 0-.67 1.512 2.043 2.043 0 0 0 .768 1.634 8.655 8.655 0 0 0 2.425 1.286 8.219 8.219 0 0 1 3.168 2.029 4.23 4.23 0 0 1 1.016 2.892zM117.197 28.454h-2.946v5.841q0 2.228 1.56 2.227a4.7 4.7 0 0 0 1.187-.124l.074 2.03a6.049 6.049 0 0 1-2.078.3 3.2 3.2 0 0 1-2.476-.967 4.739 4.739 0 0 1-.892-3.243v-6.064h-1.755v-2.006h1.755v-2.2l2.626-.792v3h2.946zM130.464 32.365a6.6 6.6 0 0 1-1.586 4.555 5.648 5.648 0 0 1-4.406 1.832 5.384 5.384 0 0 1-4.221-1.755 6.4 6.4 0 0 1-1.572-4.431 6.548 6.548 0 0 1 1.621-4.579 5.62 5.62 0 0 1 4.371-1.783 5.5 5.5 0 0 1 4.257 1.758 6.318 6.318 0 0 1 1.536 4.403zm-2.771.061a5.385 5.385 0 0 0-.716-2.839 2.646 2.646 0 0 0-2.4-1.433 2.686 2.686 0 0 0-2.452 1.433 5.483 5.483 0 0 0-.717 2.889 5.377 5.377 0 0 0 .717 2.84 2.742 2.742 0 0 0 4.831-.024 5.409 5.409 0 0 0 .736-2.866zM139.155 28.799a4.649 4.649 0 0 0-.843-.074 2.523 2.523 0 0 0-2.179 1.066 4.015 4.015 0 0 0-.667 2.376v6.313h-2.673v-8.243q0-2.078-.078-3.788h2.328l.1 2.3h.074a4.124 4.124 0 0 1 1.336-1.907 3.231 3.231 0 0 1 1.932-.644 4.272 4.272 0 0 1 .668.049v2.55zM151.111 31.895a6.232 6.232 0 0 1-.1 1.212h-8.019a3.49 3.49 0 0 0 1.164 2.726 3.979 3.979 0 0 0 2.623.84 8.871 8.871 0 0 0 3.245-.568l.419 1.854a10.035 10.035 0 0 1-4.034.744 5.846 5.846 0 0 1-4.4-1.645 6.081 6.081 0 0 1-1.6-4.418 6.894 6.894 0 0 1 1.487-4.529 5.124 5.124 0 0 1 4.207-1.93 4.484 4.484 0 0 1 3.938 1.93 6.5 6.5 0 0 1 1.07 3.784zm-2.549-.693a3.617 3.617 0 0 0-.519-2.055 2.333 2.333 0 0 0-2.128-1.116 2.534 2.534 0 0 0-2.128 1.089 3.991 3.991 0 0 0-.792 2.079h5.566z"/><g><path class="a" d="M59.072 15.726h-1.4l-.766-2.409h-2.664l-.731 2.409h-1.363l2.64-8.2h1.63zm-2.4-3.419l-.694-2.141c-.073-.219-.207-.73-.413-1.545h-.025c-.085.352-.207.864-.39 1.545l-.681 2.141zM65.674 9.813l-2.239 5.916h-1.278l-2.166-5.913h1.412l1.011 3.127c.171.523.316 1.022.425 1.5h.036c.1-.425.243-.924.425-1.5l1-3.127zM70.441 15.726l-.1-.681h-.036a2.016 2.016 0 0 1-1.728.815 1.721 1.721 0 0 1-1.813-1.74c0-1.459 1.265-2.214 3.455-2.214v-.109c0-.779-.414-1.168-1.229-1.168a2.761 2.761 0 0 0-1.544.439l-.267-.864a3.787 3.787 0 0 1 2.033-.512c1.544 0 2.324.815 2.324 2.446v2.178a8.784 8.784 0 0 0 .085 1.412zm-.183-2.945c-1.461 0-2.19.354-2.19 1.192a.837.837 0 0 0 .9.924 1.258 1.258 0 0 0 1.29-1.2zM74.464 8.839a.785.785 0 1 1 .827-.791.772.772 0 0 1-.827.791zm.682 6.887h-1.313V9.813h1.313zM78.794 15.726H77.48V7.103h1.314zM84.379 15.726l-.1-.681h-.036a2.016 2.016 0 0 1-1.728.815 1.721 1.721 0 0 1-1.813-1.74c0-1.459 1.265-2.214 3.455-2.214v-.111c0-.779-.414-1.169-1.229-1.169a2.761 2.761 0 0 0-1.545.439l-.268-.865a3.784 3.784 0 0 1 2.032-.512c1.545 0 2.325.815 2.325 2.446v2.178a9.133 9.133 0 0 0 .084 1.412zm-.183-2.945c-1.46 0-2.19.354-2.19 1.192a.837.837 0 0 0 .9.924 1.257 1.257 0 0 0 1.29-1.2zM90.799 15.86a2.007 2.007 0 0 1-1.86-1.047h-.026l-.075.913h-1.12c.037-.474.049-1.01.049-1.594V7.103h1.315v3.578h.025a2.028 2.028 0 0 1 1.885-.985c1.424 0 2.422 1.217 2.422 2.993.001 1.832-1.107 3.171-2.615 3.171zm-.267-5.135a1.512 1.512 0 0 0-1.448 1.57v1.034a1.449 1.449 0 0 0 1.426 1.484c.984 0 1.57-.8 1.57-2.08-.003-1.192-.612-2.008-1.544-2.008zM96.67 15.726h-1.312V7.103h1.313zM103.824 13.086H99.88a1.7 1.7 0 0 0 1.862 1.754 4.434 4.434 0 0 0 1.593-.28l.2.913a4.926 4.926 0 0 1-1.982.365 2.745 2.745 0 0 1-2.945-2.98 2.888 2.888 0 0 1 2.8-3.176c1.508 0 2.458 1.12 2.458 2.811a2.468 2.468 0 0 1-.042.593zm-1.2-.937c0-.913-.462-1.557-1.3-1.557a1.56 1.56 0 0 0-1.437 1.557zM111.788 15.86a2.815 2.815 0 0 1-2.848-3.042 2.88 2.88 0 0 1 2.947-3.127 2.793 2.793 0 0 1 2.848 3.03 2.9 2.9 0 0 1-2.947 3.139zm.05-5.208c-.949 0-1.557.888-1.557 2.129 0 1.217.621 2.105 1.545 2.105s1.543-.949 1.543-2.13c.002-1.204-.606-2.104-1.531-2.104zM121.798 15.726h-1.313v-3.4c0-1.046-.4-1.57-1.192-1.57a1.366 1.366 0 0 0-1.316 1.448v3.517h-1.314v-4.223c0-.523-.014-1.083-.049-1.691h1.156l.062.913h.036a2.121 2.121 0 0 1 1.873-1.034c1.24 0 2.055.949 2.055 2.494v3.542zM130.395 10.796h-1.445v2.871q0 1.1.763 1.1a2.616 2.616 0 0 0 .585-.061l.035 1a2.923 2.923 0 0 1-1.02.147c-1.035 0-1.654-.572-1.654-2.069v-2.988h-.863v-.985h.863V8.728l1.29-.39V9.81h1.445zM137.354 15.726h-1.316v-3.37c0-1.058-.4-1.594-1.192-1.594a1.287 1.287 0 0 0-1.312 1.4v3.564h-1.315V7.103h1.315v3.552h.025a1.99 1.99 0 0 1 1.777-.962c1.252 0 2.019.973 2.019 2.519zM144.067 13.086h-3.942a1.7 1.7 0 0 0 1.86 1.751 4.43 4.43 0 0 0 1.594-.28l.206.913a4.936 4.936 0 0 1-1.984.365 2.745 2.745 0 0 1-2.945-2.98 2.888 2.888 0 0 1 2.8-3.176c1.508 0 2.458 1.12 2.458 2.811a2.508 2.508 0 0 1-.047.596zm-1.2-.937c0-.913-.461-1.557-1.3-1.557a1.559 1.559 0 0 0-1.437 1.557z"/></g></svg>