<?xml version="1.0" encoding="UTF-8"?>
<svg xmlns="http://www.w3.org/2000/svg" width="100px" height="100px" viewBox="0 0 100 100" version="1.1">
<g id="surface1">
<path style=" stroke:none;fill-rule:nonzero;fill:rgb(0%,0%,0%);fill-opacity:1;" d="M 24.242188 0 L 27.242188 0 L 27.242188 3 L 24.242188 3 Z M 24.242188 0 "/>
<path style=" stroke:none;fill-rule:nonzero;fill:rgb(0%,0%,0%);fill-opacity:1;" d="M 33.332031 0 L 36.332031 0 L 36.332031 3 L 33.332031 3 Z M 33.332031 0 "/>
<path style=" stroke:none;fill-rule:nonzero;fill:rgb(0%,0%,0%);fill-opacity:1;" d="M 54.546875 0 L 57.546875 0 L 57.546875 3 L 54.546875 3 Z M 54.546875 0 "/>
<path style=" stroke:none;fill-rule:nonzero;fill:rgb(0%,0%,0%);fill-opacity:1;" d="M 57.574219 0 L 60.574219 0 L 60.574219 3 L 57.574219 3 Z M 57.574219 0 "/>
<path style=" stroke:none;fill-rule:nonzero;fill:rgb(0%,0%,0%);fill-opacity:1;" d="M 66.667969 0 L 69.667969 0 L 69.667969 3 L 66.667969 3 Z M 66.667969 0 "/>
<path style=" stroke:none;fill-rule:nonzero;fill:rgb(0%,0%,0%);fill-opacity:1;" d="M 72.726562 0 L 75.726562 0 L 75.726562 3 L 72.726562 3 Z M 72.726562 0 "/>
<path style=" stroke:none;fill-rule:nonzero;fill:rgb(0%,0%,0%);fill-opacity:1;" d="M 27.273438 3.03125 L 30.273438 3.03125 L 30.273438 6.03125 L 27.273438 6.03125 Z M 27.273438 3.03125 "/>
<path style=" stroke:none;fill-rule:nonzero;fill:rgb(0%,0%,0%);fill-opacity:1;" d="M 30.304688 3.03125 L 33.304688 3.03125 L 33.304688 6.03125 L 30.304688 6.03125 Z M 30.304688 3.03125 "/>
<path style=" stroke:none;fill-rule:nonzero;fill:rgb(0%,0%,0%);fill-opacity:1;" d="M 42.425781 3.03125 L 45.425781 3.03125 L 45.425781 6.03125 L 42.425781 6.03125 Z M 42.425781 3.03125 "/>
<path style=" stroke:none;fill-rule:nonzero;fill:rgb(0%,0%,0%);fill-opacity:1;" d="M 45.453125 3.03125 L 48.453125 3.03125 L 48.453125 6.03125 L 45.453125 6.03125 Z M 45.453125 3.03125 "/>
<path style=" stroke:none;fill-rule:nonzero;fill:rgb(0%,0%,0%);fill-opacity:1;" d="M 51.515625 3.03125 L 54.515625 3.03125 L 54.515625 6.03125 L 51.515625 6.03125 Z M 51.515625 3.03125 "/>
<path style=" stroke:none;fill-rule:nonzero;fill:rgb(0%,0%,0%);fill-opacity:1;" d="M 57.574219 3.03125 L 60.574219 3.03125 L 60.574219 6.03125 L 57.574219 6.03125 Z M 57.574219 3.03125 "/>
<path style=" stroke:none;fill-rule:nonzero;fill:rgb(0%,0%,0%);fill-opacity:1;" d="M 63.636719 3.03125 L 66.636719 3.03125 L 66.636719 6.03125 L 63.636719 6.03125 Z M 63.636719 3.03125 "/>
<path style=" stroke:none;fill-rule:nonzero;fill:rgb(0%,0%,0%);fill-opacity:1;" d="M 66.667969 3.03125 L 69.667969 3.03125 L 69.667969 6.03125 L 66.667969 6.03125 Z M 66.667969 3.03125 "/>
<path style=" stroke:none;fill-rule:nonzero;fill:rgb(0%,0%,0%);fill-opacity:1;" d="M 72.726562 3.03125 L 75.726562 3.03125 L 75.726562 6.03125 L 72.726562 6.03125 Z M 72.726562 3.03125 "/>
<path style=" stroke:none;fill-rule:nonzero;fill:rgb(0%,0%,0%);fill-opacity:1;" d="M 24.242188 6.0625 L 27.242188 6.0625 L 27.242188 9.0625 L 24.242188 9.0625 Z M 24.242188 6.0625 "/>
<path style=" stroke:none;fill-rule:nonzero;fill:rgb(0%,0%,0%);fill-opacity:1;" d="M 33.332031 6.0625 L 36.332031 6.0625 L 36.332031 9.0625 L 33.332031 9.0625 Z M 33.332031 6.0625 "/>
<path style=" stroke:none;fill-rule:nonzero;fill:rgb(0%,0%,0%);fill-opacity:1;" d="M 45.453125 6.0625 L 48.453125 6.0625 L 48.453125 9.0625 L 45.453125 9.0625 Z M 45.453125 6.0625 "/>
<path style=" stroke:none;fill-rule:nonzero;fill:rgb(0%,0%,0%);fill-opacity:1;" d="M 48.484375 6.0625 L 51.484375 6.0625 L 51.484375 9.0625 L 48.484375 9.0625 Z M 48.484375 6.0625 "/>
<path style=" stroke:none;fill-rule:nonzero;fill:rgb(0%,0%,0%);fill-opacity:1;" d="M 51.515625 6.0625 L 54.515625 6.0625 L 54.515625 9.0625 L 51.515625 9.0625 Z M 51.515625 6.0625 "/>
<path style=" stroke:none;fill-rule:nonzero;fill:rgb(0%,0%,0%);fill-opacity:1;" d="M 63.636719 6.0625 L 66.636719 6.0625 L 66.636719 9.0625 L 63.636719 9.0625 Z M 63.636719 6.0625 "/>
<path style=" stroke:none;fill-rule:nonzero;fill:rgb(0%,0%,0%);fill-opacity:1;" d="M 69.695312 6.0625 L 72.695312 6.0625 L 72.695312 9.0625 L 69.695312 9.0625 Z M 69.695312 6.0625 "/>
<path style=" stroke:none;fill-rule:nonzero;fill:rgb(0%,0%,0%);fill-opacity:1;" d="M 72.726562 6.0625 L 75.726562 6.0625 L 75.726562 9.0625 L 72.726562 9.0625 Z M 72.726562 6.0625 "/>
<path style=" stroke:none;fill-rule:nonzero;fill:rgb(0%,0%,0%);fill-opacity:1;" d="M 36.363281 9.089844 L 39.363281 9.089844 L 39.363281 12.089844 L 36.363281 12.089844 Z M 36.363281 9.089844 "/>
<path style=" stroke:none;fill-rule:nonzero;fill:rgb(0%,0%,0%);fill-opacity:1;" d="M 54.546875 9.089844 L 57.546875 9.089844 L 57.546875 12.089844 L 54.546875 12.089844 Z M 54.546875 9.089844 "/>
<path style=" stroke:none;fill-rule:nonzero;fill:rgb(0%,0%,0%);fill-opacity:1;" d="M 57.574219 9.089844 L 60.574219 9.089844 L 60.574219 12.089844 L 57.574219 12.089844 Z M 57.574219 9.089844 "/>
<path style=" stroke:none;fill-rule:nonzero;fill:rgb(0%,0%,0%);fill-opacity:1;" d="M 60.605469 9.089844 L 63.605469 9.089844 L 63.605469 12.089844 L 60.605469 12.089844 Z M 60.605469 9.089844 "/>
<path style=" stroke:none;fill-rule:nonzero;fill:rgb(0%,0%,0%);fill-opacity:1;" d="M 63.636719 9.089844 L 66.636719 9.089844 L 66.636719 12.089844 L 63.636719 12.089844 Z M 63.636719 9.089844 "/>
<path style=" stroke:none;fill-rule:nonzero;fill:rgb(0%,0%,0%);fill-opacity:1;" d="M 69.695312 9.089844 L 72.695312 9.089844 L 72.695312 12.089844 L 69.695312 12.089844 Z M 69.695312 9.089844 "/>
<path style=" stroke:none;fill-rule:nonzero;fill:rgb(0%,0%,0%);fill-opacity:1;" d="M 72.726562 9.089844 L 75.726562 9.089844 L 75.726562 12.089844 L 72.726562 12.089844 Z M 72.726562 9.089844 "/>
<path style=" stroke:none;fill-rule:nonzero;fill:rgb(0%,0%,0%);fill-opacity:1;" d="M 24.242188 12.121094 L 27.242188 12.121094 L 27.242188 15.121094 L 24.242188 15.121094 Z M 24.242188 12.121094 "/>
<path style=" stroke:none;fill-rule:nonzero;fill:rgb(0%,0%,0%);fill-opacity:1;" d="M 27.273438 12.121094 L 30.273438 12.121094 L 30.273438 15.121094 L 27.273438 15.121094 Z M 27.273438 12.121094 "/>
<path style=" stroke:none;fill-rule:nonzero;fill:rgb(0%,0%,0%);fill-opacity:1;" d="M 30.304688 12.121094 L 33.304688 12.121094 L 33.304688 15.121094 L 30.304688 15.121094 Z M 30.304688 12.121094 "/>
<path style=" stroke:none;fill-rule:nonzero;fill:rgb(0%,0%,0%);fill-opacity:1;" d="M 36.363281 12.121094 L 39.363281 12.121094 L 39.363281 15.121094 L 36.363281 15.121094 Z M 36.363281 12.121094 "/>
<path style=" stroke:none;fill-rule:nonzero;fill:rgb(0%,0%,0%);fill-opacity:1;" d="M 39.394531 12.121094 L 42.394531 12.121094 L 42.394531 15.121094 L 39.394531 15.121094 Z M 39.394531 12.121094 "/>
<path style=" stroke:none;fill-rule:nonzero;fill:rgb(0%,0%,0%);fill-opacity:1;" d="M 42.425781 12.121094 L 45.425781 12.121094 L 45.425781 15.121094 L 42.425781 15.121094 Z M 42.425781 12.121094 "/>
<path style=" stroke:none;fill-rule:nonzero;fill:rgb(0%,0%,0%);fill-opacity:1;" d="M 48.484375 12.121094 L 51.484375 12.121094 L 51.484375 15.121094 L 48.484375 15.121094 Z M 48.484375 12.121094 "/>
<path style=" stroke:none;fill-rule:nonzero;fill:rgb(0%,0%,0%);fill-opacity:1;" d="M 57.574219 12.121094 L 60.574219 12.121094 L 60.574219 15.121094 L 57.574219 15.121094 Z M 57.574219 12.121094 "/>
<path style=" stroke:none;fill-rule:nonzero;fill:rgb(0%,0%,0%);fill-opacity:1;" d="M 27.273438 15.152344 L 30.273438 15.152344 L 30.273438 18.152344 L 27.273438 18.152344 Z M 27.273438 15.152344 "/>
<path style=" stroke:none;fill-rule:nonzero;fill:rgb(0%,0%,0%);fill-opacity:1;" d="M 33.332031 15.152344 L 36.332031 15.152344 L 36.332031 18.152344 L 33.332031 18.152344 Z M 33.332031 15.152344 "/>
<path style=" stroke:none;fill-rule:nonzero;fill:rgb(0%,0%,0%);fill-opacity:1;" d="M 42.425781 15.152344 L 45.425781 15.152344 L 45.425781 18.152344 L 42.425781 18.152344 Z M 42.425781 15.152344 "/>
<path style=" stroke:none;fill-rule:nonzero;fill:rgb(0%,0%,0%);fill-opacity:1;" d="M 54.546875 15.152344 L 57.546875 15.152344 L 57.546875 18.152344 L 54.546875 18.152344 Z M 54.546875 15.152344 "/>
<path style=" stroke:none;fill-rule:nonzero;fill:rgb(0%,0%,0%);fill-opacity:1;" d="M 57.574219 15.152344 L 60.574219 15.152344 L 60.574219 18.152344 L 57.574219 18.152344 Z M 57.574219 15.152344 "/>
<path style=" stroke:none;fill-rule:nonzero;fill:rgb(0%,0%,0%);fill-opacity:1;" d="M 60.605469 15.152344 L 63.605469 15.152344 L 63.605469 18.152344 L 60.605469 18.152344 Z M 60.605469 15.152344 "/>
<path style=" stroke:none;fill-rule:nonzero;fill:rgb(0%,0%,0%);fill-opacity:1;" d="M 66.667969 15.152344 L 69.667969 15.152344 L 69.667969 18.152344 L 66.667969 18.152344 Z M 66.667969 15.152344 "/>
<path style=" stroke:none;fill-rule:nonzero;fill:rgb(0%,0%,0%);fill-opacity:1;" d="M 69.695312 15.152344 L 72.695312 15.152344 L 72.695312 18.152344 L 69.695312 18.152344 Z M 69.695312 15.152344 "/>
<path style=" stroke:none;fill-rule:nonzero;fill:rgb(0%,0%,0%);fill-opacity:1;" d="M 72.726562 15.152344 L 75.726562 15.152344 L 75.726562 18.152344 L 72.726562 18.152344 Z M 72.726562 15.152344 "/>
<path style=" stroke:none;fill-rule:nonzero;fill:rgb(0%,0%,0%);fill-opacity:1;" d="M 24.242188 18.183594 L 27.242188 18.183594 L 27.242188 21.183594 L 24.242188 21.183594 Z M 24.242188 18.183594 "/>
<path style=" stroke:none;fill-rule:nonzero;fill:rgb(0%,0%,0%);fill-opacity:1;" d="M 30.304688 18.183594 L 33.304688 18.183594 L 33.304688 21.183594 L 30.304688 21.183594 Z M 30.304688 18.183594 "/>
<path style=" stroke:none;fill-rule:nonzero;fill:rgb(0%,0%,0%);fill-opacity:1;" d="M 36.363281 18.183594 L 39.363281 18.183594 L 39.363281 21.183594 L 36.363281 21.183594 Z M 36.363281 18.183594 "/>
<path style=" stroke:none;fill-rule:nonzero;fill:rgb(0%,0%,0%);fill-opacity:1;" d="M 42.425781 18.183594 L 45.425781 18.183594 L 45.425781 21.183594 L 42.425781 21.183594 Z M 42.425781 18.183594 "/>
<path style=" stroke:none;fill-rule:nonzero;fill:rgb(0%,0%,0%);fill-opacity:1;" d="M 48.484375 18.183594 L 51.484375 18.183594 L 51.484375 21.183594 L 48.484375 21.183594 Z M 48.484375 18.183594 "/>
<path style=" stroke:none;fill-rule:nonzero;fill:rgb(0%,0%,0%);fill-opacity:1;" d="M 54.546875 18.183594 L 57.546875 18.183594 L 57.546875 21.183594 L 54.546875 21.183594 Z M 54.546875 18.183594 "/>
<path style=" stroke:none;fill-rule:nonzero;fill:rgb(0%,0%,0%);fill-opacity:1;" d="M 60.605469 18.183594 L 63.605469 18.183594 L 63.605469 21.183594 L 60.605469 21.183594 Z M 60.605469 18.183594 "/>
<path style=" stroke:none;fill-rule:nonzero;fill:rgb(0%,0%,0%);fill-opacity:1;" d="M 66.667969 18.183594 L 69.667969 18.183594 L 69.667969 21.183594 L 66.667969 21.183594 Z M 66.667969 18.183594 "/>
<path style=" stroke:none;fill-rule:nonzero;fill:rgb(0%,0%,0%);fill-opacity:1;" d="M 72.726562 18.183594 L 75.726562 18.183594 L 75.726562 21.183594 L 72.726562 21.183594 Z M 72.726562 18.183594 "/>
<path style=" stroke:none;fill-rule:nonzero;fill:rgb(0%,0%,0%);fill-opacity:1;" d="M 24.242188 21.210938 L 27.242188 21.210938 L 27.242188 24.210938 L 24.242188 24.210938 Z M 24.242188 21.210938 "/>
<path style=" stroke:none;fill-rule:nonzero;fill:rgb(0%,0%,0%);fill-opacity:1;" d="M 27.273438 21.210938 L 30.273438 21.210938 L 30.273438 24.210938 L 27.273438 24.210938 Z M 27.273438 21.210938 "/>
<path style=" stroke:none;fill-rule:nonzero;fill:rgb(0%,0%,0%);fill-opacity:1;" d="M 30.304688 21.210938 L 33.304688 21.210938 L 33.304688 24.210938 L 30.304688 24.210938 Z M 30.304688 21.210938 "/>
<path style=" stroke:none;fill-rule:nonzero;fill:rgb(0%,0%,0%);fill-opacity:1;" d="M 45.453125 21.210938 L 48.453125 21.210938 L 48.453125 24.210938 L 45.453125 24.210938 Z M 45.453125 21.210938 "/>
<path style=" stroke:none;fill-rule:nonzero;fill:rgb(0%,0%,0%);fill-opacity:1;" d="M 48.484375 21.210938 L 51.484375 21.210938 L 51.484375 24.210938 L 48.484375 24.210938 Z M 48.484375 21.210938 "/>
<path style=" stroke:none;fill-rule:nonzero;fill:rgb(0%,0%,0%);fill-opacity:1;" d="M 69.695312 21.210938 L 72.695312 21.210938 L 72.695312 24.210938 L 69.695312 24.210938 Z M 69.695312 21.210938 "/>
<path style=" stroke:none;fill-rule:nonzero;fill:rgb(0%,0%,0%);fill-opacity:1;" d="M 15.152344 24.242188 L 18.152344 24.242188 L 18.152344 27.242188 L 15.152344 27.242188 Z M 15.152344 24.242188 "/>
<path style=" stroke:none;fill-rule:nonzero;fill:rgb(0%,0%,0%);fill-opacity:1;" d="M 18.183594 24.242188 L 21.183594 24.242188 L 21.183594 27.242188 L 18.183594 27.242188 Z M 18.183594 24.242188 "/>
<path style=" stroke:none;fill-rule:nonzero;fill:rgb(0%,0%,0%);fill-opacity:1;" d="M 39.394531 24.242188 L 42.394531 24.242188 L 42.394531 27.242188 L 39.394531 27.242188 Z M 39.394531 24.242188 "/>
<path style=" stroke:none;fill-rule:nonzero;fill:rgb(0%,0%,0%);fill-opacity:1;" d="M 45.453125 24.242188 L 48.453125 24.242188 L 48.453125 27.242188 L 45.453125 27.242188 Z M 45.453125 24.242188 "/>
<path style=" stroke:none;fill-rule:nonzero;fill:rgb(0%,0%,0%);fill-opacity:1;" d="M 54.546875 24.242188 L 57.546875 24.242188 L 57.546875 27.242188 L 54.546875 27.242188 Z M 54.546875 24.242188 "/>
<path style=" stroke:none;fill-rule:nonzero;fill:rgb(0%,0%,0%);fill-opacity:1;" d="M 57.574219 24.242188 L 60.574219 24.242188 L 60.574219 27.242188 L 57.574219 27.242188 Z M 57.574219 24.242188 "/>
<path style=" stroke:none;fill-rule:nonzero;fill:rgb(0%,0%,0%);fill-opacity:1;" d="M 69.695312 24.242188 L 72.695312 24.242188 L 72.695312 27.242188 L 69.695312 27.242188 Z M 69.695312 24.242188 "/>
<path style=" stroke:none;fill-rule:nonzero;fill:rgb(0%,0%,0%);fill-opacity:1;" d="M 72.726562 24.242188 L 75.726562 24.242188 L 75.726562 27.242188 L 72.726562 27.242188 Z M 72.726562 24.242188 "/>
<path style=" stroke:none;fill-rule:nonzero;fill:rgb(0%,0%,0%);fill-opacity:1;" d="M 78.789062 24.242188 L 81.789062 24.242188 L 81.789062 27.242188 L 78.789062 27.242188 Z M 78.789062 24.242188 "/>
<path style=" stroke:none;fill-rule:nonzero;fill:rgb(0%,0%,0%);fill-opacity:1;" d="M 84.847656 24.242188 L 87.847656 24.242188 L 87.847656 27.242188 L 84.847656 27.242188 Z M 84.847656 24.242188 "/>
<path style=" stroke:none;fill-rule:nonzero;fill:rgb(0%,0%,0%);fill-opacity:1;" d="M 90.910156 24.242188 L 93.910156 24.242188 L 93.910156 27.242188 L 90.910156 27.242188 Z M 90.910156 24.242188 "/>
<path style=" stroke:none;fill-rule:nonzero;fill:rgb(0%,0%,0%);fill-opacity:1;" d="M 96.96875 24.242188 L 99.96875 24.242188 L 99.96875 27.242188 L 96.96875 27.242188 Z M 96.96875 24.242188 "/>
<path style=" stroke:none;fill-rule:nonzero;fill:rgb(0%,0%,0%);fill-opacity:1;" d="M 3.03125 27.273438 L 6.03125 27.273438 L 6.03125 30.273438 L 3.03125 30.273438 Z M 3.03125 27.273438 "/>
<path style=" stroke:none;fill-rule:nonzero;fill:rgb(0%,0%,0%);fill-opacity:1;" d="M 12.121094 27.273438 L 15.121094 27.273438 L 15.121094 30.273438 L 12.121094 30.273438 Z M 12.121094 27.273438 "/>
<path style=" stroke:none;fill-rule:nonzero;fill:rgb(0%,0%,0%);fill-opacity:1;" d="M 15.152344 27.273438 L 18.152344 27.273438 L 18.152344 30.273438 L 15.152344 30.273438 Z M 15.152344 27.273438 "/>
<path style=" stroke:none;fill-rule:nonzero;fill:rgb(0%,0%,0%);fill-opacity:1;" d="M 24.242188 27.273438 L 27.242188 27.273438 L 27.242188 30.273438 L 24.242188 30.273438 Z M 24.242188 27.273438 "/>
<path style=" stroke:none;fill-rule:nonzero;fill:rgb(0%,0%,0%);fill-opacity:1;" d="M 30.304688 27.273438 L 33.304688 27.273438 L 33.304688 30.273438 L 30.304688 30.273438 Z M 30.304688 27.273438 "/>
<path style=" stroke:none;fill-rule:nonzero;fill:rgb(0%,0%,0%);fill-opacity:1;" d="M 48.484375 27.273438 L 51.484375 27.273438 L 51.484375 30.273438 L 48.484375 30.273438 Z M 48.484375 27.273438 "/>
<path style=" stroke:none;fill-rule:nonzero;fill:rgb(0%,0%,0%);fill-opacity:1;" d="M 54.546875 27.273438 L 57.546875 27.273438 L 57.546875 30.273438 L 54.546875 30.273438 Z M 54.546875 27.273438 "/>
<path style=" stroke:none;fill-rule:nonzero;fill:rgb(0%,0%,0%);fill-opacity:1;" d="M 57.574219 27.273438 L 60.574219 27.273438 L 60.574219 30.273438 L 57.574219 30.273438 Z M 57.574219 27.273438 "/>
<path style=" stroke:none;fill-rule:nonzero;fill:rgb(0%,0%,0%);fill-opacity:1;" d="M 66.667969 27.273438 L 69.667969 27.273438 L 69.667969 30.273438 L 66.667969 30.273438 Z M 66.667969 27.273438 "/>
<path style=" stroke:none;fill-rule:nonzero;fill:rgb(0%,0%,0%);fill-opacity:1;" d="M 69.695312 27.273438 L 72.695312 27.273438 L 72.695312 30.273438 L 69.695312 30.273438 Z M 69.695312 27.273438 "/>
<path style=" stroke:none;fill-rule:nonzero;fill:rgb(0%,0%,0%);fill-opacity:1;" d="M 75.757812 27.273438 L 78.757812 27.273438 L 78.757812 30.273438 L 75.757812 30.273438 Z M 75.757812 27.273438 "/>
<path style=" stroke:none;fill-rule:nonzero;fill:rgb(0%,0%,0%);fill-opacity:1;" d="M 81.816406 27.273438 L 84.816406 27.273438 L 84.816406 30.273438 L 81.816406 30.273438 Z M 81.816406 27.273438 "/>
<path style=" stroke:none;fill-rule:nonzero;fill:rgb(0%,0%,0%);fill-opacity:1;" d="M 84.847656 27.273438 L 87.847656 27.273438 L 87.847656 30.273438 L 84.847656 30.273438 Z M 84.847656 27.273438 "/>
<path style=" stroke:none;fill-rule:nonzero;fill:rgb(0%,0%,0%);fill-opacity:1;" d="M 93.9375 27.273438 L 96.9375 27.273438 L 96.9375 30.273438 L 93.9375 30.273438 Z M 93.9375 27.273438 "/>
<path style=" stroke:none;fill-rule:nonzero;fill:rgb(0%,0%,0%);fill-opacity:1;" d="M 0 30.304688 L 3 30.304688 L 3 33.304688 L 0 33.304688 Z M 0 30.304688 "/>
<path style=" stroke:none;fill-rule:nonzero;fill:rgb(0%,0%,0%);fill-opacity:1;" d="M 3.03125 30.304688 L 6.03125 30.304688 L 6.03125 33.304688 L 3.03125 33.304688 Z M 3.03125 30.304688 "/>
<path style=" stroke:none;fill-rule:nonzero;fill:rgb(0%,0%,0%);fill-opacity:1;" d="M 6.0625 30.304688 L 9.0625 30.304688 L 9.0625 33.304688 L 6.0625 33.304688 Z M 6.0625 30.304688 "/>
<path style=" stroke:none;fill-rule:nonzero;fill:rgb(0%,0%,0%);fill-opacity:1;" d="M 18.183594 30.304688 L 21.183594 30.304688 L 21.183594 33.304688 L 18.183594 33.304688 Z M 18.183594 30.304688 "/>
<path style=" stroke:none;fill-rule:nonzero;fill:rgb(0%,0%,0%);fill-opacity:1;" d="M 24.242188 30.304688 L 27.242188 30.304688 L 27.242188 33.304688 L 24.242188 33.304688 Z M 24.242188 30.304688 "/>
<path style=" stroke:none;fill-rule:nonzero;fill:rgb(0%,0%,0%);fill-opacity:1;" d="M 33.332031 30.304688 L 36.332031 30.304688 L 36.332031 33.304688 L 33.332031 33.304688 Z M 33.332031 30.304688 "/>
<path style=" stroke:none;fill-rule:nonzero;fill:rgb(0%,0%,0%);fill-opacity:1;" d="M 36.363281 30.304688 L 39.363281 30.304688 L 39.363281 33.304688 L 36.363281 33.304688 Z M 36.363281 30.304688 "/>
<path style=" stroke:none;fill-rule:nonzero;fill:rgb(0%,0%,0%);fill-opacity:1;" d="M 39.394531 30.304688 L 42.394531 30.304688 L 42.394531 33.304688 L 39.394531 33.304688 Z M 39.394531 30.304688 "/>
<path style=" stroke:none;fill-rule:nonzero;fill:rgb(0%,0%,0%);fill-opacity:1;" d="M 42.425781 30.304688 L 45.425781 30.304688 L 45.425781 33.304688 L 42.425781 33.304688 Z M 42.425781 30.304688 "/>
<path style=" stroke:none;fill-rule:nonzero;fill:rgb(0%,0%,0%);fill-opacity:1;" d="M 45.453125 30.304688 L 48.453125 30.304688 L 48.453125 33.304688 L 45.453125 33.304688 Z M 45.453125 30.304688 "/>
<path style=" stroke:none;fill-rule:nonzero;fill:rgb(0%,0%,0%);fill-opacity:1;" d="M 48.484375 30.304688 L 51.484375 30.304688 L 51.484375 33.304688 L 48.484375 33.304688 Z M 48.484375 30.304688 "/>
<path style=" stroke:none;fill-rule:nonzero;fill:rgb(0%,0%,0%);fill-opacity:1;" d="M 51.515625 30.304688 L 54.515625 30.304688 L 54.515625 33.304688 L 51.515625 33.304688 Z M 51.515625 30.304688 "/>
<path style=" stroke:none;fill-rule:nonzero;fill:rgb(0%,0%,0%);fill-opacity:1;" d="M 54.546875 30.304688 L 57.546875 30.304688 L 57.546875 33.304688 L 54.546875 33.304688 Z M 54.546875 30.304688 "/>
<path style=" stroke:none;fill-rule:nonzero;fill:rgb(0%,0%,0%);fill-opacity:1;" d="M 57.574219 30.304688 L 60.574219 30.304688 L 60.574219 33.304688 L 57.574219 33.304688 Z M 57.574219 30.304688 "/>
<path style=" stroke:none;fill-rule:nonzero;fill:rgb(0%,0%,0%);fill-opacity:1;" d="M 63.636719 30.304688 L 66.636719 30.304688 L 66.636719 33.304688 L 63.636719 33.304688 Z M 63.636719 30.304688 "/>
<path style=" stroke:none;fill-rule:nonzero;fill:rgb(0%,0%,0%);fill-opacity:1;" d="M 72.726562 30.304688 L 75.726562 30.304688 L 75.726562 33.304688 L 72.726562 33.304688 Z M 72.726562 30.304688 "/>
<path style=" stroke:none;fill-rule:nonzero;fill:rgb(0%,0%,0%);fill-opacity:1;" d="M 75.757812 30.304688 L 78.757812 30.304688 L 78.757812 33.304688 L 75.757812 33.304688 Z M 75.757812 30.304688 "/>
<path style=" stroke:none;fill-rule:nonzero;fill:rgb(0%,0%,0%);fill-opacity:1;" d="M 78.789062 30.304688 L 81.789062 30.304688 L 81.789062 33.304688 L 78.789062 33.304688 Z M 78.789062 30.304688 "/>
<path style=" stroke:none;fill-rule:nonzero;fill:rgb(0%,0%,0%);fill-opacity:1;" d="M 81.816406 30.304688 L 84.816406 30.304688 L 84.816406 33.304688 L 81.816406 33.304688 Z M 81.816406 30.304688 "/>
<path style=" stroke:none;fill-rule:nonzero;fill:rgb(0%,0%,0%);fill-opacity:1;" d="M 87.878906 30.304688 L 90.878906 30.304688 L 90.878906 33.304688 L 87.878906 33.304688 Z M 87.878906 30.304688 "/>
<path style=" stroke:none;fill-rule:nonzero;fill:rgb(0%,0%,0%);fill-opacity:1;" d="M 90.910156 30.304688 L 93.910156 30.304688 L 93.910156 33.304688 L 90.910156 33.304688 Z M 90.910156 30.304688 "/>
<path style=" stroke:none;fill-rule:nonzero;fill:rgb(0%,0%,0%);fill-opacity:1;" d="M 93.9375 30.304688 L 96.9375 30.304688 L 96.9375 33.304688 L 93.9375 33.304688 Z M 93.9375 30.304688 "/>
<path style=" stroke:none;fill-rule:nonzero;fill:rgb(0%,0%,0%);fill-opacity:1;" d="M 3.03125 33.332031 L 6.03125 33.332031 L 6.03125 36.332031 L 3.03125 36.332031 Z M 3.03125 33.332031 "/>
<path style=" stroke:none;fill-rule:nonzero;fill:rgb(0%,0%,0%);fill-opacity:1;" d="M 6.0625 33.332031 L 9.0625 33.332031 L 9.0625 36.332031 L 6.0625 36.332031 Z M 6.0625 33.332031 "/>
<path style=" stroke:none;fill-rule:nonzero;fill:rgb(0%,0%,0%);fill-opacity:1;" d="M 15.152344 33.332031 L 18.152344 33.332031 L 18.152344 36.332031 L 15.152344 36.332031 Z M 15.152344 33.332031 "/>
<path style=" stroke:none;fill-rule:nonzero;fill:rgb(0%,0%,0%);fill-opacity:1;" d="M 30.304688 33.332031 L 33.304688 33.332031 L 33.304688 36.332031 L 30.304688 36.332031 Z M 30.304688 33.332031 "/>
<path style=" stroke:none;fill-rule:nonzero;fill:rgb(0%,0%,0%);fill-opacity:1;" d="M 39.394531 33.332031 L 42.394531 33.332031 L 42.394531 36.332031 L 39.394531 36.332031 Z M 39.394531 33.332031 "/>
<path style=" stroke:none;fill-rule:nonzero;fill:rgb(0%,0%,0%);fill-opacity:1;" d="M 42.425781 33.332031 L 45.425781 33.332031 L 45.425781 36.332031 L 42.425781 36.332031 Z M 42.425781 33.332031 "/>
<path style=" stroke:none;fill-rule:nonzero;fill:rgb(0%,0%,0%);fill-opacity:1;" d="M 45.453125 33.332031 L 48.453125 33.332031 L 48.453125 36.332031 L 45.453125 36.332031 Z M 45.453125 33.332031 "/>
<path style=" stroke:none;fill-rule:nonzero;fill:rgb(0%,0%,0%);fill-opacity:1;" d="M 51.515625 33.332031 L 54.515625 33.332031 L 54.515625 36.332031 L 51.515625 36.332031 Z M 51.515625 33.332031 "/>
<path style=" stroke:none;fill-rule:nonzero;fill:rgb(0%,0%,0%);fill-opacity:1;" d="M 54.546875 33.332031 L 57.546875 33.332031 L 57.546875 36.332031 L 54.546875 36.332031 Z M 54.546875 33.332031 "/>
<path style=" stroke:none;fill-rule:nonzero;fill:rgb(0%,0%,0%);fill-opacity:1;" d="M 66.667969 33.332031 L 69.667969 33.332031 L 69.667969 36.332031 L 66.667969 36.332031 Z M 66.667969 33.332031 "/>
<path style=" stroke:none;fill-rule:nonzero;fill:rgb(0%,0%,0%);fill-opacity:1;" d="M 72.726562 33.332031 L 75.726562 33.332031 L 75.726562 36.332031 L 72.726562 36.332031 Z M 72.726562 33.332031 "/>
<path style=" stroke:none;fill-rule:nonzero;fill:rgb(0%,0%,0%);fill-opacity:1;" d="M 78.789062 33.332031 L 81.789062 33.332031 L 81.789062 36.332031 L 78.789062 36.332031 Z M 78.789062 33.332031 "/>
<path style=" stroke:none;fill-rule:nonzero;fill:rgb(0%,0%,0%);fill-opacity:1;" d="M 81.816406 33.332031 L 84.816406 33.332031 L 84.816406 36.332031 L 81.816406 36.332031 Z M 81.816406 33.332031 "/>
<path style=" stroke:none;fill-rule:nonzero;fill:rgb(0%,0%,0%);fill-opacity:1;" d="M 87.878906 33.332031 L 90.878906 33.332031 L 90.878906 36.332031 L 87.878906 36.332031 Z M 87.878906 33.332031 "/>
<path style=" stroke:none;fill-rule:nonzero;fill:rgb(0%,0%,0%);fill-opacity:1;" d="M 90.910156 33.332031 L 93.910156 33.332031 L 93.910156 36.332031 L 90.910156 36.332031 Z M 90.910156 33.332031 "/>
<path style=" stroke:none;fill-rule:nonzero;fill:rgb(0%,0%,0%);fill-opacity:1;" d="M 93.9375 33.332031 L 96.9375 33.332031 L 96.9375 36.332031 L 93.9375 36.332031 Z M 93.9375 33.332031 "/>
<path style=" stroke:none;fill-rule:nonzero;fill:rgb(0%,0%,0%);fill-opacity:1;" d="M 96.96875 33.332031 L 99.96875 33.332031 L 99.96875 36.332031 L 96.96875 36.332031 Z M 96.96875 33.332031 "/>
<path style=" stroke:none;fill-rule:nonzero;fill:rgb(0%,0%,0%);fill-opacity:1;" d="M 0 36.363281 L 3 36.363281 L 3 39.363281 L 0 39.363281 Z M 0 36.363281 "/>
<path style=" stroke:none;fill-rule:nonzero;fill:rgb(0%,0%,0%);fill-opacity:1;" d="M 9.089844 36.363281 L 12.089844 36.363281 L 12.089844 39.363281 L 9.089844 39.363281 Z M 9.089844 36.363281 "/>
<path style=" stroke:none;fill-rule:nonzero;fill:rgb(0%,0%,0%);fill-opacity:1;" d="M 15.152344 36.363281 L 18.152344 36.363281 L 18.152344 39.363281 L 15.152344 39.363281 Z M 15.152344 36.363281 "/>
<path style=" stroke:none;fill-rule:nonzero;fill:rgb(0%,0%,0%);fill-opacity:1;" d="M 18.183594 36.363281 L 21.183594 36.363281 L 21.183594 39.363281 L 18.183594 39.363281 Z M 18.183594 36.363281 "/>
<path style=" stroke:none;fill-rule:nonzero;fill:rgb(0%,0%,0%);fill-opacity:1;" d="M 21.210938 36.363281 L 24.210938 36.363281 L 24.210938 39.363281 L 21.210938 39.363281 Z M 21.210938 36.363281 "/>
<path style=" stroke:none;fill-rule:nonzero;fill:rgb(0%,0%,0%);fill-opacity:1;" d="M 24.242188 36.363281 L 27.242188 36.363281 L 27.242188 39.363281 L 24.242188 39.363281 Z M 24.242188 36.363281 "/>
<path style=" stroke:none;fill-rule:nonzero;fill:rgb(0%,0%,0%);fill-opacity:1;" d="M 30.304688 36.363281 L 33.304688 36.363281 L 33.304688 39.363281 L 30.304688 39.363281 Z M 30.304688 36.363281 "/>
<path style=" stroke:none;fill-rule:nonzero;fill:rgb(0%,0%,0%);fill-opacity:1;" d="M 36.363281 36.363281 L 39.363281 36.363281 L 39.363281 39.363281 L 36.363281 39.363281 Z M 36.363281 36.363281 "/>
<path style=" stroke:none;fill-rule:nonzero;fill:rgb(0%,0%,0%);fill-opacity:1;" d="M 39.394531 36.363281 L 42.394531 36.363281 L 42.394531 39.363281 L 39.394531 39.363281 Z M 39.394531 36.363281 "/>
<path style=" stroke:none;fill-rule:nonzero;fill:rgb(0%,0%,0%);fill-opacity:1;" d="M 42.425781 36.363281 L 45.425781 36.363281 L 45.425781 39.363281 L 42.425781 39.363281 Z M 42.425781 36.363281 "/>
<path style=" stroke:none;fill-rule:nonzero;fill:rgb(0%,0%,0%);fill-opacity:1;" d="M 45.453125 36.363281 L 48.453125 36.363281 L 48.453125 39.363281 L 45.453125 39.363281 Z M 45.453125 36.363281 "/>
<path style=" stroke:none;fill-rule:nonzero;fill:rgb(0%,0%,0%);fill-opacity:1;" d="M 48.484375 36.363281 L 51.484375 36.363281 L 51.484375 39.363281 L 48.484375 39.363281 Z M 48.484375 36.363281 "/>
<path style=" stroke:none;fill-rule:nonzero;fill:rgb(0%,0%,0%);fill-opacity:1;" d="M 57.574219 36.363281 L 60.574219 36.363281 L 60.574219 39.363281 L 57.574219 39.363281 Z M 57.574219 36.363281 "/>
<path style=" stroke:none;fill-rule:nonzero;fill:rgb(0%,0%,0%);fill-opacity:1;" d="M 60.605469 36.363281 L 63.605469 36.363281 L 63.605469 39.363281 L 60.605469 39.363281 Z M 60.605469 36.363281 "/>
<path style=" stroke:none;fill-rule:nonzero;fill:rgb(0%,0%,0%);fill-opacity:1;" d="M 63.636719 36.363281 L 66.636719 36.363281 L 66.636719 39.363281 L 63.636719 39.363281 Z M 63.636719 36.363281 "/>
<path style=" stroke:none;fill-rule:nonzero;fill:rgb(0%,0%,0%);fill-opacity:1;" d="M 66.667969 36.363281 L 69.667969 36.363281 L 69.667969 39.363281 L 66.667969 39.363281 Z M 66.667969 36.363281 "/>
<path style=" stroke:none;fill-rule:nonzero;fill:rgb(0%,0%,0%);fill-opacity:1;" d="M 69.695312 36.363281 L 72.695312 36.363281 L 72.695312 39.363281 L 69.695312 39.363281 Z M 69.695312 36.363281 "/>
<path style=" stroke:none;fill-rule:nonzero;fill:rgb(0%,0%,0%);fill-opacity:1;" d="M 72.726562 36.363281 L 75.726562 36.363281 L 75.726562 39.363281 L 72.726562 39.363281 Z M 72.726562 36.363281 "/>
<path style=" stroke:none;fill-rule:nonzero;fill:rgb(0%,0%,0%);fill-opacity:1;" d="M 78.789062 36.363281 L 81.789062 36.363281 L 81.789062 39.363281 L 78.789062 39.363281 Z M 78.789062 36.363281 "/>
<path style=" stroke:none;fill-rule:nonzero;fill:rgb(0%,0%,0%);fill-opacity:1;" d="M 81.816406 36.363281 L 84.816406 36.363281 L 84.816406 39.363281 L 81.816406 39.363281 Z M 81.816406 36.363281 "/>
<path style=" stroke:none;fill-rule:nonzero;fill:rgb(0%,0%,0%);fill-opacity:1;" d="M 84.847656 36.363281 L 87.847656 36.363281 L 87.847656 39.363281 L 84.847656 39.363281 Z M 84.847656 36.363281 "/>
<path style=" stroke:none;fill-rule:nonzero;fill:rgb(0%,0%,0%);fill-opacity:1;" d="M 87.878906 36.363281 L 90.878906 36.363281 L 90.878906 39.363281 L 87.878906 39.363281 Z M 87.878906 36.363281 "/>
<path style=" stroke:none;fill-rule:nonzero;fill:rgb(0%,0%,0%);fill-opacity:1;" d="M 96.96875 36.363281 L 99.96875 36.363281 L 99.96875 39.363281 L 96.96875 39.363281 Z M 96.96875 36.363281 "/>
<path style=" stroke:none;fill-rule:nonzero;fill:rgb(0%,0%,0%);fill-opacity:1;" d="M 3.03125 39.394531 L 6.03125 39.394531 L 6.03125 42.394531 L 3.03125 42.394531 Z M 3.03125 39.394531 "/>
<path style=" stroke:none;fill-rule:nonzero;fill:rgb(0%,0%,0%);fill-opacity:1;" d="M 9.089844 39.394531 L 12.089844 39.394531 L 12.089844 42.394531 L 9.089844 42.394531 Z M 9.089844 39.394531 "/>
<path style=" stroke:none;fill-rule:nonzero;fill:rgb(0%,0%,0%);fill-opacity:1;" d="M 12.121094 39.394531 L 15.121094 39.394531 L 15.121094 42.394531 L 12.121094 42.394531 Z M 12.121094 39.394531 "/>
<path style=" stroke:none;fill-rule:nonzero;fill:rgb(0%,0%,0%);fill-opacity:1;" d="M 24.242188 39.394531 L 27.242188 39.394531 L 27.242188 42.394531 L 24.242188 42.394531 Z M 24.242188 39.394531 "/>
<path style=" stroke:none;fill-rule:nonzero;fill:rgb(0%,0%,0%);fill-opacity:1;" d="M 33.332031 39.394531 L 36.332031 39.394531 L 36.332031 42.394531 L 33.332031 42.394531 Z M 33.332031 39.394531 "/>
<path style=" stroke:none;fill-rule:nonzero;fill:rgb(0%,0%,0%);fill-opacity:1;" d="M 39.394531 39.394531 L 42.394531 39.394531 L 42.394531 42.394531 L 39.394531 42.394531 Z M 39.394531 39.394531 "/>
<path style=" stroke:none;fill-rule:nonzero;fill:rgb(0%,0%,0%);fill-opacity:1;" d="M 45.453125 39.394531 L 48.453125 39.394531 L 48.453125 42.394531 L 45.453125 42.394531 Z M 45.453125 39.394531 "/>
<path style=" stroke:none;fill-rule:nonzero;fill:rgb(0%,0%,0%);fill-opacity:1;" d="M 51.515625 39.394531 L 54.515625 39.394531 L 54.515625 42.394531 L 51.515625 42.394531 Z M 51.515625 39.394531 "/>
<path style=" stroke:none;fill-rule:nonzero;fill:rgb(0%,0%,0%);fill-opacity:1;" d="M 63.636719 39.394531 L 66.636719 39.394531 L 66.636719 42.394531 L 63.636719 42.394531 Z M 63.636719 39.394531 "/>
<path style=" stroke:none;fill-rule:nonzero;fill:rgb(0%,0%,0%);fill-opacity:1;" d="M 66.667969 39.394531 L 69.667969 39.394531 L 69.667969 42.394531 L 66.667969 42.394531 Z M 66.667969 39.394531 "/>
<path style=" stroke:none;fill-rule:nonzero;fill:rgb(0%,0%,0%);fill-opacity:1;" d="M 69.695312 39.394531 L 72.695312 39.394531 L 72.695312 42.394531 L 69.695312 42.394531 Z M 69.695312 39.394531 "/>
<path style=" stroke:none;fill-rule:nonzero;fill:rgb(0%,0%,0%);fill-opacity:1;" d="M 78.789062 39.394531 L 81.789062 39.394531 L 81.789062 42.394531 L 78.789062 42.394531 Z M 78.789062 39.394531 "/>
<path style=" stroke:none;fill-rule:nonzero;fill:rgb(0%,0%,0%);fill-opacity:1;" d="M 90.910156 39.394531 L 93.910156 39.394531 L 93.910156 42.394531 L 90.910156 42.394531 Z M 90.910156 39.394531 "/>
<path style=" stroke:none;fill-rule:nonzero;fill:rgb(0%,0%,0%);fill-opacity:1;" d="M 96.96875 39.394531 L 99.96875 39.394531 L 99.96875 42.394531 L 96.96875 42.394531 Z M 96.96875 39.394531 "/>
<path style=" stroke:none;fill-rule:nonzero;fill:rgb(0%,0%,0%);fill-opacity:1;" d="M 0 42.425781 L 3 42.425781 L 3 45.425781 L 0 45.425781 Z M 0 42.425781 "/>
<path style=" stroke:none;fill-rule:nonzero;fill:rgb(0%,0%,0%);fill-opacity:1;" d="M 15.152344 42.425781 L 18.152344 42.425781 L 18.152344 45.425781 L 15.152344 45.425781 Z M 15.152344 42.425781 "/>
<path style=" stroke:none;fill-rule:nonzero;fill:rgb(0%,0%,0%);fill-opacity:1;" d="M 18.183594 42.425781 L 21.183594 42.425781 L 21.183594 45.425781 L 18.183594 45.425781 Z M 18.183594 42.425781 "/>
<path style=" stroke:none;fill-rule:nonzero;fill:rgb(0%,0%,0%);fill-opacity:1;" d="M 21.210938 42.425781 L 24.210938 42.425781 L 24.210938 45.425781 L 21.210938 45.425781 Z M 21.210938 42.425781 "/>
<path style=" stroke:none;fill-rule:nonzero;fill:rgb(0%,0%,0%);fill-opacity:1;" d="M 24.242188 42.425781 L 27.242188 42.425781 L 27.242188 45.425781 L 24.242188 45.425781 Z M 24.242188 42.425781 "/>
<path style=" stroke:none;fill-rule:nonzero;fill:rgb(0%,0%,0%);fill-opacity:1;" d="M 30.304688 42.425781 L 33.304688 42.425781 L 33.304688 45.425781 L 30.304688 45.425781 Z M 30.304688 42.425781 "/>
<path style=" stroke:none;fill-rule:nonzero;fill:rgb(0%,0%,0%);fill-opacity:1;" d="M 33.332031 42.425781 L 36.332031 42.425781 L 36.332031 45.425781 L 33.332031 45.425781 Z M 33.332031 42.425781 "/>
<path style=" stroke:none;fill-rule:nonzero;fill:rgb(0%,0%,0%);fill-opacity:1;" d="M 39.394531 42.425781 L 42.394531 42.425781 L 42.394531 45.425781 L 39.394531 45.425781 Z M 39.394531 42.425781 "/>
<path style=" stroke:none;fill-rule:nonzero;fill:rgb(0%,0%,0%);fill-opacity:1;" d="M 45.453125 42.425781 L 48.453125 42.425781 L 48.453125 45.425781 L 45.453125 45.425781 Z M 45.453125 42.425781 "/>
<path style=" stroke:none;fill-rule:nonzero;fill:rgb(0%,0%,0%);fill-opacity:1;" d="M 54.546875 42.425781 L 57.546875 42.425781 L 57.546875 45.425781 L 54.546875 45.425781 Z M 54.546875 42.425781 "/>
<path style=" stroke:none;fill-rule:nonzero;fill:rgb(0%,0%,0%);fill-opacity:1;" d="M 60.605469 42.425781 L 63.605469 42.425781 L 63.605469 45.425781 L 60.605469 45.425781 Z M 60.605469 42.425781 "/>
<path style=" stroke:none;fill-rule:nonzero;fill:rgb(0%,0%,0%);fill-opacity:1;" d="M 66.667969 42.425781 L 69.667969 42.425781 L 69.667969 45.425781 L 66.667969 45.425781 Z M 66.667969 42.425781 "/>
<path style=" stroke:none;fill-rule:nonzero;fill:rgb(0%,0%,0%);fill-opacity:1;" d="M 78.789062 42.425781 L 81.789062 42.425781 L 81.789062 45.425781 L 78.789062 45.425781 Z M 78.789062 42.425781 "/>
<path style=" stroke:none;fill-rule:nonzero;fill:rgb(0%,0%,0%);fill-opacity:1;" d="M 84.847656 42.425781 L 87.847656 42.425781 L 87.847656 45.425781 L 84.847656 45.425781 Z M 84.847656 42.425781 "/>
<path style=" stroke:none;fill-rule:nonzero;fill:rgb(0%,0%,0%);fill-opacity:1;" d="M 90.910156 42.425781 L 93.910156 42.425781 L 93.910156 45.425781 L 90.910156 45.425781 Z M 90.910156 42.425781 "/>
<path style=" stroke:none;fill-rule:nonzero;fill:rgb(0%,0%,0%);fill-opacity:1;" d="M 93.9375 42.425781 L 96.9375 42.425781 L 96.9375 45.425781 L 93.9375 45.425781 Z M 93.9375 42.425781 "/>
<path style=" stroke:none;fill-rule:nonzero;fill:rgb(0%,0%,0%);fill-opacity:1;" d="M 0 45.453125 L 3 45.453125 L 3 48.453125 L 0 48.453125 Z M 0 45.453125 "/>
<path style=" stroke:none;fill-rule:nonzero;fill:rgb(0%,0%,0%);fill-opacity:1;" d="M 6.0625 45.453125 L 9.0625 45.453125 L 9.0625 48.453125 L 6.0625 48.453125 Z M 6.0625 45.453125 "/>
<path style=" stroke:none;fill-rule:nonzero;fill:rgb(0%,0%,0%);fill-opacity:1;" d="M 15.152344 45.453125 L 18.152344 45.453125 L 18.152344 48.453125 L 15.152344 48.453125 Z M 15.152344 45.453125 "/>
<path style=" stroke:none;fill-rule:nonzero;fill:rgb(0%,0%,0%);fill-opacity:1;" d="M 21.210938 45.453125 L 24.210938 45.453125 L 24.210938 48.453125 L 21.210938 48.453125 Z M 21.210938 45.453125 "/>
<path style=" stroke:none;fill-rule:nonzero;fill:rgb(0%,0%,0%);fill-opacity:1;" d="M 24.242188 45.453125 L 27.242188 45.453125 L 27.242188 48.453125 L 24.242188 48.453125 Z M 24.242188 45.453125 "/>
<path style=" stroke:none;fill-rule:nonzero;fill:rgb(0%,0%,0%);fill-opacity:1;" d="M 39.394531 45.453125 L 42.394531 45.453125 L 42.394531 48.453125 L 39.394531 48.453125 Z M 39.394531 45.453125 "/>
<path style=" stroke:none;fill-rule:nonzero;fill:rgb(0%,0%,0%);fill-opacity:1;" d="M 42.425781 45.453125 L 45.425781 45.453125 L 45.425781 48.453125 L 42.425781 48.453125 Z M 42.425781 45.453125 "/>
<path style=" stroke:none;fill-rule:nonzero;fill:rgb(0%,0%,0%);fill-opacity:1;" d="M 45.453125 45.453125 L 48.453125 45.453125 L 48.453125 48.453125 L 45.453125 48.453125 Z M 45.453125 45.453125 "/>
<path style=" stroke:none;fill-rule:nonzero;fill:rgb(0%,0%,0%);fill-opacity:1;" d="M 51.515625 45.453125 L 54.515625 45.453125 L 54.515625 48.453125 L 51.515625 48.453125 Z M 51.515625 45.453125 "/>
<path style=" stroke:none;fill-rule:nonzero;fill:rgb(0%,0%,0%);fill-opacity:1;" d="M 60.605469 45.453125 L 63.605469 45.453125 L 63.605469 48.453125 L 60.605469 48.453125 Z M 60.605469 45.453125 "/>
<path style=" stroke:none;fill-rule:nonzero;fill:rgb(0%,0%,0%);fill-opacity:1;" d="M 72.726562 45.453125 L 75.726562 45.453125 L 75.726562 48.453125 L 72.726562 48.453125 Z M 72.726562 45.453125 "/>
<path style=" stroke:none;fill-rule:nonzero;fill:rgb(0%,0%,0%);fill-opacity:1;" d="M 84.847656 45.453125 L 87.847656 45.453125 L 87.847656 48.453125 L 84.847656 48.453125 Z M 84.847656 45.453125 "/>
<path style=" stroke:none;fill-rule:nonzero;fill:rgb(0%,0%,0%);fill-opacity:1;" d="M 87.878906 45.453125 L 90.878906 45.453125 L 90.878906 48.453125 L 87.878906 48.453125 Z M 87.878906 45.453125 "/>
<path style=" stroke:none;fill-rule:nonzero;fill:rgb(0%,0%,0%);fill-opacity:1;" d="M 90.910156 45.453125 L 93.910156 45.453125 L 93.910156 48.453125 L 90.910156 48.453125 Z M 90.910156 45.453125 "/>
<path style=" stroke:none;fill-rule:nonzero;fill:rgb(0%,0%,0%);fill-opacity:1;" d="M 93.9375 45.453125 L 96.9375 45.453125 L 96.9375 48.453125 L 93.9375 48.453125 Z M 93.9375 45.453125 "/>
<path style=" stroke:none;fill-rule:nonzero;fill:rgb(0%,0%,0%);fill-opacity:1;" d="M 96.96875 45.453125 L 99.96875 45.453125 L 99.96875 48.453125 L 96.96875 48.453125 Z M 96.96875 45.453125 "/>
<path style=" stroke:none;fill-rule:nonzero;fill:rgb(0%,0%,0%);fill-opacity:1;" d="M 0 48.484375 L 3 48.484375 L 3 51.484375 L 0 51.484375 Z M 0 48.484375 "/>
<path style=" stroke:none;fill-rule:nonzero;fill:rgb(0%,0%,0%);fill-opacity:1;" d="M 3.03125 48.484375 L 6.03125 48.484375 L 6.03125 51.484375 L 3.03125 51.484375 Z M 3.03125 48.484375 "/>
<path style=" stroke:none;fill-rule:nonzero;fill:rgb(0%,0%,0%);fill-opacity:1;" d="M 18.183594 48.484375 L 21.183594 48.484375 L 21.183594 51.484375 L 18.183594 51.484375 Z M 18.183594 48.484375 "/>
<path style=" stroke:none;fill-rule:nonzero;fill:rgb(0%,0%,0%);fill-opacity:1;" d="M 27.273438 48.484375 L 30.273438 48.484375 L 30.273438 51.484375 L 27.273438 51.484375 Z M 27.273438 48.484375 "/>
<path style=" stroke:none;fill-rule:nonzero;fill:rgb(0%,0%,0%);fill-opacity:1;" d="M 30.304688 48.484375 L 33.304688 48.484375 L 33.304688 51.484375 L 30.304688 51.484375 Z M 30.304688 48.484375 "/>
<path style=" stroke:none;fill-rule:nonzero;fill:rgb(0%,0%,0%);fill-opacity:1;" d="M 39.394531 48.484375 L 42.394531 48.484375 L 42.394531 51.484375 L 39.394531 51.484375 Z M 39.394531 48.484375 "/>
<path style=" stroke:none;fill-rule:nonzero;fill:rgb(0%,0%,0%);fill-opacity:1;" d="M 42.425781 48.484375 L 45.425781 48.484375 L 45.425781 51.484375 L 42.425781 51.484375 Z M 42.425781 48.484375 "/>
<path style=" stroke:none;fill-rule:nonzero;fill:rgb(0%,0%,0%);fill-opacity:1;" d="M 48.484375 48.484375 L 51.484375 48.484375 L 51.484375 51.484375 L 48.484375 51.484375 Z M 48.484375 48.484375 "/>
<path style=" stroke:none;fill-rule:nonzero;fill:rgb(0%,0%,0%);fill-opacity:1;" d="M 51.515625 48.484375 L 54.515625 48.484375 L 54.515625 51.484375 L 51.515625 51.484375 Z M 51.515625 48.484375 "/>
<path style=" stroke:none;fill-rule:nonzero;fill:rgb(0%,0%,0%);fill-opacity:1;" d="M 54.546875 48.484375 L 57.546875 48.484375 L 57.546875 51.484375 L 54.546875 51.484375 Z M 54.546875 48.484375 "/>
<path style=" stroke:none;fill-rule:nonzero;fill:rgb(0%,0%,0%);fill-opacity:1;" d="M 57.574219 48.484375 L 60.574219 48.484375 L 60.574219 51.484375 L 57.574219 51.484375 Z M 57.574219 48.484375 "/>
<path style=" stroke:none;fill-rule:nonzero;fill:rgb(0%,0%,0%);fill-opacity:1;" d="M 60.605469 48.484375 L 63.605469 48.484375 L 63.605469 51.484375 L 60.605469 51.484375 Z M 60.605469 48.484375 "/>
<path style=" stroke:none;fill-rule:nonzero;fill:rgb(0%,0%,0%);fill-opacity:1;" d="M 69.695312 48.484375 L 72.695312 48.484375 L 72.695312 51.484375 L 69.695312 51.484375 Z M 69.695312 48.484375 "/>
<path style=" stroke:none;fill-rule:nonzero;fill:rgb(0%,0%,0%);fill-opacity:1;" d="M 84.847656 48.484375 L 87.847656 48.484375 L 87.847656 51.484375 L 84.847656 51.484375 Z M 84.847656 48.484375 "/>
<path style=" stroke:none;fill-rule:nonzero;fill:rgb(0%,0%,0%);fill-opacity:1;" d="M 87.878906 48.484375 L 90.878906 48.484375 L 90.878906 51.484375 L 87.878906 51.484375 Z M 87.878906 48.484375 "/>
<path style=" stroke:none;fill-rule:nonzero;fill:rgb(0%,0%,0%);fill-opacity:1;" d="M 93.9375 48.484375 L 96.9375 48.484375 L 96.9375 51.484375 L 93.9375 51.484375 Z M 93.9375 48.484375 "/>
<path style=" stroke:none;fill-rule:nonzero;fill:rgb(0%,0%,0%);fill-opacity:1;" d="M 96.96875 48.484375 L 99.96875 48.484375 L 99.96875 51.484375 L 96.96875 51.484375 Z M 96.96875 48.484375 "/>
<path style=" stroke:none;fill-rule:nonzero;fill:rgb(0%,0%,0%);fill-opacity:1;" d="M 0 51.515625 L 3 51.515625 L 3 54.515625 L 0 54.515625 Z M 0 51.515625 "/>
<path style=" stroke:none;fill-rule:nonzero;fill:rgb(0%,0%,0%);fill-opacity:1;" d="M 3.03125 51.515625 L 6.03125 51.515625 L 6.03125 54.515625 L 3.03125 54.515625 Z M 3.03125 51.515625 "/>
<path style=" stroke:none;fill-rule:nonzero;fill:rgb(0%,0%,0%);fill-opacity:1;" d="M 12.121094 51.515625 L 15.121094 51.515625 L 15.121094 54.515625 L 12.121094 54.515625 Z M 12.121094 51.515625 "/>
<path style=" stroke:none;fill-rule:nonzero;fill:rgb(0%,0%,0%);fill-opacity:1;" d="M 21.210938 51.515625 L 24.210938 51.515625 L 24.210938 54.515625 L 21.210938 54.515625 Z M 21.210938 51.515625 "/>
<path style=" stroke:none;fill-rule:nonzero;fill:rgb(0%,0%,0%);fill-opacity:1;" d="M 24.242188 51.515625 L 27.242188 51.515625 L 27.242188 54.515625 L 24.242188 54.515625 Z M 24.242188 51.515625 "/>
<path style=" stroke:none;fill-rule:nonzero;fill:rgb(0%,0%,0%);fill-opacity:1;" d="M 27.273438 51.515625 L 30.273438 51.515625 L 30.273438 54.515625 L 27.273438 54.515625 Z M 27.273438 51.515625 "/>
<path style=" stroke:none;fill-rule:nonzero;fill:rgb(0%,0%,0%);fill-opacity:1;" d="M 30.304688 51.515625 L 33.304688 51.515625 L 33.304688 54.515625 L 30.304688 54.515625 Z M 30.304688 51.515625 "/>
<path style=" stroke:none;fill-rule:nonzero;fill:rgb(0%,0%,0%);fill-opacity:1;" d="M 36.363281 51.515625 L 39.363281 51.515625 L 39.363281 54.515625 L 36.363281 54.515625 Z M 36.363281 51.515625 "/>
<path style=" stroke:none;fill-rule:nonzero;fill:rgb(0%,0%,0%);fill-opacity:1;" d="M 39.394531 51.515625 L 42.394531 51.515625 L 42.394531 54.515625 L 39.394531 54.515625 Z M 39.394531 51.515625 "/>
<path style=" stroke:none;fill-rule:nonzero;fill:rgb(0%,0%,0%);fill-opacity:1;" d="M 42.425781 51.515625 L 45.425781 51.515625 L 45.425781 54.515625 L 42.425781 54.515625 Z M 42.425781 51.515625 "/>
<path style=" stroke:none;fill-rule:nonzero;fill:rgb(0%,0%,0%);fill-opacity:1;" d="M 48.484375 51.515625 L 51.484375 51.515625 L 51.484375 54.515625 L 48.484375 54.515625 Z M 48.484375 51.515625 "/>
<path style=" stroke:none;fill-rule:nonzero;fill:rgb(0%,0%,0%);fill-opacity:1;" d="M 54.546875 51.515625 L 57.546875 51.515625 L 57.546875 54.515625 L 54.546875 54.515625 Z M 54.546875 51.515625 "/>
<path style=" stroke:none;fill-rule:nonzero;fill:rgb(0%,0%,0%);fill-opacity:1;" d="M 60.605469 51.515625 L 63.605469 51.515625 L 63.605469 54.515625 L 60.605469 54.515625 Z M 60.605469 51.515625 "/>
<path style=" stroke:none;fill-rule:nonzero;fill:rgb(0%,0%,0%);fill-opacity:1;" d="M 63.636719 51.515625 L 66.636719 51.515625 L 66.636719 54.515625 L 63.636719 54.515625 Z M 63.636719 51.515625 "/>
<path style=" stroke:none;fill-rule:nonzero;fill:rgb(0%,0%,0%);fill-opacity:1;" d="M 69.695312 51.515625 L 72.695312 51.515625 L 72.695312 54.515625 L 69.695312 54.515625 Z M 69.695312 51.515625 "/>
<path style=" stroke:none;fill-rule:nonzero;fill:rgb(0%,0%,0%);fill-opacity:1;" d="M 72.726562 51.515625 L 75.726562 51.515625 L 75.726562 54.515625 L 72.726562 54.515625 Z M 72.726562 51.515625 "/>
<path style=" stroke:none;fill-rule:nonzero;fill:rgb(0%,0%,0%);fill-opacity:1;" d="M 78.789062 51.515625 L 81.789062 51.515625 L 81.789062 54.515625 L 78.789062 54.515625 Z M 78.789062 51.515625 "/>
<path style=" stroke:none;fill-rule:nonzero;fill:rgb(0%,0%,0%);fill-opacity:1;" d="M 81.816406 51.515625 L 84.816406 51.515625 L 84.816406 54.515625 L 81.816406 54.515625 Z M 81.816406 51.515625 "/>
<path style=" stroke:none;fill-rule:nonzero;fill:rgb(0%,0%,0%);fill-opacity:1;" d="M 93.9375 51.515625 L 96.9375 51.515625 L 96.9375 54.515625 L 93.9375 54.515625 Z M 93.9375 51.515625 "/>
<path style=" stroke:none;fill-rule:nonzero;fill:rgb(0%,0%,0%);fill-opacity:1;" d="M 96.96875 51.515625 L 99.96875 51.515625 L 99.96875 54.515625 L 96.96875 54.515625 Z M 96.96875 51.515625 "/>
<path style=" stroke:none;fill-rule:nonzero;fill:rgb(0%,0%,0%);fill-opacity:1;" d="M 0 54.546875 L 3 54.546875 L 3 57.546875 L 0 57.546875 Z M 0 54.546875 "/>
<path style=" stroke:none;fill-rule:nonzero;fill:rgb(0%,0%,0%);fill-opacity:1;" d="M 9.089844 54.546875 L 12.089844 54.546875 L 12.089844 57.546875 L 9.089844 57.546875 Z M 9.089844 54.546875 "/>
<path style=" stroke:none;fill-rule:nonzero;fill:rgb(0%,0%,0%);fill-opacity:1;" d="M 18.183594 54.546875 L 21.183594 54.546875 L 21.183594 57.546875 L 18.183594 57.546875 Z M 18.183594 54.546875 "/>
<path style=" stroke:none;fill-rule:nonzero;fill:rgb(0%,0%,0%);fill-opacity:1;" d="M 24.242188 54.546875 L 27.242188 54.546875 L 27.242188 57.546875 L 24.242188 57.546875 Z M 24.242188 54.546875 "/>
<path style=" stroke:none;fill-rule:nonzero;fill:rgb(0%,0%,0%);fill-opacity:1;" d="M 30.304688 54.546875 L 33.304688 54.546875 L 33.304688 57.546875 L 30.304688 57.546875 Z M 30.304688 54.546875 "/>
<path style=" stroke:none;fill-rule:nonzero;fill:rgb(0%,0%,0%);fill-opacity:1;" d="M 33.332031 54.546875 L 36.332031 54.546875 L 36.332031 57.546875 L 33.332031 57.546875 Z M 33.332031 54.546875 "/>
<path style=" stroke:none;fill-rule:nonzero;fill:rgb(0%,0%,0%);fill-opacity:1;" d="M 39.394531 54.546875 L 42.394531 54.546875 L 42.394531 57.546875 L 39.394531 57.546875 Z M 39.394531 54.546875 "/>
<path style=" stroke:none;fill-rule:nonzero;fill:rgb(0%,0%,0%);fill-opacity:1;" d="M 42.425781 54.546875 L 45.425781 54.546875 L 45.425781 57.546875 L 42.425781 57.546875 Z M 42.425781 54.546875 "/>
<path style=" stroke:none;fill-rule:nonzero;fill:rgb(0%,0%,0%);fill-opacity:1;" d="M 45.453125 54.546875 L 48.453125 54.546875 L 48.453125 57.546875 L 45.453125 57.546875 Z M 45.453125 54.546875 "/>
<path style=" stroke:none;fill-rule:nonzero;fill:rgb(0%,0%,0%);fill-opacity:1;" d="M 51.515625 54.546875 L 54.515625 54.546875 L 54.515625 57.546875 L 51.515625 57.546875 Z M 51.515625 54.546875 "/>
<path style=" stroke:none;fill-rule:nonzero;fill:rgb(0%,0%,0%);fill-opacity:1;" d="M 60.605469 54.546875 L 63.605469 54.546875 L 63.605469 57.546875 L 60.605469 57.546875 Z M 60.605469 54.546875 "/>
<path style=" stroke:none;fill-rule:nonzero;fill:rgb(0%,0%,0%);fill-opacity:1;" d="M 66.667969 54.546875 L 69.667969 54.546875 L 69.667969 57.546875 L 66.667969 57.546875 Z M 66.667969 54.546875 "/>
<path style=" stroke:none;fill-rule:nonzero;fill:rgb(0%,0%,0%);fill-opacity:1;" d="M 69.695312 54.546875 L 72.695312 54.546875 L 72.695312 57.546875 L 69.695312 57.546875 Z M 69.695312 54.546875 "/>
<path style=" stroke:none;fill-rule:nonzero;fill:rgb(0%,0%,0%);fill-opacity:1;" d="M 81.816406 54.546875 L 84.816406 54.546875 L 84.816406 57.546875 L 81.816406 57.546875 Z M 81.816406 54.546875 "/>
<path style=" stroke:none;fill-rule:nonzero;fill:rgb(0%,0%,0%);fill-opacity:1;" d="M 87.878906 54.546875 L 90.878906 54.546875 L 90.878906 57.546875 L 87.878906 57.546875 Z M 87.878906 54.546875 "/>
<path style=" stroke:none;fill-rule:nonzero;fill:rgb(0%,0%,0%);fill-opacity:1;" d="M 90.910156 54.546875 L 93.910156 54.546875 L 93.910156 57.546875 L 90.910156 57.546875 Z M 90.910156 54.546875 "/>
<path style=" stroke:none;fill-rule:nonzero;fill:rgb(0%,0%,0%);fill-opacity:1;" d="M 96.96875 54.546875 L 99.96875 54.546875 L 99.96875 57.546875 L 96.96875 57.546875 Z M 96.96875 54.546875 "/>
<path style=" stroke:none;fill-rule:nonzero;fill:rgb(0%,0%,0%);fill-opacity:1;" d="M 3.03125 57.574219 L 6.03125 57.574219 L 6.03125 60.574219 L 3.03125 60.574219 Z M 3.03125 57.574219 "/>
<path style=" stroke:none;fill-rule:nonzero;fill:rgb(0%,0%,0%);fill-opacity:1;" d="M 6.0625 57.574219 L 9.0625 57.574219 L 9.0625 60.574219 L 6.0625 60.574219 Z M 6.0625 57.574219 "/>
<path style=" stroke:none;fill-rule:nonzero;fill:rgb(0%,0%,0%);fill-opacity:1;" d="M 9.089844 57.574219 L 12.089844 57.574219 L 12.089844 60.574219 L 9.089844 60.574219 Z M 9.089844 57.574219 "/>
<path style=" stroke:none;fill-rule:nonzero;fill:rgb(0%,0%,0%);fill-opacity:1;" d="M 30.304688 57.574219 L 33.304688 57.574219 L 33.304688 60.574219 L 30.304688 60.574219 Z M 30.304688 57.574219 "/>
<path style=" stroke:none;fill-rule:nonzero;fill:rgb(0%,0%,0%);fill-opacity:1;" d="M 33.332031 57.574219 L 36.332031 57.574219 L 36.332031 60.574219 L 33.332031 60.574219 Z M 33.332031 57.574219 "/>
<path style=" stroke:none;fill-rule:nonzero;fill:rgb(0%,0%,0%);fill-opacity:1;" d="M 36.363281 57.574219 L 39.363281 57.574219 L 39.363281 60.574219 L 36.363281 60.574219 Z M 36.363281 57.574219 "/>
<path style=" stroke:none;fill-rule:nonzero;fill:rgb(0%,0%,0%);fill-opacity:1;" d="M 45.453125 57.574219 L 48.453125 57.574219 L 48.453125 60.574219 L 45.453125 60.574219 Z M 45.453125 57.574219 "/>
<path style=" stroke:none;fill-rule:nonzero;fill:rgb(0%,0%,0%);fill-opacity:1;" d="M 51.515625 57.574219 L 54.515625 57.574219 L 54.515625 60.574219 L 51.515625 60.574219 Z M 51.515625 57.574219 "/>
<path style=" stroke:none;fill-rule:nonzero;fill:rgb(0%,0%,0%);fill-opacity:1;" d="M 60.605469 57.574219 L 63.605469 57.574219 L 63.605469 60.574219 L 60.605469 60.574219 Z M 60.605469 57.574219 "/>
<path style=" stroke:none;fill-rule:nonzero;fill:rgb(0%,0%,0%);fill-opacity:1;" d="M 66.667969 57.574219 L 69.667969 57.574219 L 69.667969 60.574219 L 66.667969 60.574219 Z M 66.667969 57.574219 "/>
<path style=" stroke:none;fill-rule:nonzero;fill:rgb(0%,0%,0%);fill-opacity:1;" d="M 69.695312 57.574219 L 72.695312 57.574219 L 72.695312 60.574219 L 69.695312 60.574219 Z M 69.695312 57.574219 "/>
<path style=" stroke:none;fill-rule:nonzero;fill:rgb(0%,0%,0%);fill-opacity:1;" d="M 72.726562 57.574219 L 75.726562 57.574219 L 75.726562 60.574219 L 72.726562 60.574219 Z M 72.726562 57.574219 "/>
<path style=" stroke:none;fill-rule:nonzero;fill:rgb(0%,0%,0%);fill-opacity:1;" d="M 78.789062 57.574219 L 81.789062 57.574219 L 81.789062 60.574219 L 78.789062 60.574219 Z M 78.789062 57.574219 "/>
<path style=" stroke:none;fill-rule:nonzero;fill:rgb(0%,0%,0%);fill-opacity:1;" d="M 87.878906 57.574219 L 90.878906 57.574219 L 90.878906 60.574219 L 87.878906 60.574219 Z M 87.878906 57.574219 "/>
<path style=" stroke:none;fill-rule:nonzero;fill:rgb(0%,0%,0%);fill-opacity:1;" d="M 90.910156 57.574219 L 93.910156 57.574219 L 93.910156 60.574219 L 90.910156 60.574219 Z M 90.910156 57.574219 "/>
<path style=" stroke:none;fill-rule:nonzero;fill:rgb(0%,0%,0%);fill-opacity:1;" d="M 93.9375 57.574219 L 96.9375 57.574219 L 96.9375 60.574219 L 93.9375 60.574219 Z M 93.9375 57.574219 "/>
<path style=" stroke:none;fill-rule:nonzero;fill:rgb(0%,0%,0%);fill-opacity:1;" d="M 9.089844 60.605469 L 12.089844 60.605469 L 12.089844 63.605469 L 9.089844 63.605469 Z M 9.089844 60.605469 "/>
<path style=" stroke:none;fill-rule:nonzero;fill:rgb(0%,0%,0%);fill-opacity:1;" d="M 15.152344 60.605469 L 18.152344 60.605469 L 18.152344 63.605469 L 15.152344 63.605469 Z M 15.152344 60.605469 "/>
<path style=" stroke:none;fill-rule:nonzero;fill:rgb(0%,0%,0%);fill-opacity:1;" d="M 18.183594 60.605469 L 21.183594 60.605469 L 21.183594 63.605469 L 18.183594 63.605469 Z M 18.183594 60.605469 "/>
<path style=" stroke:none;fill-rule:nonzero;fill:rgb(0%,0%,0%);fill-opacity:1;" d="M 21.210938 60.605469 L 24.210938 60.605469 L 24.210938 63.605469 L 21.210938 63.605469 Z M 21.210938 60.605469 "/>
<path style=" stroke:none;fill-rule:nonzero;fill:rgb(0%,0%,0%);fill-opacity:1;" d="M 27.273438 60.605469 L 30.273438 60.605469 L 30.273438 63.605469 L 27.273438 63.605469 Z M 27.273438 60.605469 "/>
<path style=" stroke:none;fill-rule:nonzero;fill:rgb(0%,0%,0%);fill-opacity:1;" d="M 30.304688 60.605469 L 33.304688 60.605469 L 33.304688 63.605469 L 30.304688 63.605469 Z M 30.304688 60.605469 "/>
<path style=" stroke:none;fill-rule:nonzero;fill:rgb(0%,0%,0%);fill-opacity:1;" d="M 45.453125 60.605469 L 48.453125 60.605469 L 48.453125 63.605469 L 45.453125 63.605469 Z M 45.453125 60.605469 "/>
<path style=" stroke:none;fill-rule:nonzero;fill:rgb(0%,0%,0%);fill-opacity:1;" d="M 48.484375 60.605469 L 51.484375 60.605469 L 51.484375 63.605469 L 48.484375 63.605469 Z M 48.484375 60.605469 "/>
<path style=" stroke:none;fill-rule:nonzero;fill:rgb(0%,0%,0%);fill-opacity:1;" d="M 51.515625 60.605469 L 54.515625 60.605469 L 54.515625 63.605469 L 51.515625 63.605469 Z M 51.515625 60.605469 "/>
<path style=" stroke:none;fill-rule:nonzero;fill:rgb(0%,0%,0%);fill-opacity:1;" d="M 54.546875 60.605469 L 57.546875 60.605469 L 57.546875 63.605469 L 54.546875 63.605469 Z M 54.546875 60.605469 "/>
<path style=" stroke:none;fill-rule:nonzero;fill:rgb(0%,0%,0%);fill-opacity:1;" d="M 60.605469 60.605469 L 63.605469 60.605469 L 63.605469 63.605469 L 60.605469 63.605469 Z M 60.605469 60.605469 "/>
<path style=" stroke:none;fill-rule:nonzero;fill:rgb(0%,0%,0%);fill-opacity:1;" d="M 66.667969 60.605469 L 69.667969 60.605469 L 69.667969 63.605469 L 66.667969 63.605469 Z M 66.667969 60.605469 "/>
<path style=" stroke:none;fill-rule:nonzero;fill:rgb(0%,0%,0%);fill-opacity:1;" d="M 75.757812 60.605469 L 78.757812 60.605469 L 78.757812 63.605469 L 75.757812 63.605469 Z M 75.757812 60.605469 "/>
<path style=" stroke:none;fill-rule:nonzero;fill:rgb(0%,0%,0%);fill-opacity:1;" d="M 78.789062 60.605469 L 81.789062 60.605469 L 81.789062 63.605469 L 78.789062 63.605469 Z M 78.789062 60.605469 "/>
<path style=" stroke:none;fill-rule:nonzero;fill:rgb(0%,0%,0%);fill-opacity:1;" d="M 81.816406 60.605469 L 84.816406 60.605469 L 84.816406 63.605469 L 81.816406 63.605469 Z M 81.816406 60.605469 "/>
<path style=" stroke:none;fill-rule:nonzero;fill:rgb(0%,0%,0%);fill-opacity:1;" d="M 84.847656 60.605469 L 87.847656 60.605469 L 87.847656 63.605469 L 84.847656 63.605469 Z M 84.847656 60.605469 "/>
<path style=" stroke:none;fill-rule:nonzero;fill:rgb(0%,0%,0%);fill-opacity:1;" d="M 87.878906 60.605469 L 90.878906 60.605469 L 90.878906 63.605469 L 87.878906 63.605469 Z M 87.878906 60.605469 "/>
<path style=" stroke:none;fill-rule:nonzero;fill:rgb(0%,0%,0%);fill-opacity:1;" d="M 0 63.636719 L 3 63.636719 L 3 66.636719 L 0 66.636719 Z M 0 63.636719 "/>
<path style=" stroke:none;fill-rule:nonzero;fill:rgb(0%,0%,0%);fill-opacity:1;" d="M 3.03125 63.636719 L 6.03125 63.636719 L 6.03125 66.636719 L 3.03125 66.636719 Z M 3.03125 63.636719 "/>
<path style=" stroke:none;fill-rule:nonzero;fill:rgb(0%,0%,0%);fill-opacity:1;" d="M 9.089844 63.636719 L 12.089844 63.636719 L 12.089844 66.636719 L 9.089844 66.636719 Z M 9.089844 63.636719 "/>
<path style=" stroke:none;fill-rule:nonzero;fill:rgb(0%,0%,0%);fill-opacity:1;" d="M 12.121094 63.636719 L 15.121094 63.636719 L 15.121094 66.636719 L 12.121094 66.636719 Z M 12.121094 63.636719 "/>
<path style=" stroke:none;fill-rule:nonzero;fill:rgb(0%,0%,0%);fill-opacity:1;" d="M 21.210938 63.636719 L 24.210938 63.636719 L 24.210938 66.636719 L 21.210938 66.636719 Z M 21.210938 63.636719 "/>
<path style=" stroke:none;fill-rule:nonzero;fill:rgb(0%,0%,0%);fill-opacity:1;" d="M 24.242188 63.636719 L 27.242188 63.636719 L 27.242188 66.636719 L 24.242188 66.636719 Z M 24.242188 63.636719 "/>
<path style=" stroke:none;fill-rule:nonzero;fill:rgb(0%,0%,0%);fill-opacity:1;" d="M 39.394531 63.636719 L 42.394531 63.636719 L 42.394531 66.636719 L 39.394531 66.636719 Z M 39.394531 63.636719 "/>
<path style=" stroke:none;fill-rule:nonzero;fill:rgb(0%,0%,0%);fill-opacity:1;" d="M 45.453125 63.636719 L 48.453125 63.636719 L 48.453125 66.636719 L 45.453125 66.636719 Z M 45.453125 63.636719 "/>
<path style=" stroke:none;fill-rule:nonzero;fill:rgb(0%,0%,0%);fill-opacity:1;" d="M 54.546875 63.636719 L 57.546875 63.636719 L 57.546875 66.636719 L 54.546875 66.636719 Z M 54.546875 63.636719 "/>
<path style=" stroke:none;fill-rule:nonzero;fill:rgb(0%,0%,0%);fill-opacity:1;" d="M 63.636719 63.636719 L 66.636719 63.636719 L 66.636719 66.636719 L 63.636719 66.636719 Z M 63.636719 63.636719 "/>
<path style=" stroke:none;fill-rule:nonzero;fill:rgb(0%,0%,0%);fill-opacity:1;" d="M 66.667969 63.636719 L 69.667969 63.636719 L 69.667969 66.636719 L 66.667969 66.636719 Z M 66.667969 63.636719 "/>
<path style=" stroke:none;fill-rule:nonzero;fill:rgb(0%,0%,0%);fill-opacity:1;" d="M 72.726562 63.636719 L 75.726562 63.636719 L 75.726562 66.636719 L 72.726562 66.636719 Z M 72.726562 63.636719 "/>
<path style=" stroke:none;fill-rule:nonzero;fill:rgb(0%,0%,0%);fill-opacity:1;" d="M 78.789062 63.636719 L 81.789062 63.636719 L 81.789062 66.636719 L 78.789062 66.636719 Z M 78.789062 63.636719 "/>
<path style=" stroke:none;fill-rule:nonzero;fill:rgb(0%,0%,0%);fill-opacity:1;" d="M 84.847656 63.636719 L 87.847656 63.636719 L 87.847656 66.636719 L 84.847656 66.636719 Z M 84.847656 63.636719 "/>
<path style=" stroke:none;fill-rule:nonzero;fill:rgb(0%,0%,0%);fill-opacity:1;" d="M 87.878906 63.636719 L 90.878906 63.636719 L 90.878906 66.636719 L 87.878906 66.636719 Z M 87.878906 63.636719 "/>
<path style=" stroke:none;fill-rule:nonzero;fill:rgb(0%,0%,0%);fill-opacity:1;" d="M 90.910156 63.636719 L 93.910156 63.636719 L 93.910156 66.636719 L 90.910156 66.636719 Z M 90.910156 63.636719 "/>
<path style=" stroke:none;fill-rule:nonzero;fill:rgb(0%,0%,0%);fill-opacity:1;" d="M 0 66.667969 L 3 66.667969 L 3 69.667969 L 0 69.667969 Z M 0 66.667969 "/>
<path style=" stroke:none;fill-rule:nonzero;fill:rgb(0%,0%,0%);fill-opacity:1;" d="M 9.089844 66.667969 L 12.089844 66.667969 L 12.089844 69.667969 L 9.089844 69.667969 Z M 9.089844 66.667969 "/>
<path style=" stroke:none;fill-rule:nonzero;fill:rgb(0%,0%,0%);fill-opacity:1;" d="M 12.121094 66.667969 L 15.121094 66.667969 L 15.121094 69.667969 L 12.121094 69.667969 Z M 12.121094 66.667969 "/>
<path style=" stroke:none;fill-rule:nonzero;fill:rgb(0%,0%,0%);fill-opacity:1;" d="M 18.183594 66.667969 L 21.183594 66.667969 L 21.183594 69.667969 L 18.183594 69.667969 Z M 18.183594 66.667969 "/>
<path style=" stroke:none;fill-rule:nonzero;fill:rgb(0%,0%,0%);fill-opacity:1;" d="M 21.210938 66.667969 L 24.210938 66.667969 L 24.210938 69.667969 L 21.210938 69.667969 Z M 21.210938 66.667969 "/>
<path style=" stroke:none;fill-rule:nonzero;fill:rgb(0%,0%,0%);fill-opacity:1;" d="M 27.273438 66.667969 L 30.273438 66.667969 L 30.273438 69.667969 L 27.273438 69.667969 Z M 27.273438 66.667969 "/>
<path style=" stroke:none;fill-rule:nonzero;fill:rgb(0%,0%,0%);fill-opacity:1;" d="M 30.304688 66.667969 L 33.304688 66.667969 L 33.304688 69.667969 L 30.304688 69.667969 Z M 30.304688 66.667969 "/>
<path style=" stroke:none;fill-rule:nonzero;fill:rgb(0%,0%,0%);fill-opacity:1;" d="M 33.332031 66.667969 L 36.332031 66.667969 L 36.332031 69.667969 L 33.332031 69.667969 Z M 33.332031 66.667969 "/>
<path style=" stroke:none;fill-rule:nonzero;fill:rgb(0%,0%,0%);fill-opacity:1;" d="M 36.363281 66.667969 L 39.363281 66.667969 L 39.363281 69.667969 L 36.363281 69.667969 Z M 36.363281 66.667969 "/>
<path style=" stroke:none;fill-rule:nonzero;fill:rgb(0%,0%,0%);fill-opacity:1;" d="M 39.394531 66.667969 L 42.394531 66.667969 L 42.394531 69.667969 L 39.394531 69.667969 Z M 39.394531 66.667969 "/>
<path style=" stroke:none;fill-rule:nonzero;fill:rgb(0%,0%,0%);fill-opacity:1;" d="M 45.453125 66.667969 L 48.453125 66.667969 L 48.453125 69.667969 L 45.453125 69.667969 Z M 45.453125 66.667969 "/>
<path style=" stroke:none;fill-rule:nonzero;fill:rgb(0%,0%,0%);fill-opacity:1;" d="M 51.515625 66.667969 L 54.515625 66.667969 L 54.515625 69.667969 L 51.515625 69.667969 Z M 51.515625 66.667969 "/>
<path style=" stroke:none;fill-rule:nonzero;fill:rgb(0%,0%,0%);fill-opacity:1;" d="M 57.574219 66.667969 L 60.574219 66.667969 L 60.574219 69.667969 L 57.574219 69.667969 Z M 57.574219 66.667969 "/>
<path style=" stroke:none;fill-rule:nonzero;fill:rgb(0%,0%,0%);fill-opacity:1;" d="M 66.667969 66.667969 L 69.667969 66.667969 L 69.667969 69.667969 L 66.667969 69.667969 Z M 66.667969 66.667969 "/>
<path style=" stroke:none;fill-rule:nonzero;fill:rgb(0%,0%,0%);fill-opacity:1;" d="M 84.847656 66.667969 L 87.847656 66.667969 L 87.847656 69.667969 L 84.847656 69.667969 Z M 84.847656 66.667969 "/>
<path style=" stroke:none;fill-rule:nonzero;fill:rgb(0%,0%,0%);fill-opacity:1;" d="M 87.878906 66.667969 L 90.878906 66.667969 L 90.878906 69.667969 L 87.878906 69.667969 Z M 87.878906 66.667969 "/>
<path style=" stroke:none;fill-rule:nonzero;fill:rgb(0%,0%,0%);fill-opacity:1;" d="M 93.9375 66.667969 L 96.9375 66.667969 L 96.9375 69.667969 L 93.9375 69.667969 Z M 93.9375 66.667969 "/>
<path style=" stroke:none;fill-rule:nonzero;fill:rgb(0%,0%,0%);fill-opacity:1;" d="M 0 69.695312 L 3 69.695312 L 3 72.695312 L 0 72.695312 Z M 0 69.695312 "/>
<path style=" stroke:none;fill-rule:nonzero;fill:rgb(0%,0%,0%);fill-opacity:1;" d="M 12.121094 69.695312 L 15.121094 69.695312 L 15.121094 72.695312 L 12.121094 72.695312 Z M 12.121094 69.695312 "/>
<path style=" stroke:none;fill-rule:nonzero;fill:rgb(0%,0%,0%);fill-opacity:1;" d="M 15.152344 69.695312 L 18.152344 69.695312 L 18.152344 72.695312 L 15.152344 72.695312 Z M 15.152344 69.695312 "/>
<path style=" stroke:none;fill-rule:nonzero;fill:rgb(0%,0%,0%);fill-opacity:1;" d="M 21.210938 69.695312 L 24.210938 69.695312 L 24.210938 72.695312 L 21.210938 72.695312 Z M 21.210938 69.695312 "/>
<path style=" stroke:none;fill-rule:nonzero;fill:rgb(0%,0%,0%);fill-opacity:1;" d="M 24.242188 69.695312 L 27.242188 69.695312 L 27.242188 72.695312 L 24.242188 72.695312 Z M 24.242188 69.695312 "/>
<path style=" stroke:none;fill-rule:nonzero;fill:rgb(0%,0%,0%);fill-opacity:1;" d="M 30.304688 69.695312 L 33.304688 69.695312 L 33.304688 72.695312 L 30.304688 72.695312 Z M 30.304688 69.695312 "/>
<path style=" stroke:none;fill-rule:nonzero;fill:rgb(0%,0%,0%);fill-opacity:1;" d="M 36.363281 69.695312 L 39.363281 69.695312 L 39.363281 72.695312 L 36.363281 72.695312 Z M 36.363281 69.695312 "/>
<path style=" stroke:none;fill-rule:nonzero;fill:rgb(0%,0%,0%);fill-opacity:1;" d="M 39.394531 69.695312 L 42.394531 69.695312 L 42.394531 72.695312 L 39.394531 72.695312 Z M 39.394531 69.695312 "/>
<path style=" stroke:none;fill-rule:nonzero;fill:rgb(0%,0%,0%);fill-opacity:1;" d="M 51.515625 69.695312 L 54.515625 69.695312 L 54.515625 72.695312 L 51.515625 72.695312 Z M 51.515625 69.695312 "/>
<path style=" stroke:none;fill-rule:nonzero;fill:rgb(0%,0%,0%);fill-opacity:1;" d="M 57.574219 69.695312 L 60.574219 69.695312 L 60.574219 72.695312 L 57.574219 72.695312 Z M 57.574219 69.695312 "/>
<path style=" stroke:none;fill-rule:nonzero;fill:rgb(0%,0%,0%);fill-opacity:1;" d="M 66.667969 69.695312 L 69.667969 69.695312 L 69.667969 72.695312 L 66.667969 72.695312 Z M 66.667969 69.695312 "/>
<path style=" stroke:none;fill-rule:nonzero;fill:rgb(0%,0%,0%);fill-opacity:1;" d="M 72.726562 69.695312 L 75.726562 69.695312 L 75.726562 72.695312 L 72.726562 72.695312 Z M 72.726562 69.695312 "/>
<path style=" stroke:none;fill-rule:nonzero;fill:rgb(0%,0%,0%);fill-opacity:1;" d="M 81.816406 69.695312 L 84.816406 69.695312 L 84.816406 72.695312 L 81.816406 72.695312 Z M 81.816406 69.695312 "/>
<path style=" stroke:none;fill-rule:nonzero;fill:rgb(0%,0%,0%);fill-opacity:1;" d="M 87.878906 69.695312 L 90.878906 69.695312 L 90.878906 72.695312 L 87.878906 72.695312 Z M 87.878906 69.695312 "/>
<path style=" stroke:none;fill-rule:nonzero;fill:rgb(0%,0%,0%);fill-opacity:1;" d="M 90.910156 69.695312 L 93.910156 69.695312 L 93.910156 72.695312 L 90.910156 72.695312 Z M 90.910156 69.695312 "/>
<path style=" stroke:none;fill-rule:nonzero;fill:rgb(0%,0%,0%);fill-opacity:1;" d="M 93.9375 69.695312 L 96.9375 69.695312 L 96.9375 72.695312 L 93.9375 72.695312 Z M 93.9375 69.695312 "/>
<path style=" stroke:none;fill-rule:nonzero;fill:rgb(0%,0%,0%);fill-opacity:1;" d="M 96.96875 69.695312 L 99.96875 69.695312 L 99.96875 72.695312 L 96.96875 72.695312 Z M 96.96875 69.695312 "/>
<path style=" stroke:none;fill-rule:nonzero;fill:rgb(0%,0%,0%);fill-opacity:1;" d="M 0 72.726562 L 3 72.726562 L 3 75.726562 L 0 75.726562 Z M 0 72.726562 "/>
<path style=" stroke:none;fill-rule:nonzero;fill:rgb(0%,0%,0%);fill-opacity:1;" d="M 3.03125 72.726562 L 6.03125 72.726562 L 6.03125 75.726562 L 3.03125 75.726562 Z M 3.03125 72.726562 "/>
<path style=" stroke:none;fill-rule:nonzero;fill:rgb(0%,0%,0%);fill-opacity:1;" d="M 9.089844 72.726562 L 12.089844 72.726562 L 12.089844 75.726562 L 9.089844 75.726562 Z M 9.089844 72.726562 "/>
<path style=" stroke:none;fill-rule:nonzero;fill:rgb(0%,0%,0%);fill-opacity:1;" d="M 12.121094 72.726562 L 15.121094 72.726562 L 15.121094 75.726562 L 12.121094 75.726562 Z M 12.121094 72.726562 "/>
<path style=" stroke:none;fill-rule:nonzero;fill:rgb(0%,0%,0%);fill-opacity:1;" d="M 18.183594 72.726562 L 21.183594 72.726562 L 21.183594 75.726562 L 18.183594 75.726562 Z M 18.183594 72.726562 "/>
<path style=" stroke:none;fill-rule:nonzero;fill:rgb(0%,0%,0%);fill-opacity:1;" d="M 21.210938 72.726562 L 24.210938 72.726562 L 24.210938 75.726562 L 21.210938 75.726562 Z M 21.210938 72.726562 "/>
<path style=" stroke:none;fill-rule:nonzero;fill:rgb(0%,0%,0%);fill-opacity:1;" d="M 30.304688 72.726562 L 33.304688 72.726562 L 33.304688 75.726562 L 30.304688 75.726562 Z M 30.304688 72.726562 "/>
<path style=" stroke:none;fill-rule:nonzero;fill:rgb(0%,0%,0%);fill-opacity:1;" d="M 36.363281 72.726562 L 39.363281 72.726562 L 39.363281 75.726562 L 36.363281 75.726562 Z M 36.363281 72.726562 "/>
<path style=" stroke:none;fill-rule:nonzero;fill:rgb(0%,0%,0%);fill-opacity:1;" d="M 48.484375 72.726562 L 51.484375 72.726562 L 51.484375 75.726562 L 48.484375 75.726562 Z M 48.484375 72.726562 "/>
<path style=" stroke:none;fill-rule:nonzero;fill:rgb(0%,0%,0%);fill-opacity:1;" d="M 57.574219 72.726562 L 60.574219 72.726562 L 60.574219 75.726562 L 57.574219 75.726562 Z M 57.574219 72.726562 "/>
<path style=" stroke:none;fill-rule:nonzero;fill:rgb(0%,0%,0%);fill-opacity:1;" d="M 60.605469 72.726562 L 63.605469 72.726562 L 63.605469 75.726562 L 60.605469 75.726562 Z M 60.605469 72.726562 "/>
<path style=" stroke:none;fill-rule:nonzero;fill:rgb(0%,0%,0%);fill-opacity:1;" d="M 69.695312 72.726562 L 72.695312 72.726562 L 72.695312 75.726562 L 69.695312 75.726562 Z M 69.695312 72.726562 "/>
<path style=" stroke:none;fill-rule:nonzero;fill:rgb(0%,0%,0%);fill-opacity:1;" d="M 72.726562 72.726562 L 75.726562 72.726562 L 75.726562 75.726562 L 72.726562 75.726562 Z M 72.726562 72.726562 "/>
<path style=" stroke:none;fill-rule:nonzero;fill:rgb(0%,0%,0%);fill-opacity:1;" d="M 75.757812 72.726562 L 78.757812 72.726562 L 78.757812 75.726562 L 75.757812 75.726562 Z M 75.757812 72.726562 "/>
<path style=" stroke:none;fill-rule:nonzero;fill:rgb(0%,0%,0%);fill-opacity:1;" d="M 78.789062 72.726562 L 81.789062 72.726562 L 81.789062 75.726562 L 78.789062 75.726562 Z M 78.789062 72.726562 "/>
<path style=" stroke:none;fill-rule:nonzero;fill:rgb(0%,0%,0%);fill-opacity:1;" d="M 81.816406 72.726562 L 84.816406 72.726562 L 84.816406 75.726562 L 81.816406 75.726562 Z M 81.816406 72.726562 "/>
<path style=" stroke:none;fill-rule:nonzero;fill:rgb(0%,0%,0%);fill-opacity:1;" d="M 84.847656 72.726562 L 87.847656 72.726562 L 87.847656 75.726562 L 84.847656 75.726562 Z M 84.847656 72.726562 "/>
<path style=" stroke:none;fill-rule:nonzero;fill:rgb(0%,0%,0%);fill-opacity:1;" d="M 93.9375 72.726562 L 96.9375 72.726562 L 96.9375 75.726562 L 93.9375 75.726562 Z M 93.9375 72.726562 "/>
<path style=" stroke:none;fill-rule:nonzero;fill:rgb(0%,0%,0%);fill-opacity:1;" d="M 96.96875 72.726562 L 99.96875 72.726562 L 99.96875 75.726562 L 96.96875 75.726562 Z M 96.96875 72.726562 "/>
<path style=" stroke:none;fill-rule:nonzero;fill:rgb(0%,0%,0%);fill-opacity:1;" d="M 24.242188 75.757812 L 27.242188 75.757812 L 27.242188 78.757812 L 24.242188 78.757812 Z M 24.242188 75.757812 "/>
<path style=" stroke:none;fill-rule:nonzero;fill:rgb(0%,0%,0%);fill-opacity:1;" d="M 30.304688 75.757812 L 33.304688 75.757812 L 33.304688 78.757812 L 30.304688 78.757812 Z M 30.304688 75.757812 "/>
<path style=" stroke:none;fill-rule:nonzero;fill:rgb(0%,0%,0%);fill-opacity:1;" d="M 33.332031 75.757812 L 36.332031 75.757812 L 36.332031 78.757812 L 33.332031 78.757812 Z M 33.332031 75.757812 "/>
<path style=" stroke:none;fill-rule:nonzero;fill:rgb(0%,0%,0%);fill-opacity:1;" d="M 39.394531 75.757812 L 42.394531 75.757812 L 42.394531 78.757812 L 39.394531 78.757812 Z M 39.394531 75.757812 "/>
<path style=" stroke:none;fill-rule:nonzero;fill:rgb(0%,0%,0%);fill-opacity:1;" d="M 45.453125 75.757812 L 48.453125 75.757812 L 48.453125 78.757812 L 45.453125 78.757812 Z M 45.453125 75.757812 "/>
<path style=" stroke:none;fill-rule:nonzero;fill:rgb(0%,0%,0%);fill-opacity:1;" d="M 48.484375 75.757812 L 51.484375 75.757812 L 51.484375 78.757812 L 48.484375 78.757812 Z M 48.484375 75.757812 "/>
<path style=" stroke:none;fill-rule:nonzero;fill:rgb(0%,0%,0%);fill-opacity:1;" d="M 54.546875 75.757812 L 57.546875 75.757812 L 57.546875 78.757812 L 54.546875 78.757812 Z M 54.546875 75.757812 "/>
<path style=" stroke:none;fill-rule:nonzero;fill:rgb(0%,0%,0%);fill-opacity:1;" d="M 60.605469 75.757812 L 63.605469 75.757812 L 63.605469 78.757812 L 60.605469 78.757812 Z M 60.605469 75.757812 "/>
<path style=" stroke:none;fill-rule:nonzero;fill:rgb(0%,0%,0%);fill-opacity:1;" d="M 63.636719 75.757812 L 66.636719 75.757812 L 66.636719 78.757812 L 63.636719 78.757812 Z M 63.636719 75.757812 "/>
<path style=" stroke:none;fill-rule:nonzero;fill:rgb(0%,0%,0%);fill-opacity:1;" d="M 69.695312 75.757812 L 72.695312 75.757812 L 72.695312 78.757812 L 69.695312 78.757812 Z M 69.695312 75.757812 "/>
<path style=" stroke:none;fill-rule:nonzero;fill:rgb(0%,0%,0%);fill-opacity:1;" d="M 72.726562 75.757812 L 75.726562 75.757812 L 75.726562 78.757812 L 72.726562 78.757812 Z M 72.726562 75.757812 "/>
<path style=" stroke:none;fill-rule:nonzero;fill:rgb(0%,0%,0%);fill-opacity:1;" d="M 84.847656 75.757812 L 87.847656 75.757812 L 87.847656 78.757812 L 84.847656 78.757812 Z M 84.847656 75.757812 "/>
<path style=" stroke:none;fill-rule:nonzero;fill:rgb(0%,0%,0%);fill-opacity:1;" d="M 90.910156 75.757812 L 93.910156 75.757812 L 93.910156 78.757812 L 90.910156 78.757812 Z M 90.910156 75.757812 "/>
<path style=" stroke:none;fill-rule:nonzero;fill:rgb(0%,0%,0%);fill-opacity:1;" d="M 93.9375 75.757812 L 96.9375 75.757812 L 96.9375 78.757812 L 93.9375 78.757812 Z M 93.9375 75.757812 "/>
<path style=" stroke:none;fill-rule:nonzero;fill:rgb(0%,0%,0%);fill-opacity:1;" d="M 96.96875 75.757812 L 99.96875 75.757812 L 99.96875 78.757812 L 96.96875 78.757812 Z M 96.96875 75.757812 "/>
<path style=" stroke:none;fill-rule:nonzero;fill:rgb(0%,0%,0%);fill-opacity:1;" d="M 27.273438 78.789062 L 30.273438 78.789062 L 30.273438 81.789062 L 27.273438 81.789062 Z M 27.273438 78.789062 "/>
<path style=" stroke:none;fill-rule:nonzero;fill:rgb(0%,0%,0%);fill-opacity:1;" d="M 33.332031 78.789062 L 36.332031 78.789062 L 36.332031 81.789062 L 33.332031 81.789062 Z M 33.332031 78.789062 "/>
<path style=" stroke:none;fill-rule:nonzero;fill:rgb(0%,0%,0%);fill-opacity:1;" d="M 36.363281 78.789062 L 39.363281 78.789062 L 39.363281 81.789062 L 36.363281 81.789062 Z M 36.363281 78.789062 "/>
<path style=" stroke:none;fill-rule:nonzero;fill:rgb(0%,0%,0%);fill-opacity:1;" d="M 45.453125 78.789062 L 48.453125 78.789062 L 48.453125 81.789062 L 45.453125 81.789062 Z M 45.453125 78.789062 "/>
<path style=" stroke:none;fill-rule:nonzero;fill:rgb(0%,0%,0%);fill-opacity:1;" d="M 51.515625 78.789062 L 54.515625 78.789062 L 54.515625 81.789062 L 51.515625 81.789062 Z M 51.515625 78.789062 "/>
<path style=" stroke:none;fill-rule:nonzero;fill:rgb(0%,0%,0%);fill-opacity:1;" d="M 54.546875 78.789062 L 57.546875 78.789062 L 57.546875 81.789062 L 54.546875 81.789062 Z M 54.546875 78.789062 "/>
<path style=" stroke:none;fill-rule:nonzero;fill:rgb(0%,0%,0%);fill-opacity:1;" d="M 57.574219 78.789062 L 60.574219 78.789062 L 60.574219 81.789062 L 57.574219 81.789062 Z M 57.574219 78.789062 "/>
<path style=" stroke:none;fill-rule:nonzero;fill:rgb(0%,0%,0%);fill-opacity:1;" d="M 66.667969 78.789062 L 69.667969 78.789062 L 69.667969 81.789062 L 66.667969 81.789062 Z M 66.667969 78.789062 "/>
<path style=" stroke:none;fill-rule:nonzero;fill:rgb(0%,0%,0%);fill-opacity:1;" d="M 69.695312 78.789062 L 72.695312 78.789062 L 72.695312 81.789062 L 69.695312 81.789062 Z M 69.695312 78.789062 "/>
<path style=" stroke:none;fill-rule:nonzero;fill:rgb(0%,0%,0%);fill-opacity:1;" d="M 72.726562 78.789062 L 75.726562 78.789062 L 75.726562 81.789062 L 72.726562 81.789062 Z M 72.726562 78.789062 "/>
<path style=" stroke:none;fill-rule:nonzero;fill:rgb(0%,0%,0%);fill-opacity:1;" d="M 78.789062 78.789062 L 81.789062 78.789062 L 81.789062 81.789062 L 78.789062 81.789062 Z M 78.789062 78.789062 "/>
<path style=" stroke:none;fill-rule:nonzero;fill:rgb(0%,0%,0%);fill-opacity:1;" d="M 84.847656 78.789062 L 87.847656 78.789062 L 87.847656 81.789062 L 84.847656 81.789062 Z M 84.847656 78.789062 "/>
<path style=" stroke:none;fill-rule:nonzero;fill:rgb(0%,0%,0%);fill-opacity:1;" d="M 87.878906 78.789062 L 90.878906 78.789062 L 90.878906 81.789062 L 87.878906 81.789062 Z M 87.878906 78.789062 "/>
<path style=" stroke:none;fill-rule:nonzero;fill:rgb(0%,0%,0%);fill-opacity:1;" d="M 90.910156 78.789062 L 93.910156 78.789062 L 93.910156 81.789062 L 90.910156 81.789062 Z M 90.910156 78.789062 "/>
<path style=" stroke:none;fill-rule:nonzero;fill:rgb(0%,0%,0%);fill-opacity:1;" d="M 93.9375 78.789062 L 96.9375 78.789062 L 96.9375 81.789062 L 93.9375 81.789062 Z M 93.9375 78.789062 "/>
<path style=" stroke:none;fill-rule:nonzero;fill:rgb(0%,0%,0%);fill-opacity:1;" d="M 24.242188 81.816406 L 27.242188 81.816406 L 27.242188 84.816406 L 24.242188 84.816406 Z M 24.242188 81.816406 "/>
<path style=" stroke:none;fill-rule:nonzero;fill:rgb(0%,0%,0%);fill-opacity:1;" d="M 27.273438 81.816406 L 30.273438 81.816406 L 30.273438 84.816406 L 27.273438 84.816406 Z M 27.273438 81.816406 "/>
<path style=" stroke:none;fill-rule:nonzero;fill:rgb(0%,0%,0%);fill-opacity:1;" d="M 30.304688 81.816406 L 33.304688 81.816406 L 33.304688 84.816406 L 30.304688 84.816406 Z M 30.304688 81.816406 "/>
<path style=" stroke:none;fill-rule:nonzero;fill:rgb(0%,0%,0%);fill-opacity:1;" d="M 36.363281 81.816406 L 39.363281 81.816406 L 39.363281 84.816406 L 36.363281 84.816406 Z M 36.363281 81.816406 "/>
<path style=" stroke:none;fill-rule:nonzero;fill:rgb(0%,0%,0%);fill-opacity:1;" d="M 42.425781 81.816406 L 45.425781 81.816406 L 45.425781 84.816406 L 42.425781 84.816406 Z M 42.425781 81.816406 "/>
<path style=" stroke:none;fill-rule:nonzero;fill:rgb(0%,0%,0%);fill-opacity:1;" d="M 48.484375 81.816406 L 51.484375 81.816406 L 51.484375 84.816406 L 48.484375 84.816406 Z M 48.484375 81.816406 "/>
<path style=" stroke:none;fill-rule:nonzero;fill:rgb(0%,0%,0%);fill-opacity:1;" d="M 63.636719 81.816406 L 66.636719 81.816406 L 66.636719 84.816406 L 63.636719 84.816406 Z M 63.636719 81.816406 "/>
<path style=" stroke:none;fill-rule:nonzero;fill:rgb(0%,0%,0%);fill-opacity:1;" d="M 66.667969 81.816406 L 69.667969 81.816406 L 69.667969 84.816406 L 66.667969 84.816406 Z M 66.667969 81.816406 "/>
<path style=" stroke:none;fill-rule:nonzero;fill:rgb(0%,0%,0%);fill-opacity:1;" d="M 69.695312 81.816406 L 72.695312 81.816406 L 72.695312 84.816406 L 69.695312 84.816406 Z M 69.695312 81.816406 "/>
<path style=" stroke:none;fill-rule:nonzero;fill:rgb(0%,0%,0%);fill-opacity:1;" d="M 72.726562 81.816406 L 75.726562 81.816406 L 75.726562 84.816406 L 72.726562 84.816406 Z M 72.726562 81.816406 "/>
<path style=" stroke:none;fill-rule:nonzero;fill:rgb(0%,0%,0%);fill-opacity:1;" d="M 84.847656 81.816406 L 87.847656 81.816406 L 87.847656 84.816406 L 84.847656 84.816406 Z M 84.847656 81.816406 "/>
<path style=" stroke:none;fill-rule:nonzero;fill:rgb(0%,0%,0%);fill-opacity:1;" d="M 87.878906 81.816406 L 90.878906 81.816406 L 90.878906 84.816406 L 87.878906 84.816406 Z M 87.878906 81.816406 "/>
<path style=" stroke:none;fill-rule:nonzero;fill:rgb(0%,0%,0%);fill-opacity:1;" d="M 90.910156 81.816406 L 93.910156 81.816406 L 93.910156 84.816406 L 90.910156 84.816406 Z M 90.910156 81.816406 "/>
<path style=" stroke:none;fill-rule:nonzero;fill:rgb(0%,0%,0%);fill-opacity:1;" d="M 93.9375 81.816406 L 96.9375 81.816406 L 96.9375 84.816406 L 93.9375 84.816406 Z M 93.9375 81.816406 "/>
<path style=" stroke:none;fill-rule:nonzero;fill:rgb(0%,0%,0%);fill-opacity:1;" d="M 27.273438 84.847656 L 30.273438 84.847656 L 30.273438 87.847656 L 27.273438 87.847656 Z M 27.273438 84.847656 "/>
<path style=" stroke:none;fill-rule:nonzero;fill:rgb(0%,0%,0%);fill-opacity:1;" d="M 33.332031 84.847656 L 36.332031 84.847656 L 36.332031 87.847656 L 33.332031 87.847656 Z M 33.332031 84.847656 "/>
<path style=" stroke:none;fill-rule:nonzero;fill:rgb(0%,0%,0%);fill-opacity:1;" d="M 39.394531 84.847656 L 42.394531 84.847656 L 42.394531 87.847656 L 39.394531 87.847656 Z M 39.394531 84.847656 "/>
<path style=" stroke:none;fill-rule:nonzero;fill:rgb(0%,0%,0%);fill-opacity:1;" d="M 42.425781 84.847656 L 45.425781 84.847656 L 45.425781 87.847656 L 42.425781 87.847656 Z M 42.425781 84.847656 "/>
<path style=" stroke:none;fill-rule:nonzero;fill:rgb(0%,0%,0%);fill-opacity:1;" d="M 45.453125 84.847656 L 48.453125 84.847656 L 48.453125 87.847656 L 45.453125 87.847656 Z M 45.453125 84.847656 "/>
<path style=" stroke:none;fill-rule:nonzero;fill:rgb(0%,0%,0%);fill-opacity:1;" d="M 48.484375 84.847656 L 51.484375 84.847656 L 51.484375 87.847656 L 48.484375 87.847656 Z M 48.484375 84.847656 "/>
<path style=" stroke:none;fill-rule:nonzero;fill:rgb(0%,0%,0%);fill-opacity:1;" d="M 60.605469 84.847656 L 63.605469 84.847656 L 63.605469 87.847656 L 60.605469 87.847656 Z M 60.605469 84.847656 "/>
<path style=" stroke:none;fill-rule:nonzero;fill:rgb(0%,0%,0%);fill-opacity:1;" d="M 63.636719 84.847656 L 66.636719 84.847656 L 66.636719 87.847656 L 63.636719 87.847656 Z M 63.636719 84.847656 "/>
<path style=" stroke:none;fill-rule:nonzero;fill:rgb(0%,0%,0%);fill-opacity:1;" d="M 66.667969 84.847656 L 69.667969 84.847656 L 69.667969 87.847656 L 66.667969 87.847656 Z M 66.667969 84.847656 "/>
<path style=" stroke:none;fill-rule:nonzero;fill:rgb(0%,0%,0%);fill-opacity:1;" d="M 72.726562 84.847656 L 75.726562 84.847656 L 75.726562 87.847656 L 72.726562 87.847656 Z M 72.726562 84.847656 "/>
<path style=" stroke:none;fill-rule:nonzero;fill:rgb(0%,0%,0%);fill-opacity:1;" d="M 75.757812 84.847656 L 78.757812 84.847656 L 78.757812 87.847656 L 75.757812 87.847656 Z M 75.757812 84.847656 "/>
<path style=" stroke:none;fill-rule:nonzero;fill:rgb(0%,0%,0%);fill-opacity:1;" d="M 78.789062 84.847656 L 81.789062 84.847656 L 81.789062 87.847656 L 78.789062 87.847656 Z M 78.789062 84.847656 "/>
<path style=" stroke:none;fill-rule:nonzero;fill:rgb(0%,0%,0%);fill-opacity:1;" d="M 81.816406 84.847656 L 84.816406 84.847656 L 84.816406 87.847656 L 81.816406 87.847656 Z M 81.816406 84.847656 "/>
<path style=" stroke:none;fill-rule:nonzero;fill:rgb(0%,0%,0%);fill-opacity:1;" d="M 84.847656 84.847656 L 87.847656 84.847656 L 87.847656 87.847656 L 84.847656 87.847656 Z M 84.847656 84.847656 "/>
<path style=" stroke:none;fill-rule:nonzero;fill:rgb(0%,0%,0%);fill-opacity:1;" d="M 87.878906 84.847656 L 90.878906 84.847656 L 90.878906 87.847656 L 87.878906 87.847656 Z M 87.878906 84.847656 "/>
<path style=" stroke:none;fill-rule:nonzero;fill:rgb(0%,0%,0%);fill-opacity:1;" d="M 93.9375 84.847656 L 96.9375 84.847656 L 96.9375 87.847656 L 93.9375 87.847656 Z M 93.9375 84.847656 "/>
<path style=" stroke:none;fill-rule:nonzero;fill:rgb(0%,0%,0%);fill-opacity:1;" d="M 96.96875 84.847656 L 99.96875 84.847656 L 99.96875 87.847656 L 96.96875 87.847656 Z M 96.96875 84.847656 "/>
<path style=" stroke:none;fill-rule:nonzero;fill:rgb(0%,0%,0%);fill-opacity:1;" d="M 27.273438 87.878906 L 30.273438 87.878906 L 30.273438 90.878906 L 27.273438 90.878906 Z M 27.273438 87.878906 "/>
<path style=" stroke:none;fill-rule:nonzero;fill:rgb(0%,0%,0%);fill-opacity:1;" d="M 30.304688 87.878906 L 33.304688 87.878906 L 33.304688 90.878906 L 30.304688 90.878906 Z M 30.304688 87.878906 "/>
<path style=" stroke:none;fill-rule:nonzero;fill:rgb(0%,0%,0%);fill-opacity:1;" d="M 33.332031 87.878906 L 36.332031 87.878906 L 36.332031 90.878906 L 33.332031 90.878906 Z M 33.332031 87.878906 "/>
<path style=" stroke:none;fill-rule:nonzero;fill:rgb(0%,0%,0%);fill-opacity:1;" d="M 36.363281 87.878906 L 39.363281 87.878906 L 39.363281 90.878906 L 36.363281 90.878906 Z M 36.363281 87.878906 "/>
<path style=" stroke:none;fill-rule:nonzero;fill:rgb(0%,0%,0%);fill-opacity:1;" d="M 39.394531 87.878906 L 42.394531 87.878906 L 42.394531 90.878906 L 39.394531 90.878906 Z M 39.394531 87.878906 "/>
<path style=" stroke:none;fill-rule:nonzero;fill:rgb(0%,0%,0%);fill-opacity:1;" d="M 48.484375 87.878906 L 51.484375 87.878906 L 51.484375 90.878906 L 48.484375 90.878906 Z M 48.484375 87.878906 "/>
<path style=" stroke:none;fill-rule:nonzero;fill:rgb(0%,0%,0%);fill-opacity:1;" d="M 51.515625 87.878906 L 54.515625 87.878906 L 54.515625 90.878906 L 51.515625 90.878906 Z M 51.515625 87.878906 "/>
<path style=" stroke:none;fill-rule:nonzero;fill:rgb(0%,0%,0%);fill-opacity:1;" d="M 54.546875 87.878906 L 57.546875 87.878906 L 57.546875 90.878906 L 54.546875 90.878906 Z M 54.546875 87.878906 "/>
<path style=" stroke:none;fill-rule:nonzero;fill:rgb(0%,0%,0%);fill-opacity:1;" d="M 60.605469 87.878906 L 63.605469 87.878906 L 63.605469 90.878906 L 60.605469 90.878906 Z M 60.605469 87.878906 "/>
<path style=" stroke:none;fill-rule:nonzero;fill:rgb(0%,0%,0%);fill-opacity:1;" d="M 63.636719 87.878906 L 66.636719 87.878906 L 66.636719 90.878906 L 63.636719 90.878906 Z M 63.636719 87.878906 "/>
<path style=" stroke:none;fill-rule:nonzero;fill:rgb(0%,0%,0%);fill-opacity:1;" d="M 75.757812 87.878906 L 78.757812 87.878906 L 78.757812 90.878906 L 75.757812 90.878906 Z M 75.757812 87.878906 "/>
<path style=" stroke:none;fill-rule:nonzero;fill:rgb(0%,0%,0%);fill-opacity:1;" d="M 81.816406 87.878906 L 84.816406 87.878906 L 84.816406 90.878906 L 81.816406 90.878906 Z M 81.816406 87.878906 "/>
<path style=" stroke:none;fill-rule:nonzero;fill:rgb(0%,0%,0%);fill-opacity:1;" d="M 84.847656 87.878906 L 87.847656 87.878906 L 87.847656 90.878906 L 84.847656 90.878906 Z M 84.847656 87.878906 "/>
<path style=" stroke:none;fill-rule:nonzero;fill:rgb(0%,0%,0%);fill-opacity:1;" d="M 90.910156 87.878906 L 93.910156 87.878906 L 93.910156 90.878906 L 90.910156 90.878906 Z M 90.910156 87.878906 "/>
<path style=" stroke:none;fill-rule:nonzero;fill:rgb(0%,0%,0%);fill-opacity:1;" d="M 93.9375 87.878906 L 96.9375 87.878906 L 96.9375 90.878906 L 93.9375 90.878906 Z M 93.9375 87.878906 "/>
<path style=" stroke:none;fill-rule:nonzero;fill:rgb(0%,0%,0%);fill-opacity:1;" d="M 27.273438 90.910156 L 30.273438 90.910156 L 30.273438 93.910156 L 27.273438 93.910156 Z M 27.273438 90.910156 "/>
<path style=" stroke:none;fill-rule:nonzero;fill:rgb(0%,0%,0%);fill-opacity:1;" d="M 42.425781 90.910156 L 45.425781 90.910156 L 45.425781 93.910156 L 42.425781 93.910156 Z M 42.425781 90.910156 "/>
<path style=" stroke:none;fill-rule:nonzero;fill:rgb(0%,0%,0%);fill-opacity:1;" d="M 48.484375 90.910156 L 51.484375 90.910156 L 51.484375 93.910156 L 48.484375 93.910156 Z M 48.484375 90.910156 "/>
<path style=" stroke:none;fill-rule:nonzero;fill:rgb(0%,0%,0%);fill-opacity:1;" d="M 51.515625 90.910156 L 54.515625 90.910156 L 54.515625 93.910156 L 51.515625 93.910156 Z M 51.515625 90.910156 "/>
<path style=" stroke:none;fill-rule:nonzero;fill:rgb(0%,0%,0%);fill-opacity:1;" d="M 54.546875 90.910156 L 57.546875 90.910156 L 57.546875 93.910156 L 54.546875 93.910156 Z M 54.546875 90.910156 "/>
<path style=" stroke:none;fill-rule:nonzero;fill:rgb(0%,0%,0%);fill-opacity:1;" d="M 57.574219 90.910156 L 60.574219 90.910156 L 60.574219 93.910156 L 57.574219 93.910156 Z M 57.574219 90.910156 "/>
<path style=" stroke:none;fill-rule:nonzero;fill:rgb(0%,0%,0%);fill-opacity:1;" d="M 66.667969 90.910156 L 69.667969 90.910156 L 69.667969 93.910156 L 66.667969 93.910156 Z M 66.667969 90.910156 "/>
<path style=" stroke:none;fill-rule:nonzero;fill:rgb(0%,0%,0%);fill-opacity:1;" d="M 84.847656 90.910156 L 87.847656 90.910156 L 87.847656 93.910156 L 84.847656 93.910156 Z M 84.847656 90.910156 "/>
<path style=" stroke:none;fill-rule:nonzero;fill:rgb(0%,0%,0%);fill-opacity:1;" d="M 87.878906 90.910156 L 90.878906 90.910156 L 90.878906 93.910156 L 87.878906 93.910156 Z M 87.878906 90.910156 "/>
<path style=" stroke:none;fill-rule:nonzero;fill:rgb(0%,0%,0%);fill-opacity:1;" d="M 90.910156 90.910156 L 93.910156 90.910156 L 93.910156 93.910156 L 90.910156 93.910156 Z M 90.910156 90.910156 "/>
<path style=" stroke:none;fill-rule:nonzero;fill:rgb(0%,0%,0%);fill-opacity:1;" d="M 93.9375 90.910156 L 96.9375 90.910156 L 96.9375 93.910156 L 93.9375 93.910156 Z M 93.9375 90.910156 "/>
<path style=" stroke:none;fill-rule:nonzero;fill:rgb(0%,0%,0%);fill-opacity:1;" d="M 96.96875 90.910156 L 99.96875 90.910156 L 99.96875 93.910156 L 96.96875 93.910156 Z M 96.96875 90.910156 "/>
<path style=" stroke:none;fill-rule:nonzero;fill:rgb(0%,0%,0%);fill-opacity:1;" d="M 33.332031 93.9375 L 36.332031 93.9375 L 36.332031 96.9375 L 33.332031 96.9375 Z M 33.332031 93.9375 "/>
<path style=" stroke:none;fill-rule:nonzero;fill:rgb(0%,0%,0%);fill-opacity:1;" d="M 36.363281 93.9375 L 39.363281 93.9375 L 39.363281 96.9375 L 36.363281 96.9375 Z M 36.363281 93.9375 "/>
<path style=" stroke:none;fill-rule:nonzero;fill:rgb(0%,0%,0%);fill-opacity:1;" d="M 45.453125 93.9375 L 48.453125 93.9375 L 48.453125 96.9375 L 45.453125 96.9375 Z M 45.453125 93.9375 "/>
<path style=" stroke:none;fill-rule:nonzero;fill:rgb(0%,0%,0%);fill-opacity:1;" d="M 48.484375 93.9375 L 51.484375 93.9375 L 51.484375 96.9375 L 48.484375 96.9375 Z M 48.484375 93.9375 "/>
<path style=" stroke:none;fill-rule:nonzero;fill:rgb(0%,0%,0%);fill-opacity:1;" d="M 57.574219 93.9375 L 60.574219 93.9375 L 60.574219 96.9375 L 57.574219 96.9375 Z M 57.574219 93.9375 "/>
<path style=" stroke:none;fill-rule:nonzero;fill:rgb(0%,0%,0%);fill-opacity:1;" d="M 60.605469 93.9375 L 63.605469 93.9375 L 63.605469 96.9375 L 60.605469 96.9375 Z M 60.605469 93.9375 "/>
<path style=" stroke:none;fill-rule:nonzero;fill:rgb(0%,0%,0%);fill-opacity:1;" d="M 63.636719 93.9375 L 66.636719 93.9375 L 66.636719 96.9375 L 63.636719 96.9375 Z M 63.636719 93.9375 "/>
<path style=" stroke:none;fill-rule:nonzero;fill:rgb(0%,0%,0%);fill-opacity:1;" d="M 87.878906 93.9375 L 90.878906 93.9375 L 90.878906 96.9375 L 87.878906 96.9375 Z M 87.878906 93.9375 "/>
<path style=" stroke:none;fill-rule:nonzero;fill:rgb(0%,0%,0%);fill-opacity:1;" d="M 90.910156 93.9375 L 93.910156 93.9375 L 93.910156 96.9375 L 90.910156 96.9375 Z M 90.910156 93.9375 "/>
<path style=" stroke:none;fill-rule:nonzero;fill:rgb(0%,0%,0%);fill-opacity:1;" d="M 27.273438 96.96875 L 30.273438 96.96875 L 30.273438 99.96875 L 27.273438 99.96875 Z M 27.273438 96.96875 "/>
<path style=" stroke:none;fill-rule:nonzero;fill:rgb(0%,0%,0%);fill-opacity:1;" d="M 36.363281 96.96875 L 39.363281 96.96875 L 39.363281 99.96875 L 36.363281 99.96875 Z M 36.363281 96.96875 "/>
<path style=" stroke:none;fill-rule:nonzero;fill:rgb(0%,0%,0%);fill-opacity:1;" d="M 45.453125 96.96875 L 48.453125 96.96875 L 48.453125 99.96875 L 45.453125 99.96875 Z M 45.453125 96.96875 "/>
<path style=" stroke:none;fill-rule:nonzero;fill:rgb(0%,0%,0%);fill-opacity:1;" d="M 48.484375 96.96875 L 51.484375 96.96875 L 51.484375 99.96875 L 48.484375 99.96875 Z M 48.484375 96.96875 "/>
<path style=" stroke:none;fill-rule:nonzero;fill:rgb(0%,0%,0%);fill-opacity:1;" d="M 54.546875 96.96875 L 57.546875 96.96875 L 57.546875 99.96875 L 54.546875 99.96875 Z M 54.546875 96.96875 "/>
<path style=" stroke:none;fill-rule:nonzero;fill:rgb(0%,0%,0%);fill-opacity:1;" d="M 60.605469 96.96875 L 63.605469 96.96875 L 63.605469 99.96875 L 60.605469 99.96875 Z M 60.605469 96.96875 "/>
<path style=" stroke:none;fill-rule:nonzero;fill:rgb(0%,0%,0%);fill-opacity:1;" d="M 63.636719 96.96875 L 66.636719 96.96875 L 66.636719 99.96875 L 63.636719 99.96875 Z M 63.636719 96.96875 "/>
<path style=" stroke:none;fill-rule:nonzero;fill:rgb(0%,0%,0%);fill-opacity:1;" d="M 66.667969 96.96875 L 69.667969 96.96875 L 69.667969 99.96875 L 66.667969 99.96875 Z M 66.667969 96.96875 "/>
<path style=" stroke:none;fill-rule:nonzero;fill:rgb(0%,0%,0%);fill-opacity:1;" d="M 69.695312 96.96875 L 72.695312 96.96875 L 72.695312 99.96875 L 69.695312 99.96875 Z M 69.695312 96.96875 "/>
<path style=" stroke:none;fill-rule:nonzero;fill:rgb(0%,0%,0%);fill-opacity:1;" d="M 72.726562 96.96875 L 75.726562 96.96875 L 75.726562 99.96875 L 72.726562 99.96875 Z M 72.726562 96.96875 "/>
<path style=" stroke:none;fill-rule:nonzero;fill:rgb(0%,0%,0%);fill-opacity:1;" d="M 75.757812 96.96875 L 78.757812 96.96875 L 78.757812 99.96875 L 75.757812 99.96875 Z M 75.757812 96.96875 "/>
<path style=" stroke:none;fill-rule:nonzero;fill:rgb(0%,0%,0%);fill-opacity:1;" d="M 78.789062 96.96875 L 81.789062 96.96875 L 81.789062 99.96875 L 78.789062 99.96875 Z M 78.789062 96.96875 "/>
<path style=" stroke:none;fill-rule:nonzero;fill:rgb(0%,0%,0%);fill-opacity:1;" d="M 87.878906 96.96875 L 90.878906 96.96875 L 90.878906 99.96875 L 87.878906 99.96875 Z M 87.878906 96.96875 "/>
<path style=" stroke:none;fill-rule:nonzero;fill:rgb(0%,0%,0%);fill-opacity:1;" d="M 93.9375 96.96875 L 96.9375 96.96875 L 96.9375 99.96875 L 93.9375 99.96875 Z M 93.9375 96.96875 "/>
<path style=" stroke:none;fill-rule:nonzero;fill:rgb(0%,0%,0%);fill-opacity:1;" d="M 18 0 L 0 0 L 0 21.199219 L 21.199219 21.199219 L 21.199219 0 Z M 18 18 L 3.199219 18 L 3.199219 3.199219 L 18 3.199219 Z M 18 18 "/>
<path style=" stroke:none;fill-rule:nonzero;fill:rgb(0%,0%,0%);fill-opacity:1;" d="M 96.789062 0 L 78.789062 0 L 78.789062 21.199219 L 99.988281 21.199219 L 99.988281 0 Z M 96.789062 18 L 81.988281 18 L 81.988281 3.199219 L 96.789062 3.199219 Z M 96.789062 18 "/>
<path style=" stroke:none;fill-rule:nonzero;fill:rgb(0%,0%,0%);fill-opacity:1;" d="M 18 78.789062 L 0 78.789062 L 0 99.988281 L 21.199219 99.988281 L 21.199219 78.789062 Z M 18 96.789062 L 3.199219 96.789062 L 3.199219 81.988281 L 18 81.988281 Z M 18 96.789062 "/>
<path style=" stroke:none;fill-rule:nonzero;fill:rgb(0%,0%,0%);fill-opacity:1;" d="M 6.0625 6.0625 L 15.160156 6.0625 L 15.160156 15.160156 L 6.0625 15.160156 Z M 6.0625 6.0625 "/>
<path style=" stroke:none;fill-rule:nonzero;fill:rgb(0%,0%,0%);fill-opacity:1;" d="M 84.847656 6.0625 L 93.949219 6.0625 L 93.949219 15.160156 L 84.847656 15.160156 Z M 84.847656 6.0625 "/>
<path style=" stroke:none;fill-rule:nonzero;fill:rgb(0%,0%,0%);fill-opacity:1;" d="M 6.0625 84.847656 L 15.160156 84.847656 L 15.160156 93.949219 L 6.0625 93.949219 Z M 6.0625 84.847656 "/>
</g>
</svg>
