<svg xmlns="http://www.w3.org/2000/svg" xmlns:xlink="http://www.w3.org/1999/xlink" width="920" height="583.813" viewBox="0 0 920 583.813"><defs><style>.a{fill:#f5f6fa;}.b,.w{fill:#191919;}.b,.c,.e{opacity:0.1;}.c,.f{fill:#0564ff;}.d{opacity:0.55;fill:url(#a);}.g{fill:#878787;}.h{fill:#b7b7b7;}.i{fill:url(#b);}.j{fill:url(#c);}.k{fill:url(#d);}.l{fill:url(#e);}.m{fill:url(#f);}.n{fill:url(#g);}.o{isolation:isolate;}.p{fill:url(#h);}.q{fill:url(#i);}.r{fill:url(#j);}.s{fill:url(#k);}.t{fill:url(#l);}.u{fill:url(#m);}.v{fill:#bfbfbf;}.x{fill:url(#n);}.y{fill:url(#o);}.z{fill:url(#p);}.aa{fill:url(#q);}.ab{fill:#b9bbbd;}.ac{fill:url(#r);}.ad{fill:url(#s);}.ae{fill:url(#t);}.af{fill:url(#u);}.ag{fill:url(#v);}.ah{fill:url(#w);}.ai{fill:url(#x);}.aj{fill:url(#y);}.ak{fill:url(#aa);}.al{opacity:0.3;}.am{fill:url(#ad);}.an{fill:url(#ae);}.ao{fill:url(#af);}.ap{fill:url(#al);}.aq{fill:#ff3b30;}.ar{fill:#14e65a;}.as{opacity:0.42;}.as,.au{fill:url(#am);}.at{fill:url(#an);}.au{opacity:0.43;}.av{fill:url(#ar);}.aw{fill:url(#as);}.ax{fill:url(#at);}.ay{fill:url(#au);}.az{fill:url(#av);}.ba{fill:url(#aw);}.bb{fill:url(#ax);}.bc{fill:url(#az);}.bd{fill:url(#ba);}.be{opacity:0.72;}.bf{fill:#fff;}.bg{opacity:0.32;fill:url(#bb);}</style><linearGradient id="a" x1="0.5" y1="0.491" x2="0.5" y2="1.062" gradientUnits="objectBoundingBox"><stop offset="0" stop-color="#14e65a" stop-opacity="0"/><stop offset="1" stop-color="#14e65a"/></linearGradient><linearGradient id="b" x1="-0.09" y1="-0.056" x2="1.093" y2="1.227" gradientUnits="objectBoundingBox"><stop offset="0" stop-color="#bfbfbf" stop-opacity="0.961"/><stop offset="1" stop-color="#6c6c6d"/></linearGradient><linearGradient id="c" x1="-0.182" y1="0.757" x2="1.244" y2="0.363" gradientUnits="objectBoundingBox"><stop offset="0" stop-color="#bfbfbf"/><stop offset="1" stop-color="#6c6c6d"/></linearGradient><linearGradient id="d" x1="0.5" x2="1.129" y2="0.718" gradientUnits="objectBoundingBox"><stop offset="0" stop-color="#f5f6fa"/><stop offset="1" stop-color="#bfbfbf"/></linearGradient><linearGradient id="e" x1="-0.14" y1="0.864" x2="1.312" y2="0.5" gradientUnits="objectBoundingBox"><stop offset="0" stop-color="#bfbfbf" stop-opacity="0.569"/><stop offset="1" stop-color="#6c6c6d" stop-opacity="0.569"/></linearGradient><linearGradient id="f" x1="0.5" x2="0.5" y2="1" gradientUnits="objectBoundingBox"><stop offset="0" stop-color="#bfbfbf" stop-opacity="0.431"/><stop offset="1" stop-color="#6c6c6d"/></linearGradient><linearGradient id="g" x2="1.165" y2="0.848" xlink:href="#d"/><linearGradient id="h" x1="0.863" y1="0.599" x2="0.126" y2="-0.029" gradientUnits="objectBoundingBox"><stop offset="0" stop-color="#0564ff" stop-opacity="0"/><stop offset="1" stop-color="#0564ff"/></linearGradient><linearGradient id="i" x1="0.295" y1="0.64" x2="0.634" y2="-0.143" xlink:href="#h"/><linearGradient id="j" x1="0.117" y1="0.635" x2="1.022" y2="0.441" gradientUnits="objectBoundingBox"><stop offset="0" stop-color="#0564ff"/><stop offset="1" stop-color="#0564ff" stop-opacity="0"/></linearGradient><linearGradient id="k" x1="1.075" x2="0.141" y2="1.193" gradientUnits="objectBoundingBox"><stop offset="0" stop-color="#fff"/><stop offset="1" stop-color="#bfbfbf"/></linearGradient><linearGradient id="l" x1="-0.268" y1="-0.311" x2="1.084" y2="1.263" xlink:href="#c"/><linearGradient id="m" x1="1.012" y1="0.279" x2="0.053" y2="0.965" gradientUnits="objectBoundingBox"><stop offset="0" stop-color="#0b49db"/><stop offset="1" stop-color="#191919"/></linearGradient><linearGradient id="n" x1="-0.653" y1="0.902" x2="1.308" y2="0.042" gradientUnits="objectBoundingBox"><stop offset="0" stop-color="#bfbfbf"/><stop offset="1" stop-color="#191919"/></linearGradient><linearGradient id="o" x1="-0.16" y1="-0.36" x2="1.303" y2="1.387" xlink:href="#n"/><linearGradient id="p" x1="0.058" y1="0.429" x2="1.668" y2="0.935" gradientUnits="objectBoundingBox"><stop offset="0" stop-color="#f5f6fa"/><stop offset="1" stop-color="#6c6c6d"/></linearGradient><linearGradient id="q" x1="0.327" y1="0.217" x2="1.231" y2="1.768" xlink:href="#k"/><linearGradient id="r" y1="1" x2="1" y2="0.103" gradientUnits="objectBoundingBox"><stop offset="0" stop-color="#a9a9a9" stop-opacity="0.129"/><stop offset="1" stop-color="#555"/></linearGradient><linearGradient id="s" x2="1" y2="0.923" gradientUnits="objectBoundingBox"><stop offset="0" stop-color="#f5f6fa"/><stop offset="1" stop-color="#434343" stop-opacity="0.588"/></linearGradient><linearGradient id="t" x1="0.015" y1="0.4" x2="1" y2="0.625" xlink:href="#d"/><linearGradient id="u" x1="1.084" y1="0.5" x2="0.033" y2="0.924" gradientUnits="objectBoundingBox"><stop offset="0"/><stop offset="1" stop-opacity="0"/></linearGradient><linearGradient id="v" x1="0.5" x2="0.5" y2="1" gradientUnits="objectBoundingBox"><stop offset="0" stop-color="#b7b7b7"/><stop offset="1" stop-color="#5c5c5c"/></linearGradient><linearGradient id="w" x1="0.253" y1="-0.214" x2="1.152" y2="1.201" xlink:href="#p"/><linearGradient id="x" x1="1.155" y1="0.103" x2="0.187" y2="0.766" gradientUnits="objectBoundingBox"><stop offset="0" stop-color="#001687"/><stop offset="1"/></linearGradient><linearGradient id="y" x1="0.177" y1="0.071" x2="0.969" y2="0.853" gradientUnits="objectBoundingBox"><stop offset="0" stop-color="#0564ff" stop-opacity="0.569"/><stop offset="1" stop-color="#0564ff" stop-opacity="0"/></linearGradient><linearGradient id="aa" x1="-0.321" y1="-1.104" x2="0.931" y2="1.355" gradientUnits="objectBoundingBox"><stop offset="0" stop-color="#bfbfbf"/><stop offset="1" stop-color="#bfbfbf" stop-opacity="0"/></linearGradient><linearGradient id="ad" x1="0.955" y1="0.5" x2="0.695" y2="-0.166" gradientUnits="objectBoundingBox"><stop offset="0" stop-color="#3882fb"/><stop offset="1" stop-color="#002387"/></linearGradient><linearGradient id="ae" x1="0.5" y1="1" x2="0.5" gradientUnits="objectBoundingBox"><stop offset="0" stop-color="#0564ff"/><stop offset="1" stop-color="#002387"/></linearGradient><linearGradient id="af" x1="0.351" y1="1.335" x2="0.248" y2="-0.247" gradientUnits="objectBoundingBox"><stop offset="0" stop-color="#fff"/><stop offset="1" stop-color="#0564ff"/></linearGradient><linearGradient id="al" x1="-0.131" y1="0.5" x2="0.899" y2="1.181" gradientUnits="objectBoundingBox"><stop offset="0" stop-color="#f5f6fa"/><stop offset="1" stop-color="#0564ff"/></linearGradient><linearGradient id="am" x1="-0.268" y1="-0.311" x2="1.084" y2="1.263" gradientUnits="objectBoundingBox"><stop offset="0" stop-color="#f5f6fa"/><stop offset="1" stop-color="#f5f6fa" stop-opacity="0"/></linearGradient><linearGradient id="an" x1="-0.268" y1="-0.311" x2="1.084" y2="1.263" xlink:href="#j"/><linearGradient id="ar" x1="0.602" y1="0.97" x2="-0.178" y2="-1.298" xlink:href="#h"/><linearGradient id="as" x1="1.058" y1="0.253" x2="-0.031" y2="0.943" xlink:href="#a"/><linearGradient id="at" x1="0.584" y1="0.214" x2="0.5" y2="1" gradientUnits="objectBoundingBox"><stop offset="0" stop-color="#14e65a"/><stop offset="1" stop-color="#006839"/></linearGradient><linearGradient id="au" x1="0.286" y1="-0.068" x2="0.714" y2="1.601" gradientUnits="objectBoundingBox"><stop offset="0" stop-color="#14e65a"/><stop offset="1" stop-color="#008a4b"/></linearGradient><linearGradient id="av" x1="0.5" x2="0.5" y2="1" gradientUnits="objectBoundingBox"><stop offset="0" stop-color="#fff"/><stop offset="1" stop-color="#cbcbcb"/></linearGradient><linearGradient id="aw" x1="0.258" y1="-1.248" x2="0.5" y2="1" gradientUnits="objectBoundingBox"><stop offset="0" stop-color="#898989"/><stop offset="1" stop-color="#cbcbcb"/></linearGradient><linearGradient id="ax" x1="-0.284" y1="-0.397" x2="0.904" y2="1.493" gradientUnits="objectBoundingBox"><stop offset="0" stop-color="#14e65a"/><stop offset="1" stop-color="#009131"/></linearGradient><linearGradient id="az" x1="0.779" y1="0.563" x2="0.295" y2="-0.611" xlink:href="#h"/><linearGradient id="ba" x1="0.376" y1="0.649" x2="1.108" y2="-0.34" xlink:href="#h"/><linearGradient id="bb" x1="1.056" y1="1.207" x2="-0.011" y2="0.067" xlink:href="#p"/></defs><g transform="translate(-500 -2425.92)"><path class="a" d="M-3000.407,499.914l-551.259-318.269-368.741,214.289L-3369.148,714.2l368.741-214.289" transform="translate(4420.407 2295.53)"/><path class="b" d="M-3542.125,312.51l-226.664-130.864-151.617,88.11,226.664,130.864,151.617-88.11" transform="translate(4665.604 2447.368)"/><path class="b" d="M-3839.206,497.972l-77.485-44.736-76.982,44.737,77.486,44.736,76.982-44.737" transform="translate(4684.26 2379.618)"/><path class="b" d="M-3190.9,382.734-3268.382,338l-76.987,44.74,77.486,44.736,76.987-44.74" transform="translate(4522.141 2408.365)"/><path class="c" d="M-4022.517,253.1l-77.491-44.739L-4176.99,253.1l77.49,44.739,76.982-44.737" transform="translate(4729.99 2440.703)"/><path class="d" d="M3154.037,139.787l-59.987-34.662-.165-183.993,59.946,33.52-.124,1.306L3213.272-78.7l.33,183.828Z" transform="translate(-1899.788 2677.266)"/><g class="e" transform="translate(633.374 2624.339)"><path class="f" d="M-3448.3,343.386-3511,307.19a2.185,2.185,0,0,0-1.062-.254,2.16,2.16,0,0,0-1.059.254l-112.86,65.587-159.7-92.2L-3959.3,180.33a2.231,2.231,0,0,0-1.066-.257,2.216,2.216,0,0,0-1.064.257l-113.16,65.761c-.585.341-.577.891.012,1.232a2.342,2.342,0,0,0,2.121,0l112.1-65.147,172.567,99.632,160.76,92.815a2.192,2.192,0,0,0,1.062.254,2.157,2.157,0,0,0,1.058-.254l112.859-65.587L-3451.486,344-3768.1,528-3936.468,430.8a2.326,2.326,0,0,0-2.12,0,.648.648,0,0,0,.007,1.228l169.428,97.82a2.158,2.158,0,0,0,1.062.254,2.175,2.175,0,0,0,1.059-.254L-3448.3,344.615a.762.762,0,0,0,.436-.614.767.767,0,0,0-.443-.615" transform="translate(4075.029 -180.073)"/></g><g transform="translate(1253.813 2710.534)"><path class="g" d="M-4662.374,48.13l-.035,12.236-60.451-34.9.035-12.236Z" transform="translate(4722.859 -13.229)"/></g><g transform="translate(1193.756 2710.534)"><path class="h" d="M-4742.786,13.229l-.035,12.236-60.057,34.9.035-12.236Z" transform="translate(4802.878 -13.229)"/></g><g transform="translate(1176.771 2745.436)"><path class="i" d="M-4747.983,104.471l-.035,12.236-77.49-44.739.035-12.236Z" transform="translate(4825.508 -59.731)"/></g><g transform="translate(1254.262 2745.435)"><path class="j" d="M-4645.24,59.73l-.035,12.236-76.987,44.74.035-12.236Z" transform="translate(4722.262 -59.73)"/></g><g transform="translate(1176.806 2700.696)"><path class="k" d="M-4748.476.121l77.491,44.739-76.986,44.74-77.491-44.74Zm.449,79.641,60.058-34.9-60.451-34.9-60.058,34.9,60.451,34.9" transform="translate(4825.462 -0.121)"/></g><g transform="translate(630.486 2654.57)"><path class="l" d="M-5391.035,489.008l-.035,12.236-76.982,44.737.035-12.236Z" transform="translate(5468.051 -489.008)"/></g><g transform="translate(553 2654.57)"><path class="m" d="M-5493.771,533.745l-.035,12.236-77.486-44.737.035-12.236Z" transform="translate(5571.292 -489.009)"/></g><g transform="translate(553.035 2609.833)"><path class="n" d="M-5416.777,474.139l-76.982,44.737-77.486-44.736,76.982-44.737Z" transform="translate(5571.245 -429.402)"/></g><g transform="translate(745.198 2593.567)"><g class="o" transform="translate(0 0)"><g transform="translate(226.664 130.864)"><path class="p" d="M-4907.4,291.338l-.086,30.591-151.617,88.11.087-30.591Z" transform="translate(5059.106 -291.338)"/></g><g transform="translate(0 88.11)"><path class="q" d="M-5134.357,365.238l-.087,30.591-226.664-130.864.087-30.591Z" transform="translate(5361.107 -234.373)"/></g><g transform="translate(0.087)"><path class="r" d="M-4982.71,247.842l-151.617,88.11-226.664-130.864,151.617-88.11Z" transform="translate(5360.991 -116.977)"/></g></g></g><g transform="translate(694.793 2564.959)"><g class="e" transform="translate(0.082 8.822)"><path d="M239.249,266.03l-97.534,56.69L93.7,294.99l97.5-56.69Z" transform="translate(-93.7 -238.3)"/></g><g transform="translate(48.05 27.73)"><path class="s" d="M331.834,319.5l-.034,4.346L234.3,380.5V376.19Z" transform="translate(-234.3 -319.5)"/></g><path class="t" d="M141.65,432.03v4.312L93.6,408.612l.034-4.312Z" transform="translate(-93.6 -347.61)"/><g transform="translate(0.034)"><path class="a" d="M239.249,266.03l-97.534,56.69L93.7,294.99l97.5-56.69Z" transform="translate(-93.7 -238.3)"/></g><path class="u" d="M119.5,289.833,208.189,238.3l48.05,27.73L167.55,317.563Z" transform="translate(-110.655 -238.3)"/><path class="v" d="M169.677,433.823,155.949,425.9l-2.049,1.161,13.728,7.957,2.049-1.2" transform="translate(-133.307 -361.834)"/><path class="f" d="M436.759,285.006a2.177,2.177,0,0,0-2.049,0,.641.641,0,0,0,0,1.2,2.177,2.177,0,0,0,2.049,0c.581-.342.581-.888,0-1.2" transform="translate(-317.95 -268.887)"/></g><g class="e" transform="translate(607.177 2764.669)"><path class="w" d="M2304.334-331.508,2148.986-241.23l-118.959-68.681,155.349-90.279Z" transform="translate(-2030.027 400.189)"/></g><g transform="translate(607.165 2747.196)"><g class="o" transform="translate(0 0)"><g transform="translate(118.959 68.681)"><path class="x" d="M2404.046-273.934l-.013,5.308-155.348,90.279.012-5.308Z" transform="translate(-2248.685 273.934)"/></g><g transform="translate(0 90.279)"><path class="y" d="M2148.975-165.55l-.012,5.308L2030-228.923l.013-5.308Z" transform="translate(-2030.004 234.231)"/></g><g transform="translate(0.013)"><path class="z" d="M2304.334-331.508,2148.986-241.23l-118.959-68.681,155.349-90.279Z" transform="translate(-2030.027 400.189)"/></g></g><g transform="translate(3.047 1.806)"><path class="aa" d="M2303.826-329.922l-115.955-66.946L2035.6-308.381l115.954,66.946,152.267-88.488" transform="translate(-2035.604 396.869)"/></g><g transform="translate(50.438 4.752)"><path class="ab" d="M2312.953-390.195l-2.181-1.259-3.25,1.889,2.181,1.259,3.25-1.889" transform="translate(-2206.995 391.454)"/><path class="ab" d="M2156.542-179.562l-32.734-18.9-1.083.63,32.734,18.9,1.083-.63" transform="translate(-2122.724 303.446)"/><path class="ab" d="M2512.9-274.754l-2.181-1.259-3.25,1.889,2.181,1.259,3.25-1.889" transform="translate(-2298.175 338.811)"/><path class="ab" d="M2505.056-279.284l-4.366-2.521-3.25,1.889,4.366,2.521,3.25-1.889" transform="translate(-2293.6 341.452)"/><path class="ab" d="M2412.179-332.9a3.606,3.606,0,0,0-3.261,0,1,1,0,0,0,.01,1.889,3.607,3.607,0,0,0,3.265,0,1,1,0,0,0-.014-1.891" transform="translate(-2252.929 364.932)"/></g></g><path class="b" d="M343.1,323.4,208.691,401.5,0,281l134.407-78.1Z" transform="translate(760.05 2395.497)"/><g transform="translate(968.741 2700.551)"><path class="ac" d="M380.507,345v6.869L246.1,430.054V423.1Z" transform="translate(-246.1 -345)"/></g><g transform="translate(760.05 2658.15)"><path class="ad" d="M208.691,415.5v6.954L0,301.953V295Z" transform="translate(0 -295)"/></g><g transform="translate(760.05 2580.051)"><path class="ae" d="M343.1,323.4,208.691,401.5,0,281l134.407-78.1Z" transform="translate(0 -202.9)"/></g><path class="af" d="M12505.119,19606.873l-7.293-4.242a.5.5,0,0,1,0-.934l3.141-1.861a1.783,1.783,0,0,1,1.609,0l7.293,4.236c.507.34.507.766,0,.934l-3.137,1.867a1.812,1.812,0,0,1-1.613,0Zm-9.75-5.6-7.293-4.242a.5.5,0,0,1,0-.934l3.138-1.863a1.793,1.793,0,0,1,1.608,0,.5.5,0,0,1,0-.934l3.141-1.863a1.771,1.771,0,0,1,1.609,0l7.293,4.238c.508.256.508.68,0,.934l-3.137,1.863a1.779,1.779,0,0,1-1.613,0,.5.5,0,0,1,0,.934l-3.137,1.867a1.787,1.787,0,0,1-1.609,0Zm20.772-.846-18.991-11.029a.5.5,0,0,1,0-.934l5.426-3.133a1.791,1.791,0,0,1,1.613,0l18.991,11.023c.427.336.427.764,0,.93l-5.426,3.143a1.812,1.812,0,0,1-1.613,0Zm-103.112-.342-42.827-24.76c-.762-.512-.929-1.187-.253-1.527l30.1-17.469a3.2,3.2,0,0,1,2.629.168l42.909,24.76c.765.428.933,1.1.171,1.527l-30.1,17.469a2.386,2.386,0,0,1-1.048.211A3.386,3.386,0,0,1,12413.029,19600.088Zm111.679-4.582-14.585-8.48a.5.5,0,0,1,0-.93l5.425-3.139a1.791,1.791,0,0,1,1.613,0l14.586,8.482c.508.254.508.676,0,.93l-5.425,3.137a1.8,1.8,0,0,1-1.614,0Zm-39.6-.164-7.293-4.242a.5.5,0,0,1,0-.932l3.137-1.863a1.791,1.791,0,0,1,1.613,0l7.293,4.238c.507.252.507.678,0,.934l-3.141,1.865a1.787,1.787,0,0,1-1.609,0Zm48.334-4.92-7.293-4.238a.5.5,0,0,1,0-.934l5.43-3.143a1.793,1.793,0,0,1,1.608,0l7.293,4.242c.508.254.508.676,0,.934l-5.425,3.139a1.812,1.812,0,0,1-1.613,0Zm-58.936-1.275-9.749-5.594a.5.5,0,0,1,0-.934l7.292-4.24a1.783,1.783,0,0,1,1.609,0l9.754,5.6a.5.5,0,0,1,0,.936l-7.293,4.236a1.8,1.8,0,0,1-1.613,0Zm18.062-2.287-7.293-4.24a.5.5,0,0,1,0-.932l5.427-3.137a1.8,1.8,0,0,1,1.613,0l7.292,4.236a.5.5,0,0,1,0,.936l-5.426,3.137a1.812,1.812,0,0,1-1.613,0Zm49.78-1.609-11.7-6.787a.5.5,0,0,1,0-.934l5.425-3.135a1.806,1.806,0,0,1,1.614,0l11.7,6.783c.508.254.508.676,0,.93l-5.43,3.143a1.8,1.8,0,0,1-1.608,0Zm-35.534-.088-7.293-4.242a.5.5,0,0,1,0-.934l5.43-3.135a1.8,1.8,0,0,1,1.609,0l7.292,4.242c.513.254.513.676,0,.932l-5.425,3.137a1.8,1.8,0,0,1-1.613,0Zm16.538-.594-7.292-4.236a.5.5,0,0,1,0-.936l5.425-3.139a1.8,1.8,0,0,1,1.613,0l7.293,4.242a.5.5,0,0,1,0,.932l-5.43,3.137a1.787,1.787,0,0,1-1.609,0Zm-61.4-2.627-7.292-4.238a.5.5,0,0,1,0-.934l7.292-4.242a1.8,1.8,0,0,1,1.613,0l7.293,4.242a.5.5,0,0,1,0,.934l-7.293,4.238a1.812,1.812,0,0,1-1.613,0Zm20.438-.934-7.293-4.238a.5.5,0,0,1,0-.934l5.426-3.139a1.816,1.816,0,0,1,1.613,0l7.293,4.238a.5.5,0,0,1,0,.934l-5.43,3.139a1.8,1.8,0,0,1-1.609,0Zm68.6-.764-7.293-4.24a.5.5,0,0,1,0-.934l2.8-1.609a1.8,1.8,0,0,1,1.609,0l7.293,4.236a.5.5,0,0,1,0,.936l-2.8,1.611a1.611,1.611,0,0,1-.809.191A1.593,1.593,0,0,1,12551,19580.244Zm-54.271-.932-7.292-4.152a.5.5,0,0,1,0-.934l5.425-3.141a1.8,1.8,0,0,1,1.613,0l7.293,4.156a.5.5,0,0,1,0,.934l-5.43,3.137a1.8,1.8,0,0,1-1.609,0Zm16.453-.594-7.293-4.24a.5.5,0,0,1,0-.932l5.426-3.137a1.771,1.771,0,0,1,1.609,0l7.292,4.238c.513.254.513.68,0,.934l-5.426,3.137a1.8,1.8,0,0,1-1.608,0Zm14.073-2.2-7.293-4.242a.5.5,0,0,1,0-.93l5.43-3.141a1.8,1.8,0,0,1,1.609,0l7.292,4.242c.427.252.513.68,0,.934l-5.425,3.137a1.812,1.812,0,0,1-1.613,0Zm-75.724-.594-63.178-36.465a.5.5,0,0,1,0-.934l7.293-4.242a1.806,1.806,0,0,1,1.614,0l63.173,36.469c.512.254.512.676,0,.93l-7.293,4.242a1.8,1.8,0,0,1-1.609,0Zm20.777-.768-7.293-4.236a.5.5,0,0,1,0-.936l5.425-3.135a1.791,1.791,0,0,1,1.613,0l7.293,4.238a.5.5,0,0,1,0,.934l-5.43,3.135a1.785,1.785,0,0,1-1.608,0Zm67.668-1.271-7.292-4.238a.5.5,0,0,1,0-.934l2.8-1.609a1.8,1.8,0,0,1,1.613,0l7.293,4.238c.508.258.508.68,0,.934l-2.8,1.609a1.787,1.787,0,0,1-1.609,0Zm-53.423-.422-7.293-4.238a.5.5,0,0,1,0-.934l5.425-3.137a1.806,1.806,0,0,1,1.614,0l7.292,4.236c.509.256.509.682,0,.936l-5.43,3.137a1.606,1.606,0,0,1-.8.189A1.625,1.625,0,0,1,12486.55,19573.461Zm16.534-.594-7.293-4.238a.5.5,0,0,1,0-.934l5.43-3.137a1.8,1.8,0,0,1,1.609,0l7.293,4.236a.5.5,0,0,1,0,.936l-5.425,3.137a1.814,1.814,0,0,1-1.614,0Zm14.077-2.2-7.292-4.242a.5.5,0,0,1,0-.936l5.425-3.135a1.806,1.806,0,0,1,1.614,0l7.292,4.238c.508.258.508.678,0,.934l-5.43,3.141a1.608,1.608,0,0,1-.8.189A1.631,1.631,0,0,1,12517.161,19570.664Zm-55.036-1.355-7.293-4.242a.5.5,0,0,1,0-.934l5.43-3.137a1.793,1.793,0,0,1,1.608,0l7.293,4.242a.5.5,0,0,1,0,.93l-5.425,3.141a1.812,1.812,0,0,1-1.613,0Zm67.5-1.359-7.293-4.238a.5.5,0,0,1,0-.934l2.8-1.613a1.8,1.8,0,0,1,1.609,0l7.293,4.238c.508.258.508.678,0,.934l-2.8,1.613a1.812,1.812,0,0,1-1.613,0Zm-53.17-.336-7.293-4.242a.5.5,0,0,1,0-.934l5.431-3.137a1.793,1.793,0,0,1,1.608,0l7.293,4.238a.5.5,0,0,1,0,.934l-5.426,3.141a1.8,1.8,0,0,1-1.613,0Zm16.453-.6-7.293-4.238a.5.5,0,0,1,0-.934l5.425-3.137a1.8,1.8,0,0,1,1.613,0l7.293,4.238c.508.254.508.68,0,.934l-5.43,3.137a1.8,1.8,0,0,1-1.608,0Zm14.245-2.117-7.293-4.242a.5.5,0,0,1,0-.93l5.43-3.141a1.8,1.8,0,0,1,1.609,0l7.292,4.242a.5.5,0,0,1,0,.93l-5.425,3.141a1.8,1.8,0,0,1-1.613,0Zm-55.119-1.445-7.293-4.238a.5.5,0,0,1,0-.934l5.43-3.137a1.8,1.8,0,0,1,1.61,0l7.291,4.238a.5.5,0,0,1,0,.934l-5.425,3.137a1.779,1.779,0,0,1-1.613,0Zm67.247-1.523-7.293-4.242a.5.5,0,0,1,0-.934l2.8-1.609a1.8,1.8,0,0,1,1.613,0l7.293,4.238c.508.254.508.68,0,.934l-2.8,1.613a1.787,1.787,0,0,1-1.609,0Zm-52.916-.172-7.293-4.238a.5.5,0,0,1,0-.934l5.427-3.141a1.8,1.8,0,0,1,1.613,0l7.293,4.242a.5.5,0,0,1,0,.934l-5.427,3.137a1.812,1.812,0,0,1-1.613,0Zm16.453-.594-7.293-4.238a.5.5,0,0,1,0-.934l5.426-3.137a1.816,1.816,0,0,1,1.613,0l7.293,4.238a.5.5,0,0,1,0,.934l-5.43,3.137a1.631,1.631,0,0,1-.807.189A1.608,1.608,0,0,1,12482.819,19561.164Zm14.245-2.121-7.293-4.238a.5.5,0,0,1,0-.934l5.427-3.137a1.8,1.8,0,0,1,1.613,0l7.292,4.238c.508.258.508.68,0,.934l-5.43,3.137a1.787,1.787,0,0,1-1.609,0Zm-55.205-1.437-7.293-4.242a.5.5,0,0,1,0-.934l5.427-3.135a1.791,1.791,0,0,1,1.613,0l7.293,4.236a.5.5,0,0,1,0,.934l-5.431,3.141a1.787,1.787,0,0,1-1.609,0Zm67.076-1.613-7.293-4.242a.5.5,0,0,1,0-.928l2.8-1.615a1.8,1.8,0,0,1,1.613,0l7.293,4.238c.507.258.507.68,0,.934l-2.8,1.613a1.812,1.812,0,0,1-1.613,0Zm-52.744-.086-7.292-4.238a.5.5,0,0,1,0-.934l5.425-3.137a1.8,1.8,0,0,1,1.613,0l7.293,4.238a.5.5,0,0,1,0,.934l-5.43,3.137a1.787,1.787,0,0,1-1.609,0Zm16.452-.594-7.292-4.238a.5.5,0,0,1,0-.934l5.425-3.137a1.773,1.773,0,0,1,1.61,0l7.3,4.238c.509.254.509.68,0,.934l-5.43,3.137a1.787,1.787,0,0,1-1.609,0Zm14.332-2.035-7.293-4.238a.5.5,0,0,1,0-.932l5.426-3.143a1.8,1.8,0,0,1,1.609,0l7.293,4.242c.512.254.512.68,0,.934l-5.427,3.137a1.785,1.785,0,0,1-1.608,0Zm-55.21-1.527-7.292-4.236a.5.5,0,0,1,0-.936l5.43-3.137a1.8,1.8,0,0,1,1.609,0l7.293,4.238a.5.5,0,0,1,0,.934l-5.426,3.137a1.614,1.614,0,0,1-.8.191A1.638,1.638,0,0,1,12431.766,19551.75Zm66.826-1.7-7.3-4.238a.5.5,0,0,1,0-.934l2.8-1.609a1.793,1.793,0,0,1,1.608,0l7.293,4.24c.512.252.512.678,0,.932l-2.8,1.609a1.771,1.771,0,0,1-1.609,0Zm-52.575,0-7.293-4.238a.5.5,0,0,1,0-.934l5.425-3.135a1.791,1.791,0,0,1,1.613,0l7.293,4.236c.508.254.508.68,0,.936l-5.43,3.135a1.8,1.8,0,0,1-1.608,0Zm16.533-.594-7.292-4.238a.5.5,0,0,1,0-.934l5.426-3.135a1.791,1.791,0,0,1,1.613,0l7.293,4.238a.5.5,0,0,1,0,.934l-5.426,3.135a1.781,1.781,0,0,1-1.614,0Zm14.418-2.035-7.293-4.238a.5.5,0,0,1,0-.934l5.426-3.137a1.8,1.8,0,0,1,1.609,0l7.293,4.238a.5.5,0,0,1,0,.934l-5.426,3.137a1.787,1.787,0,0,1-1.609,0Zm-55.377-1.527-7.292-4.238a.5.5,0,0,1,0-.934l5.429-3.137a1.8,1.8,0,0,1,1.609,0l7.293,4.242a.5.5,0,0,1,0,.93l-5.426,3.137a1.8,1.8,0,0,1-1.613,0Zm14.332-1.693-7.293-4.238a.5.5,0,0,1,0-.934l5.43-3.137a1.793,1.793,0,0,1,1.608,0l7.293,4.236a.5.5,0,0,1,0,.934l-5.425,3.139a1.812,1.812,0,0,1-1.613,0Zm52.408-.17-7.293-4.242a.5.5,0,0,1,0-.934l2.8-1.607a1.791,1.791,0,0,1,1.613,0l7.293,4.24a.5.5,0,0,1,0,.934l-2.8,1.609a1.785,1.785,0,0,1-1.608,0Zm-35.956-.422-7.292-4.242a.5.5,0,0,1,0-.932l5.425-3.137a1.8,1.8,0,0,1,1.613,0l7.293,4.236c.508.26.508.682,0,.934l-5.43,3.141a1.787,1.787,0,0,1-1.609,0Zm14.5-1.953-7.292-4.236a.5.5,0,0,1,0-.934l5.43-3.141a1.783,1.783,0,0,1,1.609,0l7.292,4.24c.508.256.508.676,0,.934l-5.425,3.137a1.8,1.8,0,0,1-1.614,0Zm-55.372-1.609-7.293-4.242a.5.5,0,0,1,0-.934l5.425-3.135a1.806,1.806,0,0,1,1.614,0l7.292,4.242a.5.5,0,0,1,0,.932l-5.429,3.137a1.787,1.787,0,0,1-1.609,0Zm14.245-1.693-7.293-4.242a.5.5,0,0,1,0-.936l5.426-3.137a1.816,1.816,0,0,1,1.613,0l7.293,4.238c.508.256.508.68,0,.934l-5.426,3.143a1.812,1.812,0,0,1-1.613,0Zm52.236-.258-7.292-4.238a.5.5,0,0,1,0-.934l2.8-1.615a1.8,1.8,0,0,1,1.613,0l7.293,4.242a.5.5,0,0,1,0,.936l-2.8,1.609a1.812,1.812,0,0,1-1.613,0Zm-35.7-.342-7.293-4.236a.5.5,0,0,1,0-.934l5.43-3.139a1.806,1.806,0,0,1,1.608,0l7.293,4.238a.5.5,0,0,1,0,.934l-5.425,3.137a1.8,1.8,0,0,1-1.613,0Zm-57.494-.422-9.75-5.6a.5.5,0,0,1,0-.934l7.293-4.238a1.793,1.793,0,0,1,1.608,0l9.755,5.594c.507.338.426.766,0,.932l-7.293,4.242a1.8,1.8,0,0,1-1.613,0Zm72.083-1.527-7.3-4.238a.5.5,0,0,1,0-.934l5.43-3.135a1.771,1.771,0,0,1,1.609,0l7.293,4.238a.5.5,0,0,1,0,.934l-5.426,3.135a1.787,1.787,0,0,1-1.609,0Zm-55.545-1.607-7.293-4.242a.5.5,0,0,1,0-.93l5.427-3.141a1.8,1.8,0,0,1,1.613,0l7.292,4.242a.5.5,0,0,1,0,.934l-5.43,3.137a1.8,1.8,0,0,1-1.609,0Zm14.331-1.7-7.292-4.244a.5.5,0,0,1,0-.934l5.426-3.135a1.8,1.8,0,0,1,1.613,0l7.293,4.242a.5.5,0,0,1,0,.93l-5.43,3.141a1.806,1.806,0,0,1-1.61,0Zm51.983-.426-7.293-4.242a.5.5,0,0,1,0-.93l2.8-1.613a1.8,1.8,0,0,1,1.613,0l7.292,4.242a.5.5,0,0,1,0,.934l-2.8,1.609a1.8,1.8,0,0,1-1.608,0Zm-35.534-.174-7.293-4.238a.5.5,0,0,1,0-.934l5.43-3.135a1.783,1.783,0,0,1,1.609,0l7.292,4.238c.512.258.512.678,0,.934l-5.425,3.135a1.8,1.8,0,0,1-1.613,0Zm14.672-1.863-7.293-4.24a.5.5,0,0,1,0-.934l5.425-3.137a1.8,1.8,0,0,1,1.613,0l7.293,4.242a.5.5,0,0,1,0,.934l-5.43,3.135a1.785,1.785,0,0,1-1.608,0Zm-74.877-.084-9.581-5.512a.5.5,0,0,1,0-.93l7.293-4.242a1.793,1.793,0,0,1,1.608,0l9.582,5.512a.5.5,0,0,1,0,.934l-7.293,4.238a1.787,1.787,0,0,1-1.609,0Zm19.249-1.609-17.893-10.348a.5.5,0,0,1,0-.936l5.425-3.135a1.8,1.8,0,0,1,1.613,0l17.895,10.344c.507.258.507.678,0,.932l-5.43,3.143a1.806,1.806,0,0,1-1.61,0Zm14.414-1.7-7.293-4.238a.5.5,0,0,1,0-.934l5.43-3.137a1.8,1.8,0,0,1,1.609,0l7.293,4.236a.5.5,0,0,1,0,.936l-5.426,3.137a1.8,1.8,0,0,1-1.613,0Zm51.729-.51-7.293-4.236a.5.5,0,0,1,0-.936l2.8-1.611a1.8,1.8,0,0,1,1.613,0l7.293,4.242a.5.5,0,0,1,0,.934l-2.8,1.607a1.787,1.787,0,0,1-1.609,0Zm-35.276-.082-7.292-4.24a.5.5,0,0,1,0-.934l5.425-3.137a1.8,1.8,0,0,1,1.613,0l7.293,4.242a.5.5,0,0,1,0,.934l-5.426,3.135a1.8,1.8,0,0,1-1.613,0Zm14.672-1.865-7.293-4.242a.5.5,0,0,1,0-.93l5.426-3.137a1.779,1.779,0,0,1,1.613,0l7.293,4.238c.507.252.507.68,0,.934l-5.43,3.137a1.787,1.787,0,0,1-1.609,0Zm-41.386-3.477-13.4-7.719a.5.5,0,0,1,0-.934l5.43-3.137a1.793,1.793,0,0,1,1.608,0l13.4,7.719a.5.5,0,0,1,0,.934l-5.426,3.137a1.812,1.812,0,0,1-1.613,0Zm51.646-.508-7.293-4.242a.5.5,0,0,1,0-.934l2.8-1.609a1.8,1.8,0,0,1,1.609,0l7.293,4.236a.5.5,0,0,1,0,.936l-2.8,1.613a1.626,1.626,0,0,1-.807.191A1.609,1.609,0,0,1,12446.949,19520.209Zm-35.107,0-7.293-4.242a.5.5,0,0,1,0-.934l5.426-3.137a1.8,1.8,0,0,1,1.613,0l7.293,4.238c.508.254.508.68,0,.932l-5.431,3.143a1.785,1.785,0,0,1-1.608,0Zm14.839-1.781-7.292-4.242a.5.5,0,0,1,0-.934l5.425-3.137a1.8,1.8,0,0,1,1.613,0l7.293,4.242a.5.5,0,0,1,0,.934l-5.43,3.137a1.787,1.787,0,0,1-1.609,0Zm-24.847-4.07-11.191-6.445a.5.5,0,0,1,0-.932l5.427-3.143a1.793,1.793,0,0,1,1.608,0l11.2,6.445a.5.5,0,0,1,0,.934l-5.426,3.141a1.812,1.812,0,0,1-1.613,0Zm34.769-.172-7.293-4.238a.5.5,0,0,1,0-.934l2.8-1.609a1.779,1.779,0,0,1,1.613,0l7.293,4.238a.5.5,0,0,1,0,.934l-2.8,1.609a1.787,1.787,0,0,1-1.609,0Zm-20.011-1.609-7.293-4.242a.5.5,0,0,1,0-.93l5.426-3.141a1.793,1.793,0,0,1,1.608,0l7.293,4.242a.5.5,0,0,1,0,.934l-5.425,3.137a1.632,1.632,0,0,1-.807.191A1.609,1.609,0,0,1,12416.592,19512.576Zm9.663-4.324-7.293-4.242a.5.5,0,0,1,0-.932l2.8-1.611a1.81,1.81,0,0,1,1.61,0l7.291,4.238c.427.254.509.68,0,.934l-2.795,1.613a1.814,1.814,0,0,1-1.614,0Zm-19.5-1.271-7.291-4.24a.5.5,0,0,1,0-.932l5.425-3.143a1.8,1.8,0,0,1,1.613,0l7.293,4.242c.508.254.508.682,0,.934l-5.426,3.139a1.831,1.831,0,0,1-1.614,0Zm8.653-5.006-7.293-4.242a.5.5,0,0,1,0-.93l2.8-1.611a1.781,1.781,0,0,1,1.608,0l7.293,4.24a.5.5,0,0,1,0,.934l-2.8,1.609a1.632,1.632,0,0,1-.807.191A1.609,1.609,0,0,1,12415.4,19501.975Z" transform="translate(-11512.331 -16884.834)"/><g transform="translate(1106.506 2546.249)"><path class="ag" d="M402.615,235.361l5.493-3.161-.415,148.518-5.493,3.213Z" transform="translate(-402.2 -232.2)"/></g><g transform="translate(898.498 2425.92)"><path class="ah" d="M.8,3.161,6.293,0,214.716,120.328l-5.493,3.161Z" transform="translate(-0.8)"/></g><g transform="translate(898.083 2429.082)"><path class="ai" d="M208.837,126.428,208.423,275,0,154.67.415,6.1Z" transform="translate(0 -6.1)"/></g><g transform="translate(773.154 2578.037)"><path class="aj" d="M4.782,0,43.066,22.092l-4.782,2.781L0,2.755Z" transform="translate(4.817 0)"/><path class="aj" d="M3.173,0l25.4,14.657L25.4,16.5,0,1.828Z" transform="translate(0 4.014)"/></g><g transform="translate(673.561 2824.4)"><path class="ak" d="M7.1,0,63.973,32.817l-7.1,4.131L0,4.092Z" transform="translate(7.155 0)"/><path class="ak" d="M4.713,0,42.444,21.773l-4.713,2.741L0,2.715Z" transform="translate(0 5.962)"/></g><g transform="translate(718.564 2612.982)"><path class="aj" d="M4.129,0,37.179,19.072l-4.129,2.4L0,2.378Z" transform="translate(0)"/></g><g class="al" transform="translate(770.041 2572.442) rotate(60)"><path class="am" d="M34.134,14.932v.141c0,.094-.016.2-.016.3,0,.11-.016.236-.016.345,0,.094-.016.173-.016.267a2.128,2.128,0,0,1-.031.314c0,.063-.016.141-.016.2-.016.157-.031.3-.047.455-.016.094-.016.173-.031.267a.2.2,0,0,1-.016.094c-.031.267-.079.55-.11.816v.016c0,.031-.016.079-.016.11-.031.236-.078.455-.126.691a.369.369,0,0,1-.031.126c-.016.11-.047.22-.063.33-.031.126-.047.267-.078.393-.016.079-.031.141-.047.22a2.969,2.969,0,0,0-.079.361c-.016.094-.047.188-.063.267a2.519,2.519,0,0,0-.079.33c-.031.126-.063.236-.094.361-.016.063-.031.126-.047.173l-.141.471c-.031.11-.063.2-.094.3-.016.031-.016.063-.031.094-.079.283-.173.565-.267.848h0a.119.119,0,0,1-.031.063c-.079.251-.173.5-.267.754-.016.031-.031.079-.047.11a2.1,2.1,0,0,1-.11.283,4.347,4.347,0,0,1-.157.408c-.031.079-.063.173-.094.251-.047.11-.079.2-.126.314l-.094.236c-.063.141-.126.3-.188.44a1.748,1.748,0,0,1-.11.251.223.223,0,0,0-.031.094c-.11.267-.236.534-.361.785,0,.016-.016.016-.016.031-.031.063-.063.141-.094.2-.094.2-.2.408-.3.612l-.047.094c-.078.157-.173.33-.251.487-.063.126-.141.267-.2.393a.216.216,0,0,1-.047.063c-.22.424-.455.848-.707,1.256a.393.393,0,0,1-.063.11.282.282,0,0,1-.079.11c-.345.581-.706,1.146-1.068,1.711a.328.328,0,0,1-.063.094,1.358,1.358,0,0,0-.11.157c-.3.44-.612.879-.926,1.319h0c-.22.3-.455.612-.691.895-.016.016-.016.031-.031.047-.173.22-.345.424-.518.644a.423.423,0,0,1-.11.126v.016c-.2.251-.424.487-.628.738l-.031.031c-.063.079-.126.141-.188.22l-.408.455L24.3,37.1c-.094.094-.188.2-.283.3-.11.11-.2.22-.314.33l-.11.11a2.823,2.823,0,0,1-.314.3c-.094.079-.173.173-.267.267a1.416,1.416,0,0,1-.157.141c-.11.11-.22.2-.33.314-.079.079-.157.141-.236.22-.063.047-.126.11-.188.157-.11.094-.22.2-.33.3a2,2,0,0,1-.2.173c-.079.063-.141.126-.22.188-.11.094-.22.188-.33.267-.063.047-.11.094-.173.141-.094.079-.188.141-.283.22-.11.079-.2.157-.314.236-.047.031-.079.063-.126.094-.126.094-.251.173-.377.267-.094.063-.173.126-.267.188-.016.016-.047.031-.063.047-.236.157-.455.314-.691.455h0c-.016.016-.031.016-.047.031-.2.126-.424.267-.628.393-.047.031-.11.063-.157.094-.173.094-.345.2-.518.283-.063.031-.126.063-.2.094-.094.047-.173.094-.267.141-.063.031-.141.079-.2.11-.11.047-.22.11-.33.157-.079.031-.157.079-.236.11l-.094.047c-.22.094-.44.188-.644.283-.22.094-.44.173-.659.251-.031.016-.063.016-.079.031-.079.031-.157.047-.236.079-.11.031-.22.079-.33.11-.063.016-.11.031-.157.047-.094.031-.188.047-.283.079-.078.016-.141.047-.22.063l-.236.047c-.094.016-.188.047-.283.063a.465.465,0,0,1-.157.031L12.5,44.4l-.33.047c-.031,0-.078.016-.11.016-.094.016-.173.016-.267.031a2.568,2.568,0,0,1-.345.031c-.031,0-.063.016-.11.016H11.1c-.141,0-.283.016-.408.016h-.11a.644.644,0,0,1-.173-.016c-.173,0-.345-.016-.518-.031H9.735c-.031,0-.079-.016-.11-.016-.267-.031-.518-.063-.769-.11a.094.094,0,0,1-.063-.016H8.777a.558.558,0,0,0-.157-.031,3.857,3.857,0,0,1-.455-.11c-.079-.016-.141-.047-.22-.063l-.283-.094c-.031-.016-.047-.016-.063-.031-.141-.047-.283-.11-.424-.173-.063-.031-.141-.063-.2-.094-.2-.094-.408-.2-.612-.314L0,39.77c.2.11.408.22.612.314.063.031.141.063.2.094.141.063.283.126.424.173.126.047.235.079.361.126.078.016.141.047.22.063.157.047.3.078.455.11a.464.464,0,0,0,.157.031c.031,0,.047.016.079.016.251.047.5.079.769.11a1.524,1.524,0,0,0,.267.016c.173.016.345.016.518.031h.3a3.549,3.549,0,0,0,.408-.016c.11,0,.22-.016.345-.016.11-.016.236-.016.345-.031.126-.016.251-.031.393-.047l.33-.047c.141-.031.283-.047.424-.079.094-.016.188-.047.283-.063.157-.031.3-.079.455-.11.094-.031.188-.047.283-.079.173-.047.33-.094.5-.157.079-.031.157-.047.236-.078.487-.173.989-.361,1.492-.6.078-.031.157-.079.235-.11.173-.079.361-.173.534-.267.094-.047.173-.094.267-.141.236-.126.471-.251.707-.393.267-.157.534-.314.8-.487.016-.016.031-.016.047-.031.251-.157.518-.33.769-.5.094-.063.173-.126.267-.188.173-.126.345-.236.5-.361.11-.079.2-.157.314-.236.157-.11.3-.236.455-.361.11-.094.22-.173.33-.267.141-.126.283-.236.424-.361.11-.094.22-.188.33-.3.141-.126.283-.251.408-.377.11-.11.22-.2.33-.314.141-.126.283-.267.424-.408.11-.094.2-.2.3-.3.141-.141.283-.3.424-.44.094-.094.188-.188.283-.3.157-.173.33-.345.487-.534.063-.079.126-.141.188-.22.22-.251.455-.518.659-.785a.423.423,0,0,1,.11-.126c.188-.22.361-.455.55-.675.236-.3.455-.581.675-.879,0-.016.016-.016.016-.031.314-.424.628-.864.926-1.319.063-.079.11-.157.173-.251.377-.565.722-1.13,1.068-1.711.047-.079.094-.157.141-.22.236-.408.471-.832.707-1.256.078-.157.157-.314.251-.471.079-.157.173-.314.251-.487.126-.236.236-.487.345-.722.031-.063.063-.126.094-.2.141-.3.283-.6.408-.911a1.579,1.579,0,0,1,.11-.236c.094-.22.188-.455.283-.675.047-.11.079-.2.126-.314.094-.22.173-.44.251-.659a2.093,2.093,0,0,1,.11-.283c.11-.3.2-.581.314-.879,0-.016.016-.031.016-.063.11-.314.2-.628.3-.942.031-.094.063-.2.094-.3.063-.22.126-.424.188-.644.031-.126.063-.236.094-.361.047-.2.11-.408.157-.6a2.954,2.954,0,0,0,.078-.361c.047-.2.094-.408.126-.628.016-.11.047-.22.063-.33.047-.267.094-.55.141-.816,0-.031.016-.079.016-.11.047-.314.094-.612.126-.926.016-.094.016-.173.031-.251.031-.22.047-.44.063-.659.016-.11.016-.2.031-.314.016-.2.031-.408.031-.628,0-.094.016-.2.016-.3.016-.3.016-.581.016-.879s-.016-.6-.016-.895c0-.079-.016-.157-.016-.251-.016-.2-.031-.408-.047-.6-.016-.11-.016-.22-.031-.33a4.552,4.552,0,0,0-.063-.487c-.016-.126-.031-.236-.047-.361-.031-.157-.047-.3-.079-.44-.031-.126-.047-.267-.079-.393s-.063-.267-.094-.393c-.031-.157-.078-.3-.11-.44-.031-.11-.063-.236-.094-.345-.047-.173-.11-.345-.173-.518-.031-.094-.063-.188-.094-.267-.11-.283-.22-.565-.345-.832a.344.344,0,0,0-.047-.079c-.173-.345-.361-.691-.55-1-.016-.031-.031-.047-.047-.079a8.9,8.9,0,0,0-.534-.738c-.047-.063-.094-.11-.141-.173a5.222,5.222,0,0,0-.565-.612l-.047-.047A5.687,5.687,0,0,0,23.96.6a1.642,1.642,0,0,0-.173-.126A7.107,7.107,0,0,0,23.065,0l6.359,3.69c.251.141.487.314.722.471.063.047.11.079.173.126q.33.259.659.565l.047.047c.188.188.377.408.565.612.047.063.094.11.141.173a8.893,8.893,0,0,1,.534.738l.016.016c.016.016.016.031.031.047a8.722,8.722,0,0,1,.55,1c.016.016.016.031.031.063,0,.016,0,.016.016.031.126.267.235.55.345.832.016.031.016.047.031.079a1.015,1.015,0,0,1,.063.2c.063.173.126.345.173.518l.047.141c.016.063.031.141.047.2a4.512,4.512,0,0,1,.11.44l.047.188c.016.063.031.141.047.2.031.126.047.267.078.393.016.063.031.126.047.2s.016.157.031.236c.016.11.031.236.047.361.016.063.016.126.031.188.016.11.016.2.031.314a2.342,2.342,0,0,1,.031.33c0,.047.016.094.016.141.016.157.016.314.031.455,0,.079.016.157.016.251v.063c.016.251.016.518.016.785v.047A7.233,7.233,0,0,0,34.134,14.932Z" transform="translate(4.773 1.042)"/><g transform="translate(0 0)"><path class="an" d="M16.41,39.848C25.452,34.641,32.758,21.986,32.726,11.6s-7.369-14.58-16.41-9.357S-.016,20.108,0,30.491C.032,40.89,7.385,45.071,16.41,39.848Z"/></g><g transform="translate(6.987 9.868)"><path class="ao" d="M10.363,19.326a9.014,9.014,0,0,1-3.517,1.256A3.978,3.978,0,0,1,4.1,19.97a4.307,4.307,0,0,1-1.633-2.355L.016,19.028V16.94l2.135-1.225c-.016-.141-.016-.361-.031-.659,0-.3,0-.534.016-.691L0,15.589V13.5l2.449-1.413A16.469,16.469,0,0,1,4.067,7.849,18.066,18.066,0,0,1,6.814,4.065a15.749,15.749,0,0,1,3.5-2.795A8.7,8.7,0,0,1,13.9.014,3.628,3.628,0,0,1,16.58.783l-2.229,3.69c-1.052-.785-2.324-.738-3.847.141a9.006,9.006,0,0,0-2.559,2.23A10.467,10.467,0,0,0,6.218,9.921l5.5-3.172V8.838L5.684,12.324c-.016.157-.016.393-.016.691a6.088,6.088,0,0,0,.031.659l6.029-3.486v2.088l-5.5,3.172a2.187,2.187,0,0,0,1.743,1.068,4.382,4.382,0,0,0,2.559-.738,10.285,10.285,0,0,0,3.831-4.271l2.245,1.1a16.906,16.906,0,0,1-2.685,3.847,15.244,15.244,0,0,1-3.564,2.873" transform="translate(0 0)"/></g></g><g transform="translate(770.041 2565.071) rotate(60)"><path class="am" d="M34.134,14.932v.141c0,.094-.016.2-.016.3,0,.11-.016.236-.016.345,0,.094-.016.173-.016.267a2.128,2.128,0,0,1-.031.314c0,.063-.016.141-.016.2-.016.157-.031.3-.047.455-.016.094-.016.173-.031.267a.2.2,0,0,1-.016.094c-.031.267-.079.55-.11.816v.016c0,.031-.016.079-.016.11-.031.236-.078.455-.126.691a.369.369,0,0,1-.031.126c-.016.11-.047.22-.063.33-.031.126-.047.267-.078.393-.016.079-.031.141-.047.22a2.969,2.969,0,0,0-.079.361c-.016.094-.047.188-.063.267a2.519,2.519,0,0,0-.079.33c-.031.126-.063.236-.094.361-.016.063-.031.126-.047.173l-.141.471c-.031.11-.063.2-.094.3-.016.031-.016.063-.031.094-.079.283-.173.565-.267.848h0a.119.119,0,0,1-.031.063c-.079.251-.173.5-.267.754-.016.031-.031.079-.047.11a2.1,2.1,0,0,1-.11.283,4.347,4.347,0,0,1-.157.408c-.031.079-.063.173-.094.251-.047.11-.079.2-.126.314l-.094.236c-.063.141-.126.3-.188.44a1.748,1.748,0,0,1-.11.251.223.223,0,0,0-.031.094c-.11.267-.236.534-.361.785,0,.016-.016.016-.016.031-.031.063-.063.141-.094.2-.094.2-.2.408-.3.612l-.047.094c-.078.157-.173.33-.251.487-.063.126-.141.267-.2.393a.216.216,0,0,1-.047.063c-.22.424-.455.848-.707,1.256a.393.393,0,0,1-.063.11.282.282,0,0,1-.079.11c-.345.581-.706,1.146-1.068,1.711a.328.328,0,0,1-.063.094,1.358,1.358,0,0,0-.11.157c-.3.44-.612.879-.926,1.319h0c-.22.3-.455.612-.691.895-.016.016-.016.031-.031.047-.173.22-.345.424-.518.644a.423.423,0,0,1-.11.126v.016c-.2.251-.424.487-.628.738l-.031.031c-.063.079-.126.141-.188.22l-.408.455L24.3,37.1c-.094.094-.188.2-.283.3-.11.11-.2.22-.314.33l-.11.11a2.823,2.823,0,0,1-.314.3c-.094.079-.173.173-.267.267a1.416,1.416,0,0,1-.157.141c-.11.11-.22.2-.33.314-.079.079-.157.141-.236.22-.063.047-.126.11-.188.157-.11.094-.22.2-.33.3a2,2,0,0,1-.2.173c-.079.063-.141.126-.22.188-.11.094-.22.188-.33.267-.063.047-.11.094-.173.141-.094.079-.188.141-.283.22-.11.079-.2.157-.314.236-.047.031-.079.063-.126.094-.126.094-.251.173-.377.267-.094.063-.173.126-.267.188-.016.016-.047.031-.063.047-.236.157-.455.314-.691.455h0c-.016.016-.031.016-.047.031-.2.126-.424.267-.628.393-.047.031-.11.063-.157.094-.173.094-.345.2-.518.283-.063.031-.126.063-.2.094-.094.047-.173.094-.267.141-.063.031-.141.079-.2.11-.11.047-.22.11-.33.157-.079.031-.157.079-.236.11l-.094.047c-.22.094-.44.188-.644.283-.22.094-.44.173-.659.251-.031.016-.063.016-.079.031-.079.031-.157.047-.236.079-.11.031-.22.079-.33.11-.063.016-.11.031-.157.047-.094.031-.188.047-.283.079-.078.016-.141.047-.22.063l-.236.047c-.094.016-.188.047-.283.063a.465.465,0,0,1-.157.031L12.5,44.4l-.33.047c-.031,0-.078.016-.11.016-.094.016-.173.016-.267.031a2.568,2.568,0,0,1-.345.031c-.031,0-.063.016-.11.016H11.1c-.141,0-.283.016-.408.016h-.11a.644.644,0,0,1-.173-.016c-.173,0-.345-.016-.518-.031H9.735c-.031,0-.079-.016-.11-.016-.267-.031-.518-.063-.769-.11a.094.094,0,0,1-.063-.016H8.777a.558.558,0,0,0-.157-.031,3.857,3.857,0,0,1-.455-.11c-.079-.016-.141-.047-.22-.063l-.283-.094c-.031-.016-.047-.016-.063-.031-.141-.047-.283-.11-.424-.173-.063-.031-.141-.063-.2-.094-.2-.094-.408-.2-.612-.314L0,39.77c.2.11.408.22.612.314.063.031.141.063.2.094.141.063.283.126.424.173.126.047.235.079.361.126.078.016.141.047.22.063.157.047.3.078.455.11a.464.464,0,0,0,.157.031c.031,0,.047.016.079.016.251.047.5.079.769.11a1.524,1.524,0,0,0,.267.016c.173.016.345.016.518.031h.3a3.549,3.549,0,0,0,.408-.016c.11,0,.22-.016.345-.016.11-.016.236-.016.345-.031.126-.016.251-.031.393-.047l.33-.047c.141-.031.283-.047.424-.079.094-.016.188-.047.283-.063.157-.031.3-.079.455-.11.094-.031.188-.047.283-.079.173-.047.33-.094.5-.157.079-.031.157-.047.236-.078.487-.173.989-.361,1.492-.6.078-.031.157-.079.235-.11.173-.079.361-.173.534-.267.094-.047.173-.094.267-.141.236-.126.471-.251.707-.393.267-.157.534-.314.8-.487.016-.016.031-.016.047-.031.251-.157.518-.33.769-.5.094-.063.173-.126.267-.188.173-.126.345-.236.5-.361.11-.079.2-.157.314-.236.157-.11.3-.236.455-.361.11-.094.22-.173.33-.267.141-.126.283-.236.424-.361.11-.094.22-.188.33-.3.141-.126.283-.251.408-.377.11-.11.22-.2.33-.314.141-.126.283-.267.424-.408.11-.094.2-.2.3-.3.141-.141.283-.3.424-.44.094-.094.188-.188.283-.3.157-.173.33-.345.487-.534.063-.079.126-.141.188-.22.22-.251.455-.518.659-.785a.423.423,0,0,1,.11-.126c.188-.22.361-.455.55-.675.236-.3.455-.581.675-.879,0-.016.016-.016.016-.031.314-.424.628-.864.926-1.319.063-.079.11-.157.173-.251.377-.565.722-1.13,1.068-1.711.047-.079.094-.157.141-.22.236-.408.471-.832.707-1.256.078-.157.157-.314.251-.471.079-.157.173-.314.251-.487.126-.236.236-.487.345-.722.031-.063.063-.126.094-.2.141-.3.283-.6.408-.911a1.579,1.579,0,0,1,.11-.236c.094-.22.188-.455.283-.675.047-.11.079-.2.126-.314.094-.22.173-.44.251-.659a2.093,2.093,0,0,1,.11-.283c.11-.3.2-.581.314-.879,0-.016.016-.031.016-.063.11-.314.2-.628.3-.942.031-.094.063-.2.094-.3.063-.22.126-.424.188-.644.031-.126.063-.236.094-.361.047-.2.11-.408.157-.6a2.954,2.954,0,0,0,.078-.361c.047-.2.094-.408.126-.628.016-.11.047-.22.063-.33.047-.267.094-.55.141-.816,0-.031.016-.079.016-.11.047-.314.094-.612.126-.926.016-.094.016-.173.031-.251.031-.22.047-.44.063-.659.016-.11.016-.2.031-.314.016-.2.031-.408.031-.628,0-.094.016-.2.016-.3.016-.3.016-.581.016-.879s-.016-.6-.016-.895c0-.079-.016-.157-.016-.251-.016-.2-.031-.408-.047-.6-.016-.11-.016-.22-.031-.33a4.552,4.552,0,0,0-.063-.487c-.016-.126-.031-.236-.047-.361-.031-.157-.047-.3-.079-.44-.031-.126-.047-.267-.079-.393s-.063-.267-.094-.393c-.031-.157-.078-.3-.11-.44-.031-.11-.063-.236-.094-.345-.047-.173-.11-.345-.173-.518-.031-.094-.063-.188-.094-.267-.11-.283-.22-.565-.345-.832a.344.344,0,0,0-.047-.079c-.173-.345-.361-.691-.55-1-.016-.031-.031-.047-.047-.079a8.9,8.9,0,0,0-.534-.738c-.047-.063-.094-.11-.141-.173a5.222,5.222,0,0,0-.565-.612l-.047-.047A5.687,5.687,0,0,0,23.96.6a1.642,1.642,0,0,0-.173-.126A7.107,7.107,0,0,0,23.065,0l6.359,3.69c.251.141.487.314.722.471.063.047.11.079.173.126q.33.259.659.565l.047.047c.188.188.377.408.565.612.047.063.094.11.141.173a8.893,8.893,0,0,1,.534.738l.016.016c.016.016.016.031.031.047a8.722,8.722,0,0,1,.55,1c.016.016.016.031.031.063,0,.016,0,.016.016.031.126.267.235.55.345.832.016.031.016.047.031.079a1.015,1.015,0,0,1,.063.2c.063.173.126.345.173.518l.047.141c.016.063.031.141.047.2a4.512,4.512,0,0,1,.11.44l.047.188c.016.063.031.141.047.2.031.126.047.267.078.393.016.063.031.126.047.2s.016.157.031.236c.016.11.031.236.047.361.016.063.016.126.031.188.016.11.016.2.031.314a2.342,2.342,0,0,1,.031.33c0,.047.016.094.016.141.016.157.016.314.031.455,0,.079.016.157.016.251v.063c.016.251.016.518.016.785v.047A7.233,7.233,0,0,0,34.134,14.932Z" transform="translate(4.773 1.042)"/><g transform="translate(0 0)"><path class="an" d="M16.41,39.848C25.452,34.641,32.758,21.986,32.726,11.6s-7.369-14.58-16.41-9.357S-.016,20.108,0,30.491C.032,40.89,7.385,45.071,16.41,39.848Z"/></g><g transform="translate(6.987 9.868)"><path class="ao" d="M10.363,19.326a9.014,9.014,0,0,1-3.517,1.256A3.978,3.978,0,0,1,4.1,19.97a4.307,4.307,0,0,1-1.633-2.355L.016,19.028V16.94l2.135-1.225c-.016-.141-.016-.361-.031-.659,0-.3,0-.534.016-.691L0,15.589V13.5l2.449-1.413A16.469,16.469,0,0,1,4.067,7.849,18.066,18.066,0,0,1,6.814,4.065a15.749,15.749,0,0,1,3.5-2.795A8.7,8.7,0,0,1,13.9.014,3.628,3.628,0,0,1,16.58.783l-2.229,3.69c-1.052-.785-2.324-.738-3.847.141a9.006,9.006,0,0,0-2.559,2.23A10.467,10.467,0,0,0,6.218,9.921l5.5-3.172V8.838L5.684,12.324c-.016.157-.016.393-.016.691a6.088,6.088,0,0,0,.031.659l6.029-3.486v2.088l-5.5,3.172a2.187,2.187,0,0,0,1.743,1.068,4.382,4.382,0,0,0,2.559-.738,10.285,10.285,0,0,0,3.831-4.271l2.245,1.1a16.906,16.906,0,0,1-2.685,3.847,15.244,15.244,0,0,1-3.564,2.873" transform="translate(0 0)"/></g></g><g transform="translate(671.782 2699.609)"><g class="e" transform="translate(37.105 27.956) rotate(60)"><path class="w" d="M16.41,39.848C25.452,34.641,32.758,21.986,32.726,11.6s-7.369-14.58-16.41-9.357S-.016,20.108,0,30.491C.032,40.89,7.385,45.071,16.41,39.848Z" transform="translate(0 0)"/></g><g transform="translate(0 0)"><path class="am" d="M34.134,14.932v.141c0,.094-.016.2-.016.3,0,.11-.016.236-.016.345,0,.094-.016.173-.016.267a2.128,2.128,0,0,1-.031.314c0,.063-.016.141-.016.2-.016.157-.031.3-.047.455-.016.094-.016.173-.031.267a.2.2,0,0,1-.016.094c-.031.267-.079.55-.11.816v.016c0,.031-.016.079-.016.11-.031.236-.078.455-.126.691a.369.369,0,0,1-.031.126c-.016.11-.047.22-.063.33-.031.126-.047.267-.078.393-.016.079-.031.141-.047.22a2.969,2.969,0,0,0-.079.361c-.016.094-.047.188-.063.267a2.519,2.519,0,0,0-.079.33c-.031.126-.063.236-.094.361-.016.063-.031.126-.047.173l-.141.471c-.031.11-.063.2-.094.3-.016.031-.016.063-.031.094-.079.283-.173.565-.267.848h0a.119.119,0,0,1-.031.063c-.079.251-.173.5-.267.754-.016.031-.031.079-.047.11a2.1,2.1,0,0,1-.11.283,4.347,4.347,0,0,1-.157.408c-.031.079-.063.173-.094.251-.047.11-.079.2-.126.314l-.094.236c-.063.141-.126.3-.188.44a1.748,1.748,0,0,1-.11.251.223.223,0,0,0-.031.094c-.11.267-.236.534-.361.785,0,.016-.016.016-.016.031-.031.063-.063.141-.094.2-.094.2-.2.408-.3.612l-.047.094c-.078.157-.173.33-.251.487-.063.126-.141.267-.2.393a.216.216,0,0,1-.047.063c-.22.424-.455.848-.707,1.256a.393.393,0,0,1-.063.11.282.282,0,0,1-.079.11c-.345.581-.706,1.146-1.068,1.711a.328.328,0,0,1-.063.094,1.358,1.358,0,0,0-.11.157c-.3.44-.612.879-.926,1.319h0c-.22.3-.455.612-.691.895-.016.016-.016.031-.031.047-.173.22-.345.424-.518.644a.423.423,0,0,1-.11.126v.016c-.2.251-.424.487-.628.738l-.031.031c-.063.079-.126.141-.188.22l-.408.455L24.3,37.1c-.094.094-.188.2-.283.3-.11.11-.2.22-.314.33l-.11.11a2.823,2.823,0,0,1-.314.3c-.094.079-.173.173-.267.267a1.416,1.416,0,0,1-.157.141c-.11.11-.22.2-.33.314-.079.079-.157.141-.236.22-.063.047-.126.11-.188.157-.11.094-.22.2-.33.3a2,2,0,0,1-.2.173c-.079.063-.141.126-.22.188-.11.094-.22.188-.33.267-.063.047-.11.094-.173.141-.094.079-.188.141-.283.22-.11.079-.2.157-.314.236-.047.031-.079.063-.126.094-.126.094-.251.173-.377.267-.094.063-.173.126-.267.188-.016.016-.047.031-.063.047-.236.157-.455.314-.691.455h0c-.016.016-.031.016-.047.031-.2.126-.424.267-.628.393-.047.031-.11.063-.157.094-.173.094-.345.2-.518.283-.063.031-.126.063-.2.094-.094.047-.173.094-.267.141-.063.031-.141.079-.2.11-.11.047-.22.11-.33.157-.079.031-.157.079-.236.11l-.094.047c-.22.094-.44.188-.644.283-.22.094-.44.173-.659.251-.031.016-.063.016-.079.031-.079.031-.157.047-.236.079-.11.031-.22.079-.33.11-.063.016-.11.031-.157.047-.094.031-.188.047-.283.079-.078.016-.141.047-.22.063l-.236.047c-.094.016-.188.047-.283.063a.465.465,0,0,1-.157.031L12.5,44.4l-.33.047c-.031,0-.078.016-.11.016-.094.016-.173.016-.267.031a2.568,2.568,0,0,1-.345.031c-.031,0-.063.016-.11.016H11.1c-.141,0-.283.016-.408.016h-.11a.644.644,0,0,1-.173-.016c-.173,0-.345-.016-.518-.031H9.735c-.031,0-.079-.016-.11-.016-.267-.031-.518-.063-.769-.11a.094.094,0,0,1-.063-.016H8.777a.558.558,0,0,0-.157-.031,3.857,3.857,0,0,1-.455-.11c-.079-.016-.141-.047-.22-.063l-.283-.094c-.031-.016-.047-.016-.063-.031-.141-.047-.283-.11-.424-.173-.063-.031-.141-.063-.2-.094-.2-.094-.408-.2-.612-.314L0,39.77c.2.11.408.22.612.314.063.031.141.063.2.094.141.063.283.126.424.173.126.047.235.079.361.126.078.016.141.047.22.063.157.047.3.078.455.11a.464.464,0,0,0,.157.031c.031,0,.047.016.079.016.251.047.5.079.769.11a1.524,1.524,0,0,0,.267.016c.173.016.345.016.518.031h.3a3.549,3.549,0,0,0,.408-.016c.11,0,.22-.016.345-.016.11-.016.236-.016.345-.031.126-.016.251-.031.393-.047l.33-.047c.141-.031.283-.047.424-.079.094-.016.188-.047.283-.063.157-.031.3-.079.455-.11.094-.031.188-.047.283-.079.173-.047.33-.094.5-.157.079-.031.157-.047.236-.078.487-.173.989-.361,1.492-.6.078-.031.157-.079.235-.11.173-.079.361-.173.534-.267.094-.047.173-.094.267-.141.236-.126.471-.251.707-.393.267-.157.534-.314.8-.487.016-.016.031-.016.047-.031.251-.157.518-.33.769-.5.094-.063.173-.126.267-.188.173-.126.345-.236.5-.361.11-.079.2-.157.314-.236.157-.11.3-.236.455-.361.11-.094.22-.173.33-.267.141-.126.283-.236.424-.361.11-.094.22-.188.33-.3.141-.126.283-.251.408-.377.11-.11.22-.2.33-.314.141-.126.283-.267.424-.408.11-.094.2-.2.3-.3.141-.141.283-.3.424-.44.094-.094.188-.188.283-.3.157-.173.33-.345.487-.534.063-.079.126-.141.188-.22.22-.251.455-.518.659-.785a.423.423,0,0,1,.11-.126c.188-.22.361-.455.55-.675.236-.3.455-.581.675-.879,0-.016.016-.016.016-.031.314-.424.628-.864.926-1.319.063-.079.11-.157.173-.251.377-.565.722-1.13,1.068-1.711.047-.079.094-.157.141-.22.236-.408.471-.832.707-1.256.078-.157.157-.314.251-.471.079-.157.173-.314.251-.487.126-.236.236-.487.345-.722.031-.063.063-.126.094-.2.141-.3.283-.6.408-.911a1.579,1.579,0,0,1,.11-.236c.094-.22.188-.455.283-.675.047-.11.079-.2.126-.314.094-.22.173-.44.251-.659a2.093,2.093,0,0,1,.11-.283c.11-.3.2-.581.314-.879,0-.016.016-.031.016-.063.11-.314.2-.628.3-.942.031-.094.063-.2.094-.3.063-.22.126-.424.188-.644.031-.126.063-.236.094-.361.047-.2.11-.408.157-.6a2.954,2.954,0,0,0,.078-.361c.047-.2.094-.408.126-.628.016-.11.047-.22.063-.33.047-.267.094-.55.141-.816,0-.031.016-.079.016-.11.047-.314.094-.612.126-.926.016-.094.016-.173.031-.251.031-.22.047-.44.063-.659.016-.11.016-.2.031-.314.016-.2.031-.408.031-.628,0-.094.016-.2.016-.3.016-.3.016-.581.016-.879s-.016-.6-.016-.895c0-.079-.016-.157-.016-.251-.016-.2-.031-.408-.047-.6-.016-.11-.016-.22-.031-.33a4.552,4.552,0,0,0-.063-.487c-.016-.126-.031-.236-.047-.361-.031-.157-.047-.3-.079-.44-.031-.126-.047-.267-.079-.393s-.063-.267-.094-.393c-.031-.157-.078-.3-.11-.44-.031-.11-.063-.236-.094-.345-.047-.173-.11-.345-.173-.518-.031-.094-.063-.188-.094-.267-.11-.283-.22-.565-.345-.832a.344.344,0,0,0-.047-.079c-.173-.345-.361-.691-.55-1-.016-.031-.031-.047-.047-.079a8.9,8.9,0,0,0-.534-.738c-.047-.063-.094-.11-.141-.173a5.222,5.222,0,0,0-.565-.612l-.047-.047A5.687,5.687,0,0,0,23.96.6a1.642,1.642,0,0,0-.173-.126A7.107,7.107,0,0,0,23.065,0l6.359,3.69c.251.141.487.314.722.471.063.047.11.079.173.126q.33.259.659.565l.047.047c.188.188.377.408.565.612.047.063.094.11.141.173a8.893,8.893,0,0,1,.534.738l.016.016c.016.016.016.031.031.047a8.722,8.722,0,0,1,.55,1c.016.016.016.031.031.063,0,.016,0,.016.016.031.126.267.235.55.345.832.016.031.016.047.031.079a1.015,1.015,0,0,1,.063.2c.063.173.126.345.173.518l.047.141c.016.063.031.141.047.2a4.512,4.512,0,0,1,.11.44l.047.188c.016.063.031.141.047.2.031.126.047.267.078.393.016.063.031.126.047.2s.016.157.031.236c.016.11.031.236.047.361.016.063.016.126.031.188.016.11.016.2.031.314a2.342,2.342,0,0,1,.031.33c0,.047.016.094.016.141.016.157.016.314.031.455,0,.079.016.157.016.251v.063c.016.251.016.518.016.785v.047A7.233,7.233,0,0,0,34.134,14.932Z" transform="translate(38.589 4.655) rotate(60)"/><g transform="translate(37.105 0) rotate(60)"><path class="an" d="M16.41,39.848C25.452,34.641,32.758,21.986,32.726,11.6s-7.369-14.58-16.41-9.357S-.016,20.108,0,30.491C.032,40.89,7.385,45.071,16.41,39.848Z" transform="translate(0 0)"/></g><g transform="translate(14.883 18.416)"><path class="ap" d="M8.477,208.231l3.157-1.462a2.012,2.012,0,0,1,.468,1.052.79.79,0,0,1-.526.7,2.522,2.522,0,0,1-1.345.175,4.374,4.374,0,0,1-1.754-.468M13.5,203.5a1.755,1.755,0,0,1-.526-1.111.79.79,0,0,1,.526-.7,3.537,3.537,0,0,1,1.4-.234,4.8,4.8,0,0,1,1.812.526L13.5,203.5m10.874-2.689-2.1-1.462-2.514,1.169A13.335,13.335,0,0,0,14.5,198.76a8.547,8.547,0,0,0-4.5.643c-.994.468-1.637,1.052-1.754,1.637a2.429,2.429,0,0,0,.292,1.871,11.04,11.04,0,0,0,1.637,2.163l-3.8,1.812a9.373,9.373,0,0,1-1.637-1.812,5.239,5.239,0,0,1-.76-1.812L0,203.787a4.677,4.677,0,0,0,.994,2.163,12.626,12.626,0,0,0,2.339,2.338L.818,209.458l2.1,1.462L5.5,209.692a13.335,13.335,0,0,0,5.262,1.754A8.328,8.328,0,0,0,15.2,210.8c.994-.468,1.578-.994,1.754-1.637a2.258,2.258,0,0,0-.292-1.812,11.507,11.507,0,0,0-1.637-2.1l3.859-1.812a7.085,7.085,0,0,1,1.988,2.806l3.859-.585a8.234,8.234,0,0,0-2.806-3.625l2.455-1.228" transform="translate(0 -198.703)"/></g></g></g><g transform="translate(912.935 2507.183)"><path class="aq" d="M-5691.509,1129.54l.2.118-.026,9.184,2.512,1.45-.092,32.492-2.513-1.45-.052,18.79-.2-.118.053-18.79-2.513-1.45.092-32.492,2.512,1.45.026-9.184" transform="translate(5722.102 -1119.513)"/><path class="ar" d="M-6014.613,955.182l.2.118-.035,12.34,2.512,1.45-.125,43.615-2.511-1.45-.072,25.239-.2-.118.071-25.239-2.512-1.451.124-43.615,2.512,1.451.036-12.34" transform="translate(6063.799 -955.182)"/><path class="ar" d="M-5530.4,1036.5l.2.118-.026,9.183,2.513,1.451-.064,22.4-2.512-1.45-.029,10.071-.2-.118.028-10.071-2.512-1.451.064-22.4,2.512,1.45.026-9.184" transform="translate(5551.721 -1031.828)"/><path class="ar" d="M-5365.874,1229.744l.2.118,0,1.508,2.512,1.45-.038,13.509-2.512-1.45-.029,10.071-.2-.118.029-10.071-2.512-1.45.038-13.509,2.512,1.45,0-1.508" transform="translate(5377.712 -1213.954)"/><path class="aq" d="M-5204.107,1325.021l.2.118-.011,3.63,2.512,1.45-.017,6.348-2.513-1.45-.066,23.375-.2-.118.066-23.375-2.512-1.45.017-6.348,2.512,1.45.012-3.63" transform="translate(5206.647 -1303.751)"/><path class="aq" d="M-5851.435,1698.884l.2.118-.022,7.934,2.512,1.45-.019,6.348-2.512-1.45-.054,19.072-.2-.118.054-19.072-2.512-1.45.018-6.348,2.513,1.45.022-7.934" transform="translate(5891.216 -1656.113)"/><path class="aq" d="M-5691.509,1129.54l.2.118-.026,9.184,2.512,1.45-.092,12.326-2.513-1.45-.052,38.955-.2-.118.053-38.955-2.513-1.451.092-12.326,2.512,1.45.026-9.184" transform="translate(5778.565 -1087.92)"/><path class="aq" d="M-6014.613,1005.182l.2.118-.035,12.34,2.512,1.45-.125,10.005-2.511-1.45-.072,25.239-.2-.118.071-25.239-2.512-1.451.124-10.005,2.512,1.451.036-12.34" transform="translate(6120.262 -939.98)"/><path class="aq" d="M-5530.4,1036.5l.2.118-.026,9.183,2.513,1.451-.064,22.4-2.512-1.45-.029,10.071-.2-.118.028-10.071-2.512-1.451.064-22.4,2.512,1.45.026-9.184" transform="translate(5608.185 -1000.235)"/><path class="ar" d="M-5365.874,1229.744l.2.118,0,1.508,2.512,1.45-.038,13.509-2.512-1.45-.029,10.071-.2-.118.029-10.071-2.512-1.45.038-13.509,2.512,1.45,0-1.508" transform="translate(5434.176 -1182.361)"/><path class="ar" d="M-5204.107,1325.021l.2.118-.011,3.63,2.512,1.45-.017,6.348-2.513-1.45-.066,23.375-.2-.118.066-23.375-2.512-1.45.017-6.348,2.512,1.45.012-3.63" transform="translate(5263.111 -1272.158)"/><path class="aq" d="M-5851.435,1698.884l.2.118-.022,7.934,2.512,1.45-.019,6.348-2.512-1.45-.054,19.072-.2-.118.054-19.072-2.512-1.45.018-6.348,2.513,1.45.022-7.934" transform="translate(5947.68 -1624.52)"/></g><path class="as" d="M141.65,432.03v4.312L93.6,408.612l.034-4.312Z" transform="translate(836.199 2065.338)"/><path class="at" d="M141.65,432.03v4.312L93.6,408.612l.034-4.312Z" transform="translate(940.161 2199.003)"/><path class="au" d="M141.65,432.03v4.312L93.6,408.612l.034-4.312Z" transform="translate(940.161 2220.844)"/><path class="as" d="M120.633,419.9v2.426L93.6,406.726l.019-2.426Z" transform="translate(836.199 2072.327)"/><path class="at" d="M120.633,419.9v2.426L93.6,406.726l.019-2.426Z" transform="translate(940.161 2205.992)"/><path class="av" d="M12427.865,19529.865l-29.359-16.932-.125,48.174,29.359,16.971Zm-31.029-17.891-29.359-16.979-.126,48.217,29.362,16.932Z" transform="translate(-11333.29 -16957.99)"/><g transform="translate(1067.568 2573.475)"><path class="f" d="M-5693.032,1129.54l.085.05-.01,3.867,1.058.611-.039,13.682-1.058-.611-.022,7.912-.086-.05.023-7.912-1.059-.611.039-13.682,1.058.611.011-3.867" transform="translate(5705.915 -1125.318)"/><path class="f" d="M-6016.159,955.182l.085.05-.014,5.2,1.058.611-.052,18.366-1.058-.611-.03,10.628-.086-.05.03-10.628-1.058-.611.052-18.366,1.058.611.015-5.2" transform="translate(6036.871 -955.182)"/><path class="f" d="M-5531.9,1036.5l.086.05-.011,3.867,1.058.611-.027,9.431-1.058-.611-.012,4.241-.086-.05.012-4.241-1.058-.611.027-9.431,1.057.611.011-3.867" transform="translate(5540.882 -1034.535)"/><path class="f" d="M-5367.353,1229.744l.086.05,0,.635,1.058.611-.016,5.689-1.058-.611-.012,4.241-.085-.05.012-4.241-1.058-.611.016-5.689,1.058.611,0-.635" transform="translate(5372.338 -1223.095)"/><path class="f" d="M-5205.577,1325.021l.085.05,0,1.529,1.058.611-.008,2.673-1.058-.611-.028,9.843-.086-.05.028-9.843-1.058-.611.007-2.673,1.058.611.006-1.529" transform="translate(5206.647 -1316.064)"/><path class="f" d="M-5852.913,1698.884l.086.05-.01,3.341,1.058.611-.008,2.673-1.057-.611-.023,8.031-.086-.05.022-8.031-1.058-.611.007-2.673,1.058.611.009-3.341" transform="translate(5869.664 -1680.874)"/></g><g transform="translate(1209.544 2677.455)"><g transform="translate(83.527 47.765) rotate(120)"><path class="aw" d="M50.5,30.662c0-.048-.006-.1-.006-.144,0-.1-.009-.205-.013-.308-.007-.122-.01-.241-.016-.363-.006-.093-.016-.186-.023-.279-.01-.109-.016-.215-.026-.324-.006-.071-.01-.144-.016-.215-.016-.154-.035-.311-.051-.465l-.029-.27-.009-.09c-.035-.283-.077-.565-.122-.848,0-.006,0-.013,0-.019l-.019-.116c-.039-.241-.08-.478-.125-.719-.006-.042-.016-.083-.026-.125-.022-.112-.045-.228-.071-.34-.029-.138-.055-.276-.084-.414-.016-.077-.035-.151-.054-.228-.029-.125-.058-.247-.087-.372-.022-.093-.042-.189-.067-.283-.029-.112-.061-.225-.09-.337s-.064-.247-.1-.372l-.048-.183c-.045-.161-.093-.321-.141-.485-.032-.106-.061-.212-.093-.318-.01-.029-.016-.061-.026-.09-.09-.292-.183-.581-.279-.873a.011.011,0,0,0,0-.006A.666.666,0,0,0,48.851,22c-.087-.26-.177-.52-.273-.78-.013-.039-.029-.08-.045-.119-.035-.1-.071-.193-.109-.286-.051-.138-.1-.279-.157-.417-.035-.087-.071-.173-.106-.263-.042-.106-.087-.215-.128-.321-.032-.077-.061-.157-.1-.238-.064-.154-.132-.3-.2-.459-.035-.087-.074-.17-.109-.257-.013-.029-.026-.061-.038-.09-.122-.273-.244-.546-.372-.819,0-.01-.01-.019-.013-.029-.035-.074-.071-.144-.1-.215-.1-.215-.205-.427-.312-.642-.016-.032-.032-.064-.048-.093-.084-.17-.174-.337-.26-.5-.071-.138-.138-.276-.212-.411-.013-.026-.029-.048-.042-.074-.234-.437-.478-.87-.729-1.3-.022-.035-.042-.074-.061-.109s-.051-.08-.077-.122q-.534-.9-1.111-1.772c-.019-.032-.038-.064-.061-.1-.035-.055-.074-.1-.109-.157q-.467-.693-.957-1.364h0s0-.006-.006-.006c-.235-.315-.469-.626-.713-.934l-.032-.042c-.177-.222-.353-.443-.533-.661-.035-.045-.074-.09-.109-.135,0,0,0-.006-.006-.01-.215-.257-.43-.514-.652-.761-.01-.013-.022-.022-.032-.035-.067-.077-.135-.151-.2-.225-.141-.157-.279-.315-.421-.465-.026-.029-.055-.055-.08-.083-.1-.1-.193-.2-.292-.3s-.212-.225-.318-.334c-.039-.042-.08-.077-.119-.119-.106-.106-.212-.212-.318-.315-.09-.09-.18-.18-.273-.27-.051-.048-.106-.1-.157-.144-.115-.109-.231-.215-.346-.321-.08-.074-.157-.151-.238-.222-.061-.058-.125-.109-.189-.167-.116-.1-.231-.2-.347-.3-.071-.061-.141-.125-.212-.186s-.154-.125-.231-.189l-.34-.279c-.061-.048-.119-.1-.177-.144-.1-.077-.2-.148-.292-.222s-.212-.164-.318-.244c-.045-.032-.087-.067-.129-.1-.132-.1-.263-.186-.395-.279l-.27-.193c-.023-.016-.045-.032-.071-.048-.237-.164-.475-.321-.716-.472,0,0,0,0-.007,0l-.051-.032c-.218-.138-.437-.273-.655-.4-.055-.032-.109-.064-.167-.1-.18-.1-.36-.2-.536-.3l-.2-.106c-.09-.048-.183-.1-.273-.141-.071-.035-.144-.077-.215-.112-.112-.058-.225-.106-.34-.161L31.9,1.384l-.1-.048c-.225-.1-.453-.2-.674-.286S30.674.873,30.45.793L30.363.764c-.08-.029-.161-.051-.241-.08-.116-.039-.231-.077-.347-.112l-.17-.048c-.1-.029-.2-.055-.3-.083-.077-.019-.154-.045-.228-.064S28.922.34,28.841.324l-.3-.067c-.052-.01-.106-.026-.157-.035C28.3.2,28.2.193,28.113.177,28,.157,27.885.138,27.772.122,27.734.116,27.692.106,27.65.1c-.093-.013-.186-.019-.279-.029-.122-.013-.244-.029-.363-.039-.035,0-.071-.01-.106-.01-.083-.006-.164,0-.244-.01C26.514.01,26.373,0,26.231,0c-.038,0-.08,0-.122,0-.061,0-.122.006-.183.01-.18,0-.356.013-.53.026-.051,0-.109,0-.161.006s-.077.013-.115.016c-.27.029-.533.064-.793.116l-.064.01a.139.139,0,0,0-.016,0c-.054.01-.106.026-.161.039-.16.035-.318.074-.475.116-.077.022-.151.048-.225.071-.1.032-.2.061-.3.093l-.074.029c-.151.055-.3.119-.446.183-.071.032-.145.058-.215.093-.215.1-.427.209-.629.327L0,14.027c.205-.119.414-.228.629-.327.071-.032.145-.061.215-.093.148-.064.3-.125.446-.183.122-.045.247-.083.372-.125.077-.022.151-.048.225-.071.157-.045.315-.08.475-.116l.161-.039a.65.65,0,0,1,.084-.013c.26-.051.523-.087.79-.116.09-.01.183-.016.276-.026.173-.013.353-.022.53-.026.1,0,.2-.006.3,0,.141,0,.283.006.427.013.116.006.234.01.353.019s.241.022.363.039.266.029.4.048c.112.016.225.035.34.055.144.026.289.051.433.08.1.019.2.042.3.064.154.035.312.074.469.116.1.026.2.055.3.083.17.048.343.1.517.161.08.026.161.051.241.08.507.173,1.021.382,1.544.62.08.035.161.077.244.116.183.087.369.177.555.27.09.045.183.093.273.141.244.128.491.263.738.4.276.161.552.327.825.5l.048.029c.267.17.53.347.793.526.09.061.18.128.27.193.176.125.35.25.523.379l.318.241c.157.122.315.244.472.369.112.09.228.183.34.279q.221.183.443.376c.116.1.231.2.347.3.144.128.289.257.43.388.116.106.231.212.344.321.144.138.289.276.43.417.106.1.212.209.318.311.148.151.3.3.44.456.1.1.193.2.289.3.17.18.334.366.5.549.068.074.135.148.2.225.234.266.466.533.69.806.038.045.074.09.109.135.189.231.379.466.565.7.238.3.469.607.7.918.006.01.013.016.019.026.327.446.645.9.957,1.361.058.083.116.17.17.254q.578.872,1.111,1.769l.138.234c.25.43.495.86.729,1.3.087.161.17.324.254.485s.173.334.257.5c.125.247.244.5.363.745.032.067.067.138.1.205.148.311.289.626.427.941.035.083.071.167.109.25.1.234.2.465.3.7.042.106.087.212.129.318.09.228.177.453.263.681.035.1.074.193.109.286.112.3.218.607.321.909a.478.478,0,0,0,.023.061q.164.486.308.973c.032.106.061.209.09.311.064.225.129.446.19.671.032.122.064.247.1.369.055.209.106.417.157.626.029.122.058.247.087.369.048.215.093.43.138.642.022.112.048.225.067.337.055.283.106.565.151.848.006.039.013.077.019.112.051.321.093.639.135.957.01.09.019.18.029.266.026.228.048.456.071.684.01.109.016.215.026.324q.024.323.038.645c.007.1.01.205.013.3.01.3.019.607.016.905,0,.315-.01.623-.022.928,0,.087-.01.17-.016.254-.013.209-.026.417-.045.62-.01.119-.022.231-.035.347-.019.173-.038.344-.061.51-.016.125-.035.247-.055.366-.026.154-.051.308-.08.459-.026.135-.051.27-.08.4s-.061.27-.093.4c-.039.157-.077.308-.119.462-.032.119-.067.238-.1.353-.054.183-.115.36-.177.536-.032.093-.064.189-.1.283-.113.3-.231.581-.36.857-.013.029-.029.058-.045.09a10.6,10.6,0,0,1-.571,1.037c-.016.026-.032.055-.048.077-.173.27-.356.52-.549.764-.045.058-.093.116-.141.173a8.521,8.521,0,0,1-.581.639c-.016.016-.029.032-.042.045a8.326,8.326,0,0,1-.677.584l-.17.132a8.064,8.064,0,0,1-.742.494L45.609,42.226a8.068,8.068,0,0,0,.742-.494c.058-.042.116-.087.17-.132a8.37,8.37,0,0,0,.678-.584c.016-.016.029-.032.042-.045a8.468,8.468,0,0,0,.581-.639c.048-.058.093-.112.141-.173.193-.244.376-.494.549-.764a.145.145,0,0,0,.016-.022.485.485,0,0,1,.032-.055,10.741,10.741,0,0,0,.574-1.04c.01-.019.023-.039.032-.058a.114.114,0,0,1,.013-.029c.128-.276.25-.562.359-.857.01-.026.023-.048.032-.074.026-.067.045-.141.071-.209.061-.177.122-.353.177-.536.016-.048.032-.093.048-.141.019-.067.035-.141.054-.212.042-.151.084-.3.122-.462.016-.064.035-.125.048-.189s.029-.144.042-.215c.029-.135.055-.27.08-.4.013-.071.029-.135.042-.205l.039-.25c.019-.122.038-.244.055-.366.01-.064.019-.122.029-.186.013-.106.022-.215.032-.324s.026-.231.035-.347c0-.048.01-.093.016-.141.013-.157.019-.318.029-.475.006-.087.013-.17.016-.257,0-.019,0-.042,0-.061.013-.266.019-.539.019-.815v-.048C50.514,31.169,50.511,30.916,50.5,30.662Z" transform="translate(11.526 0)"/><g transform="translate(0 12.66)"><path class="ax" d="M35.805,31.041c0-.049-.006-.1-.006-.146,0-.1-.01-.208-.013-.312-.006-.124-.01-.244-.016-.367-.006-.094-.016-.189-.023-.283-.01-.111-.016-.218-.026-.328-.007-.072-.01-.146-.016-.218-.016-.156-.036-.315-.052-.471l-.029-.273c0-.029-.006-.062-.01-.091-.036-.286-.078-.572-.123-.858,0-.007,0-.013,0-.019l-.019-.117c-.039-.244-.081-.484-.127-.728-.007-.042-.016-.085-.026-.127-.023-.114-.045-.231-.072-.345-.029-.14-.055-.279-.084-.419-.016-.078-.036-.153-.055-.231-.029-.127-.059-.25-.088-.377-.023-.094-.042-.192-.068-.286-.029-.114-.062-.228-.091-.341s-.065-.25-.1-.377l-.049-.185c-.045-.162-.094-.325-.143-.491-.032-.107-.062-.215-.094-.322-.01-.029-.016-.062-.026-.091-.091-.3-.185-.588-.283-.884a.011.011,0,0,0,0-.007.623.623,0,0,0-.026-.072c-.088-.263-.179-.527-.276-.79-.013-.039-.029-.081-.045-.12-.036-.1-.071-.2-.11-.289-.052-.14-.1-.283-.159-.423-.036-.088-.071-.176-.107-.267-.042-.107-.088-.218-.13-.325-.033-.078-.062-.159-.1-.241-.065-.156-.133-.309-.2-.465-.036-.088-.075-.172-.11-.26-.013-.029-.026-.062-.039-.091-.124-.276-.247-.553-.377-.829,0-.01-.01-.02-.013-.029-.036-.075-.072-.146-.1-.218-.1-.218-.208-.432-.315-.65-.016-.032-.032-.065-.049-.094-.085-.172-.176-.341-.263-.51-.072-.14-.14-.28-.215-.416-.013-.026-.029-.049-.042-.075q-.356-.663-.738-1.316c-.023-.036-.042-.075-.062-.11s-.052-.081-.078-.124q-.541-.912-1.125-1.794c-.019-.033-.039-.065-.062-.1-.036-.055-.075-.1-.11-.159q-.473-.7-.969-1.381h0s0-.007-.006-.007c-.237-.319-.474-.634-.721-.946l-.033-.042c-.179-.224-.358-.449-.54-.67-.036-.046-.075-.091-.11-.137,0,0,0-.006-.007-.01-.218-.26-.435-.52-.66-.77-.01-.013-.023-.023-.032-.036-.068-.078-.137-.153-.2-.228-.143-.159-.283-.319-.426-.471-.026-.029-.055-.055-.081-.084-.1-.1-.2-.2-.3-.309s-.215-.228-.322-.338c-.039-.042-.081-.078-.12-.12-.107-.107-.215-.214-.322-.319-.091-.091-.182-.182-.276-.273-.052-.049-.107-.1-.159-.146-.117-.111-.234-.218-.351-.325-.081-.075-.159-.153-.24-.224-.062-.059-.127-.11-.192-.169-.117-.1-.234-.2-.351-.309-.072-.062-.143-.127-.215-.189s-.156-.127-.234-.192L22.1,4.609c-.062-.049-.12-.1-.179-.146-.1-.078-.2-.15-.3-.224s-.215-.166-.322-.247c-.046-.033-.088-.068-.13-.1-.133-.1-.267-.189-.4-.283l-.273-.2c-.023-.016-.046-.033-.072-.049-.24-.166-.481-.325-.725-.478,0,0,0,0-.007,0l-.052-.033c-.221-.14-.442-.276-.663-.406-.055-.033-.11-.065-.169-.1-.182-.1-.364-.2-.543-.3l-.2-.107c-.091-.049-.185-.1-.276-.143-.072-.036-.146-.078-.218-.114-.114-.059-.227-.107-.345-.163L16.978,1.4l-.1-.049c-.227-.1-.458-.2-.682-.289S15.733.884,15.506.8L15.418.774c-.081-.029-.162-.052-.244-.081-.117-.039-.234-.078-.351-.114L14.651.53c-.1-.029-.2-.055-.3-.085C14.271.426,14.193.4,14.118.38s-.159-.036-.24-.052l-.3-.068c-.052-.01-.107-.026-.159-.036C13.325.2,13.231.2,13.14.179,13.026.159,12.909.14,12.8.124c-.039-.007-.081-.016-.124-.02-.094-.013-.188-.02-.283-.029-.123-.013-.247-.029-.367-.039-.036,0-.072-.01-.107-.01-.085-.007-.166,0-.247-.01C11.521.01,11.378,0,11.235,0c-.039,0-.081,0-.124,0-.062,0-.124.006-.185.01-.182,0-.361.013-.536.026-.052,0-.111,0-.162.006s-.078.013-.117.016c-.273.029-.54.065-.8.117l-.065.01a.141.141,0,0,0-.016,0C9.172.2,9.12.215,9.064.228,8.9.263,8.743.3,8.583.345c-.078.023-.153.049-.227.072-.1.033-.2.062-.306.094L7.976.54c-.153.055-.3.12-.452.185-.072.033-.146.059-.218.094-.218.1-.432.211-.637.332L0,5.025c.208-.12.419-.231.637-.332.072-.032.146-.062.218-.094.15-.065.3-.127.452-.185.124-.046.25-.085.377-.127.078-.023.153-.049.227-.071.159-.046.318-.081.481-.117l.162-.039a.658.658,0,0,1,.085-.013c.263-.052.53-.088.8-.117.091-.01.185-.016.28-.026.176-.013.357-.023.536-.026.1,0,.2-.006.309,0,.143,0,.286.006.432.013.117.007.237.01.357.02s.244.023.367.039.27.029.406.049c.114.016.227.036.345.055.146.026.292.052.439.081.1.02.2.042.3.065.156.036.315.075.475.117.1.026.2.055.3.085.172.049.348.1.523.163.081.026.163.052.244.081.514.176,1.034.387,1.563.627.081.036.163.078.247.117.185.088.374.179.562.273.091.045.185.094.276.143.247.13.5.267.747.41.28.163.559.332.835.507l.049.029c.27.172.536.351.8.533.091.062.182.13.273.2.179.127.354.254.53.384l.322.244c.159.124.319.247.478.374.114.091.231.185.345.283q.224.185.448.38c.117.1.234.2.351.306.146.13.292.26.435.393.117.107.234.215.348.325.146.14.292.28.435.423.107.1.215.211.322.315.149.153.3.306.445.462.1.1.2.2.292.309.172.182.338.371.507.556.068.075.136.15.2.228.237.27.471.54.7.816.039.045.075.091.111.137.192.234.383.471.572.712.24.306.474.614.708.93.006.01.013.016.02.026.331.452.653.913.968,1.378.059.085.117.172.172.257q.585.882,1.125,1.791l.14.237c.253.436.5.871.738,1.316.088.163.172.328.257.491s.176.338.26.507c.127.25.247.5.367.754.033.068.068.14.1.208.149.315.292.634.432.952.036.084.071.169.11.253.1.237.2.471.3.709.042.107.088.214.13.322.091.231.179.458.267.689.036.1.075.2.111.289.114.306.221.614.325.92a.481.481,0,0,0,.023.062q.166.492.312.985c.033.107.062.211.091.315.065.228.13.452.192.679.032.124.065.25.1.374.055.211.107.423.159.634.029.124.058.25.088.374.049.218.094.436.14.65.023.114.049.228.068.341.055.286.107.572.153.858.007.039.013.078.02.114.052.325.094.647.136.969.01.091.02.182.029.27.026.231.049.462.071.692.01.111.016.218.026.328q.024.327.039.653c.006.1.01.208.013.309.01.309.02.614.016.917,0,.319-.01.631-.023.939,0,.088-.01.172-.016.257-.013.211-.026.423-.046.627-.01.12-.023.234-.036.351-.019.175-.039.348-.062.517-.016.127-.036.25-.055.371-.026.156-.052.312-.081.465-.026.137-.052.273-.081.41s-.062.273-.094.41c-.039.159-.078.312-.12.468-.032.12-.068.24-.1.357-.055.185-.117.364-.179.543-.033.094-.065.192-.1.286-.114.3-.234.588-.364.868-.013.029-.029.059-.046.091a10.776,10.776,0,0,1-.579,1.05c-.016.026-.032.055-.049.078-.176.273-.361.526-.556.774-.046.059-.094.117-.143.175a8.629,8.629,0,0,1-.588.647c-.016.016-.029.033-.042.046a8.446,8.446,0,0,1-.686.591l-.172.133a8.152,8.152,0,0,1-.751.5l6.669-3.874a8.137,8.137,0,0,0,.751-.5c.059-.042.117-.088.172-.133a8.43,8.43,0,0,0,.686-.592c.016-.016.029-.032.042-.046a8.629,8.629,0,0,0,.588-.647c.049-.059.094-.114.143-.176.2-.247.38-.5.556-.774a.141.141,0,0,0,.016-.023.505.505,0,0,1,.033-.055,10.841,10.841,0,0,0,.582-1.053c.01-.02.023-.039.033-.059a.115.115,0,0,1,.013-.029c.13-.28.254-.569.364-.868.01-.026.023-.049.032-.075.026-.068.045-.143.071-.211.062-.179.124-.358.179-.543.016-.049.032-.094.049-.143.02-.068.036-.143.055-.214.042-.153.084-.309.124-.468.016-.065.036-.127.049-.192s.029-.146.042-.218c.029-.136.055-.273.081-.41.013-.071.029-.136.042-.208l.039-.254c.02-.124.039-.247.055-.37.01-.065.02-.124.029-.189.013-.107.023-.218.033-.328s.026-.234.036-.351c0-.049.01-.094.016-.143.013-.159.02-.322.029-.481.006-.088.013-.172.016-.26,0-.019,0-.042,0-.062.013-.27.019-.546.019-.826V31.8C35.818,31.554,35.815,31.3,35.805,31.041Z" transform="translate(4.992 0)"/><g transform="translate(0 3.769)"><path class="ay" d="M17.235,2.356c9.487,5.478,17.15,18.756,17.12,29.656s-7.744,15.3-17.232,9.824S-.033,23.081,0,12.177,7.748-3.122,17.235,2.356Z" transform="translate(0 0)"/></g></g></g><g transform="translate(72.742 23.895) rotate(120)"><path class="az" d="M35.805,31.041c0-.049-.006-.1-.006-.146,0-.1-.01-.208-.013-.312-.006-.124-.01-.244-.016-.367-.006-.094-.016-.189-.023-.283-.01-.111-.016-.218-.026-.328-.007-.072-.01-.146-.016-.218-.016-.156-.036-.315-.052-.471l-.029-.273c0-.029-.006-.062-.01-.091-.036-.286-.078-.572-.123-.858,0-.007,0-.013,0-.019l-.019-.117c-.039-.244-.081-.484-.127-.728-.007-.042-.016-.085-.026-.127-.023-.114-.045-.231-.072-.345-.029-.14-.055-.279-.084-.419-.016-.078-.036-.153-.055-.231-.029-.127-.059-.25-.088-.377-.023-.094-.042-.192-.068-.286-.029-.114-.062-.228-.091-.341s-.065-.25-.1-.377l-.049-.185c-.045-.162-.094-.325-.143-.491-.032-.107-.062-.215-.094-.322-.01-.029-.016-.062-.026-.091-.091-.3-.185-.588-.283-.884a.011.011,0,0,0,0-.007.623.623,0,0,0-.026-.072c-.088-.263-.179-.527-.276-.79-.013-.039-.029-.081-.045-.12-.036-.1-.071-.2-.11-.289-.052-.14-.1-.283-.159-.423-.036-.088-.071-.176-.107-.267-.042-.107-.088-.218-.13-.325-.033-.078-.062-.159-.1-.241-.065-.156-.133-.309-.2-.465-.036-.088-.075-.172-.11-.26-.013-.029-.026-.062-.039-.091-.124-.276-.247-.553-.377-.829,0-.01-.01-.02-.013-.029-.036-.075-.072-.146-.1-.218-.1-.218-.208-.432-.315-.65-.016-.032-.032-.065-.049-.094-.085-.172-.176-.341-.263-.51-.072-.14-.14-.28-.215-.416-.013-.026-.029-.049-.042-.075q-.356-.663-.738-1.316c-.023-.036-.042-.075-.062-.11s-.052-.081-.078-.124q-.541-.912-1.125-1.794c-.019-.033-.039-.065-.062-.1-.036-.055-.075-.1-.11-.159q-.473-.7-.969-1.381h0s0-.007-.006-.007c-.237-.319-.474-.634-.721-.946l-.033-.042c-.179-.224-.358-.449-.54-.67-.036-.046-.075-.091-.11-.137,0,0,0-.006-.007-.01-.218-.26-.435-.52-.66-.77-.01-.013-.023-.023-.032-.036-.068-.078-.137-.153-.2-.228-.143-.159-.283-.319-.426-.471-.026-.029-.055-.055-.081-.084-.1-.1-.2-.2-.3-.309s-.215-.228-.322-.338c-.039-.042-.081-.078-.12-.12-.107-.107-.215-.214-.322-.319-.091-.091-.182-.182-.276-.273-.052-.049-.107-.1-.159-.146-.117-.111-.234-.218-.351-.325-.081-.075-.159-.153-.24-.224-.062-.059-.127-.11-.192-.169-.117-.1-.234-.2-.351-.309-.072-.062-.143-.127-.215-.189s-.156-.127-.234-.192L22.1,4.609c-.062-.049-.12-.1-.179-.146-.1-.078-.2-.15-.3-.224s-.215-.166-.322-.247c-.046-.033-.088-.068-.13-.1-.133-.1-.267-.189-.4-.283l-.273-.2c-.023-.016-.046-.033-.072-.049-.24-.166-.481-.325-.725-.478,0,0,0,0-.007,0l-.052-.033c-.221-.14-.442-.276-.663-.406-.055-.033-.11-.065-.169-.1-.182-.1-.364-.2-.543-.3l-.2-.107c-.091-.049-.185-.1-.276-.143-.072-.036-.146-.078-.218-.114-.114-.059-.227-.107-.345-.163L16.978,1.4l-.1-.049c-.227-.1-.458-.2-.682-.289S15.733.884,15.506.8L15.418.774c-.081-.029-.162-.052-.244-.081-.117-.039-.234-.078-.351-.114L14.651.53c-.1-.029-.2-.055-.3-.085C14.271.426,14.193.4,14.118.38s-.159-.036-.24-.052l-.3-.068c-.052-.01-.107-.026-.159-.036C13.325.2,13.231.2,13.14.179,13.026.159,12.909.14,12.8.124c-.039-.007-.081-.016-.124-.02-.094-.013-.188-.02-.283-.029-.123-.013-.247-.029-.367-.039-.036,0-.072-.01-.107-.01-.085-.007-.166,0-.247-.01C11.521.01,11.378,0,11.235,0c-.039,0-.081,0-.124,0-.062,0-.124.006-.185.01-.182,0-.361.013-.536.026-.052,0-.111,0-.162.006s-.078.013-.117.016c-.273.029-.54.065-.8.117l-.065.01a.141.141,0,0,0-.016,0C9.172.2,9.12.215,9.064.228,8.9.263,8.743.3,8.583.345c-.078.023-.153.049-.227.072-.1.033-.2.062-.306.094L7.976.54c-.153.055-.3.12-.452.185-.072.033-.146.059-.218.094-.218.1-.432.211-.637.332L0,5.025c.208-.12.419-.231.637-.332.072-.032.146-.062.218-.094.15-.065.3-.127.452-.185.124-.046.25-.085.377-.127.078-.023.153-.049.227-.071.159-.046.318-.081.481-.117l.162-.039a.658.658,0,0,1,.085-.013c.263-.052.53-.088.8-.117.091-.01.185-.016.28-.026.176-.013.357-.023.536-.026.1,0,.2-.006.309,0,.143,0,.286.006.432.013.117.007.237.01.357.02s.244.023.367.039.27.029.406.049c.114.016.227.036.345.055.146.026.292.052.439.081.1.02.2.042.3.065.156.036.315.075.475.117.1.026.2.055.3.085.172.049.348.1.523.163.081.026.163.052.244.081.514.176,1.034.387,1.563.627.081.036.163.078.247.117.185.088.374.179.562.273.091.045.185.094.276.143.247.13.5.267.747.41.28.163.559.332.835.507l.049.029c.27.172.536.351.8.533.091.062.182.13.273.2.179.127.354.254.53.384l.322.244c.159.124.319.247.478.374.114.091.231.185.345.283q.224.185.448.38c.117.1.234.2.351.306.146.13.292.26.435.393.117.107.234.215.348.325.146.14.292.28.435.423.107.1.215.211.322.315.149.153.3.306.445.462.1.1.2.2.292.309.172.182.338.371.507.556.068.075.136.15.2.228.237.27.471.54.7.816.039.045.075.091.111.137.192.234.383.471.572.712.24.306.474.614.708.93.006.01.013.016.02.026.331.452.653.913.968,1.378.059.085.117.172.172.257q.585.882,1.125,1.791l.14.237c.253.436.5.871.738,1.316.088.163.172.328.257.491s.176.338.26.507c.127.25.247.5.367.754.033.068.068.14.1.208.149.315.292.634.432.952.036.084.071.169.11.253.1.237.2.471.3.709.042.107.088.214.13.322.091.231.179.458.267.689.036.1.075.2.111.289.114.306.221.614.325.92a.481.481,0,0,0,.023.062q.166.492.312.985c.033.107.062.211.091.315.065.228.13.452.192.679.032.124.065.25.1.374.055.211.107.423.159.634.029.124.058.25.088.374.049.218.094.436.14.65.023.114.049.228.068.341.055.286.107.572.153.858.007.039.013.078.02.114.052.325.094.647.136.969.01.091.02.182.029.27.026.231.049.462.071.692.01.111.016.218.026.328q.024.327.039.653c.006.1.01.208.013.309.01.309.02.614.016.917,0,.319-.01.631-.023.939,0,.088-.01.172-.016.257-.013.211-.026.423-.046.627-.01.12-.023.234-.036.351-.019.175-.039.348-.062.517-.016.127-.036.25-.055.371-.026.156-.052.312-.081.465-.026.137-.052.273-.081.41s-.062.273-.094.41c-.039.159-.078.312-.12.468-.032.12-.068.24-.1.357-.055.185-.117.364-.179.543-.033.094-.065.192-.1.286-.114.3-.234.588-.364.868-.013.029-.029.059-.046.091a10.776,10.776,0,0,1-.579,1.05c-.016.026-.032.055-.049.078-.176.273-.361.526-.556.774-.046.059-.094.117-.143.175a8.629,8.629,0,0,1-.588.647c-.016.016-.029.033-.042.046a8.446,8.446,0,0,1-.686.591l-.172.133a8.152,8.152,0,0,1-.751.5l6.669-3.874a8.137,8.137,0,0,0,.751-.5c.059-.042.117-.088.172-.133a8.43,8.43,0,0,0,.686-.592c.016-.016.029-.032.042-.046a8.629,8.629,0,0,0,.588-.647c.049-.059.094-.114.143-.176.2-.247.38-.5.556-.774a.141.141,0,0,0,.016-.023.505.505,0,0,1,.033-.055,10.841,10.841,0,0,0,.582-1.053c.01-.02.023-.039.033-.059a.115.115,0,0,1,.013-.029c.13-.28.254-.569.364-.868.01-.026.023-.049.032-.075.026-.068.045-.143.071-.211.062-.179.124-.358.179-.543.016-.049.032-.094.049-.143.02-.068.036-.143.055-.214.042-.153.084-.309.124-.468.016-.065.036-.127.049-.192s.029-.146.042-.218c.029-.136.055-.273.081-.41.013-.071.029-.136.042-.208l.039-.254c.02-.124.039-.247.055-.37.01-.065.02-.124.029-.189.013-.107.023-.218.033-.328s.026-.234.036-.351c0-.049.01-.094.016-.143.013-.159.02-.322.029-.481.006-.088.013-.172.016-.26,0-.019,0-.042,0-.062.013-.27.019-.546.019-.826V31.8C35.818,31.554,35.815,31.3,35.805,31.041Z" transform="translate(4.992 0)"/><g transform="translate(0 3.744)"><path class="ba" d="M17.178,2.349c9.456,5.46,17.093,18.693,17.064,29.558S26.523,47.157,17.067,41.7-.033,23,0,12.137,7.722-3.111,17.178,2.349Z" transform="translate(0 0)"/></g></g><g transform="translate(28.58 19.446)"><path class="bb" d="M8.8,208.595l3.278-1.517a2.089,2.089,0,0,1,.486,1.093.821.821,0,0,1-.546.728,2.619,2.619,0,0,1-1.4.182,4.542,4.542,0,0,1-1.821-.486m5.22-4.916a1.822,1.822,0,0,1-.546-1.153.821.821,0,0,1,.546-.728,3.673,3.673,0,0,1,1.457-.243,4.987,4.987,0,0,1,1.882.546l-3.338,1.578m11.29-2.792-2.185-1.517-2.61,1.214a13.845,13.845,0,0,0-5.463-1.821,8.873,8.873,0,0,0-4.674.668c-1.032.486-1.7,1.093-1.821,1.7a2.522,2.522,0,0,0,.3,1.942,11.461,11.461,0,0,0,1.7,2.246L6.616,207.2a9.732,9.732,0,0,1-1.7-1.882,5.439,5.439,0,0,1-.789-1.882L0,203.982a4.856,4.856,0,0,0,1.032,2.246,13.109,13.109,0,0,0,2.428,2.428L.85,209.869l2.185,1.517,2.671-1.275a13.845,13.845,0,0,0,5.463,1.821,8.645,8.645,0,0,0,4.613-.668c1.032-.486,1.639-1.032,1.821-1.7a2.344,2.344,0,0,0-.3-1.882,11.948,11.948,0,0,0-1.7-2.185l4.006-1.882a7.355,7.355,0,0,1,2.064,2.913l4.006-.607a8.548,8.548,0,0,0-2.913-3.763l2.549-1.275" transform="translate(0 -198.703)"/></g></g><path class="d" d="M3154.441,141.255l-60.39-34.895-.166-185.229,60.349,33.746-.124,1.315L3214.074-78.7l.332,185.063Z" transform="translate(-1900.19 2640.851)"/><g transform="translate(630.486 2667.674)"><path class="bc" d="M-5391.035,489.008l-.035,26.214-76.982,44.737.035-26.214Z" transform="translate(5468.051 -489.008)"/></g><g transform="translate(553 2667.675)"><path class="bd" d="M-5493.771,533.745l-.035,26.214-77.486-44.737.035-26.214Z" transform="translate(5571.292 -489.009)"/></g><g class="be" transform="translate(911.188 2458.605)"><path class="bf" d="M-563.958,572.5c-1.513-.808-2.749-3.364-2.766-5.718s1.2-3.607,2.711-2.806,2.749,3.363,2.766,5.718-1.2,3.606-2.712,2.806m-.063-9.9c-2-1.065-3.609.6-3.59,3.713s1.659,6.5,3.662,7.569,3.609-.6,3.589-3.713-1.659-6.5-3.661-7.568" transform="translate(567.612 -562.277)"/><path class="bf" d="M-560.711,570.623a.907.907,0,0,0-1.243.2,2.025,2.025,0,0,0-.365.947l-.362-.193,0,.6.3.161c0,.085,0,.166,0,.251v.142l-.292-.155,0,.6.346.184a4.786,4.786,0,0,0,.309,1.254,3.149,3.149,0,0,0,1.325,1.66,1.115,1.115,0,0,0,.841.129l-.136-1a.922.922,0,0,1-.615-.108,1.618,1.618,0,0,1-.7-.8,2.666,2.666,0,0,1-.183-.684l1.357.721,0-.6-1.432-.761v-.135c0-.092,0-.176,0-.258l1.427.759,0-.6-1.345-.715a1.053,1.053,0,0,1,.169-.456.473.473,0,0,1,.662-.1,2.248,2.248,0,0,1,.6.522l.145-.878a2.817,2.817,0,0,0-.813-.685" transform="translate(564.55 -567.363)"/><path class="bf" d="M-546.417,578.186c.262.139.44.123.439-.132s-.152-.479-.537-.867a2.864,2.864,0,0,1-.96-2c0-.727.316-1.129.9-1l0-.734.585.311,0,.672a2.993,2.993,0,0,1,.777.667l-.157.976a2.675,2.675,0,0,0-.777-.683c-.3-.161-.395-.044-.393.132,0,.2.178.445.609.913a2.674,2.674,0,0,1,.892,1.979c0,.744-.329,1.178-.945,1.019l.005.815-.585-.311,0-.743a3.513,3.513,0,0,1-.911-.819l.163-1.02a3.12,3.12,0,0,0,.9.828m-.223-7.135a2.1,2.1,0,0,0-2.024-.108,2.084,2.084,0,0,0-.581.459c.015.039.029.078.044.119,1.065,2.973,1.02,6.014.038,7.751a6.68,6.68,0,0,0,2.6,3.067,2.1,2.1,0,0,0,2.023.108c1.647-.867,2.057-4.143.918-7.32a7.417,7.417,0,0,0-3.02-4.076" transform="translate(556.206 -567.528)"/></g><g transform="translate(1037.229 2545.968)"><path class="f" d="M-6016.312,955.182l.074.043-.014,4.49.914.528-.045,25.322-.913-.528-.026,9.183-.074-.043.025-9.183-.914-.528.044-25.322.916.528.013-4.49" transform="translate(6017.285 -955.182)"/><path class="f" d="M-5693.183,1124.541l.074.043-.009,3.341.915.528-.034,23.391-.915-.528-.02,3.145-.073-.043.019-3.145-.914-.528.033-23.391.914.528.01-3.341" transform="translate(5707.933 -1117.275)"/><path class="f" d="M-6016.312,1002.182l.074.043-.014,4.49.914.528-.045,17.82-.913-.528-.026,9.183-.074-.043.025-9.183-.914-.528.044-17.82.916.528.013-4.49" transform="translate(6037.827 -983.186)"/><path class="f" d="M-5532.051,1036.5l.074.043-.009,3.341.914.528-.023,19.178-.914-.528-.011,3.664-.074-.043.01-3.664-.914-.528.024-19.177.913.528.01-3.341" transform="translate(5543.43 -1023.308)"/><path class="f" d="M-5367.5,1229.744l.075.043,0,.549.915.527-.014,15.944-.915-.527-.01,3.664-.074-.043.01-3.664-.914-.528.014-15.944.915.527v-.549" transform="translate(5375.426 -1212.504)"/><path class="f" d="M-5205.724,1325.021l.075.043-.005,1.321.915.527-.007,2.31-.914-.528-.025,8.5-.073-.043.025-8.5-.915-.528.007-2.309.914.528,0-1.321" transform="translate(5210.268 -1305.787)"/><path class="f" d="M-5853.058,1689.884l.074.043-.009,2.887.916.528-.009,24.367-.913-.528-.02,6.939-.074-.042.02-6.939-.915-.528.007-24.367.914.528.008-2.887" transform="translate(5871.153 -1677.008)"/></g><g transform="translate(764.99 2765.264)"><path class="w" d="M294.958,285.464a1.084,1.084,0,0,1-.022-2.046,3.9,3.9,0,0,1,3.529,0,1.08,1.08,0,0,1,0,2.046,3.858,3.858,0,0,1-3.507,0m4.091-2.383a5.143,5.143,0,0,0-4.653,0c-1.281.742-1.281,1.956.022,2.7a5.143,5.143,0,0,0,4.653,0,1.431,1.431,0,0,0-.022-2.7" transform="translate(-293.437 -282.525)"/><path class="w" d="M304.239,287.536a2.236,2.236,0,0,0-1.169-.247,2.131,2.131,0,0,0-.719.135l-.225-.135-.247.135.2.112c-.045.022-.067.045-.112.067-.022.023-.045.023-.067.045l-.18-.112-.247.135.225.135a.623.623,0,0,0-.247.382c-.067.27.112.517.45.719a2.492,2.492,0,0,0,.674.247l.292-.27a1.916,1.916,0,0,1-.495-.18c-.18-.09-.292-.225-.27-.36a.272.272,0,0,1,.135-.2l.877.495.247-.135-.922-.54a.079.079,0,0,0,.045-.022c.045-.022.067-.045.112-.067l.922.539.247-.135-.877-.495a.9.9,0,0,1,.337-.068,1.057,1.057,0,0,1,.607.135,1.358,1.358,0,0,1,.315.27l.495-.18a.877.877,0,0,0-.4-.4" transform="translate(-299.639 -286.215)"/><path class="w" d="M313.332,294.716c.18.09.337.135.427.067.112-.067.067-.157-.112-.337-.247-.27-.337-.517,0-.719a1.363,1.363,0,0,1,1.191-.023l.292-.18.382.225-.27.157a1.094,1.094,0,0,1,.4.36l-.539.2a1.159,1.159,0,0,0-.382-.36c-.2-.112-.315-.112-.4-.067s-.022.157.157.36c.27.315.247.517-.045.7a1.4,1.4,0,0,1-1.236,0l-.337.2-.382-.225.315-.18a1.376,1.376,0,0,1-.45-.427l.562-.2a1,1,0,0,0,.427.45m2.788-1.753a4.761,4.761,0,0,0-2.36-.562,2.105,2.105,0,0,1-1.079,1.259,5.153,5.153,0,0,1-2.181.629,1.66,1.66,0,0,0,.967,1.371,5.143,5.143,0,0,0,4.653,0c1.3-.742,1.3-1.933,0-2.7" transform="translate(-306.664 -290.18)"/></g><path class="bg" d="M.8.89,2.346,0,61.017,33.872l-1.546.89Z" transform="translate(787.561 2781.104)"/></g></svg>