<svg width="276" height="131" viewBox="0 0 276 131" fill="none" xmlns="http://www.w3.org/2000/svg">
<g filter="url(#filter0_i_893_2454)">
<path d="M275.046 107.273C274.694 107.416 274.313 107.475 273.934 107.444L98.5879 97.8036C98.0117 97.7683 97.4442 97.6465 96.9052 97.4392C96.3726 97.2372 95.871 96.9616 95.4153 96.6196C94.9795 96.2959 94.5967 95.9058 94.2808 95.4645C93.9849 95.0542 93.775 94.5894 93.6637 94.0967L74.0707 2.2679C73.9871 1.9376 74.0084 1.58936 74.1316 1.27167C74.2548 0.95399 74.4739 0.682361 74.7583 0.494721C75.0786 0.279512 75.4408 0.134617 75.821 0.0694344C76.2843 -0.012952 76.7577 -0.0221432 77.2237 0.042505L236.308 20.3327C236.722 20.3892 237.127 20.5009 237.511 20.6651C237.915 20.8359 238.299 21.051 238.656 21.3062C239.006 21.5527 239.325 21.8387 239.609 22.1583C239.872 22.4491 240.088 22.7789 240.25 23.1358L275.731 104.585C275.9 104.95 275.991 105.347 276.001 105.749C276.007 106.075 275.922 106.396 275.754 106.676C275.66 106.825 275.54 106.957 275.399 107.065C275.291 107.148 275.172 107.219 275.046 107.273Z" fill="url(#paint0_linear_893_2454)"/>
</g>
<path d="M273.587 109.286C273.467 109.371 273.335 109.44 273.196 109.492C273.044 109.548 272.886 109.588 272.725 109.609C272.543 109.634 272.36 109.641 272.178 109.631L97.2978 100.364L97.2386 100.362L97.1787 100.359L97.1208 100.354L97.0629 100.349C97.0174 100.345 96.9725 100.337 96.9275 100.332C96.894 100.328 96.8613 100.325 96.8269 100.319C96.8046 100.316 96.7822 100.314 96.76 100.31C96.6594 100.294 96.5606 100.275 96.4599 100.255L96.4507 100.254C96.4391 100.251 96.4275 100.247 96.4159 100.245C96.3309 100.226 96.2453 100.205 96.1628 100.184C96.1337 100.176 96.1055 100.166 96.0761 100.158C96.0468 100.15 96.0072 100.138 95.973 100.127C95.9388 100.116 95.9033 100.107 95.8691 100.097C95.8104 100.078 95.7531 100.055 95.6956 100.034C95.6705 100.025 95.6438 100.017 95.6189 100.009C95.609 100.005 95.5999 100.001 95.5904 99.9963C95.5809 99.9921 95.564 99.9878 95.5507 99.9824C95.4463 99.9418 95.3429 99.898 95.241 99.851L95.2311 99.8456C95.2147 99.8382 95.1993 99.8296 95.1832 99.8221C95.1013 99.7837 95.02 99.7452 94.9395 99.7035C94.9208 99.6928 94.9024 99.6822 94.8834 99.6715C94.8465 99.6512 94.8104 99.6298 94.7746 99.6095C94.7387 99.5881 94.6899 99.5636 94.6487 99.5379C94.6227 99.5229 94.5986 99.5048 94.5722 99.4888C94.4995 99.4439 94.4279 99.3969 94.3575 99.3477C94.3061 99.3124 94.2539 99.2772 94.2042 99.2408C94.1818 99.2248 94.1574 99.2088 94.1356 99.1928C94.0884 99.1575 94.0451 99.119 93.999 99.0827C93.9661 99.056 93.9307 99.0314 93.8986 99.0047C93.8853 98.9919 93.8732 98.9801 93.8601 98.9694C93.7921 98.9107 93.7268 98.8497 93.6628 98.7878C93.6231 98.7504 93.582 98.714 93.5439 98.6756C93.4726 98.604 93.4055 98.5292 93.3387 98.4544C93.317 98.4266 93.2883 98.402 93.265 98.3742C93.2626 98.371 93.2601 98.3678 93.2573 98.3646C93.169 98.261 93.0857 98.153 93.0075 98.0408L93.0033 98.0355C92.9875 98.0152 92.9758 97.9917 92.9615 97.9703C92.8994 97.8795 92.8404 97.7865 92.7869 97.6914C92.7819 97.685 92.7766 97.6786 92.7736 97.6711C92.7548 97.6359 92.74 97.6006 92.7221 97.5653C92.682 97.4895 92.6427 97.4125 92.6089 97.3356C92.588 97.2864 92.5709 97.2383 92.5524 97.1881C92.524 97.1144 92.4967 97.0417 92.4732 96.968C92.4675 96.9488 92.4586 96.9306 92.4539 96.9124L92.4368 96.8537C92.4321 96.8344 92.4265 96.8141 92.4216 96.7949C92.4167 96.7746 92.4118 96.7554 92.4075 96.7351L92.3944 96.6752L73.0206 4.88944C73.009 4.8343 73.0001 4.77969 72.993 4.72669C72.9889 4.69774 72.9879 4.67039 72.9851 4.64218C72.9845 4.63341 72.9822 4.62432 72.9819 4.61652C72.9815 4.60872 72.982 4.60616 72.9817 4.60007C72.9815 4.59387 72.9793 4.57838 72.9791 4.56769C72.9754 4.51309 72.9762 4.46372 72.9785 4.41318C72.9785 4.39993 72.9809 4.38732 72.9819 4.3745C72.9828 4.36168 72.9812 4.36178 72.9821 4.35537C72.9828 4.34736 72.9841 4.33924 72.9858 4.33133C72.9877 4.30857 72.9884 4.2857 72.9909 4.26368C72.9952 4.22992 73.0019 4.19775 73.007 4.16345C73.0095 4.14828 73.0136 4.13418 73.0168 4.11975L73.0185 4.10928L73.0214 4.09902L73.029 4.06504C73.0377 4.03245 73.0466 4.00092 73.0568 3.96951C73.0669 3.9382 73.0784 3.90753 73.0903 3.87708L74.1384 1.25685C74.1099 1.32898 74.0869 1.40314 74.0695 1.47879L74.0651 1.49824C74.0498 1.56834 74.0393 1.6394 74.0333 1.71099C74.0321 1.7251 74.0307 1.73878 74.0297 1.7532C74.0255 1.82811 74.026 1.90323 74.0313 1.97803C74.0321 1.99235 74.0342 2.00623 74.0351 2.01991C74.0419 2.10305 74.0541 2.18565 74.0713 2.26729L93.6631 94.0968C93.6827 94.1972 93.7132 94.2923 93.7429 94.3896C93.7663 94.4633 93.7938 94.537 93.8223 94.6108C93.8418 94.6599 93.8589 94.708 93.8793 94.7582C93.9133 94.8362 93.9528 94.9132 93.9928 94.989C94.0141 95.0307 94.0332 95.0724 94.0578 95.1162C94.1118 95.2102 94.1714 95.3032 94.2335 95.394C94.2495 95.4154 94.2607 95.4389 94.2757 95.4613C94.354 95.5725 94.4401 95.6836 94.5306 95.7905C94.555 95.8225 94.5848 95.8492 94.6121 95.8791C94.6786 95.955 94.7467 96.0309 94.8192 96.1035C94.8573 96.142 94.8981 96.1783 94.9376 96.2157C95.0043 96.2788 95.0684 96.3386 95.1368 96.3995C95.182 96.438 95.2294 96.4743 95.2757 96.5117C95.343 96.5652 95.4115 96.6197 95.4819 96.671C95.5325 96.7073 95.5843 96.7425 95.6374 96.7799C95.7083 96.8291 95.7802 96.8761 95.8539 96.9221C95.9201 96.9637 95.9874 97.0043 96.0553 97.0428C96.0921 97.0631 96.1283 97.0845 96.1658 97.1048C96.2639 97.1571 96.3611 97.2095 96.4649 97.2554C96.4814 97.264 96.498 97.2725 96.5151 97.2811C96.633 97.3356 96.7524 97.3837 96.8751 97.4318C96.9106 97.4457 96.9463 97.4574 96.9821 97.4702C97.0727 97.5034 97.1651 97.5354 97.2579 97.5643C97.2928 97.575 97.3282 97.5856 97.364 97.5963C97.4764 97.6295 97.5891 97.6583 97.703 97.6839C97.7153 97.6861 97.7266 97.6904 97.7387 97.6936C97.8635 97.7203 97.9899 97.7416 98.116 97.7598L98.2198 97.7737C98.3421 97.7887 98.4644 97.8015 98.5872 97.809L273.934 107.445C274.116 107.457 274.301 107.451 274.483 107.426C274.644 107.406 274.804 107.366 274.955 107.31C275.094 107.258 275.226 107.19 275.346 107.104C275.461 107.024 275.563 106.928 275.651 106.82L273.894 109C273.82 109.092 273.736 109.174 273.643 109.246C273.625 109.26 273.605 109.273 273.587 109.286Z" fill="url(#paint1_linear_893_2454)"/>
<path d="M207.42 25.5149L207.439 25.5171L207.459 25.5194L207.478 25.522L207.497 25.5249C207.732 25.5526 207.967 25.5898 208.205 25.6366C208.442 25.6834 208.679 25.7386 208.917 25.8024C209.156 25.8665 209.394 25.9397 209.634 26.0217C209.873 26.1037 210.111 26.1944 210.349 26.2936L210.515 27.9278C210.337 27.8532 210.158 27.7847 209.98 27.7223C209.801 27.6599 209.623 27.6034 209.445 27.5541C209.267 27.5048 209.091 27.461 208.914 27.4246C208.739 27.3882 208.565 27.358 208.393 27.335L208.368 27.3316L208.344 27.3285L208.32 27.3251L208.297 27.3223C208.105 27.2987 207.912 27.2932 207.721 27.3058C207.55 27.3166 207.381 27.347 207.216 27.3965C207.07 27.4406 206.931 27.5057 206.802 27.5897C206.684 27.6679 206.579 27.766 206.494 27.8799C206.452 27.9431 206.418 28.01 206.389 28.0796C206.359 28.1506 206.336 28.224 206.32 28.299C206.303 28.3769 206.293 28.456 206.289 28.5356C206.285 28.6196 206.288 28.7038 206.297 28.7873L210.769 29.3124L211.185 30.3776L206.437 29.8237C206.449 29.8623 206.459 29.901 206.472 29.9391C206.484 29.9773 206.498 30.0163 206.512 30.0545C206.525 30.0929 206.54 30.1316 206.555 30.1705C206.569 30.2093 206.584 30.2481 206.6 30.2874L206.695 30.5314L211.463 31.0846L211.881 32.1518L207.358 31.631C207.419 31.7316 207.485 31.8308 207.558 31.9286C207.634 32.0256 207.71 32.1244 207.795 32.2182C207.881 32.312 207.971 32.406 208.068 32.4958C208.164 32.5856 208.263 32.6753 208.369 32.7613C208.559 32.9015 208.759 33.0302 208.966 33.1465C209.168 33.2608 209.377 33.3624 209.591 33.451C209.798 33.5368 210.01 33.6089 210.227 33.667C210.432 33.7225 210.641 33.7628 210.852 33.7875L210.889 33.7915L210.926 33.7953L210.963 33.7984L210.999 33.8012C211.177 33.8196 211.35 33.8293 211.519 33.8315C211.682 33.8341 211.846 33.8283 212.009 33.8141C212.164 33.8011 212.317 33.7797 212.469 33.7498C212.613 33.7211 212.755 33.6838 212.894 33.6379L213.988 35.3713C213.805 35.4434 213.617 35.5021 213.424 35.5466C213.22 35.5943 213.013 35.6288 212.804 35.65C212.582 35.6727 212.359 35.6828 212.134 35.68C211.897 35.6772 211.66 35.6626 211.423 35.636L211.376 35.6312L211.333 35.6267L211.294 35.6231L211.258 35.6187C210.828 35.569 210.404 35.4838 209.989 35.3641C209.551 35.2383 209.123 35.0812 208.708 34.894C207.844 34.5057 207.038 34.0023 206.309 33.3974C206.121 33.2369 205.942 33.0721 205.772 32.9028C205.603 32.7339 205.443 32.5605 205.293 32.3851C205.145 32.2096 205.006 32.0304 204.88 31.8492C204.754 31.668 204.637 31.4864 204.534 31.3036L203.37 31.1702L202.96 30.0968L203.943 30.2103L203.844 29.9527C203.829 29.9146 203.816 29.877 203.804 29.8398C203.791 29.8026 203.779 29.7648 203.767 29.7274C203.756 29.69 203.743 29.6524 203.731 29.6149C203.718 29.5774 203.705 29.5397 203.69 29.502L202.673 29.3835L202.265 28.3128L203.479 28.4551C203.458 28.2782 203.453 28.0998 203.463 27.922C203.472 27.7541 203.497 27.5874 203.538 27.4241C203.575 27.2674 203.629 27.1149 203.698 26.969C203.766 26.8249 203.849 26.6881 203.945 26.5609C204.111 26.3436 204.314 26.1569 204.545 26.0087C204.794 25.8502 205.064 25.7278 205.347 25.6452C205.662 25.5528 205.988 25.4965 206.317 25.4773C206.685 25.4561 207.054 25.4686 207.42 25.5149Z" fill="#F2F2F2"/>
<path d="M264.94 98.152C264.982 98.1552 265.023 98.1648 265.062 98.1808C265.103 98.1979 265.144 98.2204 265.18 98.2471C265.219 98.2738 265.253 98.3048 265.283 98.34C265.312 98.3732 265.335 98.4106 265.354 98.4501L265.361 98.465C265.376 98.4992 265.386 98.5356 265.387 98.573C265.388 98.6029 265.38 98.6328 265.364 98.6595C265.349 98.6841 265.327 98.7044 265.3 98.7162C265.268 98.729 265.234 98.7354 265.199 98.7322L265.173 98.7311L265.171 98.7322H265.168L265.165 98.7333L265.163 98.7343C265.124 98.7311 265.084 98.7226 265.047 98.7076C265.006 98.6916 264.968 98.6702 264.932 98.6446C264.897 98.6189 264.864 98.589 264.835 98.5559C264.807 98.5238 264.785 98.4886 264.767 98.4501L264.759 98.4309C264.743 98.3967 264.734 98.3593 264.732 98.3208C264.73 98.2898 264.738 98.2588 264.754 98.2321C264.769 98.2075 264.791 98.1872 264.818 98.1744C264.85 98.1594 264.884 98.153 264.92 98.1541H264.937L264.94 98.152Z" fill="#F2F2F2"/>
<path d="M266.883 98.6627L267.147 99.2804L267.844 99.3242L267.996 99.68L267.3 99.6362L267.896 101.03C267.926 101.104 267.963 101.176 268.005 101.245C268.041 101.304 268.085 101.358 268.134 101.406C268.18 101.45 268.233 101.485 268.29 101.51C268.349 101.536 268.412 101.551 268.476 101.553L268.489 101.555L268.502 101.556L268.514 101.557L268.527 101.559C268.546 101.56 268.565 101.56 268.585 101.56C268.605 101.56 268.623 101.559 268.64 101.557C268.658 101.556 268.676 101.553 268.693 101.551C268.709 101.55 268.729 101.545 268.744 101.541L268.918 101.904C268.89 101.912 268.86 101.92 268.831 101.926C268.801 101.931 268.77 101.937 268.739 101.939C268.707 101.942 268.675 101.945 268.643 101.945C268.61 101.946 268.576 101.945 268.543 101.943H268.535L268.529 101.942H268.521H268.515L268.505 101.941H268.497H268.488L268.48 101.94C268.431 101.937 268.383 101.93 268.336 101.92C268.286 101.908 268.236 101.893 268.188 101.875C268.138 101.856 268.088 101.833 268.041 101.806C267.992 101.78 267.945 101.75 267.899 101.717C267.843 101.665 267.788 101.612 267.738 101.554C267.69 101.5 267.645 101.441 267.604 101.381C267.564 101.323 267.528 101.264 267.496 101.202C267.466 101.144 267.441 101.083 267.419 101.021L266.817 99.6106L266.4 99.5849L266.248 99.2291L266.665 99.2558L266.46 98.776L266.883 98.6627Z" fill="#F2F2F2"/>
<path d="M266.225 101.748L265.121 99.1553L265.612 99.1863L266.716 101.775L266.225 101.748Z" fill="#F2F2F2"/>
<path d="M263.208 98.9844C263.383 98.9961 263.553 99.0389 263.711 99.1083C263.882 99.1831 264.042 99.2814 264.185 99.4C264.339 99.5261 264.477 99.6693 264.596 99.8285C264.721 99.9952 264.825 100.177 264.907 100.369C264.993 100.558 265.046 100.762 265.059 100.97C265.071 101.116 265.039 101.261 264.968 101.389C264.903 101.495 264.805 101.58 264.689 101.626C264.559 101.677 264.419 101.699 264.28 101.687H264.269H264.256L264.243 101.686L264.23 101.685C264.137 101.679 264.045 101.662 263.956 101.635C263.86 101.608 263.767 101.57 263.678 101.525C263.487 101.429 263.314 101.301 263.166 101.148L263.152 101.147L263.305 101.568L262.886 101.545C262.869 101.5 262.85 101.451 262.83 101.399C262.809 101.347 262.787 101.288 262.765 101.23C262.742 101.172 262.718 101.111 262.694 101.051C262.67 100.991 262.645 100.931 262.621 100.874L261.302 97.7448L261.788 97.7747L262.473 99.3979C262.488 99.3306 262.517 99.2665 262.558 99.2098C262.597 99.1553 262.647 99.1094 262.704 99.0741C262.766 99.0367 262.834 99.01 262.906 98.995C262.986 98.979 263.068 98.9726 263.151 98.9779L263.165 98.979L263.178 98.9801L263.192 98.9812L263.208 98.9844ZM264.022 101.304C264.13 101.315 264.239 101.297 264.338 101.252C264.416 101.213 264.477 101.146 264.508 101.063C264.543 100.965 264.552 100.861 264.536 100.758C264.514 100.619 264.476 100.484 264.418 100.355C264.363 100.224 264.292 100.099 264.21 99.9824C264.127 99.8659 264.032 99.7601 263.925 99.6661C263.823 99.5753 263.707 99.4994 263.583 99.4417C263.464 99.3851 263.333 99.3519 263.201 99.3423C263.108 99.3402 263.016 99.3584 262.93 99.3968C262.859 99.43 262.799 99.4834 262.757 99.5507C262.716 99.6212 262.694 99.7014 262.695 99.7826C262.698 99.882 262.719 99.9803 262.759 100.071L262.955 100.534C262.96 100.549 262.967 100.563 262.974 100.577C262.981 100.591 262.988 100.605 262.996 100.62C263.004 100.634 263.013 100.648 263.021 100.663C263.03 100.677 263.039 100.691 263.049 100.705C263.105 100.788 263.17 100.865 263.243 100.933C263.316 101.004 263.396 101.066 263.482 101.118C263.565 101.171 263.654 101.213 263.747 101.247C263.832 101.276 263.922 101.296 264.013 101.302" fill="#F2F2F2"/>
<path d="M259.667 85.3046L266.306 95.706L263.708 95.5372L262.71 93.9674L259.085 93.7281L259.148 95.2412L256.156 95.0456L256.403 85.7876C256.403 85.6861 256.426 85.5856 256.468 85.4927C256.51 85.4082 256.571 85.3345 256.646 85.2779C256.728 85.217 256.821 85.1742 256.92 85.1518C257.036 85.124 257.156 85.1165 257.274 85.1261L259.667 85.3046ZM259.005 91.6615L261.344 91.8218L258.859 87.9098L259.004 91.6626" fill="#F2F2F2"/>
<path d="M261.63 100.286L259.72 100.17C259.76 100.289 259.819 100.4 259.894 100.5C259.975 100.606 260.069 100.703 260.173 100.786C260.279 100.873 260.394 100.945 260.516 101.003C260.634 101.059 260.759 101.098 260.888 101.118L260.909 101.121L260.931 101.125L260.952 101.127L260.973 101.128L260.988 101.129H261.003L261.018 101.13H261.033L261.045 101.131H261.058L261.07 101.132L261.082 101.133C261.142 101.136 261.201 101.137 261.257 101.136C261.313 101.135 261.369 101.13 261.424 101.121C261.478 101.115 261.529 101.104 261.582 101.09C261.631 101.078 261.679 101.061 261.726 101.041L261.958 101.383C261.9 101.408 261.841 101.428 261.781 101.445C261.718 101.461 261.654 101.475 261.59 101.485C261.522 101.494 261.453 101.5 261.385 101.502C261.315 101.505 261.243 101.504 261.169 101.5L261.157 101.499H261.144L261.133 101.498L261.12 101.497L261.101 101.495H261.08H261.061L261.041 101.493C260.867 101.482 260.695 101.442 260.532 101.378C260.357 101.31 260.191 101.221 260.037 101.113C259.881 101.004 259.738 100.878 259.611 100.736C259.487 100.598 259.383 100.445 259.302 100.279C259.295 100.264 259.288 100.248 259.282 100.233C259.275 100.219 259.269 100.204 259.262 100.188C259.257 100.173 259.251 100.158 259.246 100.144L259.229 100.099C259.154 99.9258 259.106 99.742 259.088 99.5539C259.073 99.4075 259.098 99.26 259.16 99.1265C259.218 99.0057 259.315 98.9095 259.437 98.854C259.591 98.7888 259.758 98.7632 259.924 98.7792C260.133 98.7931 260.338 98.8465 260.527 98.9363C260.7 99.0207 260.859 99.1318 260.998 99.2643C261.127 99.3872 261.243 99.5229 261.342 99.6714C261.426 99.7965 261.497 99.9279 261.556 100.066C261.564 100.084 261.571 100.102 261.578 100.12C261.586 100.139 261.592 100.158 261.6 100.176C261.606 100.194 261.612 100.212 261.618 100.231C261.623 100.25 261.626 100.268 261.63 100.286ZM260.024 99.1169C259.933 99.1147 259.842 99.134 259.758 99.1724C259.689 99.2055 259.63 99.2579 259.588 99.3231C259.548 99.3925 259.526 99.4705 259.526 99.5507C259.527 99.649 259.549 99.7452 259.587 99.8349L261.028 99.9225C261 99.8274 260.956 99.7366 260.9 99.6554C260.839 99.5678 260.767 99.4876 260.686 99.4182C260.604 99.3466 260.513 99.2846 260.415 99.2344C260.32 99.1852 260.219 99.15 260.115 99.1297L260.026 99.1179" fill="#F2F2F2"/>
<path d="M249.204 87.2911C249.417 87.6565 249.744 87.9418 250.135 88.1032C250.603 88.3564 251.194 88.6097 251.804 88.9089C252.439 89.2049 253.04 89.5703 253.594 89.9977C254.161 90.4326 254.607 91.0054 254.892 91.6604C255.098 92.1114 255.185 92.6072 255.145 93.1008C255.1 93.508 254.909 93.8841 254.606 94.1587C254.243 94.4718 253.805 94.6845 253.335 94.7764C252.694 94.911 252.038 94.9516 251.386 94.8971L251.372 94.896H251.36L251.347 94.895L251.333 94.8939C251.064 94.8768 250.791 94.8469 250.513 94.8063C250.236 94.7646 249.956 94.7122 249.673 94.6492C249.39 94.5851 249.105 94.5092 248.817 94.4237C248.53 94.3372 248.241 94.2399 247.951 94.132L247.538 91.8699C247.8 91.9927 248.063 92.1028 248.324 92.2001C248.587 92.2973 248.848 92.3828 249.109 92.4544C249.369 92.526 249.625 92.5837 249.879 92.6285C250.127 92.6723 250.377 92.7023 250.627 92.7194L250.662 92.7215L250.696 92.7236L250.729 92.7258L250.763 92.7268C250.96 92.7397 251.158 92.7311 251.352 92.7033C251.518 92.682 251.678 92.6307 251.826 92.5537C251.946 92.4928 252.04 92.3913 252.092 92.2663C252.137 92.1199 252.126 91.9628 252.06 91.825C252.01 91.7042 251.94 91.5931 251.852 91.4969C251.741 91.3762 251.615 91.2683 251.478 91.1764C251.29 91.0492 251.093 90.9349 250.89 90.8323C250.654 90.7105 250.374 90.579 250.043 90.4337C249.72 90.2905 249.367 90.126 249.009 89.9336C248.642 89.7402 248.287 89.5222 247.948 89.2807C247.609 89.0414 247.297 88.7646 247.018 88.4558C246.748 88.1577 246.532 87.8136 246.379 87.4417C246.191 87.0175 246.123 86.5495 246.182 86.09C246.244 85.701 246.442 85.3463 246.741 85.0887C247.096 84.7949 247.521 84.594 247.975 84.5042C248.577 84.3782 249.193 84.3429 249.805 84.3985C250.031 84.4145 250.261 84.4412 250.494 84.4786C250.728 84.5149 250.963 84.5598 251.199 84.6132C251.437 84.6667 251.675 84.7297 251.916 84.8024C252.157 84.874 252.398 84.9552 252.641 85.0449L253.05 87.1767C252.839 87.0848 252.628 87.0015 252.415 86.9288C252.204 86.8572 251.994 86.792 251.786 86.7386C251.578 86.6841 251.371 86.6403 251.167 86.6061C250.963 86.5719 250.762 86.5473 250.564 86.5334C250.523 86.5292 250.48 86.526 250.436 86.5249C250.393 86.5228 250.352 86.5217 250.309 86.5206C250.267 86.5196 250.225 86.5185 250.183 86.5185C250.141 86.5185 250.1 86.5185 250.058 86.5196C249.894 86.5249 249.731 86.5537 249.576 86.605C249.466 86.6403 249.366 86.7012 249.285 86.7824C249.221 86.8476 249.18 86.932 249.169 87.0218C249.157 87.1137 249.169 87.2066 249.204 87.2911Z" fill="#F2F2F2"/>
<path d="M237.139 83.6462L240.178 83.8695L239.63 93.9739L236.516 93.7719L230.887 85.2245C230.835 85.1219 230.773 85.0236 230.702 84.9338C230.628 84.8376 230.545 84.7489 230.456 84.6677C230.271 84.4989 230.059 84.3611 229.83 84.2595C229.56 84.142 229.289 84.0309 229.017 83.9262C228.746 83.8214 228.474 83.7221 228.203 83.6312C227.931 83.5393 227.661 83.4549 227.389 83.3758C227.118 83.2978 226.848 83.2262 226.578 83.1621L226.531 82.8651L231.538 83.2337C231.712 83.2487 231.885 83.2872 232.049 83.3481C232.222 83.4132 232.388 83.4966 232.542 83.5981C232.699 83.7007 232.843 83.8193 232.974 83.9539C233.101 84.0843 233.211 84.2307 233.302 84.3888L236.915 90.5139L237.139 83.6462Z" fill="#F2F2F2"/>
<path d="M154.817 100.959C154.796 100.942 154.775 100.926 154.754 100.911C154.734 100.895 154.711 100.879 154.691 100.863C154.67 100.847 154.649 100.831 154.627 100.815L154.563 100.768C155.718 98.8337 156.646 96.7724 157.328 94.6257C158.008 92.4854 158.45 90.2766 158.646 88.0391C158.846 85.7438 158.815 83.4335 158.552 81.1436C158.275 78.7447 157.782 76.3757 157.078 74.0654C156.347 71.6441 155.424 69.2847 154.315 67.0118C153.161 64.645 151.842 62.3625 150.365 60.1816C148.825 57.9066 147.14 55.7331 145.322 53.674C143.427 51.5251 141.406 49.4906 139.271 47.581C140.863 46.0818 142.649 44.806 144.584 43.7876C146.617 42.718 148.767 41.8867 150.991 41.3096C153.376 40.6899 155.816 40.303 158.276 40.1556C160.933 39.9953 163.599 40.0573 166.246 40.3415C172.008 40.9827 177.653 42.4274 183.016 44.6329C188.438 46.8416 193.572 49.6979 198.309 53.1376C202.961 56.4886 207.167 60.4167 210.828 64.8298C214.329 69.0111 217.125 73.7352 219.105 78.8163C219.98 81.0923 220.621 83.4528 221.018 85.8592C221.385 88.085 221.484 90.3461 221.315 92.5943C221.152 94.7272 220.698 96.8259 219.962 98.8348C219.229 100.822 218.204 102.69 216.92 104.375L154.817 100.959ZM171.739 89.3523C172.433 89.6654 173.239 89.9817 174.126 90.2873C175.013 90.594 175.98 90.8889 176.997 91.1582C178.015 91.4275 179.08 91.6711 180.166 91.8752C181.251 92.0782 182.352 92.2428 183.442 92.3518L185.112 97.4659L192.122 97.8816L190.251 92.3048C191.75 92.1872 193.221 91.8228 194.601 91.2276C195.662 90.7735 196.592 90.0618 197.308 89.1568C197.935 88.3286 198.314 87.3402 198.401 86.3048C198.484 85.1379 198.316 83.9657 197.907 82.8693C197.506 81.7003 196.943 80.5933 196.233 79.5814C195.482 78.531 194.584 77.5938 193.567 76.7988C192.361 75.8617 191.059 75.0571 189.682 74.3988C187.951 73.5675 186.166 72.8547 184.338 72.267C182.959 71.7808 181.776 71.3449 180.771 70.9441C179.765 70.5424 178.938 70.1769 178.271 69.8307C177.721 69.5625 177.202 69.2302 176.729 68.8423C176.414 68.5944 176.172 68.2653 176.03 67.8913C175.935 67.6348 175.92 67.3559 175.986 67.0909C176.073 66.8184 176.262 66.5908 176.513 66.454C176.901 66.2435 177.329 66.1174 177.768 66.0822C178.477 66.0106 179.192 66.0106 179.903 66.0832C180.955 66.1719 182 66.3215 183.035 66.532C183.995 66.7265 184.874 66.9595 185.668 67.202C186.461 67.4446 187.169 67.6957 187.79 67.9297C188.411 68.1627 188.946 68.3807 189.39 68.5527L188.945 62.027C188.163 61.7171 187.38 61.4339 186.596 61.1785C185.81 60.9231 185.026 60.6966 184.242 60.4968C183.46 60.298 182.679 60.1281 181.901 59.9849C181.123 59.8418 180.35 59.7285 179.584 59.6473L178.185 55.4799L171.474 54.8558L172.976 59.4443C171.571 59.5404 170.191 59.8471 168.877 60.3515C167.858 60.7383 166.944 61.3602 166.21 62.1659C165.569 62.8979 165.155 63.8008 165.019 64.7636C164.883 65.8589 164.997 66.9712 165.352 68.0163C165.764 69.3125 166.42 70.5167 167.285 71.566C168.207 72.6709 169.283 73.6391 170.479 74.4394C171.816 75.3392 173.231 76.1171 174.708 76.7635C176.351 77.488 178.031 78.126 179.741 78.6741C180.975 79.0599 182.03 79.42 182.927 79.7694C183.695 80.0579 184.443 80.4009 185.163 80.7952C185.683 81.0741 186.16 81.4257 186.58 81.8392C186.904 82.163 187.15 82.5562 187.301 82.989C187.37 83.1589 187.406 83.3416 187.403 83.5254C187.402 83.7092 187.364 83.8909 187.291 84.0597C187.113 84.3792 186.826 84.6229 186.482 84.7468C186.002 84.9327 185.497 85.0439 184.984 85.0749C184.292 85.1261 183.599 85.1251 182.908 85.0716C181.869 84.9968 180.834 84.859 179.81 84.6592C178.785 84.4615 177.773 84.2115 176.793 83.9272C175.814 83.6419 174.863 83.3235 173.962 82.9901C173.061 82.6556 172.206 82.3073 171.419 81.9632L171.739 89.3523ZM122.799 99.197C125.843 98.3443 128.709 96.953 131.262 95.0884C133.511 93.4353 135.393 91.3356 136.79 88.9195C138.129 86.5666 138.956 83.9571 139.217 81.2633C139.484 78.36 139.206 75.4332 138.398 72.6325C137.683 70.0904 136.649 67.6498 135.321 65.3684C133.938 62.9865 132.313 60.7543 130.47 58.7069C128.551 56.5677 126.445 54.6026 124.18 52.8363C121.84 51.0079 119.354 49.3741 116.748 47.9508L126.233 48.8462C126.571 48.8825 126.915 48.8591 127.245 48.7746C127.517 48.7062 127.77 48.5748 127.981 48.3899C128.17 48.22 128.307 47.9988 128.374 47.7531C128.442 47.4817 128.435 47.1964 128.356 46.9282L128.02 45.6961C130.569 47.4977 132.989 49.4713 135.267 51.6042C137.478 53.6729 139.529 55.9062 141.401 58.2859C143.213 60.5855 144.819 63.0378 146.202 65.6174C147.545 68.1189 148.625 70.7529 149.424 73.4777C150.14 75.8873 150.578 78.3707 150.731 80.8807C150.874 83.2519 150.713 85.6326 150.251 87.9632C149.795 90.2456 149.025 92.4544 147.964 94.5274C146.868 96.6527 145.48 98.6136 143.84 100.354L122.799 99.197ZM118.985 89.27C118.132 89.503 117.266 89.6857 116.391 89.8161C115.476 89.9539 114.555 90.0405 113.629 90.0779C112.664 90.1163 111.697 90.1057 110.732 90.0448C107.099 89.8182 103.527 89.0018 100.157 87.6287C98.4882 86.9502 96.881 86.1285 95.353 85.1742C93.8519 84.2382 92.4428 83.1621 91.1444 81.9611C91.1151 81.9343 91.0855 81.9076 91.0561 81.882C91.0269 81.8563 90.9995 81.8296 90.9687 81.8018L90.8819 81.7217C90.8533 81.695 90.8248 81.6683 90.797 81.6416L85.459 56.6264C85.5401 56.5185 85.6232 56.4127 85.7081 56.3069C85.7934 56.2022 85.8808 56.0986 85.9704 55.996C86.0598 55.8934 86.1515 55.7919 86.2452 55.6925C86.3388 55.5942 86.436 55.4948 86.534 55.3987C87.3828 54.5492 88.3447 53.8193 89.3925 53.2327C90.5004 52.6118 91.6769 52.1224 92.8981 51.773C94.2095 51.399 95.5548 51.1543 96.9143 51.0453C98.3784 50.9278 99.8501 50.9363 101.313 51.0731L101.389 51.0806L101.466 51.0881L101.543 51.0956L101.62 51.1041L101.657 51.1073L101.695 51.1105L101.732 51.1137L101.769 51.118C102.656 51.1981 103.546 51.3135 104.44 51.4631C105.335 51.6138 106.227 51.7965 107.117 52.0113C108.009 52.2272 108.898 52.4751 109.785 52.7561C110.672 53.0371 111.552 53.3502 112.424 53.6954L112.055 59.8514C111.392 59.5885 110.725 59.3491 110.054 59.1322C109.383 58.9153 108.709 58.723 108.031 58.5563C107.354 58.3874 106.677 58.2443 106 58.1246C105.323 58.006 104.647 57.9119 103.973 57.8446C103.165 57.772 102.353 57.7613 101.543 57.8136C100.804 57.8606 100.071 57.9803 99.3555 58.1716C98.6978 58.3468 98.0653 58.6065 97.4735 58.9431C96.9098 59.2658 96.3996 59.674 95.9612 60.1527C95.7501 60.3985 95.5586 60.6603 95.3884 60.936C95.2201 61.2085 95.074 61.4938 94.9514 61.7897C94.8284 62.0879 94.7294 62.3946 94.6551 62.7077C94.5792 63.0282 94.5282 63.3541 94.5026 63.6822L112.19 65.1141L113.184 69.165L94.3319 67.7C94.3456 67.8421 94.3639 67.9864 94.3868 68.1327C94.4093 68.2781 94.4348 68.4245 94.4636 68.5741C94.4924 68.7226 94.5223 68.8722 94.5564 69.0282C94.5906 69.1832 94.6244 69.3381 94.6598 69.4994L94.8664 70.4344L113.849 71.8727L114.862 75.9974L96.8086 74.6852C96.9893 75.0795 97.1934 75.4631 97.4197 75.8328C97.6549 76.2186 97.911 76.5904 98.1867 76.9473C98.4731 77.3171 98.7782 77.6729 99.101 78.0127C99.4288 78.3589 99.7792 78.6934 100.152 79.0182C100.856 79.592 101.611 80.1007 102.409 80.5356C103.206 80.9694 104.036 81.3391 104.893 81.6383C105.752 81.9386 106.631 82.1758 107.524 82.3511C108.416 82.5253 109.317 82.6439 110.224 82.7037C110.933 82.7443 111.631 82.7539 112.317 82.7315C113.003 82.709 113.672 82.6556 114.325 82.5733C114.965 82.4911 115.602 82.3778 116.232 82.2314C116.836 82.0904 117.433 81.9162 118.02 81.7099L121.379 88.443C120.599 88.77 119.8 89.0467 118.986 89.27H118.985ZM101.831 42.4081C101.242 42.2842 100.651 42.1709 100.057 42.0672C99.4631 41.9647 98.8676 41.8728 98.2707 41.7916C97.6726 41.7114 97.073 41.6409 96.4717 41.581C95.2322 41.4582 94.0072 41.3876 92.7967 41.3673C91.5861 41.347 90.3934 41.378 89.2186 41.4582C88.043 41.5404 86.8914 41.674 85.7637 41.8578C84.6515 42.0373 83.5491 42.2735 82.4606 42.5652L80.4355 33.0831C81.5439 32.9151 82.6704 32.7853 83.815 32.6934C84.9596 32.6016 86.1144 32.5456 87.2794 32.5256C88.4444 32.5052 89.6221 32.5224 90.8127 32.5771C92.0033 32.6317 93.1995 32.721 94.4015 32.845C95.0146 32.9093 95.624 32.982 96.2297 33.0629C96.8354 33.1438 97.4378 33.2329 98.0371 33.3302C98.636 33.427 99.2322 33.5317 99.8258 33.6441C100.419 33.7564 101.01 33.877 101.597 34.0058C101.587 34.0566 101.58 34.108 101.576 34.1597C101.572 34.2134 101.571 34.2673 101.572 34.321C101.575 34.3764 101.579 34.4309 101.587 34.4882C101.595 34.5456 101.605 34.6029 101.62 34.6613L103.589 42.8088C103.006 42.6656 102.42 42.5321 101.831 42.4081Z" fill="url(#paint2_linear_893_2454)"/>
<path d="M233.577 26.7929C235.011 27.8093 236.313 28.9966 237.458 30.3284C238.446 31.4672 239.258 32.748 239.866 34.128C240.381 35.2693 240.634 36.5118 240.606 37.7641C240.573 38.8712 240.169 39.9365 239.46 40.7882C239.096 41.2167 238.664 41.5832 238.184 41.8728C237.671 42.1784 237.12 42.4145 236.544 42.5727C235.914 42.7479 235.265 42.8559 234.611 42.8933C233.89 42.936 233.167 42.9168 232.449 42.8366C231.656 42.7479 230.87 42.6026 230.099 42.4006C229.268 42.1848 228.452 41.9144 227.656 41.5928C226.81 41.2519 225.987 40.8608 225.191 40.4195C224.356 39.959 223.552 39.4493 222.779 38.8915C223.026 38.4202 223.209 37.918 223.323 37.3987C223.443 36.8559 223.496 36.3013 223.485 35.7456C223.474 35.148 223.401 34.553 223.269 33.9697C223.126 33.3319 222.93 32.7075 222.681 32.1032C222.412 31.4484 222.098 30.8136 221.739 30.2039C221.356 29.5546 220.935 28.9294 220.476 28.332C219.992 27.7004 219.472 27.0957 218.921 26.521C218.343 25.918 217.735 25.3449 217.099 24.8036C217.472 24.3956 217.907 24.0495 218.388 23.7779C218.907 23.486 219.462 23.2632 220.039 23.1153C220.679 22.9506 221.335 22.8538 221.996 22.8263C222.734 22.7944 223.475 22.8258 224.208 22.9204C225.003 23.0224 225.791 23.1812 226.563 23.3955C227.377 23.6195 228.175 23.8943 228.953 24.2182C229.761 24.5532 230.55 24.9345 231.313 25.3605C232.095 25.7945 232.851 26.2728 233.577 26.7929ZM232.004 37.2737C232.402 37.2662 232.796 37.1935 233.169 37.0568C233.446 36.9584 233.691 36.7853 233.876 36.5567C234.036 36.3462 234.125 36.0897 234.13 35.8247C234.133 35.5097 234.068 35.1977 233.94 34.9102C233.807 34.5909 233.633 34.2906 233.421 34.017C233.193 33.7258 232.928 33.4652 232.633 33.2418C232.282 32.9769 231.906 32.7462 231.512 32.5527C231.02 32.3107 230.513 32.0993 229.996 31.9195C229.607 31.7745 229.273 31.6447 228.988 31.526C228.704 31.4074 228.47 31.2999 228.278 31.2006C228.119 31.1223 227.97 31.028 227.831 30.9193C227.74 30.8503 227.666 30.76 227.617 30.6564C227.586 30.5886 227.575 30.5131 227.586 30.4391C227.595 30.4034 227.61 30.37 227.632 30.3409C227.654 30.312 227.682 30.288 227.715 30.2708C227.819 30.2177 227.933 30.1881 228.05 30.1843C228.245 30.1718 228.442 30.179 228.637 30.2059C228.851 30.2317 229.069 30.2678 229.29 30.3132C229.511 30.3587 229.733 30.4144 229.959 30.4786C230.183 30.5426 230.409 30.6166 230.636 30.7007C230.863 30.7848 231.089 30.8753 231.316 30.9759L231.061 29.1811C230.835 29.0875 230.611 29.0023 230.386 28.9256C230.162 28.849 229.937 28.779 229.714 28.7159C229.492 28.6541 229.27 28.6 229.05 28.5538C228.83 28.5074 228.613 28.4696 228.398 28.4401L227.912 27.273L226.044 27.0476L226.574 28.3279C226.199 28.3401 225.828 28.4115 225.475 28.5394C225.211 28.6331 224.977 28.7959 224.798 29.0108C224.642 29.2091 224.554 29.4522 224.546 29.7044C224.54 30.0066 224.601 30.3063 224.723 30.5827C224.871 30.9386 225.08 31.2665 225.339 31.5521C225.615 31.8561 225.928 32.1245 226.272 32.351C226.652 32.6036 227.053 32.8254 227.468 33.0146C227.906 33.2172 228.377 33.4026 228.875 33.5784C229.219 33.6957 229.514 33.8034 229.766 33.9065C229.982 33.9924 230.194 34.0917 230.398 34.204C230.545 34.284 230.681 34.3821 230.804 34.496C230.898 34.5837 230.973 34.6899 231.024 34.8078C231.047 34.851 231.059 34.8985 231.063 34.947C231.066 34.9955 231.059 35.0442 231.042 35.09C231.021 35.1307 230.992 35.1668 230.957 35.196C230.922 35.2251 230.88 35.2469 230.836 35.2599C230.707 35.303 230.571 35.3255 230.435 35.3263C230.247 35.3309 230.059 35.3216 229.873 35.2984C229.618 35.2658 229.36 35.2203 229.099 35.1619C228.84 35.1034 228.576 35.0346 228.309 34.9553C228.043 34.874 227.775 34.7842 227.509 34.6809C227.244 34.5776 226.975 34.4634 226.71 34.3415L226.974 36.2596C227.243 36.3771 227.512 36.484 227.782 36.5823C228.052 36.6806 228.32 36.7682 228.587 36.8462C228.855 36.9242 229.121 36.9926 229.385 37.0493C229.648 37.107 229.908 37.154 230.166 37.1914L230.716 38.5218L232.613 38.7333L232.005 37.2779" fill="#F2F2F2"/>
<path d="M204.802 20.5101C206.505 20.7366 208.17 21.1907 209.753 21.8605C211.381 22.541 212.927 23.4037 214.361 24.432C215.759 25.4248 217.033 26.5823 218.154 27.8794C219.194 29.066 220.035 30.4125 220.645 31.8671C221.167 33.069 221.388 34.3792 221.291 35.6856C221.195 36.7789 220.75 37.8133 220.023 38.6361C219.225 39.4963 218.199 40.1139 217.065 40.4163C215.627 40.8042 214.127 40.9068 212.65 40.7166C210.895 40.5104 209.179 40.0583 207.549 39.3755C205.861 38.6788 204.26 37.7866 202.779 36.7169C201.341 35.6892 200.037 34.4862 198.898 33.1357C197.856 31.9182 197.027 30.5336 196.445 29.0402C195.958 27.8288 195.787 26.5135 195.949 25.2181C196.104 24.1349 196.604 23.1306 197.377 22.3549C198.225 21.5399 199.277 20.9697 200.423 20.705C201.857 20.3682 203.343 20.3021 204.802 20.5101ZM217.746 31.5298C217.283 30.4253 216.645 29.4026 215.856 28.5013C215.006 27.5165 214.041 26.6378 212.979 25.8843C211.893 25.1046 210.721 24.451 209.487 23.9358C208.291 23.4305 207.032 23.0893 205.744 22.9217C204.637 22.7654 203.51 22.8186 202.423 23.0783C201.558 23.2828 200.764 23.7197 200.129 24.3417C199.551 24.9345 199.18 25.6983 199.071 26.5193C198.959 27.502 199.096 28.4972 199.471 29.4126C199.916 30.5364 200.547 31.5779 201.336 32.494C202.196 33.507 203.179 34.4094 204.261 35.1807C205.374 35.9818 206.577 36.6507 207.844 37.1743C209.067 37.6861 210.355 38.0249 211.67 38.1819C212.787 38.3262 213.922 38.2525 215.01 37.964C215.869 37.7385 216.647 37.2758 217.256 36.6293C217.809 36.0117 218.149 35.2337 218.226 34.4087C218.303 33.4237 218.138 32.4347 217.747 31.5277" fill="#F2F2F2"/>
<path d="M257.303 98.0921C257.429 98.1808 257.549 98.2781 257.664 98.3828C257.773 98.4843 257.875 98.5933 257.971 98.7098C258.06 98.8198 258.141 98.9374 258.214 99.0603C258.339 99.2996 258.443 99.5497 258.522 99.8082C258.552 99.9279 258.57 100.05 258.574 100.173C258.578 100.286 258.567 100.398 258.541 100.507C258.517 100.611 258.477 100.709 258.423 100.8C258.351 100.879 258.269 100.948 258.178 101.006C258.083 101.066 257.981 101.115 257.874 101.15C257.759 101.189 257.64 101.214 257.519 101.228C257.387 101.243 257.253 101.247 257.121 101.239L257.079 101.236L257.036 101.233C257.023 101.231 257.008 101.229 256.994 101.227L256.951 101.223L256.932 101.222L256.914 101.221L256.894 101.22L256.876 101.219C256.808 101.214 256.739 101.21 256.671 101.205C256.603 101.2 256.532 101.193 256.461 101.185C256.392 101.177 256.321 101.169 256.251 101.159C256.18 101.149 256.11 101.14 256.038 101.129L254.564 97.5632C254.648 97.5568 254.727 97.5493 254.811 97.545C254.897 97.5397 254.978 97.5375 255.061 97.5365C255.146 97.5354 255.232 97.5343 255.317 97.5375C255.401 97.5418 255.49 97.544 255.577 97.5493H255.618L255.661 97.5504L255.703 97.5514L255.745 97.5536C255.874 97.5621 256.001 97.5803 256.126 97.607C256.259 97.6348 256.391 97.6722 256.519 97.7171C256.654 97.7641 256.786 97.8186 256.915 97.8806C257.047 97.9447 257.176 98.0152 257.303 98.0921ZM256.892 100.851C257.113 100.871 257.336 100.851 257.548 100.79C257.703 100.748 257.838 100.651 257.93 100.52C258.015 100.381 258.054 100.217 258.038 100.055C258.019 99.8317 257.962 99.6127 257.87 99.4086C257.786 99.1992 257.673 99.0026 257.537 98.823C257.265 98.4672 256.894 98.2001 256.47 98.0558C256.238 97.9757 255.995 97.9286 255.751 97.9148C255.703 97.9115 255.656 97.9094 255.609 97.9105C255.562 97.9105 255.515 97.9094 255.468 97.9105C255.42 97.9115 255.375 97.9126 255.33 97.9158C255.284 97.919 255.239 97.9233 255.195 97.9276L256.383 100.801L256.496 100.817C256.533 100.822 256.569 100.827 256.607 100.831L256.718 100.843C256.754 100.845 256.791 100.848 256.828 100.85L256.844 100.851L256.86 100.852L256.876 100.853H256.892" fill="#F2F2F2"/>
<path d="M241.415 83.9614L244.287 84.173L246.116 94.3949L243.205 94.2058L241.415 83.9614Z" fill="#F2F2F2"/>
<path d="M126.962 48.4028C126.691 48.4722 126.408 48.4925 126.129 48.4626L119.772 47.861L118.941 44.681L119.977 43.7535L127.215 44.4608L127.876 46.8833C127.941 47.1045 127.945 47.3385 127.89 47.5608C127.835 47.7627 127.723 47.9444 127.567 48.0843C127.543 48.1057 127.519 48.126 127.493 48.1463C127.334 48.2649 127.153 48.3525 126.962 48.4028ZM120.028 43.3827L118.91 39.1405L125.96 39.8543L127.111 44.0772L120.028 43.3827ZM114.241 47.3374L113.387 43.9853L111.612 42.6603L110.482 38.1841L111.659 37.17L110.831 33.9096L115.795 34.43L116.644 37.6819L118.4 38.9887L119.57 43.4425L118.417 44.4758L119.289 47.8172L114.241 47.3374ZM118.81 38.759L118.661 38.744L117.081 37.5707L116.271 34.4752L122.541 35.1325C122.847 35.1677 123.148 35.2446 123.433 35.3608C123.716 35.4756 123.984 35.6252 124.231 35.8065C124.464 35.9764 124.673 36.1773 124.85 36.406C125.013 36.6112 125.133 36.8463 125.207 37.0984L125.855 39.4739L118.81 38.759ZM107.269 46.677C106.948 46.6439 106.634 46.5659 106.334 46.4462C106.04 46.3298 105.762 46.1748 105.507 45.9867C105.266 45.8115 105.052 45.6021 104.872 45.3659C104.708 45.1511 104.589 44.9054 104.521 44.6436L103.923 42.1795L111.344 42.9071L112.939 44.0965L113.75 47.2904L107.269 46.677ZM103.831 41.7905L102.792 37.5045L110.017 38.2375L111.091 42.5043L103.831 41.7905ZM102.699 37.1209L102.115 34.7105C102.057 34.491 102.061 34.2595 102.128 34.0422C102.193 33.8421 102.316 33.6656 102.481 33.5342C102.665 33.3879 102.88 33.2856 103.11 33.2346C103.388 33.1708 103.676 33.1549 103.959 33.1876L110.341 33.8566L111.129 36.9638L110.074 37.8721L102.699 37.1209Z" fill="url(#paint3_linear_893_2454)"/>
<path d="M122.44 34.7596C122.814 34.8026 123.18 34.8967 123.527 35.039C123.871 35.1782 124.197 35.3599 124.497 35.5798C124.781 35.7862 125.034 36.0309 125.25 36.3077C125.448 36.5577 125.595 36.8441 125.685 37.1497L128.02 45.6972L128.357 46.9292C128.436 47.1974 128.442 47.4827 128.375 47.7542C128.308 47.9999 128.172 48.2211 127.982 48.391C127.77 48.5748 127.518 48.7063 127.246 48.7757C126.915 48.8591 126.572 48.8836 126.233 48.8462L116.748 47.9508L107.365 47.066C106.976 47.0265 106.594 46.9324 106.232 46.7871C105.874 46.645 105.535 46.4569 105.226 46.2282C104.932 46.0145 104.672 45.7592 104.453 45.4696C104.253 45.2088 104.106 44.9096 104.023 44.5923L103.591 42.8056L101.623 34.6552C101.608 34.5967 101.598 34.5391 101.589 34.4824C101.581 34.4256 101.577 34.3697 101.575 34.3151C101.573 34.2613 101.575 34.2074 101.579 34.1538C101.583 34.1021 101.59 34.0506 101.599 33.9996C101.638 33.7992 101.723 33.6109 101.849 33.4504C101.982 33.2838 102.148 33.1468 102.337 33.0481C102.551 32.9356 102.783 32.8594 103.023 32.8229C103.303 32.7794 103.588 32.7733 103.87 32.8045L122.44 34.7596ZM119.286 47.8151L118.413 44.4726L119.567 43.4404L118.396 38.9866L116.64 37.6787L115.792 34.4273L110.827 33.907L111.656 37.17L110.479 38.183L111.609 42.6592L113.385 43.9843L114.238 47.3364L119.282 47.814M102.112 34.7099L102.696 37.1198L110.074 37.871L111.129 36.9627L110.34 33.8562L103.959 33.1872C103.675 33.1547 103.388 33.1705 103.109 33.2342C102.879 33.2855 102.663 33.3884 102.478 33.5352C102.314 33.6668 102.191 33.8435 102.125 34.0436C102.059 34.2608 102.054 34.4921 102.112 34.7116M125.854 39.4771L125.206 37.1016C125.133 36.8495 125.012 36.6144 124.849 36.4092C124.673 36.1805 124.464 35.9796 124.231 35.8097C123.984 35.6283 123.715 35.4787 123.432 35.3639C123.147 35.2477 122.847 35.1708 122.54 35.1356L116.271 34.4784L117.08 37.5739L118.659 38.7451L118.808 38.76L125.854 39.4771ZM113.748 47.2925L112.937 44.0986L111.342 42.9082L103.922 42.1827L104.52 44.6457C104.588 44.9075 104.708 45.1533 104.872 45.3681C105.052 45.6064 105.266 45.8158 105.507 45.991C105.762 46.1802 106.04 46.334 106.335 46.4505C106.634 46.5702 106.948 46.6471 107.268 46.6802L113.75 47.2947M127.875 46.8876L127.214 44.4651L119.976 43.7567L118.939 44.6831L119.772 47.8653L126.13 48.4669C126.408 48.4968 126.69 48.4754 126.961 48.406C127.186 48.3494 127.393 48.2404 127.566 48.0886C127.722 47.9486 127.834 47.767 127.89 47.565C127.945 47.3417 127.94 47.1088 127.875 46.8876ZM127.11 44.0815L125.959 39.8575L118.91 39.1426L120.027 43.3859L127.11 44.0815ZM102.791 37.5045L103.829 41.7916L111.091 42.5054L110.016 38.2375L102.791 37.5045Z" fill="#A1A1A1"/>
<path d="M194.216 107.352L36.7782 127.977C36.2607 128.042 35.7357 128.017 35.2265 127.904C34.718 127.793 34.23 127.603 33.78 127.341C33.3385 127.087 32.9414 126.762 32.604 126.38C32.276 126.012 32.0233 125.582 31.8597 125.116L0.821043 34.7541C0.696792 34.4113 0.666141 34.0416 0.732231 33.683C0.798931 33.3494 0.954666 33.0399 1.18292 32.7875C1.43416 32.5128 1.74347 32.2975 2.08838 32.1573C2.49391 31.9912 2.92571 31.8984 3.36369 31.8832L150.635 25.0895C151.016 25.076 151.398 25.1217 151.764 25.2251C152.54 25.4426 153.251 25.8473 153.835 26.4037C154.111 26.6664 154.345 26.9706 154.528 27.3054L195.507 104.175C195.699 104.522 195.823 104.902 195.872 105.295C195.914 105.624 195.872 105.959 195.752 106.268C195.636 106.556 195.44 106.806 195.187 106.988C194.956 107.151 194.693 107.264 194.415 107.319C194.351 107.332 194.285 107.344 194.216 107.352Z" fill="url(#paint4_linear_893_2454)"/>
<path d="M192.773 109.234L35.8383 130.06C35.6825 130.08 35.5256 130.091 35.3686 130.094C35.3223 130.095 35.2764 130.093 35.2298 130.092C35.1127 130.092 34.9962 130.086 34.8798 130.076C34.8514 130.073 34.8227 130.075 34.7935 130.072C34.7774 130.071 34.7612 130.067 34.7449 130.065C34.5922 130.046 34.4401 130.024 34.2895 129.99L34.2831 129.988C34.2715 129.986 34.2605 129.981 34.2489 129.979C34.1068 129.947 33.967 129.908 33.8286 129.863C33.8103 129.857 33.7917 129.854 33.7738 129.848C33.7476 129.839 33.7227 129.826 33.6965 129.818C33.5858 129.778 33.477 129.734 33.3703 129.687C33.3309 129.671 33.2915 129.654 33.2519 129.636C33.1155 129.573 32.9812 129.505 32.8522 129.43L32.8399 129.422L32.8309 129.418C32.8163 129.41 32.8035 129.399 32.79 129.39C32.6733 129.321 32.5611 129.246 32.4517 129.167C32.4135 129.139 32.3768 129.111 32.3403 129.084C32.2481 129.013 32.1591 128.939 32.0731 128.863C32.052 128.843 32.0285 128.828 32.008 128.808C31.9985 128.799 31.9908 128.79 31.9813 128.781C31.8752 128.683 31.7754 128.581 31.6809 128.474L31.6726 128.463L31.6656 128.455C31.6539 128.443 31.6458 128.429 31.635 128.416C31.5534 128.319 31.4761 128.217 31.4042 128.113C31.3937 128.098 31.3806 128.085 31.37 128.069C31.355 128.046 31.3439 128.022 31.3294 127.999C31.2724 127.91 31.2192 127.82 31.17 127.727C31.1567 127.702 31.1389 127.679 31.1263 127.653C31.1191 127.639 31.1152 127.625 31.1083 127.611C31.0438 127.482 30.9872 127.348 30.9387 127.213L0.12286 37.0226C0.0856152 36.9146 0.0562796 36.8046 0.0350857 36.6924C0.0151731 36.5866 0.00373779 36.4787 0.000888559 36.3718C-0.00230694 36.2681 0.00312003 36.1645 0.0171118 36.063C0.0308803 35.9625 0.0528757 35.8642 0.0828749 35.7681L0.778795 33.4986C0.748742 33.5949 0.726769 33.6934 0.713111 33.7934C0.699645 33.8957 0.694386 33.9991 0.697379 34.1022C0.700564 34.2099 0.712127 34.3172 0.731984 34.4231C0.753049 34.535 0.782386 34.6454 0.81977 34.7531L31.8578 125.114C31.906 125.251 31.9629 125.384 32.0279 125.515C32.0468 125.553 32.0685 125.592 32.0886 125.63C32.1386 125.723 32.1916 125.814 32.2492 125.903C32.2738 125.94 32.2981 125.981 32.3248 126.018C32.397 126.122 32.4743 126.222 32.5564 126.319C32.5695 126.335 32.5806 126.351 32.5946 126.367C32.6912 126.479 32.796 126.584 32.904 126.686C32.9337 126.714 32.9655 126.74 32.9964 126.767C33.0827 126.844 33.1721 126.918 33.2644 126.989C33.3012 127.017 33.3386 127.045 33.3764 127.073C33.4863 127.152 33.5993 127.227 33.7159 127.297C33.7329 127.308 33.7492 127.319 33.7654 127.33C33.8992 127.407 34.0381 127.479 34.1793 127.545C34.2185 127.563 34.2593 127.58 34.2996 127.597C34.4073 127.644 34.5166 127.687 34.6283 127.727C34.6742 127.742 34.7165 127.758 34.7609 127.773C34.8985 127.817 35.0404 127.857 35.1831 127.89C35.1942 127.892 35.2052 127.895 35.2173 127.899C35.3705 127.931 35.5253 127.956 35.6811 127.975C35.7249 127.98 35.7708 127.982 35.8164 127.988C35.9329 127.998 36.0507 128.004 36.1678 128.006C36.214 128.006 36.2604 128.007 36.3067 128.007C36.4644 128.003 36.6218 127.993 36.7783 127.973L194.216 107.35C194.356 107.332 194.493 107.302 194.628 107.26L194.633 107.259C194.755 107.222 194.874 107.172 194.986 107.112L194.994 107.107C195.099 107.05 195.198 106.984 195.289 106.907L195.292 106.904C195.381 106.829 195.462 106.744 195.533 106.652L194.087 108.533C194.052 108.58 194.013 108.625 193.973 108.667C193.933 108.708 193.891 108.747 193.848 108.784L193.845 108.786L193.843 108.787C193.796 108.827 193.747 108.863 193.696 108.897C193.649 108.928 193.6 108.957 193.548 108.986L193.543 108.99H193.541L193.535 108.991C193.48 109.021 193.423 109.048 193.366 109.073C193.309 109.096 193.249 109.118 193.189 109.137L193.185 109.138L193.182 109.139C193.118 109.158 193.051 109.175 192.984 109.19L192.968 109.193C192.906 109.212 192.841 109.225 192.773 109.234Z" fill="url(#paint5_linear_893_2454)"/>
<path d="M149.508 31.7248C150.942 32.5461 152.26 33.5539 153.429 34.7222C154.472 35.7574 155.354 36.9446 156.041 38.244C156.646 39.3681 157.014 40.6055 157.121 41.8792C157.216 43.0322 156.974 44.1873 156.425 45.2057C156.151 45.7004 155.803 46.1513 155.394 46.5424C154.976 46.9399 154.506 47.2776 153.996 47.5469C153.455 47.8333 152.883 48.0566 152.291 48.2126C151.65 48.3804 150.995 48.4872 150.335 48.531C149.608 48.5791 148.879 48.5652 148.155 48.4915C147.377 48.4135 146.604 48.2778 145.846 48.0844C145.038 47.8781 144.246 47.6153 143.476 47.299C142.661 46.9656 141.87 46.5766 141.11 46.1353C141.448 45.0283 141.537 43.8603 141.371 42.7159C141.19 41.4635 140.8 40.2518 140.218 39.1287C139.571 37.8678 138.76 36.6967 137.809 35.6462C136.759 34.479 135.578 33.4348 134.291 32.5337C134.574 32.053 134.927 31.6175 135.338 31.2419C135.766 30.8531 136.245 30.5238 136.76 30.2626C137.314 29.9816 137.9 29.7651 138.505 29.6174C139.168 29.4552 139.844 29.358 140.526 29.3272C141.26 29.2928 141.995 29.3192 142.725 29.4061C143.493 29.4968 144.253 29.6432 144.999 29.8439C145.776 30.0528 146.539 30.313 147.281 30.6227C148.047 30.9419 148.79 31.31 149.508 31.7248ZM149.267 42.8463C149.634 42.7661 149.982 42.6219 150.297 42.4188C150.544 42.2596 150.745 42.0395 150.88 41.7788C151.001 41.5298 151.051 41.252 151.025 40.9763C150.993 40.6578 150.898 40.348 150.745 40.0659C150.59 39.7645 150.398 39.4835 150.171 39.2313C149.935 38.9738 149.665 38.7505 149.367 38.5667C149.021 38.3551 148.655 38.182 148.272 38.0495C147.799 37.8849 147.315 37.7546 146.824 37.6595C146.453 37.5761 146.135 37.5002 145.862 37.4265C145.591 37.3528 145.366 37.2844 145.181 37.2139C145.029 37.1594 144.883 37.0867 144.746 36.9991C144.653 36.9403 144.576 36.8591 144.522 36.7619C144.485 36.6956 144.466 36.6197 144.469 36.5428C144.474 36.4669 144.508 36.3964 144.566 36.3462C144.65 36.2735 144.751 36.2222 144.859 36.1955C145.033 36.1485 145.212 36.1207 145.393 36.1143C145.591 36.1047 145.793 36.1036 145.999 36.1122C146.205 36.1197 146.414 36.1378 146.623 36.1656C146.835 36.1934 147.048 36.2308 147.263 36.2767C147.478 36.3238 147.695 36.3782 147.912 36.4424L147.471 34.6273C147.256 34.5703 147.041 34.5205 146.828 34.4794C146.616 34.4382 146.404 34.4044 146.195 34.3787C145.985 34.3531 145.779 34.3358 145.575 34.3265C145.371 34.3171 145.169 34.3158 144.972 34.3226L144.394 33.1974L142.671 33.2906L143.301 34.5261C142.956 34.6076 142.627 34.7473 142.329 34.9393C142.093 35.0907 141.9 35.2999 141.769 35.5469C141.649 35.7831 141.599 36.047 141.621 36.3109C141.649 36.6187 141.739 36.9189 141.885 37.1914C142.056 37.5259 142.284 37.8294 142.558 38.0879C142.839 38.3508 143.155 38.5741 143.497 38.7515C143.87 38.946 144.259 39.1063 144.661 39.2313C145.102 39.3681 145.55 39.4803 146.004 39.5679C146.328 39.6278 146.608 39.6897 146.849 39.7528C147.055 39.8041 147.258 39.8714 147.455 39.9515C147.6 40.0092 147.736 40.0872 147.859 40.1823C147.956 40.2593 148.036 40.3565 148.094 40.4666C148.145 40.5531 148.163 40.6557 148.143 40.7551C148.116 40.8438 148.056 40.9207 147.975 40.9667C147.865 41.0329 147.745 41.0799 147.62 41.1056C147.451 41.143 147.279 41.1665 147.106 41.175C146.872 41.1857 146.633 41.1836 146.389 41.1697C146.146 41.1558 145.898 41.1302 145.647 41.0938C145.397 41.0586 145.145 41.0094 144.892 40.9496C144.638 40.8908 144.382 40.8203 144.128 40.7391L144.588 42.6764C144.848 42.7512 145.104 42.8153 145.361 42.8698C145.616 42.9232 145.87 42.9681 146.122 43.0023C146.373 43.0354 146.621 43.06 146.867 43.0728C147.111 43.0867 147.353 43.0899 147.59 43.0824L148.244 44.3594L149.984 44.2472L149.267 42.8484" fill="black"/>
<path d="M125.575 34.972L125.595 34.9711L125.615 34.9698L125.637 34.9689L125.657 34.968L125.668 34.9658L125.677 34.9635L125.688 34.9613L125.699 34.9591C125.908 34.9475 126.121 34.9452 126.338 34.9519C126.555 34.9586 126.773 34.9746 126.993 34.9995C127.213 35.0245 127.437 35.0583 127.661 35.1013C127.885 35.1442 128.111 35.1961 128.337 35.257L128.686 36.9253C128.515 36.8794 128.344 36.8398 128.174 36.8056C128.003 36.7725 127.834 36.7458 127.667 36.7255C127.5 36.7041 127.334 36.6902 127.17 36.6828C127.007 36.6764 126.846 36.6753 126.686 36.6806H126.666L126.646 36.6817L126.626 36.6828L126.606 36.6838C126.428 36.6924 126.25 36.7212 126.078 36.7672C125.922 36.8089 125.771 36.8687 125.63 36.9478C125.499 37.0204 125.38 37.1134 125.277 37.2213C125.176 37.326 125.094 37.4468 125.032 37.5782C125.002 37.6509 124.977 37.7267 124.959 37.8037C124.941 37.8828 124.93 37.9629 124.925 38.043C124.919 38.1264 124.919 38.2097 124.925 38.2931C124.931 38.3807 124.944 38.4673 124.962 38.5528L129.082 38.3134L129.589 39.3435L125.216 39.6021C125.231 39.6416 125.246 39.6779 125.262 39.7153C125.277 39.7538 125.294 39.7923 125.311 39.8297C125.327 39.8671 125.345 39.9056 125.362 39.943C125.38 39.9814 125.4 40.021 125.418 40.0562L125.532 40.2881L129.925 40.0263L130.434 41.0628L126.271 41.3161C126.338 41.408 126.411 41.4999 126.489 41.5875C126.566 41.6751 126.649 41.7627 126.738 41.8461C126.825 41.9294 126.918 42.0096 127.015 42.0854C127.113 42.1613 127.214 42.2361 127.318 42.3066C127.506 42.4178 127.702 42.5161 127.902 42.6005C128.099 42.6828 128.3 42.7511 128.505 42.8056C128.703 42.858 128.904 42.8965 129.106 42.9189C129.298 42.9403 129.493 42.9456 129.686 42.9339L129.721 42.9317L129.758 42.9285L129.793 42.9253L129.828 42.9221C129.988 42.9104 130.146 42.8911 130.303 42.8644C130.452 42.8377 130.601 42.8035 130.746 42.7608C130.886 42.7202 131.023 42.671 131.157 42.6144C131.285 42.5588 131.409 42.4958 131.53 42.4242L132.727 44.027C132.572 44.1328 132.408 44.2268 132.238 44.308C132.06 44.3925 131.876 44.4641 131.688 44.5228C131.49 44.5848 131.289 44.634 131.085 44.6714C130.87 44.7098 130.653 44.7365 130.435 44.7494L130.394 44.7526L130.354 44.7558L130.319 44.7579L130.285 44.7611C129.891 44.7846 129.497 44.7707 129.106 44.7205C128.693 44.6671 128.286 44.5795 127.889 44.4587C127.474 44.3337 127.07 44.1766 126.68 43.9885C126.28 43.7983 125.895 43.5761 125.529 43.3271C125.34 43.1967 125.157 43.0546 124.983 42.9093C124.809 42.764 124.644 42.6133 124.488 42.4594C124.332 42.3055 124.184 42.1431 124.048 41.9786C123.91 41.814 123.784 41.6452 123.668 41.4742L122.594 41.5394L122.092 40.4965L122.997 40.443L122.876 40.193C122.859 40.1567 122.842 40.1193 122.826 40.0829C122.81 40.0466 122.794 40.0092 122.778 39.9729L122.731 39.8628C122.714 39.8265 122.698 39.7901 122.68 39.7538L121.744 39.8083L121.242 38.7675L122.362 38.7013C122.322 38.5207 122.295 38.3369 122.282 38.152C122.27 37.9768 122.272 37.8005 122.288 37.6252C122.305 37.4553 122.334 37.2886 122.379 37.1241C122.423 36.9638 122.481 36.8078 122.554 36.6571C122.675 36.4081 122.837 36.1795 123.03 35.9807C123.231 35.7766 123.461 35.602 123.712 35.4631C123.982 35.3134 124.27 35.1977 124.569 35.1187C124.898 35.0348 125.236 34.9856 125.575 34.972Z" fill="black"/>
<path d="M122.607 30.2229C124.176 30.1583 125.746 30.3386 127.259 30.757C128.83 31.1841 130.34 31.8113 131.751 32.6231C133.157 33.4239 134.454 34.4039 135.607 35.5388C136.713 36.6165 137.637 37.8667 138.344 39.2388C138.968 40.4259 139.323 41.7349 139.384 43.0728C139.429 44.2161 139.154 45.3499 138.591 46.3447C138.003 47.3438 137.15 48.1602 136.128 48.7041C134.904 49.3474 133.554 49.7171 132.172 49.7866C130.569 49.8827 128.961 49.7182 127.412 49.3004C125.791 48.8719 124.232 48.2307 122.78 47.393C121.333 46.567 120.003 45.5508 118.828 44.3711C117.71 43.263 116.786 41.9743 116.095 40.5595C115.492 39.3531 115.174 38.0259 115.163 36.6774C115.164 35.5346 115.489 34.4156 116.099 33.4496C116.733 32.4815 117.617 31.7028 118.658 31.1961C119.892 30.5998 121.237 30.2683 122.607 30.2229ZM130.978 47.347C132.021 47.2968 133.041 47.0211 133.967 46.5392C134.742 46.1321 135.389 45.5187 135.838 44.7675C136.267 44.0174 136.48 43.1625 136.45 42.2981C136.408 41.2861 136.143 40.2945 135.674 39.3958C135.141 38.3551 134.442 37.4083 133.606 36.5909C132.732 35.7285 131.75 34.9851 130.683 34.378C129.613 33.7626 128.468 33.2876 127.276 32.965C126.129 32.6489 124.941 32.5142 123.752 32.5658C122.716 32.6015 121.698 32.8551 120.766 33.3099C119.982 33.6962 119.317 34.2881 118.842 35.0225C118.385 35.7563 118.145 36.6037 118.149 37.4671C118.162 38.4854 118.407 39.4877 118.864 40.3982C119.388 41.4625 120.086 42.4316 120.929 43.2673C121.815 44.1531 122.816 44.9171 123.906 45.539C125 46.1695 126.172 46.6535 127.393 46.9773C128.561 47.2925 129.77 47.4186 130.978 47.3492" fill="black"/>
<path d="M185.504 99.0196C185.541 99.0154 185.579 99.0175 185.615 99.0271C185.655 99.0367 185.692 99.0517 185.727 99.072C185.765 99.0923 185.799 99.1169 185.829 99.1468C185.858 99.1756 185.882 99.2088 185.901 99.2451L185.91 99.2601C185.928 99.2911 185.941 99.3263 185.946 99.3626C185.951 99.3936 185.947 99.4246 185.937 99.4535C185.927 99.4802 185.909 99.5048 185.885 99.5219C185.86 99.5411 185.829 99.5529 185.796 99.5571L185.772 99.5603L185.761 99.5625C185.725 99.5657 185.689 99.5635 185.654 99.555C185.616 99.5454 185.58 99.5304 185.546 99.5112C185.511 99.4909 185.479 99.4663 185.45 99.4385C185.422 99.4107 185.397 99.3787 185.378 99.3434L185.368 99.3263C185.35 99.2932 185.337 99.2569 185.333 99.2195C185.329 99.1874 185.332 99.1553 185.343 99.1265C185.353 99.0987 185.371 99.0752 185.395 99.057C185.422 99.0389 185.453 99.0261 185.486 99.0218L185.5 99.0196L185.505 99.0175L185.504 99.0196Z" fill="#5E5E5E"/>
<path d="M184.126 96.6004L183.064 95.191L179.807 95.5746L180.026 97.0909L177.341 97.4104L176.557 88.0241C176.545 87.9215 176.554 87.8168 176.582 87.7174C176.609 87.6255 176.655 87.5411 176.717 87.4695C176.78 87.3947 176.858 87.3349 176.946 87.2921C177.045 87.2451 177.151 87.2162 177.26 87.2056L179.421 86.9683L186.46 96.3183L184.126 96.6004ZM179.516 93.5037L181.619 93.2601L178.979 89.7423L179.516 93.5037ZM173.071 98.0846L173.06 98.0878L173.047 98.09L173.036 98.0921L173.023 98.0953C172.782 98.1242 172.534 98.1423 172.283 98.1487C172.03 98.1552 171.772 98.1466 171.513 98.1316C171.254 98.1156 170.99 98.0889 170.723 98.0515C170.457 98.0141 170.189 97.966 169.92 97.9072L169.304 95.6985C169.553 95.7776 169.801 95.8439 170.047 95.8973C170.288 95.9496 170.532 95.9892 170.777 96.017C171.012 96.0437 171.249 96.0576 171.487 96.0576C171.714 96.0586 171.942 96.0458 172.168 96.0191L172.196 96.0159L172.223 96.0127L172.25 96.0084L172.276 96.0031C172.455 95.9806 172.63 95.9368 172.798 95.8748C172.946 95.8225 173.083 95.7434 173.203 95.6419C173.307 95.5553 173.379 95.4367 173.408 95.3053C173.434 95.1546 173.407 94.9997 173.332 94.865C173.277 94.755 173.202 94.6556 173.112 94.5712C173.001 94.4686 172.877 94.382 172.743 94.3126C172.562 94.2175 172.372 94.1352 172.179 94.0679C171.955 93.9845 171.69 93.9001 171.377 93.8104C171.074 93.7217 170.739 93.6159 170.4 93.4845C170.049 93.352 169.708 93.1927 169.38 93.0089C169.048 92.8241 168.739 92.5986 168.46 92.3379C168.18 92.0761 167.949 91.7673 167.778 91.4243C167.56 91.015 167.449 90.5577 167.453 90.0928C167.466 89.6932 167.602 89.3064 167.842 88.9869C168.117 88.6364 168.474 88.3596 168.881 88.1812C169.397 87.9546 169.946 87.8136 170.509 87.7634C170.713 87.7409 170.92 87.7281 171.133 87.7249C171.344 87.7217 171.559 87.726 171.776 87.7398C171.994 87.7537 172.214 87.7762 172.438 87.8061C172.661 87.8382 172.885 87.8777 173.112 87.9268L173.706 90.0084C173.506 89.9518 173.309 89.9048 173.112 89.8674C172.915 89.83 172.721 89.8022 172.529 89.7829C172.337 89.7648 172.148 89.7552 171.962 89.7562C171.778 89.7562 171.596 89.7669 171.413 89.7872C171.374 89.7915 171.336 89.7958 171.297 89.8011C171.259 89.8065 171.22 89.8118 171.183 89.8182C171.146 89.8246 171.108 89.831 171.071 89.8374C171.033 89.8449 170.996 89.8535 170.96 89.861C170.811 89.8962 170.669 89.9539 170.539 90.0319C170.442 90.0896 170.36 90.1676 170.299 90.2617C170.249 90.3397 170.222 90.4316 170.222 90.5245C170.221 90.6164 170.243 90.7073 170.284 90.7906C170.501 91.1133 170.829 91.3473 171.205 91.4488C171.651 91.6252 172.207 91.7769 172.785 91.9746C173.388 92.1648 173.965 92.4298 174.502 92.7632C175.07 93.1211 175.532 93.6234 175.841 94.2186C176.077 94.6513 176.208 95.1343 176.224 95.6269C176.228 96.0426 176.101 96.4487 175.86 96.7863C175.583 97.1539 175.215 97.4435 174.794 97.6284C174.446 97.7876 174.08 97.9073 173.704 97.9831C173.504 98.0248 173.294 98.0579 173.071 98.0846ZM165.699 98.8006L162.959 88.7699L165.55 88.4878L168.316 98.4886L165.699 98.8006ZM159.68 99.5197L153.687 91.8677C153.63 91.7737 153.565 91.6861 153.49 91.6059C153.414 91.5236 153.331 91.4478 153.241 91.3805C153.149 91.3121 153.052 91.2522 152.95 91.2009C152.849 91.1496 152.742 91.1069 152.632 91.0759C152.378 91.0033 152.124 90.937 151.87 90.8782C151.616 90.8195 151.362 90.7671 151.11 90.7211C150.858 90.6752 150.606 90.6367 150.355 90.6047C150.103 90.5726 149.853 90.548 149.603 90.532L149.527 90.2392L154.044 89.7445C154.202 89.7295 154.36 89.7391 154.515 89.7733C154.678 89.8075 154.836 89.8631 154.984 89.9379C155.138 90.0148 155.281 90.111 155.412 90.2232C155.541 90.3354 155.655 90.4647 155.752 90.6079L159.668 96.1666L159.102 89.192L161.844 88.8928L162.48 99.1853L159.68 99.5197Z" fill="url(#paint6_linear_893_2454)"/>
<path d="M184.047 100.154C184.202 100.137 184.359 100.15 184.51 100.193C184.671 100.239 184.825 100.309 184.964 100.403C185.117 100.505 185.256 100.626 185.377 100.764C185.507 100.913 185.619 101.078 185.711 101.254C185.809 101.434 185.877 101.629 185.911 101.832C185.937 101.977 185.924 102.127 185.876 102.266C185.832 102.382 185.754 102.482 185.652 102.553C185.545 102.625 185.424 102.67 185.295 102.684L185.273 102.688L185.261 102.69L185.25 102.693C185.167 102.703 185.084 102.702 185.001 102.691C184.913 102.678 184.826 102.657 184.742 102.627C184.652 102.596 184.566 102.556 184.484 102.509C184.4 102.458 184.32 102.402 184.245 102.336L184.233 102.34L184.412 102.74L184.037 102.787C184.018 102.746 183.997 102.698 183.973 102.647C183.95 102.598 183.924 102.544 183.896 102.49C183.87 102.436 183.843 102.378 183.816 102.323C183.788 102.267 183.76 102.21 183.733 102.157L182.222 99.2376L182.658 99.1831L183.442 100.697C183.449 100.628 183.467 100.559 183.496 100.495C183.524 100.434 183.563 100.38 183.61 100.334C183.659 100.287 183.717 100.248 183.779 100.221C183.847 100.191 183.919 100.17 183.994 100.162L184.006 100.16L184.02 100.157L184.034 100.153L184.047 100.154ZM185.023 102.346C185.123 102.338 185.219 102.3 185.3 102.239C185.367 102.184 185.414 102.107 185.432 102.021C185.451 101.918 185.449 101.811 185.424 101.709C185.39 101.575 185.341 101.445 185.276 101.323C185.213 101.204 185.138 101.091 185.051 100.987C184.967 100.886 184.871 100.797 184.764 100.72C184.665 100.646 184.554 100.589 184.436 100.552C184.323 100.517 184.203 100.505 184.086 100.519C184 100.533 183.92 100.568 183.85 100.619C183.788 100.667 183.741 100.73 183.713 100.803C183.684 100.881 183.673 100.964 183.683 101.048C183.694 101.146 183.724 101.24 183.771 101.328L183.994 101.757C184 101.771 184.006 101.784 184.014 101.796C184.02 101.806 184.029 101.822 184.037 101.833C184.046 101.844 184.055 101.86 184.064 101.871C184.073 101.881 184.082 101.896 184.092 101.907C184.15 101.981 184.217 102.047 184.291 102.105C184.362 102.161 184.441 102.209 184.525 102.249C184.604 102.286 184.688 102.314 184.774 102.331C184.854 102.347 184.936 102.351 185.017 102.342L185.024 102.34" fill="#5E5E5E"/>
<path d="M182.689 101.528C182.698 101.545 182.708 101.562 182.716 101.579C182.725 101.596 182.733 101.613 182.741 101.631C182.749 101.648 182.756 101.665 182.764 101.684C182.77 101.701 182.777 101.718 182.784 101.735L181.071 101.949C181.118 102.058 181.183 102.159 181.262 102.249C181.343 102.342 181.437 102.423 181.54 102.491C181.641 102.559 181.751 102.612 181.868 102.651C181.978 102.687 182.093 102.704 182.209 102.702L182.226 102.701L182.243 102.699L182.259 102.695L182.276 102.692L182.292 102.689L182.307 102.685L182.324 102.682L182.34 102.678L182.355 102.675L182.37 102.672L182.386 102.669L182.401 102.666C182.453 102.659 182.504 102.651 182.554 102.639C182.602 102.627 182.65 102.612 182.696 102.595C182.742 102.579 182.786 102.56 182.829 102.537C182.869 102.516 182.91 102.492 182.948 102.466L183.192 102.769C183.144 102.803 183.094 102.834 183.041 102.861C182.988 102.889 182.932 102.913 182.875 102.935C182.816 102.956 182.756 102.973 182.695 102.988C182.631 103.003 182.567 103.015 182.503 103.022L182.491 103.025L182.48 103.027L182.47 103.03L182.459 103.032L182.442 103.035L182.424 103.04L182.407 103.043L182.388 103.047C182.233 103.064 182.075 103.055 181.924 103.017C181.759 102.979 181.602 102.918 181.454 102.835C181.302 102.752 181.16 102.65 181.033 102.53C180.906 102.41 180.797 102.273 180.708 102.124C180.701 102.11 180.692 102.095 180.685 102.081C180.678 102.067 180.67 102.053 180.663 102.038C180.656 102.024 180.648 102.009 180.642 101.996C180.636 101.982 180.63 101.967 180.624 101.953C180.536 101.789 180.474 101.613 180.44 101.431C180.41 101.285 180.416 101.134 180.454 100.99C180.49 100.863 180.566 100.751 180.672 100.671C180.797 100.58 180.945 100.525 181.097 100.511C181.284 100.488 181.474 100.506 181.652 100.565C181.818 100.62 181.972 100.704 182.107 100.812C182.238 100.914 182.354 101.032 182.456 101.161C182.546 101.275 182.624 101.398 182.689 101.528ZM182.207 101.47C182.174 101.38 182.125 101.298 182.065 101.224C181.937 101.07 181.773 100.954 181.585 100.884C181.496 100.851 181.402 100.834 181.306 100.831L181.225 100.835C181.141 100.85 181.062 100.884 180.995 100.936C180.935 100.983 180.888 101.046 180.86 101.117C180.831 101.193 180.821 101.275 180.83 101.357C180.84 101.452 180.868 101.545 180.911 101.63L182.207 101.47Z" fill="#5E5E5E"/>
<path d="M178.69 100.276C178.813 100.344 178.932 100.421 179.043 100.506C179.153 100.589 179.256 100.682 179.352 100.782C179.445 100.879 179.53 100.983 179.607 101.093C179.681 101.198 179.744 101.311 179.797 101.428C179.862 101.544 179.918 101.665 179.962 101.79C180.003 101.907 180.032 102.027 180.049 102.148C180.065 102.262 180.068 102.375 180.057 102.488C180.047 102.596 180.023 102.702 179.983 102.802C179.929 102.894 179.862 102.979 179.785 103.053C179.708 103.129 179.622 103.196 179.528 103.251C179.431 103.309 179.327 103.356 179.219 103.391C179.104 103.429 178.984 103.454 178.863 103.469L178.828 103.473C178.816 103.476 178.804 103.476 178.792 103.478L178.755 103.48L178.719 103.483C178.652 103.492 178.583 103.499 178.516 103.505C178.448 103.513 178.38 103.518 178.311 103.524C178.242 103.529 178.173 103.532 178.104 103.535C178.035 103.539 177.964 103.541 177.892 103.542L176.192 100.211C176.263 100.189 176.336 100.168 176.408 100.15C176.481 100.131 176.556 100.114 176.631 100.098C176.706 100.083 176.782 100.068 176.859 100.055C176.936 100.042 177.014 100.032 177.092 100.022L177.128 100.014L177.163 100.007L177.199 100.002L177.235 99.9974C177.35 99.9835 177.466 99.9792 177.582 99.9845C177.704 99.9899 177.824 100.004 177.944 100.026C178.07 100.051 178.194 100.083 178.315 100.122C178.443 100.166 178.568 100.217 178.69 100.276ZM178.624 103.122C178.827 103.103 179.023 103.043 179.202 102.947C179.341 102.872 179.451 102.753 179.515 102.609C179.576 102.454 179.592 102.285 179.56 102.122C179.52 101.905 179.447 101.694 179.341 101.5C179.247 101.308 179.126 101.13 178.983 100.971C178.849 100.821 178.692 100.693 178.518 100.591C178.343 100.492 178.151 100.422 177.953 100.384C177.736 100.345 177.514 100.339 177.296 100.367L177.286 100.37L177.275 100.372L177.264 100.375L177.253 100.377C177.213 100.381 177.173 100.386 177.135 100.394C177.097 100.402 177.058 100.41 177.021 100.418C176.983 100.426 176.946 100.437 176.909 100.446C176.873 100.457 176.838 100.469 176.803 100.48L178.173 103.161C178.211 103.16 178.25 103.159 178.288 103.157C178.327 103.155 178.365 103.153 178.404 103.15C178.441 103.146 178.479 103.143 178.517 103.14C178.553 103.136 178.592 103.131 178.628 103.126" fill="#5E5E5E"/>
<path d="M87.889 120.952L87.8257 120.915L87.7629 120.878C87.7418 120.865 87.7209 120.853 87.6995 120.841C87.6781 120.829 87.6568 120.816 87.6341 120.803C88.421 118.65 88.9858 116.422 89.3198 114.154C89.6527 111.882 89.7649 109.583 89.655 107.289C89.5419 104.948 89.2175 102.622 88.6862 100.339C88.1362 97.9757 87.3896 95.6622 86.4541 93.4225C85.497 91.1101 84.3636 88.8736 83.0641 86.7344C81.7322 84.5427 80.2475 82.4473 78.6212 80.4629C76.9508 78.4231 75.1481 76.4954 73.225 74.6916C71.2461 72.8334 69.153 71.1013 66.9581 69.5048C68.1693 67.716 69.6115 66.095 71.247 64.6835C72.9132 63.2484 74.7454 62.0174 76.7045 61.0172C78.755 59.9722 80.9108 59.1472 83.1356 58.5574C85.4995 57.9301 87.9174 57.5283 90.357 57.3552C95.6298 57.0079 100.924 57.5102 106.037 58.8438C116.467 61.5429 125.97 67.0161 133.538 74.682C137.239 78.4241 140.303 82.7454 142.611 87.4749C143.669 89.6569 144.517 91.9351 145.142 94.2784C145.732 96.485 146.083 98.7482 146.19 101.03C146.291 103.215 146.13 105.404 145.708 107.551C145.289 109.664 144.593 111.713 143.637 113.644L87.889 120.952ZM101.521 106.346C102.263 106.561 103.015 106.738 103.774 106.876C104.605 107.031 105.507 107.161 106.449 107.257C107.391 107.353 108.374 107.413 109.369 107.431C110.364 107.448 111.366 107.422 112.351 107.343L114.472 112.201L120.77 111.408L118.424 106.117C119.773 105.726 121.043 105.104 122.179 104.277C123.094 103.608 123.837 102.732 124.347 101.72C124.809 100.764 125.025 99.7078 124.977 98.6478C124.915 97.4734 124.625 96.3226 124.12 95.2594C123.633 94.163 122.995 93.1404 122.225 92.2204C121.443 91.2993 120.524 90.5043 119.501 89.8599C118.318 89.1237 117.052 88.5317 115.728 88.0979C114.079 87.555 112.389 87.1426 110.676 86.8626C109.378 86.6083 108.264 86.37 107.312 86.137C106.505 85.9479 105.711 85.716 104.93 85.4403C104.398 85.2597 103.891 85.0118 103.422 84.703C103.099 84.4947 102.841 84.2019 102.675 83.8556C102.556 83.6035 102.508 83.3246 102.535 83.0489C102.574 82.7614 102.714 82.4986 102.928 82.3041C103.239 82.0284 103.607 81.8243 104.006 81.7068C104.628 81.5123 105.271 81.3873 105.922 81.337C106.876 81.2441 107.835 81.2152 108.794 81.2505C109.612 81.2815 110.43 81.3563 111.24 81.4759C111.983 81.5839 112.65 81.7175 113.236 81.8478C113.822 81.9782 114.328 82.1064 114.746 82.2047L113.544 75.6309C112.804 75.4503 112.065 75.2975 111.328 75.1736C110.59 75.0496 109.857 74.9534 109.126 74.8861C108.397 74.8188 107.674 74.7803 106.956 74.7707C106.239 74.7611 105.53 74.7803 104.828 74.8295L103.045 70.8106L96.9299 71.3406L98.8635 75.7709C97.5937 76.1235 96.3886 76.677 95.2938 77.4101C94.4039 78.0063 93.6624 78.7992 93.1261 79.7256C92.6393 80.5987 92.3846 81.5828 92.3865 82.5819C92.4003 83.705 92.6432 84.812 93.1006 85.8378C93.6164 87.0571 94.3583 88.1673 95.2872 89.1109C96.2364 90.0597 97.3254 90.8569 98.5164 91.4756C99.8198 92.152 101.188 92.6959 102.601 93.0977C104.161 93.5465 105.747 93.9012 107.35 94.1598C108.503 94.3361 109.492 94.5178 110.338 94.7165C111.064 94.8758 111.775 95.0937 112.466 95.3673C112.97 95.5628 113.442 95.8375 113.862 96.1783C114.199 96.4604 114.468 96.8163 114.647 97.2181C114.826 97.5418 114.873 97.9233 114.776 98.2813C114.681 98.6382 114.45 98.9449 114.133 99.1361C113.735 99.4043 113.297 99.6042 112.835 99.7281C112.226 99.9002 111.605 100.019 110.977 100.084C110.041 100.189 109.098 100.228 108.157 100.205C107.224 100.181 106.292 100.109 105.366 99.9878C104.453 99.8702 103.563 99.7132 102.715 99.5315C101.868 99.3498 101.059 99.1457 100.309 98.9331L101.521 106.346ZM59.0955 124.726C61.75 123.302 64.1242 121.407 66.1029 119.135C67.923 117.031 69.3229 114.598 70.2271 111.967C71.1169 109.346 71.5108 106.582 71.3886 103.816C71.2515 100.865 70.6179 97.9575 69.5145 95.2166C68.5494 92.7867 67.2932 90.4829 65.7734 88.3543C64.2294 86.1905 62.4622 84.1944 60.5011 82.3992C58.498 80.5634 56.3261 78.92 54.0143 77.4923C51.6652 76.0391 49.1898 74.8006 46.6182 73.7908L55.171 73.0642C55.4863 73.0407 55.7941 72.9563 56.0768 72.8142C56.3197 72.6913 56.5298 72.5118 56.6896 72.2916C56.8406 72.079 56.9333 71.8311 56.9584 71.5714C56.9837 71.2851 56.9404 70.9955 56.8322 70.7294L56.315 69.4065C58.9026 70.8192 61.3809 72.4231 63.7292 74.2054C66.0422 75.96 68.2115 77.8963 70.2165 79.996C72.19 82.0605 73.9769 84.2959 75.5565 86.6756C77.1221 89.0318 78.4484 91.5386 79.5158 94.1588C80.4788 96.5021 81.1948 98.9395 81.6522 101.431C82.0888 103.816 82.2526 106.244 82.1405 108.668C82.0294 111.043 81.6284 113.396 80.9465 115.674C80.2547 117.979 79.2733 120.186 78.0259 122.243L59.0955 124.726ZM47.074 117.62C43.7988 118.022 40.4776 117.819 37.2757 117.022C35.6802 116.623 34.1263 116.074 32.6351 115.38C31.1466 114.689 29.7326 113.848 28.4152 112.869L28.3248 112.803L28.2344 112.737L28.144 112.671L28.0536 112.604L19.6961 88.1491C19.7552 88.0252 19.8146 87.9023 19.8744 87.7816C19.9341 87.6597 19.9987 87.539 20.068 87.4183C20.1341 87.2986 20.2031 87.1789 20.2738 87.0613C20.3443 86.9427 20.4169 86.8263 20.4918 86.7098C21.1218 85.7085 21.8836 84.7971 22.7567 83.9988C23.6525 83.1814 24.6442 82.4751 25.7098 81.8959C26.8278 81.289 28.0081 80.8038 29.2301 80.4501C30.527 80.0751 31.8574 79.8272 33.2024 79.7107L33.2724 79.7043L33.3424 79.6989L33.4129 79.6925L33.483 79.6872L33.5169 79.684L33.5513 79.6808L33.586 79.6786L33.6203 79.6743C34.4303 79.6028 35.2487 79.5654 36.0754 79.5622C36.9022 79.559 37.7323 79.591 38.5656 79.6562C39.3992 79.7224 40.2352 79.8218 41.0738 79.9543C41.9124 80.0879 42.7483 80.2546 43.5814 80.4533L44.1071 86.7995C43.4752 86.6467 42.8416 86.5185 42.2063 86.4149C41.5709 86.3112 40.9369 86.2332 40.3041 86.1798C39.6714 86.1263 39.041 86.0975 38.4133 86.0943C37.7855 86.0911 37.1634 86.1135 36.5471 86.1616C35.8067 86.2289 35.0735 86.3604 34.3556 86.5538C33.6907 86.7333 33.0472 86.9833 32.4361 87.3007C31.8603 87.601 31.3269 87.975 30.85 88.4152C30.3805 88.8523 29.9797 89.3566 29.6611 89.9133C29.5049 90.2019 29.3696 90.5011 29.2563 90.8088C29.1429 91.1176 29.0518 91.4339 28.9834 91.7556C28.9145 92.0815 28.8685 92.4106 28.8456 92.7429C28.8223 93.0816 28.8219 93.4214 28.8442 93.7602L44.9539 92.1349L46.4075 96.0811L29.2577 97.8742C29.2904 98.0173 29.3273 98.1605 29.3682 98.3037C29.4084 98.448 29.4526 98.5922 29.4994 98.7386C29.5461 98.885 29.5954 99.0325 29.6468 99.1831C29.6983 99.3338 29.7538 99.4866 29.8063 99.6437L30.1248 100.558L47.3768 98.713L48.8528 102.721L32.4732 104.532C32.689 104.897 32.9256 105.248 33.182 105.586C33.4449 105.932 33.7264 106.263 34.0253 106.579C34.3317 106.901 34.6549 107.208 34.9936 107.498C35.3399 107.794 35.7015 108.071 36.0765 108.331C36.7805 108.786 37.5289 109.17 38.3101 109.473C39.0807 109.774 39.877 110.001 40.6891 110.155C41.4997 110.31 42.3213 110.398 43.146 110.419C43.9701 110.44 44.7947 110.403 45.6134 110.306C46.2448 110.226 46.8718 110.113 47.492 109.971C48.093 109.832 48.6863 109.663 49.2694 109.462C49.8354 109.267 50.3902 109.042 50.9313 108.786C51.4572 108.537 51.9682 108.258 52.4616 107.95L56.3798 114.162C55.7314 114.624 55.0524 115.041 54.3477 115.41C53.6211 115.791 52.871 116.125 52.102 116.411C51.3061 116.707 50.4933 116.954 49.6678 117.152C49.4643 117.201 49.2591 117.248 49.052 117.292C48.4076 117.427 47.7482 117.536 47.074 117.62ZM32.2946 70.7315C31.762 70.7102 31.2288 70.6995 30.6949 70.6995C30.161 70.6984 29.6266 70.7091 29.0917 70.7305C28.5556 70.7518 28.0206 70.7839 27.4867 70.8266L27.4741 70.8288L27.4614 70.832L27.4483 70.8341L27.4356 70.8373C26.3023 70.9292 25.1895 71.0703 24.0969 71.2615C23.0044 71.4517 21.9352 71.6922 20.8893 71.9828C19.855 72.2671 18.8359 72.6058 17.836 72.9947C16.8553 73.3762 15.896 73.8101 14.9623 74.2941L11.75 64.8918C12.7319 64.5264 13.7344 64.1951 14.7572 63.8991C15.7801 63.6031 16.8181 63.3435 17.8716 63.1191C18.9253 62.8957 19.995 62.7077 21.0807 62.5527C22.1666 62.3978 23.2628 62.2813 24.3695 62.2012C24.9167 62.1616 25.4621 62.1296 26.0056 62.1071C26.549 62.0847 27.0903 62.0697 27.6295 62.0623C28.1688 62.0559 28.707 62.058 29.244 62.0687C29.7812 62.0794 30.3169 62.0975 30.8513 62.1232C30.8492 62.1777 30.85 62.2322 30.8535 62.2867C30.8572 62.3422 30.864 62.3989 30.8727 62.4534C30.8812 62.5079 30.8945 62.5666 30.9088 62.6243C30.9231 62.682 30.9426 62.7397 30.9636 62.7985L33.8897 70.8256C33.3598 70.785 32.8281 70.7529 32.2946 70.7315Z" fill="url(#paint7_linear_893_2454)"/>
<path d="M187.29 99.197L187.591 99.773L188.215 99.696L188.389 100.028L187.765 100.104L188.444 101.401C188.479 101.47 188.519 101.536 188.565 101.598C188.602 101.652 188.647 101.7 188.697 101.741C188.742 101.777 188.792 101.804 188.847 101.82C188.903 101.836 188.962 101.84 189.02 101.832L189.027 101.83L189.034 101.829L189.04 101.828L189.047 101.827C189.065 101.822 189.084 101.82 189.103 101.817C189.121 101.813 189.14 101.809 189.158 101.805C189.175 101.802 189.192 101.795 189.208 101.789C189.225 101.783 189.241 101.777 189.257 101.769L189.452 102.099C189.428 102.113 189.403 102.126 189.377 102.137C189.351 102.148 189.325 102.158 189.298 102.167C189.27 102.175 189.241 102.184 189.212 102.189C189.182 102.195 189.152 102.202 189.121 102.205L189.115 102.206L189.109 102.208L189.103 102.209L189.067 102.217C189.024 102.221 188.981 102.222 188.94 102.219C188.894 102.216 188.848 102.208 188.804 102.198C188.757 102.187 188.711 102.172 188.666 102.153C188.619 102.133 188.573 102.112 188.529 102.086C188.473 102.044 188.419 101.999 188.369 101.95C188.32 101.903 188.273 101.853 188.23 101.801C188.188 101.75 188.151 101.696 188.116 101.641C188.083 101.586 188.054 101.53 188.029 101.472L187.343 100.16L186.969 100.206L186.796 99.8734L187.17 99.8275L186.936 99.3797L187.29 99.197Z" fill="#5E5E5E"/>
<path d="M187.03 102.409L185.773 99.9963L186.214 99.9429L187.472 102.354L187.03 102.409Z" fill="#5E5E5E"/>
<path d="M55.0234 72.6849L49.207 73.1764L48.021 70.0658L48.8306 68.9353L55.4675 68.3978L56.392 70.7657C56.4814 70.9848 56.517 71.222 56.4957 71.4581C56.4748 71.6719 56.3982 71.876 56.2737 72.0501C56.1416 72.2318 55.9678 72.3793 55.7671 72.4797C55.619 72.5556 55.4613 72.6111 55.2983 72.6443C55.2076 72.6635 55.1158 72.6774 55.0234 72.6849ZM44.1421 73.606L42.9099 70.3223L41.1214 69.274L39.4783 64.8758L40.3984 63.6277L39.195 60.4209L43.7626 60.0886L44.9787 63.2836L46.7522 64.3212L48.4212 68.6895L47.5165 69.9515L48.7585 73.2149L44.1421 73.606ZM37.7551 74.1456C37.462 74.1691 37.1672 74.1456 36.8817 74.0751C36.597 74.0067 36.3235 73.8988 36.0698 73.7534C35.8237 73.6124 35.6006 73.435 35.4085 73.2266C35.226 73.03 35.0831 72.8003 34.9878 72.5492L34.1039 70.1289L40.9113 69.5764L42.5187 70.5167L43.6929 73.6455L37.7551 74.1456ZM48.8229 68.5463L47.2313 64.3875L53.7059 63.8895L55.3199 68.0238L48.8229 68.5463ZM33.9635 69.7442L32.4227 65.5244L39.0664 65.0147L40.6306 69.2078L33.9635 69.7442ZM47.0876 64.0135L46.9517 64.0241L45.365 63.0977L44.2064 60.0566L49.9682 59.6366C50.2501 59.6184 50.5331 59.6452 50.8068 59.7157C51.0815 59.7841 51.3451 59.8909 51.5904 60.032C51.8285 60.1688 52.0451 60.3397 52.2334 60.5396C52.4121 60.7276 52.5541 60.9488 52.6517 61.1892L53.5622 63.5209L47.0876 64.0135ZM32.2844 65.1451L31.4162 62.7686C31.3333 62.5495 31.3058 62.3134 31.3363 62.0804C31.3663 61.8678 31.452 61.6658 31.5846 61.4959C31.7265 61.3164 31.9077 61.1732 32.1143 61.076C32.3543 60.9638 32.6136 60.8975 32.8783 60.8804L38.7473 60.453L39.8926 63.5102L39.0615 64.6247L32.2844 65.1451Z" fill="url(#paint8_linear_893_2454)"/>
<path d="M56.8307 70.7294L56.3136 69.4065L53.0885 61.1561C52.9694 60.8644 52.797 60.5973 52.5801 60.3675C52.3515 60.1249 52.0883 59.9166 51.7986 59.7509C51.5008 59.5778 51.1804 59.4475 50.8465 59.3641C50.5139 59.2786 50.1698 59.2466 49.8271 59.268L32.7386 60.5064C32.4773 60.5235 32.2201 60.5791 31.9752 60.6721C31.7599 60.7533 31.5605 60.8719 31.3859 61.0215C31.2258 61.1604 31.0948 61.3292 31.0007 61.5184C30.9084 61.7075 30.8571 61.9148 30.8499 62.1242C30.8477 62.1798 30.8484 62.2343 30.852 62.2888C30.8557 62.3444 30.8621 62.3999 30.8711 62.4555C30.8802 62.51 30.8926 62.5688 30.9074 62.6265C30.9221 62.6842 30.9408 62.7419 30.9622 62.8006L33.8887 70.8256L34.5296 72.5833C34.6446 72.889 34.8178 73.17 35.0398 73.4093C35.2731 73.6626 35.5441 73.8784 35.8433 74.0494C36.1521 74.2279 36.485 74.3614 36.8317 74.4448C37.1793 74.5303 37.5383 74.5591 37.895 74.5303L46.6154 73.7887L55.1681 73.061C55.4836 73.0385 55.7914 72.9541 56.074 72.812C56.3178 72.6891 56.5285 72.5096 56.6888 72.2884C56.8398 72.0758 56.9325 71.8279 56.9577 71.5682C56.9823 71.2829 56.9388 70.9955 56.8307 70.7294ZM53.7043 63.8895L55.3183 68.0227L48.8214 68.5463L47.2296 64.3864L53.7043 63.8895ZM49.9669 59.6366C50.2489 59.6184 50.5319 59.6452 50.8056 59.7146C51.0802 59.7841 51.3439 59.8909 51.589 60.0331C51.8273 60.1698 52.0441 60.3408 52.2322 60.5406C52.4108 60.7298 52.5526 60.9499 52.6504 61.1903L53.5609 63.5219L47.0867 64.0135L46.9507 64.0241L45.364 63.0977L44.205 60.0566L49.9671 59.6366M31.4147 62.7686C31.3319 62.5495 31.3044 62.3134 31.3347 62.0804C31.365 61.8678 31.4506 61.6658 31.5832 61.4959C31.725 61.3175 31.9064 61.1743 32.113 61.077C32.353 60.9638 32.6123 60.8975 32.877 60.8815L38.7458 60.4541L39.8912 63.5112L39.0622 64.6257L32.2826 65.144L31.4143 62.7675M32.4209 65.5233L39.0646 65.0136L40.6287 69.2067L33.9619 69.7431L32.4211 65.5244M37.7538 74.1456C37.4607 74.1691 37.1657 74.1445 36.8802 74.0751C36.5951 74.0056 36.3215 73.8966 36.0676 73.7502C35.8215 73.6092 35.5984 73.4318 35.4063 73.2234C35.2238 73.0268 35.0811 72.7971 34.9856 72.5459L34.1017 70.1256L40.9095 69.5753L42.5168 70.5146L43.6911 73.6434L37.7573 74.1456M44.1439 73.6049L42.9116 70.3212L41.1232 69.274L39.48 64.8758L40.4002 63.6277L39.1972 60.4209L43.7643 60.0875L44.9809 63.2836L46.7539 64.3212L48.4234 68.6884L47.5187 69.9515L48.7606 73.2149L44.1439 73.6049ZM56.4968 71.4581C56.4757 71.6708 56.3991 71.8749 56.2745 72.0491C56.1424 72.2307 55.9687 72.3782 55.768 72.4786C55.536 72.5962 55.283 72.6656 55.0238 72.6849L49.2076 73.1764L48.0215 70.0647L48.8311 68.9353L55.4664 68.3978L56.391 70.7668C56.4803 70.9858 56.5159 71.2231 56.4947 71.4581" fill="#A6A6A6"/>
<defs>
<filter id="filter0_i_893_2454" x="72.0205" y="0" width="203.98" height="111.452" filterUnits="userSpaceOnUse" color-interpolation-filters="sRGB">
<feFlood flood-opacity="0" result="BackgroundImageFix"/>
<feBlend mode="normal" in="SourceGraphic" in2="BackgroundImageFix" result="shape"/>
<feColorMatrix in="SourceAlpha" type="matrix" values="0 0 0 0 0 0 0 0 0 0 0 0 0 0 0 0 0 0 127 0" result="hardAlpha"/>
<feOffset dx="-2" dy="4"/>
<feGaussianBlur stdDeviation="2"/>
<feComposite in2="hardAlpha" operator="arithmetic" k2="-1" k3="1"/>
<feColorMatrix type="matrix" values="0 0 0 0 0 0 0 0 0 0 0 0 0 0 0 0 0 0 0.1 0"/>
<feBlend mode="normal" in2="shape" result="effect1_innerShadow_893_2454"/>
</filter>
<linearGradient id="paint0_linear_893_2454" x1="158.81" y1="26.0612" x2="413.461" y2="99.7649" gradientUnits="userSpaceOnUse">
<stop/>
<stop offset="1" stop-color="#707071"/>
</linearGradient>
<linearGradient id="paint1_linear_893_2454" x1="94.1764" y1="-14.2237" x2="220.99" y2="149.923" gradientUnits="userSpaceOnUse">
<stop stop-color="#626262"/>
<stop offset="1" stop-color="#424243"/>
</linearGradient>
<linearGradient id="paint2_linear_893_2454" x1="190.89" y1="-20.6138" x2="70.1134" y2="156.104" gradientUnits="userSpaceOnUse">
<stop stop-color="#3D3D3F"/>
<stop offset="1"/>
</linearGradient>
<linearGradient id="paint3_linear_893_2454" x1="133.956" y1="58.458" x2="91.033" y2="29.2919" gradientUnits="userSpaceOnUse">
<stop stop-color="#CBCBCB"/>
<stop offset="1" stop-color="#666666"/>
</linearGradient>
<linearGradient id="paint4_linear_893_2454" x1="86.5349" y1="14.2307" x2="110.007" y2="125.176" gradientUnits="userSpaceOnUse">
<stop stop-color="#F2F2F2"/>
<stop offset="1" stop-color="#FAFAFA"/>
</linearGradient>
<linearGradient id="paint5_linear_893_2454" x1="-0.229296" y1="53.3759" x2="67.9841" y2="154.769" gradientUnits="userSpaceOnUse">
<stop stop-color="#7B7B7B"/>
<stop offset="1"/>
</linearGradient>
<linearGradient id="paint6_linear_893_2454" x1="176.632" y1="115.57" x2="166.575" y2="80.928" gradientUnits="userSpaceOnUse">
<stop stop-color="#1E1E20"/>
<stop offset="1" stop-color="#D8D8D8"/>
</linearGradient>
<linearGradient id="paint7_linear_893_2454" x1="98.4583" y1="31.5698" x2="95.4637" y2="171.757" gradientUnits="userSpaceOnUse">
<stop stop-color="#FBFBFB"/>
<stop offset="1" stop-color="#E5E5E5"/>
</linearGradient>
<linearGradient id="paint8_linear_893_2454" x1="53.6387" y1="76.9303" x2="41.5985" y2="53.8435" gradientUnits="userSpaceOnUse">
<stop stop-color="#D2D2D2"/>
<stop offset="1" stop-color="#F2F2F2"/>
</linearGradient>
</defs>
</svg>
