<svg xmlns="http://www.w3.org/2000/svg" width="300" height="52" viewBox="0 0 300 52" fill="currentColor">
    <path fill-rule="evenodd" clip-rule="evenodd" d="M68.9,23.5c-2.9-1-4.1-1.7-4.1-2.5c0-0.8,0.6-1.5,2.7-1.5c1.8,0,3.6,0.4,5.2,1.2l1.1-4.6
	c-1.6-0.7-3.4-1.1-5.2-1.1V12h-3.9v3.2c-3.9,0.8-6.1,3.3-6.1,6.4c0,3.5,2.7,5.2,6.4,6.4c2.6,0.8,3.6,1.4,3.6,2.5
	c0,1.1-1.2,1.6-3,1.6c-2.1,0-4.2-0.6-6-1.5l-1.1,4.8c1.9,0.9,4,1.4,6.1,1.4v3.2h3.9v-3.5c4.1-0.7,6.4-3.4,6.4-6.6
	C74.9,26.8,73.3,24.9,68.9,23.5z M30.6,32.8c-1.3,0.6-2.7,0.9-4.1,0.9c-1.8,0-3.5-0.6-4.7-1.9c-0.6-0.7-1-1.6-1.2-2.5h9.1v-2.6h-9.6
	v-0.6c0-0.4,0-0.8,0-1.1h9.6v-2.6h-9c0.2-0.9,0.6-1.7,1.2-2.4c1.1-1.3,2.7-2,4.5-1.9c1.4,0,2.7,0.3,4,0.9l1-4.1
	c-1.7-0.7-3.6-1.1-5.4-1.1c-3.2-0.1-6.3,1.3-8.4,3.7c-1.2,1.4-2.1,3.1-2.5,4.9h-2.4v2.6h2c0,0.4,0,0.7,0,1.1v0.6h-2v2.6h2.3
	c0.3,1.7,1,3.3,2,4.7c2,2.7,5.3,4.1,8.9,4.1c2,0,3.9-0.5,5.7-1.4L30.6,32.8z M5.9,26c0,10.1,8.2,18.4,18.4,18.4l0,0
	c10.1,0,18.4-8.2,18.4-18.4c0-10.1-8.2-18.4-18.4-18.4l0,0C14.2,7.6,6,15.9,5.9,26z M0,26C0,12.6,10.9,1.7,24.3,1.7
	S48.6,12.6,48.6,26l0,0c0,13.4-10.9,24.3-24.3,24.3S0,39.4,0,26z M88.8,26c0,13.4-10.9,24.3-24.3,24.3c-6.7,0-13-2.7-17.6-7.6
	c7.4-9.9,7.4-23.6,0-33.5c9.3-9.7,24.6-10.1,34.4-0.9C86,13,88.8,19.3,88.8,26z"/>
    <path fill-rule="evenodd" clip-rule="evenodd" d="M112.5,33.2c-0.6,0.3-1.2,0.4-1.8,0.6c-0.8,0.1-1.5,0.2-2.3,0.2c-0.8,0-1.7-0.1-2.5-0.4
	c-1.5-0.6-2.8-1.8-3.4-3.3c-0.3-0.9-0.5-1.9-0.5-2.8c0-1.2,0.2-2.3,0.7-3.4c0.5-1,1.2-1.8,2.2-2.3c1-0.6,2.1-0.9,3.3-0.8
	c0.8,0,1.6,0.1,2.4,0.2c0.6,0.1,1.1,0.3,1.6,0.5l1.1-5.4c-0.5-0.2-1.1-0.4-1.7-0.5c-0.6-0.1-1.3-0.2-1.9-0.3
	c-0.6-0.1-1.3-0.1-1.9-0.1c-1.9,0-3.9,0.3-5.7,1c-1.6,0.6-3,1.5-4.1,2.7c-1.1,1.1-2,2.5-2.5,3.9c-0.6,1.5-0.9,3.2-0.9,4.8
	c0,2.2,0.5,4.4,1.5,6.3c1,1.8,2.4,3.2,4.2,4.1c2,1,4.2,1.5,6.5,1.5c0.9,0,1.7,0,2.6-0.2c0.7-0.1,1.5-0.2,2.2-0.4
	c0.6-0.1,1.1-0.3,1.6-0.6L112.5,33.2z M122.6,39.1V15.8h-7.2v23.4H122.6z M119.1,5.7c-0.7,0-1.4,0.2-2,0.5c-0.6,0.3-1,0.7-1.3,1.3
	c-0.6,1.1-0.6,2.5,0,3.7c0.3,0.5,0.7,1,1.3,1.3c0.6,0.3,1.3,0.5,2,0.5c0.7,0,1.4-0.2,2.1-0.5c0.6-0.3,1-0.8,1.3-1.3
	c0.3-0.6,0.5-1.2,0.5-1.8c0-0.6-0.2-1.3-0.5-1.9c-0.3-0.5-0.7-1-1.3-1.3C120.5,5.8,119.8,5.6,119.1,5.7z M126.5,39.1h7.2V25.7
	c0-0.3,0-0.7,0-1c0-0.3,0.1-0.6,0.2-0.8c0.2-0.5,0.4-0.9,0.7-1.3c0.3-0.4,0.7-0.8,1.2-1c0.5-0.3,1.1-0.4,1.7-0.4
	c0.8,0,1.5,0.2,2.1,0.6c0.6,0.5,1,1.1,1.2,1.8c0.3,0.9,0.4,1.8,0.4,2.7v12.9h7.2V25.3c0-1.5-0.2-3-0.6-4.5c-0.3-1.2-0.9-2.2-1.7-3.1
	c-0.7-0.8-1.6-1.4-2.6-1.9c-1-0.4-2.2-0.6-3.3-0.6c-0.9,0-1.8,0.1-2.6,0.4c-1.3,0.4-2.6,1.2-3.6,2.2c-0.4,0.4-0.7,0.8-1,1.2h-0.1
	l-0.3-3.2h-6.2c0,1.1,0.1,2.2,0.1,3.4c0,1.2,0.1,2.6,0.1,4L126.5,39.1z M159.4,5.2h-7.2v34h7.2v-7.3l1.8-2.3l5.6,9.6h8.8l-9.4-13.9
	l8.3-9.5h-8.6l-4.7,7c-0.3,0.4-0.6,0.9-0.8,1.4c-0.3,0.5-0.6,1-0.8,1.5h-0.1L159.4,5.2z M191.8,33.2c-0.6,0.3-1.2,0.4-1.8,0.6
	c-0.8,0.1-1.5,0.2-2.3,0.2c-0.8,0-1.7-0.1-2.5-0.4c-1.5-0.6-2.8-1.8-3.4-3.3c-0.3-0.9-0.5-1.9-0.5-2.8c0-1.2,0.2-2.3,0.7-3.4
	c0.5-1,1.2-1.8,2.2-2.3c1-0.6,2.1-0.9,3.3-0.8c0.8,0,1.6,0.1,2.4,0.2c0.6,0.1,1.1,0.3,1.6,0.5l1.1-5.4c-0.5-0.2-1.1-0.4-1.7-0.5
	c-0.6-0.1-1.3-0.2-1.9-0.3c-0.6-0.1-1.3-0.1-1.9-0.1c-1.9,0-3.9,0.3-5.7,1c-1.6,0.6-3,1.5-4.1,2.7c-1.1,1.1-2,2.5-2.5,3.9
	c-0.6,1.5-0.9,3.2-0.9,4.8c0,2.2,0.5,4.4,1.5,6.3c1,1.8,2.4,3.2,4.2,4.1c2,1,4.2,1.5,6.5,1.5c0.9,0,1.7,0,2.6-0.2
	c0.7-0.1,1.5-0.2,2.2-0.4c0.6-0.1,1.1-0.3,1.6-0.6L191.8,33.2z M201.9,39.1V15.8h-7.2v23.4H201.9z M198.3,5.7c-0.7,0-1.4,0.2-2,0.5
	c-0.6,0.3-1,0.7-1.3,1.3c-0.6,1.1-0.6,2.5,0,3.7c0.3,0.5,0.7,1,1.3,1.3c0.6,0.3,1.3,0.5,2,0.5c0.7,0,1.4-0.2,2.1-0.5
	c0.6-0.3,1-0.8,1.3-1.3c0.3-0.6,0.5-1.2,0.5-1.8c0-0.6-0.2-1.3-0.5-1.9c-0.3-0.5-0.8-1-1.3-1.3C199.7,5.8,199,5.6,198.3,5.7z
	 M225,25.3c0-1.3-0.2-2.6-0.5-3.9c-0.3-1.2-0.9-2.3-1.7-3.2c-0.8-1-1.9-1.7-3.1-2.2c-1.5-0.6-3.2-0.8-4.8-0.8
	c-1.3,0-2.6,0.1-3.8,0.3c-1,0.2-2,0.5-3,0.8c-0.7,0.3-1.4,0.6-2.1,0.9l1.3,4.7c0.6-0.4,1.2-0.7,1.8-0.9c0.7-0.3,1.5-0.5,2.2-0.6
	c0.8-0.2,1.6-0.2,2.4-0.2c0.7,0,1.5,0.1,2.1,0.3c0.5,0.1,0.9,0.4,1.3,0.7c0.3,0.3,0.5,0.6,0.6,1c0.1,0.3,0.2,0.7,0.2,1v0.3
	c-1.9,0-3.7,0.2-5.6,0.5c-1.5,0.3-2.9,0.9-4.3,1.6c-1.1,0.7-2.1,1.6-2.7,2.8c-0.7,1.2-1,2.6-1,4c0,0.9,0.2,1.8,0.5,2.7
	c0.7,1.8,2.1,3.2,3.8,3.9c1,0.4,2.1,0.6,3.1,0.6c1.3,0,2.6-0.2,3.8-0.7c1.1-0.5,2.1-1.2,2.8-2.1h0.1l0.4,2.3h6.5
	c-0.1-0.5-0.2-1-0.2-1.5c-0.1-0.6-0.1-1.2-0.1-1.9c0-0.7,0-1.4,0-2.1L225,25.3z M218,30.6c0,0.2,0,0.4,0,0.6c0,0.2-0.1,0.4-0.1,0.6
	c-0.2,0.5-0.4,1-0.8,1.4c-0.4,0.4-0.8,0.7-1.3,1c-0.5,0.2-1.1,0.4-1.6,0.4c-0.5,0-1-0.1-1.4-0.3c-0.4-0.2-0.8-0.5-1-0.9
	c-0.3-0.5-0.4-1-0.4-1.5c0-0.8,0.3-1.6,0.9-2.2c0.7-0.6,1.5-1,2.4-1.2c1.1-0.2,2.3-0.4,3.4-0.3L218,30.6z M228.8,39.1h7.2V27.3
	c0-0.3,0-0.6,0-0.9c0-0.3,0.1-0.5,0.1-0.8c0.2-1.1,0.8-2,1.6-2.7c1-0.7,2.1-1,3.3-1c0.4,0,0.7,0,1.1,0.1c0.3,0,0.6,0.1,0.9,0.1v-6.8
	c-0.3,0-0.5-0.1-0.7-0.1c-0.3,0-0.5,0-0.8,0c-0.6,0-1.2,0.1-1.8,0.3c-0.6,0.2-1.2,0.5-1.8,0.9c-0.6,0.4-1.1,0.9-1.6,1.5
	c-0.5,0.7-0.9,1.4-1.2,2.2H235l-0.3-4.3h-6.1c0,0.7,0.1,1.4,0.1,2.1c0,0.8,0,1.6,0.1,2.5c0,0.9,0,1.9,0,3.1L228.8,39.1z M243.3,39.1
	h20.1v-5.8h-11.1v-0.1c0.7-0.6,1.3-1.3,1.9-2.1c0.6-0.7,1.2-1.5,1.9-2.2l6.9-8.8v-4.4h-18.9v5.8h10.1v0.1c-0.6,0.7-1.2,1.3-1.8,2
	s-1.2,1.4-1.8,2.1l-7.3,9.2V39.1z M267.8,39.6c0.6,0,1.3-0.1,1.8-0.5c0.5-0.3,0.9-0.7,1.2-1.2c0.3-0.6,0.4-1.2,0.4-1.8
	c0-0.7-0.2-1.3-0.5-1.9c-0.3-0.5-0.7-0.9-1.2-1.2c-0.5-0.3-1.1-0.5-1.7-0.4c-0.6,0-1.2,0.1-1.8,0.5c-0.5,0.3-0.9,0.7-1.2,1.2
	c-0.3,0.6-0.4,1.2-0.4,1.9c0,0.6,0.1,1.3,0.4,1.8c0.3,0.5,0.7,0.9,1.2,1.2C266.6,39.4,267.2,39.6,267.8,39.6L267.8,39.6z
	 M273.2,46.7h5.7v-9.3h0.1c0.3,0.4,0.7,0.8,1.1,1.1c0.5,0.3,1,0.6,1.6,0.8c0.7,0.2,1.4,0.3,2.1,0.3c1.7,0,3.4-0.5,4.7-1.6
	c0.7-0.5,1.4-1.2,1.9-2c0.6-0.9,1-1.8,1.3-2.8c0.3-1.2,0.5-2.4,0.5-3.7c0-1.4-0.2-2.7-0.6-4c-0.4-1.1-0.9-2.1-1.7-3
	c-0.7-0.8-1.5-1.4-2.4-1.9c-0.9-0.4-1.9-0.7-2.9-0.6c-1.2,0-2.5,0.2-3.6,0.8c-1,0.5-1.9,1.3-2.6,2.2h-0.1l-0.3-2.6h-5
	c0,0.9,0.1,1.8,0.1,2.9c0,1,0,2.2,0,3.4L273.2,46.7z M278.9,28.5c0-0.2,0-0.4,0-0.5c0.1-0.7,0.4-1.4,0.8-2c0.3-0.4,0.7-0.8,1.2-1
	c0.5-0.3,1-0.4,1.5-0.4c0.8,0,1.5,0.2,2.2,0.7c0.6,0.5,1,1.1,1.3,1.9c0.3,0.9,0.5,1.8,0.4,2.7c0,0.9-0.1,1.9-0.5,2.8
	c-0.3,0.7-0.7,1.4-1.4,1.8c-0.6,0.4-1.4,0.7-2.1,0.7c-0.5,0-1.1-0.1-1.5-0.4c-0.5-0.2-0.9-0.6-1.2-1c-0.3-0.4-0.5-0.9-0.7-1.4
	c0-0.2-0.1-0.4-0.1-0.6c0-0.2,0-0.4,0-0.6L278.9,28.5z M294.3,39.1h5.7V12h-5.7V39.1z"/>
</svg>
