<svg xmlns="http://www.w3.org/2000/svg" width="300" height="168" viewBox="0 0 300 168" fill="currentColor">
<path fill-rule="evenodd" clip-rule="evenodd" d="M285.9,38.1c-25.2-37.7-76.3-47.8-114-21.8c-5,3.4-9.2,6.7-13.4,10.9c0,0.8,0.8,0.8,0.8,1.7
	c23.5,35.2,22.6,79.6,0,113.2c27.7,27.7,71.3,33.5,104.8,10.1C301.8,127,311,75.9,285.9,38.1z M231.4,119.5v11.7H218v-10.9
	c-8.4,0-15.9-2.5-21-5l4.2-15.9c5,2.5,12.6,5,20.1,5c5.9,0,10.1-1.7,10.1-5c0-3.4-3.4-5.9-11.7-8.4c-12.6-4.2-21.8-10.1-21.8-21.8
	c0-10.9,7.5-19.3,21-21.8V36.5h13.4v10.1c8.4,0,13.4,1.7,17.6,3.4l-4.2,15.9c-3.4-0.8-8.4-4.2-17.6-4.2c-6.7,0-9.2,2.5-9.2,5
	c0,3.4,4.2,5,13.4,8.4c15.1,5,20.1,11.7,20.1,21.8C253.2,107.7,245.6,116.9,231.4,119.5z M103.1,106.9c-2.5,1.7-8.4,3.4-14.3,3.4
	c-5.9,0-11.7-1.7-15.9-6.7c-1.7-1.7-3.4-5-4.2-8.4h31.9v-8.4H67.9v-1.7v-3.4h32.7v-8.4h-31c0.8-5,2.5-7.5,4.2-9.2
	c3.4-5,9.2-6.7,15.1-6.7c5,0,10.1,1.7,13.4,3.4l3.4-14.3c-4.2-1.7-10.9-3.4-18.4-3.4c-11.7,0-21,5-28.5,12.6
	c-4.2,4.2-6.7,10.1-8.4,16.8h-8.4v8.4h6.7v5h-5.9v8.4h7.5C52,101,53.6,106,57,110.2c6.7,9.2,17.6,14.3,30.2,14.3
	c7.5,0,15.1-2.5,19.3-5C106.5,119.5,103.1,106.9,103.1,106.9z M20.1,83.4c0,34.4,27.7,62,62,62s62-27.7,62-62s-27.7-62-62-62
	S20.1,49.9,20.1,83.4z M0,83.4C0,38.1,36.9,1.2,82.2,1.2s82.2,36.9,82.2,82.2s-36.9,82.2-82.2,82.2C36.9,166.4,0,129.5,0,83.4z"/>
</svg>
